<svg width="1920" height="44" viewBox="0 0 1920 44" fill="none" xmlns="http://www.w3.org/2000/svg">
<path opacity="0.2" d="M-10.4216 42.8401H-12.1016L10.7383 20.0001H12.4185L-10.4216 42.8401Z" fill="white"/>
<path opacity="0.2" d="M6.55835 42.8401H4.87842L27.7183 20.0001H29.3984L6.55835 42.8401Z" fill="white"/>
<path opacity="0.2" d="M23.5383 42.8401H21.8584L44.6985 20.0001H46.3784L23.5383 42.8401Z" fill="white"/>
<path opacity="0.2" d="M40.5198 42.8401H38.8398L61.6799 20.0001H63.3599L40.5198 42.8401Z" fill="white"/>
<path opacity="0.2" d="M57.5002 42.8401H55.8203L78.6604 20.0001H80.3403L57.5002 42.8401Z" fill="white"/>
<path opacity="0.2" d="M74.478 42.8401H72.7881L95.6382 20.0001H97.3181L74.478 42.8401Z" fill="white"/>
<path opacity="0.2" d="M91.4497 42.8401H89.7695L112.62 20.0001H114.3L91.4497 42.8401Z" fill="white"/>
<path opacity="0.2" d="M108.43 42.8401H106.75L129.6 20.0001H131.28L108.43 42.8401Z" fill="white"/>
<path opacity="0.2" d="M125.407 42.8401H123.727L146.577 20.0001H148.257L125.407 42.8401Z" fill="white"/>
<path opacity="0.2" d="M142.387 42.8401H140.707L163.557 20.0001H165.237L142.387 42.8401Z" fill="white"/>
<path opacity="0.2" d="M159.368 42.8401H157.688L180.538 20.0001H182.218L159.368 42.8401Z" fill="white"/>
<path opacity="0.2" d="M176.348 42.8401H174.668L197.518 20.0001H199.198L176.348 42.8401Z" fill="white"/>
<path opacity="0.2" d="M193.328 42.8401H191.648L214.498 20.0001H216.178L193.328 42.8401Z" fill="white"/>
<path opacity="0.2" d="M210.308 42.8401H208.628L231.468 20.0001H233.158L210.308 42.8401Z" fill="white"/>
<path opacity="0.2" d="M227.288 42.8401H225.608L248.448 20.0001H250.128L227.288 42.8401Z" fill="white"/>
<path opacity="0.2" d="M244.27 42.8401H242.59L265.43 20.0001H267.11L244.27 42.8401Z" fill="white"/>
<path opacity="0.2" d="M261.25 42.8401H259.57L282.41 20.0001H284.09L261.25 42.8401Z" fill="white"/>
<path opacity="0.2" d="M278.227 42.8401H276.547L299.387 20.0001H301.067L278.227 42.8401Z" fill="white"/>
<path opacity="0.2" d="M295.208 42.8401H293.528L316.368 20.0001H318.048L295.208 42.8401Z" fill="white"/>
<path opacity="0.2" d="M312.19 42.8401H310.5L333.35 20.0001H335.03L312.19 42.8401Z" fill="white"/>
<path opacity="0.2" d="M329.157 42.8401H327.477L350.327 20.0001H352.007L329.157 42.8401Z" fill="white"/>
<path opacity="0.2" d="M346.137 42.8401H344.457L367.307 20.0001H368.987L346.137 42.8401Z" fill="white"/>
<path opacity="0.2" d="M363.118 42.8401H361.438L384.288 20.0001H385.968L363.118 42.8401Z" fill="white"/>
<path opacity="0.2" d="M380.098 42.8401H378.418L401.268 20.0001H402.948L380.098 42.8401Z" fill="white"/>
<path opacity="0.2" d="M397.078 42.8401H395.398L418.248 20.0001H419.928L397.078 42.8401Z" fill="white"/>
<path opacity="0.2" d="M414.058 42.8401H412.378L435.228 20.0001H436.908L414.058 42.8401Z" fill="white"/>
<path opacity="0.2" d="M431.038 42.8401H429.358L452.198 20.0001H453.888L431.038 42.8401Z" fill="white"/>
<path opacity="0.2" d="M448.02 42.8401H446.34L469.18 20.0001H470.87L448.02 42.8401Z" fill="white"/>
<path opacity="0.2" d="M465 42.8401H463.32L486.16 20.0001H487.85L465 42.8401Z" fill="white"/>
<path opacity="0.2" d="M481.977 42.8401H480.297L503.137 20.0001H504.817L481.977 42.8401Z" fill="white"/>
<path opacity="0.2" d="M498.958 42.8401H497.278L520.118 20.0001H521.798L498.958 42.8401Z" fill="white"/>
<path opacity="0.2" d="M515.938 42.8401H514.258L537.098 20.0001H538.778L515.938 42.8401Z" fill="white"/>
<path opacity="0.2" d="M532.918 42.8401H531.238L554.078 20.0001H555.758L532.918 42.8401Z" fill="white"/>
<path opacity="0.2" d="M549.898 42.8401H548.218L571.058 20.0001H572.738L549.898 42.8401Z" fill="white"/>
<path opacity="0.2" d="M566.878 42.8401H565.198L588.038 20.0001H589.718L566.878 42.8401Z" fill="white"/>
<path opacity="0.2" d="M583.848 42.8401H582.168L605.018 20.0001H606.698L583.848 42.8401Z" fill="white"/>
<path opacity="0.2" d="M600.828 42.8401H599.148L621.998 20.0001H623.678L600.828 42.8401Z" fill="white"/>
<path opacity="0.2" d="M617.808 42.8401H616.128L638.978 20.0001H640.658L617.808 42.8401Z" fill="white"/>
<path opacity="0.2" d="M634.788 42.8401H633.108L655.958 20.0001H657.638L634.788 42.8401Z" fill="white"/>
<path opacity="0.2" d="M651.77 42.8401H650.09L672.94 20.0001H674.62L651.77 42.8401Z" fill="white"/>
<path opacity="0.2" d="M668.75 42.8401H667.07L689.91 20.0001H691.6L668.75 42.8401Z" fill="white"/>
<path opacity="0.2" d="M685.727 42.8401H684.047L706.887 20.0001H708.577L685.727 42.8401Z" fill="white"/>
<path opacity="0.2" d="M702.708 42.8401H701.028L723.868 20.0001H725.558L702.708 42.8401Z" fill="white"/>
<path opacity="0.2" d="M719.688 42.8401H718.008L740.848 20.0001H742.528L719.688 42.8401Z" fill="white"/>
<path opacity="0.2" d="M736.668 42.8401H734.988L757.828 20.0001H759.508L736.668 42.8401Z" fill="white"/>
<path opacity="0.2" d="M753.648 42.8401H751.968L774.808 20.0001H776.488L753.648 42.8401Z" fill="white"/>
<path opacity="0.2" d="M770.628 42.8401H768.948L791.788 20.0001H793.468L770.628 42.8401Z" fill="white"/>
<path opacity="0.2" d="M787.61 42.8401H785.93L808.77 20.0001H810.45L787.61 42.8401Z" fill="white"/>
<path opacity="0.2" d="M804.59 42.8401H802.91L825.75 20.0001H827.43L804.59 42.8401Z" fill="white"/>
<path opacity="0.2" d="M821.558 42.8401H819.878L842.728 20.0001H844.408L821.558 42.8401Z" fill="white"/>
<path opacity="0.2" d="M838.538 42.8401H836.858L859.708 20.0001H861.388L838.538 42.8401Z" fill="white"/>
<path opacity="0.2" d="M855.52 42.8401H853.84L876.69 20.0001H878.37L855.52 42.8401Z" fill="white"/>
<path opacity="0.2" d="M872.5 42.8401H870.82L893.67 20.0001H895.35L872.5 42.8401Z" fill="white"/>
<path opacity="0.2" d="M889.477 42.8401H887.797L910.647 20.0001H912.327L889.477 42.8401Z" fill="white"/>
<path opacity="0.2" d="M906.458 42.8401H904.778L927.628 20.0001H929.308L906.458 42.8401Z" fill="white"/>
<path opacity="0.2" d="M923.438 42.8401H921.758L944.598 20.0001H946.288L923.438 42.8401Z" fill="white"/>
<path opacity="0.2" d="M940.418 42.8401H938.738L961.578 20.0001H963.268L940.418 42.8401Z" fill="white"/>
<path opacity="0.2" d="M957.398 42.8401H955.718L978.558 20.0001H980.238L957.398 42.8401Z" fill="white"/>
<path opacity="0.2" d="M974.378 42.8401H972.698L995.538 20.0001H997.218L974.378 42.8401Z" fill="white"/>
<path opacity="0.2" d="M991.36 42.8401H989.68L1012.52 20.0001H1014.2L991.36 42.8401Z" fill="white"/>
<path opacity="0.2" d="M1008.34 42.8401H1006.66L1029.5 20.0001H1031.18L1008.34 42.8401Z" fill="white"/>
<path opacity="0.2" d="M1025.32 42.8401H1023.64L1046.48 20.0001H1048.16L1025.32 42.8401Z" fill="white"/>
<path opacity="0.2" d="M1042.3 42.8401H1040.62L1063.46 20.0001H1065.14L1042.3 42.8401Z" fill="white"/>
<path opacity="0.2" d="M1059.27 42.8401H1057.6L1080.44 20.0001H1082.12L1059.27 42.8401Z" fill="white"/>
<path opacity="0.2" d="M1076.25 42.8401H1074.57L1097.42 20.0001H1099.1L1076.25 42.8401Z" fill="white"/>
<path opacity="0.2" d="M1093.23 42.8401H1091.55L1114.4 20.0001H1116.08L1093.23 42.8401Z" fill="white"/>
<path opacity="0.2" d="M1110.21 42.8401H1108.53L1131.38 20.0001H1133.06L1110.21 42.8401Z" fill="white"/>
<path opacity="0.2" d="M464.387 42.8499H378.387L388.777 32.4698H474.777L464.387 42.8499Z" fill="white"/>
<path opacity="0.2" d="M882.898 31.3801H796.898L807.288 21.0001H893.288L882.898 31.3801Z" fill="white"/>
<path opacity="0.2" d="M497.917 42.8499H481.297L491.677 32.4698H508.297L497.917 42.8499Z" fill="white"/>
<path opacity="0.2" d="M68.9683 30.3801H-12.1016V20.0001H79.0884V20.2802L68.9683 30.3801Z" fill="white"/>
<path opacity="0.2" d="M1120.09 32.4602H1133.09V42.8402H1109.69L1120.09 32.4602Z" fill="white"/>
<path opacity="0.2" d="M1134.58 43.8401H1132.9L1155.74 21.0001H1157.42L1134.58 43.8401Z" fill="white"/>
<path opacity="0.2" d="M1151.56 43.8401H1149.88L1172.72 21.0001H1174.4L1151.56 43.8401Z" fill="white"/>
<path opacity="0.2" d="M1168.54 43.8401H1166.86L1189.7 21.0001H1191.38L1168.54 43.8401Z" fill="white"/>
<path opacity="0.2" d="M1185.52 43.8401H1183.84L1206.68 21.0001H1208.36L1185.52 43.8401Z" fill="white"/>
<path opacity="0.2" d="M1202.5 43.8401H1200.82L1223.66 21.0001H1225.34L1202.5 43.8401Z" fill="white"/>
<path opacity="0.2" d="M1219.48 43.8401H1217.79L1240.64 21.0001H1242.32L1219.48 43.8401Z" fill="white"/>
<path opacity="0.2" d="M1236.45 43.8401H1234.77L1257.62 21.0001H1259.3L1236.45 43.8401Z" fill="white"/>
<path opacity="0.2" d="M1253.43 43.8401H1251.75L1274.6 21.0001H1276.28L1253.43 43.8401Z" fill="white"/>
<path opacity="0.2" d="M1270.41 43.8401H1268.73L1291.58 21.0001H1293.26L1270.41 43.8401Z" fill="white"/>
<path opacity="0.2" d="M1287.39 43.8401H1285.71L1308.56 21.0001H1310.24L1287.39 43.8401Z" fill="white"/>
<path opacity="0.2" d="M1304.37 43.8401H1302.69L1325.54 21.0001H1327.22L1304.37 43.8401Z" fill="white"/>
<path opacity="0.2" d="M1321.35 43.8401H1319.67L1342.52 21.0001H1344.2L1321.35 43.8401Z" fill="white"/>
<path opacity="0.2" d="M1338.33 43.8401H1336.65L1359.5 21.0001H1361.18L1338.33 43.8401Z" fill="white"/>
<path opacity="0.2" d="M1355.31 43.8401H1353.63L1376.47 21.0001H1378.16L1355.31 43.8401Z" fill="white"/>
<path opacity="0.2" d="M1372.29 43.8401H1370.61L1393.45 21.0001H1395.13L1372.29 43.8401Z" fill="white"/>
<path opacity="0.2" d="M1389.27 43.8401H1387.59L1410.43 21.0001H1412.11L1389.27 43.8401Z" fill="white"/>
<path opacity="0.2" d="M1406.25 43.8401H1404.57L1427.41 21.0001H1429.09L1406.25 43.8401Z" fill="white"/>
<path opacity="0.2" d="M1423.23 43.8401H1421.55L1444.39 21.0001H1446.07L1423.23 43.8401Z" fill="white"/>
<path opacity="0.2" d="M1440.21 43.8401H1438.53L1461.37 21.0001H1463.05L1440.21 43.8401Z" fill="white"/>
<path opacity="0.2" d="M1457.19 43.8401H1455.5L1478.35 21.0001H1480.03L1457.19 43.8401Z" fill="white"/>
<path opacity="0.2" d="M1474.16 43.8401H1472.48L1495.33 21.0001H1497.01L1474.16 43.8401Z" fill="white"/>
<path opacity="0.2" d="M1491.14 43.8401H1489.46L1512.31 21.0001H1513.99L1491.14 43.8401Z" fill="white"/>
<path opacity="0.2" d="M1508.12 43.8401H1506.44L1529.29 21.0001H1530.97L1508.12 43.8401Z" fill="white"/>
<path opacity="0.2" d="M1525.1 43.8401H1523.42L1546.27 21.0001H1547.95L1525.1 43.8401Z" fill="white"/>
<path opacity="0.2" d="M1542.08 43.8401H1540.4L1563.25 21.0001H1564.93L1542.08 43.8401Z" fill="white"/>
<path opacity="0.2" d="M1559.06 43.8401H1557.38L1580.23 21.0001H1581.91L1559.06 43.8401Z" fill="white"/>
<path opacity="0.2" d="M1576.04 43.8401H1574.36L1597.2 21.0001H1598.89L1576.04 43.8401Z" fill="white"/>
<path opacity="0.2" d="M1593.02 43.8401H1591.34L1614.18 21.0001H1615.87L1593.02 43.8401Z" fill="white"/>
<path opacity="0.2" d="M1610 43.8401H1608.32L1631.16 21.0001H1632.85L1610 43.8401Z" fill="white"/>
<path opacity="0.2" d="M1626.98 43.8401H1625.3L1648.14 21.0001H1649.82L1626.98 43.8401Z" fill="white"/>
<path opacity="0.2" d="M1643.96 43.8401H1642.28L1665.12 21.0001H1666.8L1643.96 43.8401Z" fill="white"/>
<path opacity="0.2" d="M1660.94 43.8401H1659.26L1682.1 21.0001H1683.78L1660.94 43.8401Z" fill="white"/>
<path opacity="0.2" d="M1677.92 43.8401H1676.24L1699.08 21.0001H1700.76L1677.92 43.8401Z" fill="white"/>
<path opacity="0.2" d="M1694.9 43.8401H1693.22L1716.06 21.0001H1717.74L1694.9 43.8401Z" fill="white"/>
<path opacity="0.2" d="M1711.88 43.8401H1710.2L1733.04 21.0001H1734.72L1711.88 43.8401Z" fill="white"/>
<path opacity="0.2" d="M1728.85 43.8401H1727.17L1750.02 21.0001H1751.7L1728.85 43.8401Z" fill="white"/>
<path opacity="0.2" d="M1745.83 43.8401H1744.15L1767 21.0001H1768.68L1745.83 43.8401Z" fill="white"/>
<path opacity="0.2" d="M1762.81 43.8401H1761.13L1783.98 21.0001H1785.66L1762.81 43.8401Z" fill="white"/>
<path opacity="0.2" d="M1779.79 43.8401H1778.11L1800.96 21.0001H1802.64L1779.79 43.8401Z" fill="white"/>
<path opacity="0.2" d="M1796.77 43.8401H1795.09L1817.94 21.0001H1819.62L1796.77 43.8401Z" fill="white"/>
<path opacity="0.2" d="M1813.75 43.8401H1812.07L1834.91 21.0001H1836.6L1813.75 43.8401Z" fill="white"/>
<path opacity="0.2" d="M1830.73 43.8401H1829.05L1851.89 21.0001H1853.58L1830.73 43.8401Z" fill="white"/>
<path opacity="0.2" d="M1847.71 43.8401H1846.03L1868.87 21.0001H1870.56L1847.71 43.8401Z" fill="white"/>
<path opacity="0.2" d="M1864.69 43.8401H1863.01L1885.85 21.0001H1887.53L1864.69 43.8401Z" fill="white"/>
<path opacity="0.2" d="M1881.67 43.8401H1879.99L1902.83 21.0001H1904.51L1881.67 43.8401Z" fill="white"/>
<path opacity="0.2" d="M1898.65 43.8401H1896.97L1919.81 21.0001H1921.49L1898.65 43.8401Z" fill="white"/>
<path opacity="0.2" d="M1609.39 43.8499H1523.39L1533.78 33.4698H1619.78L1609.39 43.8499Z" fill="white"/>
<path opacity="0.2" d="M1892.9 31.3801H1806.9L1817.29 21.0001H1903.29L1892.9 31.3801Z" fill="white"/>
<path opacity="0.2" d="M1642.92 43.8499H1626.3L1636.68 33.4698H1653.3L1642.92 43.8499Z" fill="white"/>
<path opacity="0.2" d="M1353.97 31.3801H1272.9V21.0001H1364.09V21.2802L1353.97 31.3801Z" fill="white"/>
</svg>
