<svg width="123" height="118" viewBox="0 0 123 118" fill="none" xmlns="http://www.w3.org/2000/svg">
<path fill-rule="evenodd" clip-rule="evenodd" d="M117.477 84.1914C117.141 83.7662 117.141 83.426 117.309 82.8307C117.141 82.7457 116.972 82.6607 116.888 82.5756C116.72 82.4906 116.552 82.4906 116.3 82.4055C116.3 82.2355 116.384 82.0654 116.384 81.8953C116.384 81.3 115.627 80.4496 115.207 80.7898C114.282 81.3851 114.113 80.7898 113.777 80.3646C113.525 80.0244 113.188 79.7692 113.02 79.4291C112.6 78.5787 111.675 78.0684 111.338 77.0479C111.002 76.2825 110.329 75.6022 109.572 75.177C108.479 74.5817 107.47 73.9014 106.797 72.7958C106.545 72.4557 106.293 72.0304 105.956 71.7753C105.2 71.18 104.695 70.4997 105.031 69.4792C104.359 69.054 103.77 68.7138 103.265 68.2886C102.34 67.4382 101.163 66.8429 100.406 65.8224C99.8177 65.057 98.6404 64.8869 98.6404 63.6113C98.6404 63.5263 98.5563 63.4412 98.4722 63.4412C97.6313 62.6758 96.7904 61.8254 95.8654 61.1451C95.0245 60.4648 94.0154 59.9545 93.1744 59.3592C91.1562 57.8285 89.0539 56.3827 87.0357 54.767C88.2971 53.6614 89.3903 52.3858 89.979 50.5999C89.8949 50.5149 89.8108 50.5149 89.8108 50.4298C89.2221 51.0251 88.6335 51.6204 87.9607 52.3008C87.8766 52.2157 87.7926 52.1306 87.7085 52.0456C88.0448 51.7054 88.5494 51.4504 88.7176 51.0251C88.8858 50.5999 88.7176 49.9196 88.7176 49.4093C89.8949 49.4093 90.3153 48.3038 91.4085 48.3888C91.4926 48.3888 91.5767 48.2188 91.7449 48.0487C92.8381 46.8581 93.9313 45.6675 95.0245 44.4769C95.2767 44.1367 95.3608 43.6265 95.6131 43.2863C95.7813 43.0312 96.0336 42.7761 96.2859 42.7761C97.0427 42.7761 97.4631 42.4359 97.7995 41.9257C97.9677 41.6705 98.2199 41.5005 98.4722 41.2453C98.7245 41.5855 98.8927 41.8406 99.2291 42.2658C99.9859 41.3303 100.743 40.565 101.331 39.7145C101.668 39.2043 101.92 38.7791 102.845 38.9492C102.509 38.609 102.34 38.4389 102.256 38.3539C101.5 38.8641 100.911 39.2893 100.238 39.7145C100.154 39.3744 100.406 39.0342 100.406 38.9492C99.8177 38.0988 100.659 38.0137 100.911 37.7586C101.163 37.5035 101.668 37.3334 101.668 37.0783C101.752 36.3129 102.425 36.1428 102.845 35.8026C103.265 35.4625 103.602 34.7821 104.443 35.2073C104.611 35.2924 104.863 34.9522 105.115 34.8672C105.284 34.7822 105.452 34.6971 105.872 34.527C105.368 35.4625 104.695 36.0578 104.779 36.9932C105.115 36.7381 105.452 36.3129 105.704 35.9727C105.872 35.7176 105.956 35.4625 106.209 35.2924C107.05 34.7822 107.554 33.6766 108.731 33.6766C108.816 33.6766 108.9 33.5065 108.984 33.4215C109.825 32.2309 110.75 31.0403 111.422 29.7647C111.591 29.4245 111.591 28.7441 111.675 28.2339C111.759 27.9788 111.591 27.7237 111.591 27.4686C111.843 27.3835 112.011 27.3835 112.179 27.3835C112.095 27.1284 111.843 26.7882 111.927 26.6181C112.011 26.363 112.347 26.278 112.6 26.1929C112.011 25.4275 111.843 25.3425 111.338 25.8527C110.834 26.2779 110.413 26.7882 109.993 27.2134C109.741 27.4686 109.404 27.7236 108.9 27.3835C109.488 26.7031 110.077 26.1929 109.572 25.1724C110.077 25.1724 110.918 24.237 110.75 23.8118C110.329 22.9613 110.834 22.6212 111.17 22.196C111.002 21.9408 110.834 21.7708 110.666 21.5156C110.497 22.5361 110.329 22.6211 109.152 22.281C109.572 21.2605 109.993 20.325 110.413 19.3896C110.077 19.3896 109.825 19.4746 109.656 19.6447C108.816 20.5802 107.975 21.6007 107.218 22.6212C106.966 22.8763 106.797 23.2165 106.545 23.3866C106.461 23.4716 106.209 23.3865 106.04 23.4716C106.04 23.2165 105.872 22.9613 105.956 22.7913C106.125 22.5361 106.377 22.281 106.629 22.1109C106.629 22.1109 106.545 22.0259 106.545 21.9408C106.293 22.196 106.041 22.366 105.704 22.6212C104.947 21.6857 106.377 21.3455 105.872 20.325C105.452 20.4101 105.031 20.4101 104.527 20.4951C104.611 19.9849 104.695 19.8148 104.863 19.6447C105.284 19.2195 105.704 18.7943 106.125 18.284C106.545 17.8588 106.966 17.4336 106.966 16.6682C106.966 16.0729 107.47 15.5627 107.806 15.0524C107.891 14.7973 107.975 14.5422 107.975 14.2871C107.554 14.4572 107.302 14.7973 107.134 15.0524C106.209 16.5832 105.115 17.9439 103.77 19.1345C103.013 19.8148 102.172 20.4951 101.836 21.4306C101.415 22.366 100.743 22.8763 100.154 23.4716C99.9018 23.3015 99.6495 23.2164 99.4813 23.1314C99.7336 23.7267 99.7336 24.1519 99.3131 24.4921C98.9768 24.8323 98.7245 25.1724 98.3881 25.4275C97.9677 25.8527 97.6313 26.1929 97.2108 26.6181C96.8745 26.4481 96.6222 26.363 96.454 26.2779C95.6972 26.8732 95.1086 27.3835 94.4358 27.8087C93.679 28.404 93.0904 29.1694 92.9222 30.1899C92.8381 30.7002 92.5017 31.3804 92.0813 31.2104C90.7358 30.7852 90.6517 32.1458 89.8948 32.401C89.8107 32.401 89.8107 32.6561 89.8948 32.7412C90.7358 33.4215 89.979 33.5065 89.7267 33.8467C88.8017 35.1223 87.3721 35.8027 86.6153 37.2484C86.5312 37.4184 86.1948 37.6736 85.9426 37.6736C84.9335 37.6736 84.513 38.4389 84.1766 39.2043C83.4198 40.65 83.1675 40.9051 81.4856 41.3304C81.4016 41.3304 81.3175 41.3303 81.3175 41.4154C80.7289 42.0107 80.1402 42.606 79.6357 43.2013C79.4675 43.3714 79.5515 43.8816 79.5515 44.3918C79.4675 44.4769 79.2993 44.9021 78.9629 44.9871C78.0379 45.2423 77.8697 46.1778 77.197 46.7731C76.8606 47.0282 76.5243 47.4533 76.272 47.7935C76.1879 47.7085 76.1038 47.6234 76.0197 47.5384C75.7674 47.2833 75.5151 47.1132 75.347 46.8581C75.5151 46.688 75.6833 46.5179 75.7674 46.3478C75.8515 46.4329 76.0197 46.4328 76.1038 46.5179C76.1879 46.4328 76.272 46.3478 76.272 46.2628C76.1879 46.1777 76.1038 46.1777 76.0197 46.0927C76.6924 45.3273 77.2811 44.562 77.6174 43.6265C77.6174 43.5415 77.7015 43.5414 77.7856 43.4564C79.2993 42.606 79.972 40.8201 81.2334 39.7145C81.4016 39.5445 81.6538 39.2894 81.9061 39.2043C82.747 38.7791 83.672 38.524 84.0084 37.4185C84.0925 37.1633 84.4289 37.0783 84.5971 36.9082C85.1016 36.3979 85.6902 35.8877 86.1107 35.2073C86.6153 34.2719 87.288 33.5915 88.1289 33.0813C88.7176 32.7411 89.2221 32.2309 89.8948 31.8907C90.7358 31.2954 90.6517 29.9348 91.829 29.5946V29.5095C92.3335 28.0638 93.7631 27.5536 94.7722 26.6181C95.1927 26.278 95.6972 25.9378 96.1177 25.5126C96.2858 25.3425 96.454 25.0023 96.6222 24.9173C98.1358 24.322 99.145 23.1314 100.154 22.0259C100.322 21.8558 100.49 21.6007 100.49 21.3455C100.406 20.7502 100.743 20.6652 101.163 20.5801C101.752 20.4951 102.088 20.0699 102.34 19.4746C102.761 18.6242 103.35 17.9439 103.854 17.2635C104.275 16.7533 104.863 16.243 105.368 15.7328C105.031 15.4777 104.695 15.2225 104.359 14.8824C103.518 15.6478 102.593 16.3281 101.752 17.0934C100.911 17.8588 99.9018 18.5392 99.1449 19.3896C98.1358 20.6652 96.9586 21.7707 95.6131 22.7062C95.3608 22.8763 95.1085 23.1314 94.9403 23.3866C94.0994 24.4071 93.4267 25.4275 92.2495 26.0228C92.0813 26.1079 91.9131 26.363 91.9131 26.5331C91.9972 27.0433 91.6608 27.1284 91.4085 27.2985C90.3153 28.2339 89.2221 29.2544 87.9607 30.3599C87.2039 30.1048 86.6993 30.7001 86.1107 31.2954C86.1948 31.5506 86.2789 31.8907 86.363 32.2309C85.1857 31.8907 84.3448 31.9758 83.9243 32.9963C83.8402 33.1664 83.672 33.1663 83.5879 33.2514C82.9152 33.9317 82.3266 34.6121 81.738 35.3774C81.1493 36.0578 80.8129 36.7381 81.4856 37.8437C81.1493 38.1838 80.7289 38.524 80.4766 38.9492C79.4675 40.3099 77.7857 40.9902 76.6925 42.2658C76.3561 42.606 75.8515 42.8611 75.5152 43.2013C75.347 43.2863 75.2629 43.5414 75.2629 43.7115C75.347 44.5619 75.0947 45.0722 74.2538 45.2423C74.1697 45.2423 74.0856 45.3273 74.0856 45.4124C73.6651 44.9871 73.2447 44.647 72.8242 44.2218C73.3288 43.7115 73.7492 43.2013 74.1697 42.7761C74.3379 42.9462 74.422 43.1162 74.5902 43.2863C74.6742 43.2013 74.7583 43.1162 74.8424 43.0312C74.6742 42.8611 74.506 42.691 74.3378 42.521C74.4219 42.4359 74.5061 42.3508 74.5902 42.2658C74.8424 41.9256 75.2629 41.8406 75.5152 41.5005C76.6083 39.5445 78.122 37.8437 79.5515 36.1428C79.8879 35.7176 80.2243 35.8027 80.4766 36.1428C81.2334 35.2924 81.9902 34.527 82.5789 33.6766C83.4198 32.5711 84.7653 31.8907 85.1857 30.445C85.2698 30.1899 85.8584 29.7647 86.0266 29.8497C86.8676 30.2749 86.7834 29.7647 86.6994 29.3395C86.5312 28.6591 86.9516 28.404 87.3721 28.4891C88.1289 28.6591 88.3812 28.3189 88.6335 27.8087C88.8016 27.5536 88.9698 27.2134 89.2221 27.2134C89.8948 27.0434 89.979 26.5331 90.2312 26.1079C90.063 25.9378 89.8948 25.8527 89.6426 25.5976C90.2312 25.5976 90.4835 25.5976 90.6517 25.5126C90.7358 25.1724 90.7358 24.8323 90.8199 24.6622C91.5767 23.8968 92.3335 23.1314 93.1744 22.366C94.2676 21.3455 95.3608 20.325 96.454 19.3045C96.5381 19.2195 96.6222 19.2195 96.7063 19.1345C96.8745 19.3046 96.9586 19.3896 97.2108 19.6447C97.2949 19.4746 97.379 19.2195 97.379 19.2195C97.1268 18.8793 97.1268 18.6242 97.379 18.3691C98.22 17.5187 98.9768 16.6682 99.8177 15.9028C100.911 14.8823 102.004 14.0319 103.013 12.9264C103.854 11.9909 104.611 10.9704 105.368 9.94991C105.115 9.86487 104.947 9.94994 104.863 10.035C104.359 10.7153 103.686 11.1405 102.845 11.3956C102.425 11.4807 102.088 11.7358 101.752 11.9909C101.331 12.2461 101.331 12.2461 100.659 11.9059C100.743 12.4162 100.743 12.9264 100.827 13.4367C100.911 13.9469 100.575 14.287 100.238 14.202C99.4814 13.9469 99.3131 14.4571 98.8927 14.7973C98.4722 15.2225 97.9677 15.6477 97.4631 16.0729C97.4631 16.0729 97.295 16.073 97.295 15.9879C97.2109 15.6477 97.1267 15.3076 97.0426 14.7973C96.7904 15.0524 96.6222 15.1375 96.5381 15.3076C96.0336 15.9029 95.529 16.4131 95.0245 16.9233C94.9404 17.0084 94.604 17.0084 94.4358 17.0084C96.2858 14.8824 98.22 12.9264 99.9018 10.8003C99.3972 11.1405 98.9768 11.6507 98.4722 12.076C97.9677 12.5012 97.6313 13.1815 96.5381 13.3516C96.7904 12.8413 96.9586 12.5012 97.1268 12.161C97.4631 11.7358 97.8836 11.3106 98.304 10.8854C99.4813 9.69482 99.4813 9.69479 99.2291 7.39866C97.7995 8.67428 96.5381 10.12 95.2767 11.4807C95.7813 9.77987 96.7904 8.33414 97.6313 6.88843C98.4722 5.44272 99.5654 4.08205 100.49 2.63634C100.07 2.80642 99.7336 3.31669 99.3973 3.40173C98.4723 3.48677 98.1359 4.25213 97.5472 4.76238C96.9586 5.35767 96.3699 5.86792 95.7813 6.46322C95.3608 6.88843 94.8563 7.31361 94.604 7.82387C94.0154 9.26958 92.5017 9.60979 91.5767 10.6303C91.5767 10.6303 91.4085 10.5452 91.3244 10.5452C91.9971 9.6948 92.6699 8.8444 93.4267 7.90894C93.0903 7.99398 92.9221 7.99399 92.4176 8.07903C94.0994 5.35769 96.2858 3.31669 97.8836 0.850479C97.2108 1.27569 96.6222 1.7859 95.9495 2.29615C95.2767 2.8064 94.5199 3.31669 93.8472 3.82694C93.8472 3.82694 93.7631 3.82691 93.7631 3.74187C94.0154 3.4017 94.3517 2.9765 94.604 2.63634C93.9313 2.21113 94.604 1.78592 94.4358 1.36071C93.5108 1.36071 93.1745 2.04106 92.6699 2.55132C92.1654 3.06157 91.7449 3.65686 90.9881 3.82694C91.9972 2.55132 93.0903 1.27569 94.0994 6.10352e-05C91.5767 2.29619 89.2221 4.76237 86.7835 7.14354C84.7653 9.18454 82.663 11.0555 80.5607 13.0114C78.8788 14.7123 77.197 16.4131 75.5992 18.114C72.4037 21.4306 69.1241 24.8322 65.9287 28.2339C65.2559 28.9142 64.5832 29.5946 63.9946 30.2749C63.4059 30.8702 62.9014 31.5506 62.3127 32.1459C62.2286 32.0608 62.0605 31.8907 61.9764 31.8057C59.4536 29.2544 56.8467 26.7882 54.324 24.237C54.0717 23.9818 53.9876 23.4716 53.8195 23.1314C53.5672 23.1314 53.1467 23.1314 52.9785 22.9613C51.3808 21.5156 49.8671 19.9849 48.3535 18.5392C47.5126 17.7738 46.6716 17.0934 45.9148 16.243C45.158 15.5627 44.4852 14.8824 43.8125 14.032C43.5602 13.6918 43.6443 13.1815 43.5602 12.8414C42.7193 12.3311 41.8784 11.9059 41.2897 11.3106C38.8511 8.8444 36.4124 6.37818 34.0579 3.91196C33.2169 3.06155 32.0397 2.80643 30.8624 2.38122C31.1988 2.80643 31.6192 3.23161 31.9556 3.57178C30.9465 2.89144 29.7692 2.55128 28.4237 2.46624C28.5919 2.72137 28.76 3.06153 28.9282 3.31666C28.8441 3.31666 28.8442 3.40173 28.7601 3.40173C28.4237 3.14661 28.0032 2.89146 27.6669 2.63634C27.2464 3.5718 27.2464 3.57181 27.751 4.50727C26.9941 4.08206 26.3214 3.65683 25.7327 3.31666C25.3123 3.06153 24.7237 2.97652 24.3873 2.55132C23.5464 1.61586 22.6214 0.765427 21.4441 0.255176C21.2759 0.170134 21.0236 0.170103 20.7714 0.170103C20.6873 0.850438 20.9395 1.10556 21.36 1.44573C22.285 2.12606 23.4623 2.46627 23.7146 3.82694C23.7146 3.99703 24.2191 4.08207 24.4714 4.25215C24.8077 4.42224 25.2282 4.50726 25.3123 4.76238C25.3964 5.27263 25.7327 5.61279 26.1532 5.86791C26.4055 6.038 26.5737 6.46321 26.7419 6.71833C26.0691 6.29312 24.9759 6.80341 24.6396 5.95299C24.5555 5.86795 24.0509 5.95297 23.7986 6.03801C23.5464 6.12305 23.2941 6.37815 23.1259 6.54824C22.2009 5.8679 23.6305 5.61279 23.6305 5.0175C23.3782 4.76237 22.6214 5.10253 22.7055 4.42219C22.8736 3.48673 22.2009 3.57178 21.5282 3.57178C21.7804 4.16707 22.1168 4.67732 22.3691 5.27261C22.285 5.35765 22.2009 5.44274 22.1168 5.52778C21.8645 5.35769 21.6123 5.27265 21.4441 5.10257C21.0236 4.67736 20.6031 4.25213 20.0986 3.91196C20.0145 3.82692 19.8463 3.91196 19.6781 3.91196C19.5099 4.25213 19.3418 4.59231 19.1736 4.93248C18.5009 4.50727 17.8281 4.16711 17.2395 3.82694C16.819 4.25215 16.5667 4.50724 16.2304 4.8474C16.3145 5.8679 16.9031 6.71833 16.6508 7.99396C16.1463 7.73883 15.7258 7.48371 15.2213 7.14354C15.4735 7.82388 15.6417 8.33412 15.9781 9.09949C15.3054 9.09949 14.8849 9.01447 14.5485 9.01447C14.2963 9.01447 14.044 8.92945 13.7917 8.92945C14.8008 9.52474 15.4736 10.4602 16.2304 11.3106C16.819 11.8209 17.3236 12.4161 17.744 13.0965C18.2486 13.8618 18.669 14.5422 19.6781 14.7973C20.0986 14.8823 20.6032 15.4777 20.6032 15.9879C20.6873 16.5832 20.9395 16.8383 21.36 17.0084C22.4532 17.5187 22.7055 18.7943 23.7986 19.7297C22.7055 19.4746 21.8645 19.2195 20.9395 18.9644C21.36 20.5802 22.8736 20.9203 23.5464 22.0259C24.2191 23.1314 25.5646 23.6417 26.1532 24.9173C25.2282 24.9173 24.3873 25.0023 23.6305 25.0023C23.7986 23.7267 23.7145 23.6416 22.7895 22.7062C22.6214 22.5361 22.4532 22.4511 22.285 22.281C21.6964 21.6857 20.9395 21.1754 20.6872 20.4951C20.2668 19.3896 19.4259 18.8793 18.2486 18.8793C17.9963 18.8793 17.744 18.6242 17.744 18.3691C17.8281 17.5187 17.2395 17.1785 16.7349 17.0084C15.6417 16.5832 15.0531 15.5627 14.1281 14.7973C14.4645 14.4571 14.6327 14.117 14.8849 13.7768C14.5486 13.6067 14.1281 13.3516 13.7076 13.1815C13.6235 13.4367 13.4553 13.6067 13.3712 13.8619C12.5303 13.2666 11.7735 12.5012 10.5121 12.4161C10.6803 13.0114 11.0167 13.4367 11.3531 13.8619C11.7735 14.2871 12.1939 14.7123 12.1099 15.5627C11.6894 15.4777 11.4371 15.3926 11.0167 15.3076C11.6894 17.0935 14.1281 20.0699 15.2213 20.5801C15.0531 20.0699 14.8008 19.5597 14.6326 18.9644C15.0531 18.9644 15.4735 18.8793 15.6417 19.0494C16.6508 20.4101 18.2486 21.2605 18.8372 22.9613C19.0054 23.4716 19.5941 23.7267 19.9304 24.0669C20.1827 24.322 20.5191 24.4071 20.7714 24.6622C21.7805 25.7677 22.7055 26.8733 23.7146 27.8938C25.3123 29.5096 26.91 31.0403 28.5078 32.6561C28.676 32.8262 28.7601 33.0813 29.0124 33.3364C28.0033 33.2514 28.0032 31.9758 26.8259 32.1459C28.0873 33.5916 29.2646 34.9522 30.4419 36.3979C29.601 36.6531 28.9283 36.568 28.5919 36.0578C27.9192 35.0373 26.826 34.527 26.0691 33.6766C24.9759 32.486 23.2941 31.9758 22.6213 30.445C20.6031 28.9143 18.9213 26.9583 17.2395 25.0023C16.819 24.4921 16.6508 23.8968 16.3145 23.3866C16.1463 23.1314 16.0622 22.7912 15.8099 22.7062C14.5485 21.9408 13.6235 20.9203 12.8667 19.7297C12.3622 18.9643 11.7735 18.3691 11.1849 17.6887C10.6803 17.1785 10.0917 16.6682 10.0076 15.6477C10.0076 14.9674 9.67124 14.2871 8.57804 14.032C9.16668 15.4777 9.67124 16.7533 10.2599 17.9439C9.67124 18.5392 9.25077 18.4541 8.83031 17.9439C8.24166 17.1785 7.65301 16.4131 6.98027 15.6477C6.47572 16.158 6.64393 16.4982 6.8962 16.8383C7.82121 18.199 8.07349 20.0699 9.41896 21.1754C9.50305 21.2605 9.50303 21.4306 9.50303 21.5156C10.0076 22.281 10.3439 23.1314 11.0167 23.7267C11.8576 24.4921 12.5304 25.4276 13.6236 25.9378C13.8758 26.1079 14.2122 26.448 14.2122 26.7032C14.2122 27.5536 15.3895 27.4685 15.1372 28.404C15.1372 28.489 15.3054 28.5741 15.3895 28.5741C16.3986 28.404 16.3986 28.9993 16.3986 29.7647C16.3986 29.9348 16.5667 30.0198 16.6508 30.1048C16.9031 29.9347 17.1554 29.7647 17.2395 29.6796C19.4259 31.8057 21.5282 33.8467 23.6305 35.9727C23.1259 36.7381 22.9577 37.3334 23.6305 37.7586C24.2191 38.2688 24.7237 38.1838 25.3964 37.5035C25.8169 38.0137 26.2373 38.3539 26.5737 38.8641C26.91 39.2893 27.1623 39.7146 27.6669 40.3949C26.9941 40.3099 26.5737 40.3099 26.2373 40.2248C26.2373 40.565 26.1532 40.9902 26.0691 41.5855C25.3964 40.8201 24.9759 40.3098 24.4714 39.7145C24.8918 39.5445 25.1441 39.4594 25.4805 39.3744C25.2282 38.609 24.7237 39.0342 24.2191 39.2893C24.3873 37.6735 22.7054 38.524 22.3691 37.5885C21.9486 38.0137 21.6963 38.3539 21.36 38.6941C21.6963 39.2043 22.0327 39.5445 22.7055 39.5445C22.7055 39.2894 22.6213 39.1193 22.6213 38.9492C22.7054 38.8642 22.7896 38.8641 22.8737 38.7791C23.21 39.2043 23.9668 39.2893 23.8827 40.1398C23.6304 40.1398 23.4623 40.1398 23.0418 40.2248C23.4623 40.7351 23.7145 41.1603 24.0509 41.5005C25.9009 43.4564 27.751 45.4124 29.601 47.4534C30.6101 48.5589 31.5351 49.7495 32.5442 50.9401C33.5533 52.0456 34.5624 53.0661 35.5715 54.1716C35.6556 54.2567 35.6556 54.3418 35.7397 54.5118C36.2443 55.4473 36.6647 56.3828 37.5897 57.0631C38.4307 57.7434 39.1874 58.5938 39.8602 59.4443C38.5988 60.8049 37.3374 62.1656 36.076 63.5262C34.4783 65.2271 32.8806 67.013 31.2828 68.7138C29.9374 70.1595 28.676 71.6903 27.4146 73.136C25.2282 75.6022 22.9577 78.1535 20.7714 80.6197C20.435 81.0449 20.0145 81.3851 19.8463 81.8953C19.6781 82.6607 19.1736 83.1709 18.6691 83.6812C17.9963 84.3615 17.2395 84.9568 16.6508 85.6371C16.0622 86.3175 14.969 86.6576 14.969 87.8482C14.969 87.9333 14.8849 87.9333 14.8008 88.0183C13.7917 88.6136 13.6235 89.7191 13.0349 90.7396C13.3713 90.9097 13.7076 91.0798 13.9599 91.1648C13.7917 91.8452 12.8667 92.1854 13.3712 93.2059C14.044 93.0358 14.7167 92.8657 15.3895 92.6956C15.5576 93.461 15.7258 94.1413 15.894 94.8217C15.9781 94.9918 15.9781 95.2468 15.9781 95.4169C15.894 96.5225 15.6418 97.543 16.5668 98.5635C16.6509 98.6485 16.5668 98.9037 16.5668 99.0738C16.6509 100.519 16.6508 100.604 18.1645 100.434C18.2486 100.434 18.3327 100.519 18.3327 100.519C18.669 101.2 18.9213 101.795 19.1736 102.22C20.435 102.901 21.1077 101.965 22.285 101.795C21.8645 102.731 21.36 103.411 22.1168 104.431C22.7895 105.367 23.6305 105.367 24.5555 105.367C24.4714 105.707 24.3032 105.962 24.135 106.132C23.4623 106.728 23.3782 106.898 23.9668 108.003C24.5555 107.918 25.1441 107.833 25.7327 107.748C26.4896 108.768 25.8168 109.364 25.5646 110.044C26.0691 110.384 26.4055 110.299 26.7419 110.044C27.0782 109.704 27.4146 109.449 27.751 109.109C28.0033 108.939 28.2555 108.854 28.5078 108.683C28.2555 109.364 27.8351 109.789 27.5828 110.384C27.3305 110.81 26.826 111.235 27.3305 111.745C27.6669 112.085 28.2555 112.085 28.676 112.255C29.0964 112.68 29.4328 113.106 29.9373 113.446C30.1896 113.616 30.6101 113.616 30.9465 113.616C31.7033 113.446 32.4601 113.191 33.4692 112.936C33.0488 113.871 34.1419 114.551 33.8897 114.977C34.3101 114.551 35.2351 115.147 36.076 115.147C36.4965 114.892 36.5806 114.296 37.2533 114.381C37.3374 114.381 37.6738 113.956 37.5897 113.786C37.3375 113.106 37.7579 112.85 38.0102 112.425C38.5147 111.745 39.4397 111.405 39.5238 110.384C39.5238 110.299 39.8602 110.214 40.0284 110.129C40.3647 109.874 40.8693 109.619 40.7852 108.939C40.4488 109.619 40.0284 109.874 39.1875 109.534C39.2715 109.364 39.2715 109.279 39.4397 109.109C40.2806 108.343 41.1216 107.663 41.8784 106.898C42.1307 106.642 42.3829 106.387 42.3829 106.047C42.467 105.112 42.467 105.112 43.1398 104.857C43.6443 104.601 44.1489 104.346 44.4852 103.921C44.9898 103.411 45.3262 102.731 45.8307 102.22C46.083 101.88 46.4193 101.625 46.7557 101.455C47.2603 101.2 47.4285 100.86 47.7648 100.179C47.2603 100.434 47.0921 100.605 46.8398 100.775C47.008 100.349 47.0921 99.9242 47.1762 99.499C47.3444 98.3934 47.7648 98.2233 49.0262 98.4785C49.1103 99.2438 47.933 99.1588 48.2694 100.264C49.1944 99.1588 50.0353 98.3084 50.8762 97.2878C50.9603 97.2028 50.7921 96.7776 50.708 96.5225C50.2876 97.0328 49.9512 97.4579 49.6149 97.8832C49.5308 97.7981 49.4467 97.7981 49.3626 97.7131C49.5308 96.9477 49.5308 96.1823 50.2876 95.6721C50.5399 95.9272 50.7921 96.1823 51.1285 96.5225C51.2967 96.3524 51.3808 96.0973 51.549 96.0973C52.5581 95.9272 52.6421 95.0768 53.0626 94.4815C53.1467 94.3114 53.399 94.0563 53.5672 94.0563C54.324 93.8862 54.7445 93.1208 54.4922 92.1003C54.2399 92.2704 54.0717 92.3554 53.6513 92.6105C54.4081 91.3349 54.4922 89.9743 55.6695 89.1239C55.5854 89.464 55.5854 89.6341 55.5013 89.8892C55.7536 89.8042 56.0059 89.7192 56.5104 89.5491C56.5104 90.2294 56.4263 90.6546 56.4263 91.3349C57.0149 90.7396 57.6036 90.2294 58.024 89.7192C57.94 89.0388 57.9399 88.4435 57.9399 87.8482C57.9399 87.5081 58.024 87.1679 58.1081 86.8277C58.1922 86.2324 58.024 85.5521 58.949 85.5521C59.1172 85.5521 59.2854 85.297 59.3695 85.0419C59.7059 84.2765 60.1263 83.6812 61.0513 83.5961C61.7241 83.5111 61.8082 83.0859 61.8082 82.4906C61.8082 82.0654 61.8923 81.6402 62.0605 81.3C62.3968 80.6197 62.8173 79.9393 63.2378 79.259C63.49 79.5141 63.5741 79.8543 63.4059 80.4496C64.6673 80.1945 64.7514 80.2795 65.0037 81.5551C65.0037 81.7252 65.0877 81.8103 65.2559 81.8953C66.3491 82.8308 67.4423 83.6812 68.5355 84.6167C72.5719 88.0183 76.5243 91.505 80.0561 95.4169C80.5607 95.9272 80.897 96.5225 81.0652 97.2878C81.1493 97.543 81.2334 97.9682 81.4856 97.9682C82.2425 97.9682 82.3266 98.6485 82.5789 99.1588C82.8312 99.584 83.0834 100.094 83.4198 100.434C83.8403 100.945 84.2607 101.455 84.6812 101.965C85.3539 102.816 85.9426 103.751 86.6153 104.601C86.6153 104.601 86.6153 104.772 86.6153 104.857C86.363 104.772 86.0266 104.687 85.6902 104.601C85.6062 104.857 85.438 105.197 85.5221 105.282C85.9426 105.962 86.363 106.557 86.7835 107.153C87.1199 107.663 87.3721 108.258 87.7925 108.683C88.213 109.109 88.8017 109.449 89.3903 109.449C90.2312 109.534 90.5676 109.534 90.4835 110.384C90.3994 110.81 90.4835 111.065 90.6517 111.405C91.0721 111.915 91.4926 112.51 91.9131 113.021C91.7449 113.361 91.5767 113.616 91.4926 113.871C91.7449 114.211 91.9972 114.551 92.2495 114.892C92.5017 114.806 92.754 114.721 93.0062 114.551C93.5108 115.062 94.3517 115.402 94.5199 116.337C94.604 116.677 94.8563 116.677 95.1927 116.507C95.529 116.252 95.529 115.997 95.3608 115.742C95.1926 115.487 95.0245 115.232 94.8563 114.977C95.6131 114.296 96.7063 114.551 97.2108 113.361C97.6313 113.786 97.8836 114.041 98.1359 114.296C98.3882 114.636 98.6404 115.062 98.8927 115.402C99.229 115.827 99.6495 115.912 100.07 115.317C99.9018 114.977 99.7336 114.721 99.5654 114.466C100.743 113.531 100.743 113.531 100.49 112.34C100.995 112.255 101.415 112.085 101.331 111.49C100.995 111.32 100.659 111.235 100.322 111.065C100.911 110.214 101.5 110.554 101.92 110.724C102.425 110.98 102.929 110.895 103.434 110.469C103.686 110.214 104.022 110.044 104.359 109.789C103.938 109.109 103.602 108.513 103.265 107.833C104.443 107.238 105.2 107.833 106.04 107.918C106.461 107.578 106.713 107.238 107.05 107.153C108.731 106.813 109.488 105.707 110.161 104.261C112.684 104.006 114.197 102.56 114.702 100.179C115.375 99.669 115.963 99.0737 116.804 98.8186C117.729 98.4784 118.15 97.2879 119.075 96.7776L119.159 96.6926C119.243 95.9272 119.832 95.587 120.42 95.1618C121.093 94.7366 121.345 94.1413 121.177 93.461C121.009 92.9507 121.009 92.4405 120.841 91.7601C121.429 91.8452 121.85 91.8452 122.27 91.9302C122.354 91.7601 122.354 91.5901 122.523 91.42C123.279 90.6546 123.027 90.1443 122.523 89.464C119.916 87.508 118.822 85.8072 117.477 84.1914ZM111.086 29.0843C111.17 29.1694 111.254 29.2544 111.254 29.3395C111.002 29.5096 110.666 29.6796 110.413 29.8497C110.329 29.7647 110.329 29.7647 110.245 29.6796C110.581 29.5095 110.834 29.3394 111.086 29.0843ZM109.488 30.7852C109.572 30.6151 109.741 30.445 109.825 30.2749C109.909 30.36 109.993 30.36 110.077 30.445C109.825 30.7001 109.572 30.9552 109.152 31.3805C109.32 31.1253 109.404 30.9552 109.488 30.7852ZM108.479 26.1929C108.563 26.278 108.563 26.363 108.647 26.363C108.395 26.5331 108.143 26.6181 107.891 26.7882C107.891 26.7032 107.806 26.7032 107.806 26.6181C107.975 26.5331 108.227 26.363 108.479 26.1929ZM108.395 27.6386C108.479 27.4686 108.9 27.3835 109.068 27.4686C109.404 27.6386 109.404 27.9788 109.152 28.319C108.9 28.5741 108.731 28.9142 108.395 29.2544C108.227 29.1694 107.89 29.0844 107.554 28.9143C107.89 28.4891 108.059 27.9788 108.395 27.6386ZM88.9698 22.1109C89.3062 21.2605 89.7267 20.4951 90.6517 20.1549C91.3244 19.8998 91.8289 19.3045 92.4176 18.7943C92.754 18.5392 93.1744 18.284 93.5949 18.114C94.0994 17.8588 94.6881 17.6037 95.3608 17.3486C95.2767 18.8793 93.4267 18.4541 93.2585 19.8148C92.8381 19.5597 92.6699 19.4746 92.5017 19.3896C92.1654 19.8148 91.7449 20.0699 91.5767 20.5801C91.4085 21.0053 91.4926 21.6006 91.4926 21.8558C90.6517 22.4511 89.8949 22.8763 88.9698 23.4716C88.9698 22.7912 88.8858 22.3661 88.9698 22.1109ZM87.8767 24.8322C87.2039 25.3425 86.6153 25.8528 85.9426 26.363C86.363 25.0024 86.9517 24.5771 87.8767 24.8322ZM83.4198 28.404L83.5039 28.4891C83.3357 28.6591 83.0834 28.8292 82.9152 29.0843C82.8311 29.0843 82.8311 28.9993 82.747 28.9993C83.0834 28.7442 83.2516 28.5741 83.4198 28.404ZM18.8372 10.7153C18.3327 10.12 18.1645 9.69479 18.7531 9.09949C19.3418 9.35462 18.9213 9.94993 18.8372 10.7153ZM20.3509 11.9059C20.0986 11.4807 19.9304 11.1405 19.6781 10.8003C20.7713 10.8854 20.7714 10.8854 20.3509 11.9059ZM21.4441 13.4367C21.8645 13.6918 22.1168 13.8618 22.6213 14.202C21.8645 14.287 21.2759 14.4572 21.4441 13.4367ZM23.5464 13.7768C23.4623 13.7768 23.2941 13.8618 23.21 13.7768C23.1259 13.6917 23.1259 13.6067 23.1259 13.4367C23.2941 13.4367 23.4623 13.4366 23.4623 13.5217C23.5464 13.5217 23.5464 13.6917 23.5464 13.7768ZM10.8485 20.8353C10.5962 20.6652 10.2598 20.4951 10.0076 20.325C9.92347 20.24 9.8394 19.8998 9.92349 19.8148C10.0076 19.6447 10.2598 19.5597 10.428 19.5597C11.1848 19.4746 11.2689 19.9849 10.8485 20.8353ZM12.0258 22.5361C11.9417 22.281 11.8576 22.1109 11.7735 21.8558C11.8576 21.7707 11.8576 21.7708 11.9417 21.6857C12.0258 21.7708 12.194 21.8558 12.2781 21.9408C12.3621 22.0259 12.2781 22.196 12.2781 22.366C12.194 22.4511 12.1099 22.4511 12.0258 22.5361ZM19.9304 31.4655C18.9213 30.8702 18.1645 30.0198 17.5758 28.9993C17.4917 28.9143 17.7441 28.6591 17.8281 28.4891C17.8281 28.4891 17.8281 28.4891 17.744 28.4891C16.5667 28.7442 16.2304 28.404 16.0622 27.2985C16.0622 27.2134 16.0622 26.9583 15.9781 26.9583C15.2213 26.9583 15.0531 26.1929 14.5485 25.8527C14.044 25.5976 13.7076 25.2575 13.5394 24.7472C13.4553 24.322 13.0349 24.0669 12.7826 23.5566C13.0349 23.5566 13.5394 23.4716 13.5394 23.5566C13.7917 24.407 14.6326 24.237 15.3895 24.322C15.4736 25.6827 16.4826 26.448 17.1554 27.3835C17.4076 27.7236 17.4918 28.0639 17.66 28.4891C17.66 28.4891 17.6599 28.4891 17.744 28.4891C17.9122 28.4891 18.1645 28.5741 18.2486 28.4891C18.7532 28.2339 19.0054 28.489 19.0895 28.8292C19.1736 29.4245 19.51 29.7647 19.9304 30.1048C20.5191 30.36 20.435 30.7852 19.9304 31.4655ZM23.21 34.8672C22.8736 34.6971 22.7054 34.3569 22.3691 34.1018C21.7804 33.5065 21.2759 32.9963 20.6872 32.401C20.7713 32.3159 20.8554 32.2309 20.9395 32.1459C21.5281 32.401 22.2009 32.6561 22.5373 33.3364C22.7895 33.9317 23.2941 34.3569 24.135 34.1868C24.0509 34.8672 23.7145 35.1223 23.21 34.8672ZM33.3851 113.106C33.301 112.34 33.301 112.34 34.3942 112.425C33.9737 112.68 33.7215 112.936 33.3851 113.106ZM84.6812 54.937C84.6812 54.3418 84.9334 54.1717 85.2698 53.9165C85.3539 54.0016 85.438 54.0016 85.438 54.0866C85.6903 54.2567 85.8584 54.4268 86.1107 54.5969C85.9425 54.852 85.6903 55.1922 85.5221 55.4473C85.2698 55.3622 84.9335 55.1922 84.6812 54.937ZM62.6491 78.1535C62.3127 77.8983 62.0604 77.6432 61.7241 77.3881C61.8922 77.218 62.0604 77.133 62.3127 76.9629C62.7332 77.5582 62.9014 77.7282 62.6491 78.1535ZM59.79 77.4731C59.874 77.3881 59.8741 77.303 59.9581 77.303C60.1263 77.4731 60.3786 77.6432 60.5468 77.7282C60.4627 77.8133 60.3786 77.8983 60.2945 77.9834C60.2104 77.7282 59.9581 77.5582 59.79 77.4731ZM51.4649 68.7138C51.1285 68.5437 50.8762 68.4587 50.708 68.2886C50.9603 68.0335 51.2126 67.7784 51.3808 67.4382C51.3808 67.8634 51.3808 68.2886 51.4649 68.7138ZM50.1194 67.6083C50.0353 67.5233 50.0353 67.4382 49.9512 67.2681C50.1194 67.1831 50.3717 67.1831 50.5399 67.098C50.3717 67.3531 50.2035 67.5233 50.1194 67.6083ZM59.4536 74.3266C59.7059 74.4967 59.9581 74.6667 60.2104 74.9219C60.0422 75.0919 59.8741 75.262 59.7059 75.5172C59.2854 75.262 58.949 75.0919 58.5286 74.7518C58.6968 74.3266 59.0332 74.0714 59.4536 74.3266ZM74.506 53.5764C74.1697 53.4063 74.0015 53.2362 73.7492 53.0661C74.0015 52.896 74.1697 52.6409 74.3378 52.4708C74.506 52.6409 74.5901 52.811 74.7583 53.1512C74.6742 53.4063 74.5901 53.4914 74.506 53.5764ZM71.3106 50.0897C71.3106 50.0046 71.3946 50.0046 71.3946 49.9196C72.0674 50.0046 72.0674 50.77 72.1515 51.4504C71.8992 51.2803 71.6469 51.1952 71.4788 51.0251C71.3106 50.8551 71.1423 50.6849 70.9742 50.5149C71.0583 50.4298 71.2265 50.2597 71.3106 50.0897ZM67.4423 46.3478C67.2742 46.603 67.0219 46.773 66.8537 47.0282C66.7696 46.9431 66.6855 46.8581 66.6014 46.7731C66.7696 46.5179 67.0219 46.2628 67.19 46.0077C67.3582 46.0927 67.3583 46.1778 67.4423 46.3478ZM42.3829 78.4086C42.8034 77.8133 43.2239 77.133 43.8125 76.6227C44.4011 76.1125 45.0739 75.8573 45.158 74.9219C45.158 74.8368 45.3262 74.7518 45.4103 74.6668C45.9148 74.2415 46.4194 73.8163 46.8398 73.4762C46.5876 72.4556 47.5967 72.6258 47.933 72.2856C48.0171 72.2006 48.1012 72.1155 48.1012 71.9454C48.1012 71.9454 48.1012 71.9454 48.1012 71.8604C48.1853 71.9454 48.2694 72.0304 48.3535 72.0304C48.6898 72.2856 49.0262 72.5407 49.2785 72.7958C49.1103 72.9659 48.9421 73.221 48.7739 73.4762C48.2694 74.1565 47.8489 74.8368 47.2603 75.4321C46.7557 76.0274 45.9148 76.3676 45.5785 77.218C45.4944 77.4731 45.158 77.5582 44.9898 77.6432C44.3171 77.9834 43.6443 78.4086 43.392 79.174C43.3079 79.344 43.0557 79.4291 42.8875 79.4291C42.7193 79.4291 42.467 79.174 42.3829 78.9188C42.2988 78.9188 42.2147 78.5786 42.3829 78.4086ZM49.8671 72.3706C49.6148 71.6903 49.2785 71.0099 48.6898 70.4997C48.858 70.3296 49.0262 70.2446 49.1103 70.0745C49.1944 69.9044 49.3626 69.8194 49.4467 69.6493C50.0353 70.1595 50.6239 70.6698 51.2126 71.2651C50.7921 71.6052 50.4558 72.1155 49.8671 72.3706ZM51.8012 70.6698C51.7171 70.5847 51.6331 70.4997 51.549 70.4147C51.6331 70.3296 51.7172 70.3296 51.7172 70.2446C51.8013 70.3296 51.8013 70.4146 51.8854 70.4997C51.8854 70.4997 51.8012 70.5847 51.8012 70.6698ZM52.474 68.6288C52.7262 68.7988 52.8944 68.969 52.9785 69.139C52.7263 69.3091 52.5581 69.4792 52.3899 69.7343C52.2217 69.4792 52.3058 69.224 52.474 68.6288ZM54.8286 70.4147C54.6604 70.8399 54.4922 71.095 54.324 71.5202C54.1558 71.2651 53.9876 71.18 53.8195 70.9249C54.1558 70.6698 54.4081 70.5847 54.8286 70.4147ZM57.1831 74.8368C57.099 74.9219 57.015 75.0069 56.9309 75.092C56.5945 74.9219 56.3422 74.6667 56.0058 74.4967C56.8467 74.0714 56.8468 74.7518 57.1831 74.8368ZM57.4354 73.9864C57.3513 73.5612 57.099 73.3061 56.7627 73.136C57.0149 72.7958 57.3513 72.3706 57.6036 72.0304C57.94 72.3706 58.2763 72.7108 58.4445 73.0509C58.5286 73.3061 58.5286 73.6463 58.4445 73.9864C58.2763 74.1565 58.1081 74.3266 57.9399 74.4967C57.7717 74.4116 57.5195 74.2416 57.4354 73.9864ZM57.6877 75.6022C58.2763 75.6022 58.7809 75.6022 59.2854 75.6022C59.3695 75.6022 59.4536 75.6873 59.5377 75.6873C59.2854 76.0274 59.0331 76.2825 58.7808 76.6227C58.3604 76.3676 57.9399 76.1124 57.6877 75.6022C57.6877 75.6872 57.6877 75.6872 57.6877 75.6022ZM60.9673 76.5377C60.8832 76.4526 60.7991 76.3676 60.7991 76.3676C60.9673 76.1975 61.2195 76.1124 61.4718 76.0274C61.3877 76.2825 61.3036 76.5377 61.2195 76.7928C61.1354 76.7078 61.0514 76.6227 60.9673 76.5377ZM79.3834 50.5999C79.5515 50.4299 79.7197 50.2598 79.8879 50.0046C80.1402 50.2598 80.5607 50.3448 80.897 50.4298C80.7289 50.4298 80.5607 50.4298 80.3084 50.3448C80.0561 50.2597 79.8038 50.4298 79.5515 50.685C79.4675 50.685 79.3834 50.685 79.3834 50.5999ZM83.9243 50.3448C83.9243 50.3448 83.8402 50.2597 83.9243 50.3448C84.0084 50.0896 84.0925 49.9196 84.2607 49.8345L84.3448 49.9196C84.1766 50.0046 84.0925 50.1747 83.9243 50.3448ZM81.3175 59.6143C81.4016 59.5293 81.4856 59.4443 81.4856 59.3592C81.6538 59.5293 81.822 59.6144 82.0743 59.7844C82.0743 59.7844 82.0743 59.8695 81.9902 59.8695C81.9902 59.9545 81.9061 59.9545 81.9061 60.0396C81.7379 59.8695 81.4857 59.6994 81.3175 59.6143ZM86.1948 54.0016C86.363 53.8315 86.5312 53.7465 86.6994 53.5764L86.7835 53.6614C86.6994 53.8315 86.5312 54.0016 86.4471 54.1716C86.363 54.1716 86.2789 54.0866 86.1948 54.0016ZM90.9881 47.5384C90.904 47.4534 90.9039 47.3683 90.7358 47.0282C91.0721 47.1982 91.2403 47.1982 91.3244 47.3683C91.4085 47.4533 91.4085 47.6234 91.4926 47.9636C91.1562 47.7085 91.0722 47.6234 90.9881 47.5384ZM91.5767 45.2423C90.9039 45.9226 90.3153 46.6029 89.6426 47.2833C89.3062 47.6235 88.8016 47.8786 89.0539 48.5589C89.0539 48.644 88.8857 48.8991 88.8017 48.8991C87.6244 48.5589 87.6244 49.6645 86.9516 50.0046C86.6993 50.0897 86.6153 50.3448 86.4471 50.5149C86.363 50.4298 86.363 50.3448 86.2789 50.3448C88.0448 48.4738 89.8107 46.5179 91.5767 44.647C91.6608 44.647 91.7449 44.732 91.7449 44.8171C91.7449 44.9021 91.7449 45.1572 91.5767 45.2423ZM86.8676 46.9431C87.3721 45.7525 90.6517 42.7761 91.7449 42.606C90.3994 44.647 88.8017 46.0927 86.8676 46.9431ZM95.6972 34.1868C96.2858 33.5915 96.9586 32.9112 97.5472 32.3159C98.0518 33.5065 97.7154 34.1868 96.2859 34.7821C96.0336 34.612 95.8654 34.4419 95.6972 34.1868ZM101.584 33.5065C101.668 33.6766 101.836 34.0168 101.92 34.3569C101.752 34.527 101.5 34.7821 101.331 34.9522C101.163 34.6971 100.995 34.442 100.743 34.1018C100.322 34.6121 99.8177 34.9522 99.6495 35.3774C99.3132 36.1428 98.5563 36.398 98.0518 36.9932C97.8836 37.1633 97.5472 37.1633 97.0426 36.9932C97.2949 36.6531 97.4631 36.3129 97.7154 36.0578C98.8927 34.8672 100.154 33.5916 101.331 32.401C101.584 32.2309 101.836 32.0608 102.088 31.8907C102.172 31.9758 102.256 32.0608 102.34 32.1459C102.088 32.6561 101.836 32.9963 101.584 33.5065ZM102.088 24.5771C102.004 24.0669 101.92 23.8118 101.836 23.3866C102.509 23.8968 102.509 23.8968 102.088 24.5771ZM101.836 27.8087C102.088 27.5536 102.509 27.3835 102.845 27.2134C103.265 27.8938 103.265 28.319 102.761 28.319C101.92 28.404 101.752 28.9142 101.415 29.5095C100.659 30.6151 100.07 31.9758 98.5563 32.5711C97.9677 32.1459 98.0518 31.7206 98.4722 31.2954C99.6495 30.1048 100.743 28.9142 101.836 27.8087ZM95.6972 27.3835C95.7813 27.4685 95.8654 27.4685 95.9495 27.5536C95.8654 27.7237 95.7813 27.8087 95.6972 27.9788C95.6972 27.9788 95.529 27.8937 95.4449 27.8087C95.529 27.7236 95.6131 27.5536 95.6972 27.3835ZM91.5767 34.3569C91.8289 34.1868 92.1653 34.0167 92.3335 33.7616C93.2585 32.7411 94.0154 31.6356 95.0245 30.7852C96.454 29.5946 97.7995 28.4891 98.9768 27.0433C99.145 26.7882 99.3131 26.5331 99.7336 26.7882L99.8177 26.8733V26.9583C99.8177 27.0433 99.7336 27.2134 99.6495 27.2985C99.4813 27.4685 99.3972 27.6386 99.2291 27.8087C96.5381 30.3599 93.8472 32.9112 90.9881 35.6325C90.8199 34.7821 91.1562 34.527 91.5767 34.3569ZM84.3448 41.6705C84.9334 41.5005 85.0175 40.9902 85.2698 40.65C85.6062 40.2248 86.1107 39.8846 86.5312 39.4594C86.8675 39.1193 87.288 38.7791 87.6244 38.3539C88.0449 37.9287 88.4653 37.5035 88.8858 37.0783C89.1381 36.8231 89.3062 36.568 89.5585 36.3129C89.8108 36.0577 90.1471 35.8877 90.4835 35.7176C90.5676 35.8027 90.5676 35.8877 90.6517 35.9727C88.7176 38.4389 86.2789 40.48 84.0084 42.9462C83.9243 42.2658 84.0084 41.7556 84.3448 41.6705ZM82.5789 43.0312C82.8312 42.691 83.1675 42.691 83.5879 42.9462C83.3357 43.8816 82.4948 44.732 81.1493 45.4124C81.6539 44.5619 82.0743 43.7966 82.5789 43.0312ZM84.1766 45.2423C84.4289 44.9871 84.513 44.647 84.6812 44.3918C85.3539 43.1162 86.7835 42.606 87.7085 41.6705C88.1289 41.2453 88.5494 40.8201 88.8858 40.3949C89.1381 40.0547 89.3062 39.7146 89.8948 40.2248C90.1471 40.3949 90.5676 40.3099 90.9881 40.3949C90.6517 41.2453 89.979 41.6705 89.3903 42.1808C88.9698 42.606 88.3812 42.8611 87.8767 43.2863C87.3721 43.7115 87.0357 44.3068 86.5312 44.732C85.9425 45.4124 85.2698 46.0077 84.5971 46.603C83.588 47.7085 82.5789 48.814 81.5698 49.9196C81.4857 50.0046 81.4016 50.0897 81.3175 50.1747C80.9811 49.9196 80.6447 49.5794 80.3925 49.3243C81.822 47.9636 82.9993 46.6029 84.1766 45.2423ZM78.122 48.1337C78.6265 47.3683 79.4675 46.773 80.1402 46.0927C80.2243 46.1777 80.3084 46.1777 80.3925 46.2628C80.3925 46.4329 80.4766 46.6029 80.3925 46.688C79.972 47.1132 79.6357 47.6235 79.2152 48.0487C78.8788 47.8786 78.5425 47.9636 78.0379 48.5589C78.2061 48.644 78.2902 48.8141 78.4584 48.8991C78.2902 49.0692 78.122 49.2392 78.0379 49.4093C77.8697 49.2392 77.7016 49.0692 77.5334 48.8991C77.7016 48.644 77.9538 48.3888 78.122 48.1337ZM70.3014 49.0691C70.1333 49.2392 69.9651 49.3243 69.7969 49.4093C69.3765 48.9841 68.956 48.644 68.5355 48.3038C68.7037 48.1337 68.7878 47.9636 68.956 47.7935C69.4605 48.1337 69.9651 48.4738 70.3014 49.0691ZM80.8129 31.3805C80.7288 31.2954 80.6448 31.2104 80.5607 31.2104C80.8129 30.8702 81.0652 30.5301 81.4016 30.1899C81.9902 30.8702 81.9902 30.9552 80.8129 31.3805ZM81.0652 12.6713C81.1493 12.7563 81.2334 12.8414 81.3175 12.8414C80.813 13.2666 80.3084 13.6918 79.8879 14.117L79.8038 14.032C80.2243 13.6067 80.6447 13.0965 81.0652 12.6713ZM80.1402 31.7206C80.1402 32.486 79.8039 32.9112 78.7948 33.0813C79.2993 32.571 79.7197 32.1459 80.1402 31.7206ZM78.2902 33.5065C78.3743 33.6766 78.6265 33.9317 78.5424 34.0168C78.3743 34.3569 78.2061 34.6971 77.9538 34.9522C77.7016 35.2073 77.197 35.2924 76.9447 35.6325C76.3561 36.7381 75.2629 37.4184 74.422 38.3539C73.581 39.2894 72.656 40.1398 71.8151 41.0752C71.4787 41.5005 71.1424 41.9257 70.7219 42.3509C70.5537 42.1808 70.4696 42.0957 70.3014 41.9257C72.8242 39.0342 75.431 36.2278 78.2902 33.5065ZM75.0106 25.0023C74.2538 25.7677 73.497 26.5331 72.7401 27.2985C72.656 27.2134 72.572 27.1284 72.4879 27.1284C73.1606 26.2779 73.9174 25.4275 74.8424 24.8322C74.9265 24.8322 74.9265 24.9173 75.0106 25.0023ZM64.6673 29.2544C65.0036 28.9142 65.34 28.5741 65.9287 28.5741C66.3491 28.5741 66.6014 28.2339 67.0219 28.0639C66.8537 28.0639 66.6855 27.9788 66.4332 27.8938C66.6014 27.6386 66.6855 27.3835 66.8537 27.2134C67.4423 26.5331 68.1151 25.9378 68.7037 25.2574C69.5446 24.322 70.3856 23.3866 71.2265 22.5361C71.5629 22.196 71.9833 21.8558 72.4037 21.5156C72.4878 21.6007 72.5719 21.6857 72.5719 21.6857C71.731 22.7913 70.8901 23.9818 69.9651 25.2574C71.3106 24.1519 72.4038 23.1314 73.581 22.196C73.6651 22.281 73.7492 22.366 73.8333 22.4511C73.3288 22.9613 72.7401 23.4716 72.3197 24.0669C71.6469 24.8323 71.0583 25.5976 70.3856 26.363C70.0492 26.7882 69.6287 27.2134 69.1242 27.4686C68.7878 27.6386 68.3673 27.6386 67.9469 27.8087C67.6946 27.8937 67.4423 27.9788 67.106 28.0639C67.1901 28.0639 67.3582 28.0639 67.5264 28.0639C67.6105 28.8292 67.2742 29.4245 66.8537 29.9347C66.181 30.7852 65.4241 31.5506 64.7514 32.3159C64.3309 31.8057 63.9105 31.2954 63.5741 30.8702C63.7423 30.2749 64.2468 29.7647 64.6673 29.2544ZM62.1445 32.0608C62.4809 31.7206 62.7332 31.3805 63.0696 31.1253C62.9855 31.7206 62.9855 32.3159 62.9014 32.9112C62.6491 32.571 62.3968 32.3159 62.1445 32.0608ZM55.5013 34.612C55.249 34.3569 55.0808 34.1868 54.8286 33.9317C55.8377 33.5065 55.8377 33.5065 55.5013 34.612ZM53.5672 32.1459C53.6513 32.3159 53.8194 32.486 53.9035 32.6561C53.8194 32.6561 53.8194 32.7412 53.7353 32.7412C53.5671 32.5711 53.4831 32.401 53.3149 32.2309C53.4831 32.3159 53.5672 32.2309 53.5672 32.1459ZM51.9694 28.7442C52.474 28.9993 52.8103 29.1694 53.3149 29.4245C52.7262 29.8497 52.3058 30.1048 51.9694 30.3599C51.549 29.9347 52.0535 29.4245 51.9694 28.7442ZM50.9603 28.2339C50.9603 28.489 51.0444 28.6591 51.0444 28.9143C50.8762 28.9993 50.7922 28.9993 50.624 29.0843C50.5399 28.9142 50.4557 28.6591 50.3717 28.4891C50.6239 28.319 50.7921 28.2339 50.9603 28.2339ZM47.6808 24.237C48.774 23.7267 49.4467 23.8118 50.2876 24.4921C49.6989 25.1724 49.1944 25.8527 48.6057 26.5331C47.3444 26.363 47.5967 25.2575 47.6808 24.237ZM47.1762 23.7267C47.008 23.9818 46.8398 24.2369 46.6716 24.5771C46.4194 24.322 46.1671 24.1519 45.8307 23.8968C46.4194 23.1314 46.7557 23.3865 47.1762 23.7267ZM43.0557 17.9439C43.1398 18.0289 43.3079 18.114 43.392 18.284C43.3079 18.284 43.3079 18.3691 43.2238 18.3691C43.1398 18.284 42.9716 18.199 42.8875 18.114C42.9716 18.0289 42.9716 17.9439 43.0557 17.9439ZM37.842 14.7123C37.9261 14.6272 38.1783 15.0524 38.3465 15.2225C38.6829 15.5627 39.1033 15.9028 39.4397 16.328C39.8602 16.7533 40.2806 17.1785 40.7011 17.5187C41.7943 18.5392 42.7193 19.8148 44.233 20.4101C44.4011 20.4951 44.6534 20.6652 44.6534 20.9203C44.6534 21.8558 45.4102 22.366 45.4943 23.2165C45.4943 23.3015 45.4102 23.4716 45.3261 23.7267C44.9057 23.3865 44.4852 23.1314 44.233 22.7062C43.6443 21.8558 42.4671 21.4306 42.4671 20.1549C42.4671 20.0699 42.3829 19.9849 42.3829 19.9849C41.4579 19.9849 41.2897 19.0494 40.7011 18.6242C39.692 17.9438 38.9352 17.0084 38.0102 16.243C37.4216 15.6477 36.917 15.1375 36.3284 14.5422C37.0011 14.3721 37.1693 15.0525 37.842 14.7123ZM24.3873 10.12C24.3032 10.035 24.2191 10.035 24.135 9.94991C24.135 9.94991 24.2191 9.77984 24.2191 9.6948C24.3032 9.77984 24.3873 9.77985 24.4714 9.86489C24.4714 9.94993 24.3873 10.035 24.3873 10.12ZM24.6396 15.7328C24.7237 15.4777 24.7237 15.3926 24.8078 15.2225C24.8078 15.2225 25.06 15.1375 25.06 15.2225C25.1441 15.3076 25.1441 15.4776 25.1441 15.6477C24.9759 15.6477 24.8918 15.6478 24.6396 15.7328ZM26.8259 24.0669C26.6578 23.8968 26.4896 23.8118 26.4055 23.6417C26.4055 23.4716 26.4896 23.3015 26.5737 23.1314C26.6578 23.2164 26.826 23.3865 26.9101 23.4716C26.9941 23.5566 26.91 23.7267 26.8259 24.0669ZM26.3214 18.0289C27.1623 17.3485 27.2464 17.3486 27.5828 18.6242C27.0782 18.3691 26.7419 18.199 26.3214 18.0289ZM27.0783 10.2901C26.826 9.94993 26.6578 9.43969 26.3214 9.18457C26.0691 9.01448 25.5646 9.01447 25.1441 9.01447C25.3964 8.07901 26.1532 7.56876 26.9101 6.88843C27.0782 6.97347 27.4987 7.14357 27.4987 7.22861C27.2464 8.16407 27.9191 8.67428 28.0873 9.5247C27.7509 9.77983 27.4987 10.035 27.0783 10.2901ZM28.1714 4.76238C28.2555 4.5923 28.0032 4.33717 28.0032 3.91196C28.5078 4.16709 29.0124 4.42224 29.4328 4.67736C29.4328 4.33719 29.5169 4.08204 29.5169 3.74187C30.0214 4.16708 30.526 4.59229 31.0305 5.0175C30.9464 5.10254 30.9465 5.18759 30.8624 5.18759C30.526 5.01751 30.2737 4.76239 29.8533 4.50727C29.4328 4.67735 29.0964 4.76236 28.676 4.8474C28.8441 5.95295 29.601 4.76239 29.9373 4.93248C29.8533 5.61281 29.7692 6.29311 29.6851 6.97345C30.7783 7.4837 31.9556 6.63331 33.2169 7.05852C34.3942 8.24911 35.9079 9.69481 37.0852 11.5657C37.0011 11.6508 36.917 11.7358 36.8329 11.8208C36.4124 11.3956 35.992 10.8854 35.5715 10.4602C35.3192 10.2051 35.067 10.035 34.7306 9.6948C34.5624 10.205 34.4783 10.4602 34.3942 10.8854C35.151 11.3957 35.4874 12.2461 35.3192 13.4367C35.067 13.3516 34.8988 13.2666 34.7306 13.1815C33.0488 11.6508 31.451 10.035 30.0215 8.16405C29.7692 7.82389 29.4328 7.48371 29.1805 7.14354C28.7601 6.46321 27.8351 6.03801 28.1714 4.76238ZM29.7691 20.5801C30.3578 21.3455 31.3669 21.7707 31.6192 22.8763C30.7783 22.281 30.0214 21.6857 29.7691 20.5801ZM31.9556 46.7731C30.9465 45.4974 30.0215 44.2218 29.0124 43.0312C28.1714 42.9462 28.1714 42.0958 27.5828 41.6705C27.4146 41.5855 27.4987 41.2453 27.4146 40.9902C27.4987 40.9051 27.5828 40.9052 27.6669 40.8201C27.835 40.9902 28.0873 41.1603 28.2555 41.3304C28.9282 42.0957 29.8532 42.7761 30.1896 43.8816C30.2737 44.2218 30.7783 44.4769 31.0305 44.732C31.451 45.1572 31.9555 45.4974 32.2919 45.9226C32.5442 46.2628 32.376 46.603 31.9556 46.7731ZM34.3101 50.2597C33.9738 50.0897 33.7215 49.9196 33.3851 49.6644C33.4692 49.4093 33.6374 49.1542 33.7215 48.8991C33.3851 48.3888 32.9647 47.8786 32.6283 47.3683C33.4692 47.3683 33.8056 47.7085 34.0579 48.3888C34.226 48.8991 34.6465 49.2392 34.9829 49.6644C34.8147 49.9196 34.5624 50.0897 34.3101 50.2597ZM33.0488 24.4921C33.1328 24.407 33.2169 24.322 33.301 24.237C33.3851 24.4071 33.5533 24.4921 33.6374 24.6622C33.5533 24.7472 33.5533 24.7472 33.4692 24.8322C33.301 24.6621 33.1328 24.5771 33.0488 24.4921ZM37.5056 53.1512C37.2533 52.811 36.917 52.3858 36.6647 52.0456C36.7488 51.9606 36.8329 51.8756 36.917 51.8756C37.2533 52.1307 37.6738 52.3008 37.5056 53.1512ZM35.2351 17.9439C35.0669 17.5187 34.3942 17.2635 34.0579 16.9233C33.8056 16.6682 33.4692 16.4982 33.2169 16.158C33.0488 15.9029 32.5442 15.6477 33.1328 15.0524C33.1328 15.0524 32.8806 14.6272 32.7965 14.3721C32.6283 14.6272 32.4601 14.7123 32.376 14.8824C32.2919 14.8824 32.2079 14.8823 32.1238 14.7973C31.0306 13.7768 30.0215 12.7563 29.0124 11.7358C28.8442 11.5657 28.7601 11.0555 28.8442 10.9704C29.0964 10.7153 29.5169 10.5452 29.8533 10.4602C30.1055 10.4602 30.2737 10.7153 30.6101 10.8854C30.2737 11.1405 30.0214 11.3956 29.7691 11.5657C30.1055 12.5862 30.2737 12.5862 31.5351 12.076C32.0397 12.5862 32.4601 13.0114 32.8806 13.4367C32.9647 13.5217 33.2169 13.6067 33.2169 13.6918C33.6374 15.2225 35.067 15.6477 35.9079 16.8383C36.6647 17.8588 37.5056 18.8793 38.8511 19.3045C39.5238 19.5596 40.0284 20.155 40.4488 20.6652C40.7011 20.9203 40.7011 21.4306 40.7852 21.8558C39.5238 22.1959 38.8511 21.6857 38.767 20.4101C37.5056 19.6447 35.9079 19.3896 35.2351 17.9439ZM38.4307 54.0866C38.5147 54.0016 38.5147 54.0016 38.5988 53.9165C39.3556 54.6819 40.1966 55.4473 40.9534 56.2127C41.1216 56.3828 41.3738 56.5528 41.542 56.7229C41.3738 56.893 41.2897 57.0631 41.1216 57.2332C40.1124 56.2127 39.2716 55.1922 38.4307 54.0866ZM39.7761 107.068C38.767 108.003 37.842 109.024 36.7488 109.874C36.6647 109.789 36.5806 109.704 36.4965 109.619C36.6647 109.364 36.917 109.109 37.0852 108.854C37.1692 108.683 37.3374 108.513 37.3374 108.258C37.5056 107.238 37.6738 106.983 38.5147 106.217C38.5988 106.472 38.767 106.727 38.8511 107.068C39.1034 106.983 39.4398 106.898 39.692 106.813C39.692 106.898 39.7761 106.983 39.7761 107.068ZM40.2806 82.0654C39.692 82.4906 39.2716 82.9158 38.6829 83.341C38.5988 83.256 38.5147 83.1709 38.5147 83.0859C39.1875 82.2354 39.7761 81.3851 40.4488 80.6197C40.7011 80.3646 41.2057 80.4496 41.6261 80.4496C41.3739 81.215 40.8693 81.7252 40.2806 82.0654ZM41.7943 85.382C41.9625 84.8717 41.9625 84.5316 42.1307 84.2765C42.9716 83.0859 43.8125 81.9803 44.7375 80.8748C45.4944 79.9393 46.2512 79.0889 47.008 78.2385C47.2603 77.9834 47.5126 77.7283 47.7648 77.3881C48.1853 76.8779 48.6058 76.2825 48.9421 75.7723C49.2785 75.6022 49.5308 75.4321 49.7831 75.177C50.5399 74.4116 51.3808 73.6462 52.0535 72.7958C52.2217 72.6257 52.3058 72.4557 52.474 72.2856C52.7262 72.5407 52.9785 72.7958 53.2308 73.0509C53.3149 73.7313 53.0626 74.2415 52.6421 74.5817C52.474 74.1565 51.8854 74.1565 51.4649 73.7313C51.4649 74.4116 51.7171 74.7518 52.0535 75.0069C51.8853 75.0919 51.7171 75.262 51.549 75.3471C50.7921 75.9424 49.783 76.1125 49.8671 77.3881C49.8671 77.4731 49.783 77.5582 49.6989 77.6432C48.9421 78.4936 48.1853 79.259 47.4284 80.1094C46.3352 81.3 45.3262 82.4055 44.233 83.5111C43.4761 84.2764 42.8875 84.9568 41.7943 85.382ZM45.5785 91.505C45.4944 91.505 45.4944 91.42 45.4103 91.42C45.4103 91.335 45.4944 91.1649 45.5785 91.0798C45.6626 90.9948 45.8307 90.9948 45.9148 90.9948C45.9148 91.0798 45.9989 91.0798 45.9989 91.1648C45.8307 91.2499 45.6626 91.3349 45.5785 91.505ZM46.2512 90.6546C46.5035 89.8042 46.8398 89.379 47.8489 89.0388C47.3443 89.549 46.8398 90.0593 46.2512 90.6546ZM48.2694 88.3585C48.6898 87.2529 49.6148 86.6576 50.3717 85.9773C49.8671 87.0828 49.1944 87.8482 48.2694 88.3585ZM50.0353 89.6341C49.9512 88.9538 50.2035 88.6136 50.8762 88.5286C50.9603 89.2089 50.624 89.464 50.0353 89.6341ZM49.3626 85.7222C48.858 84.9568 49.5307 84.7017 49.6989 84.2765C49.9512 83.8513 50.3717 83.9363 50.8762 84.1064C50.3717 84.7017 49.8671 85.2119 49.3626 85.7222ZM52.1376 87.2529L51.9694 87.1679C52.0535 87.0829 52.0535 86.9978 52.1376 86.9127C52.1376 86.9127 52.3058 86.9978 52.3899 86.9978C52.2217 87.0829 52.2217 87.1679 52.1376 87.2529ZM55.0808 83.7662C55.249 83.0859 55.5854 82.7457 56.5945 81.9803C56.5104 83.1709 55.5013 83.0859 55.0808 83.7662ZM56.174 78.8338C55.9217 78.7487 55.6694 79.344 55.4172 79.5992C55.5013 79.6842 55.5013 79.6842 55.5854 79.7693C55.7535 79.6842 55.9217 79.5141 56.174 79.4291C56.0058 80.1945 55.8377 80.3645 54.8286 81.385C54.2399 81.9803 53.8194 82.6607 53.2308 83.256C52.7262 83.8512 52.1376 84.3615 51.549 84.9568C51.4649 84.8717 51.3808 84.8717 51.3808 84.7867C51.4649 84.6166 51.549 84.4465 51.7172 84.2765C51.8013 84.1064 52.0535 83.9363 52.0535 83.8513C51.3808 82.7457 52.6422 82.2355 52.3899 81.3C52.3899 81.1299 52.5581 80.9599 52.6421 80.7898C52.8103 80.4496 53.0626 80.1945 53.2308 79.7693C52.5581 79.5992 52.1376 79.6842 51.8012 80.1094C50.5399 81.5551 49.2785 83.0008 48.0171 84.3615C46.9239 85.467 45.8307 86.5726 44.6534 87.6781C44.5693 87.7632 44.4852 87.7632 44.233 87.6781C44.4852 87.2529 44.6534 86.8277 44.9898 86.4875C45.8307 85.467 46.5876 84.2765 47.6808 83.5961C48.9421 82.7457 49.6149 81.5551 50.4558 80.4496C50.9603 79.7692 51.4649 79.0039 52.3058 78.7487C52.474 78.6637 52.6422 78.5786 52.7263 78.4086C52.8945 77.6432 53.4831 77.1329 53.8195 76.4526C54.4922 77.5582 55.1649 78.1534 56.2581 78.4086C56.0899 77.8133 55.8377 77.133 55.6695 76.5377C55.0808 76.4526 54.5763 76.3676 53.8195 76.2825C53.9035 76.0274 54.0717 75.7723 54.0717 75.4321C54.0717 75.0919 54.2399 74.7518 54.4922 74.4967C54.5763 74.5817 54.7445 74.5817 54.8286 74.6668C54.9127 74.6668 54.9967 74.7518 54.9967 74.7518C54.9967 74.8368 54.9967 74.9219 54.9967 75.092C55.0808 75.0069 55.1649 74.9219 55.1649 74.8368C55.5854 75.0069 56.0058 75.177 56.174 75.5172C56.3422 75.7723 56.5945 76.0274 56.8467 76.1975C56.6786 76.4526 56.5945 76.7077 56.5945 76.8778C56.7627 76.7077 56.8468 76.5377 57.0149 76.3676C57.4354 76.7078 57.7718 76.9629 58.1922 77.303C57.94 77.6432 57.6877 77.8984 57.4354 78.2385C57.2672 78.4936 57.0149 79.0039 56.174 78.8338ZM57.1831 81.5551V81.4701C57.94 80.3646 58.6127 79.174 59.3695 78.0684C59.4536 78.1535 59.6218 78.2385 59.7059 78.3235C59.79 78.4086 59.79 78.4086 59.8741 78.4086C59.7059 78.5786 59.5377 78.7487 59.4536 79.0039C58.7809 79.8543 57.94 80.7047 57.1831 81.5551ZM60.6309 79.5141C60.5468 79.0889 60.715 78.5787 61.0513 78.0684C61.3877 78.3236 61.7241 78.4936 62.0605 78.7487C61.5559 79.0889 61.1354 79.259 60.6309 79.5141ZM63.1536 78.4936C63.3218 78.2385 63.5741 77.8983 63.7423 77.6432C63.9946 77.8983 64.0786 78.2385 64.415 78.4086C65.1718 78.9188 65.256 78.9188 65.7605 80.2795C65.1719 80.0244 64.6673 79.8543 64.415 79.5141C63.9946 79.174 63.5741 78.8338 63.1536 78.4936ZM67.106 83.0859C66.5173 82.7457 66.0128 82.3205 65.4241 81.9803C65.1718 81.8102 65.0036 81.6402 64.6673 81.4701C65.2559 81.3851 65.2559 81.385 65.4241 81.9803C65.5923 81.9803 65.8446 81.8103 65.9287 81.8953C66.3491 82.1504 66.7696 82.5757 67.2742 82.9158C67.1901 82.9158 67.1901 83.0008 67.106 83.0859ZM66.0968 80.7047C67.2741 80.2795 67.3582 81.1299 67.7787 81.4701C67.19 81.4701 66.7696 81.1299 66.0968 80.7047ZM82.3266 60.2947C82.2425 60.2096 82.1584 60.1246 81.9902 60.1246C82.0743 60.0395 82.0743 59.9545 82.1584 59.8695C82.2425 59.9545 82.4107 60.0395 82.4948 60.1246C82.4107 60.1246 82.4107 60.2096 82.3266 60.2947ZM90.5676 59.2742C89.2221 58.4237 87.8766 57.5733 86.5312 56.6379C86.2789 56.4678 86.1107 55.9575 85.8584 55.7875C86.1107 55.5323 86.363 55.3623 86.6153 55.1071C87.7085 55.9576 88.7176 56.893 89.8108 57.7434C90.3994 58.1686 90.9039 58.6789 91.5767 59.2742C91.1562 59.2742 90.7358 59.3592 90.5676 59.2742ZM96.0336 65.8224C95.6131 65.3972 95.1085 65.057 94.6881 64.6318C94.7722 64.5468 94.7722 64.4617 94.8563 64.3767C95.3608 64.7168 95.7813 65.1421 96.2859 65.4822C96.1177 65.5673 96.0336 65.7373 96.0336 65.8224Z" fill="#DBFE00"/>
<path fill-rule="evenodd" clip-rule="evenodd" d="M13.622 31.0401C13.2016 30.4448 12.9493 30.0196 12.697 29.5944C12.7811 29.5093 12.8652 29.4243 12.9493 29.3393C13.5379 30.0196 14.0425 30.6149 14.7152 31.3802C14.3789 31.3802 14.1266 31.2952 13.9584 31.2952C14.2947 31.8055 14.3788 32.5708 15.2198 32.826C15.3038 31.8905 15.3879 31.2102 14.7993 30.6149C14.0425 29.7645 13.1175 28.9991 13.1175 27.6384C13.1175 27.5534 12.9493 27.4683 12.9493 27.3833C12.6129 26.9581 12.2765 26.6179 12.0243 26.1927C11.6879 25.5974 11.2674 25.1722 10.5947 24.832C9.66969 24.4068 9.08105 23.6414 8.91286 22.4509C8.82877 21.9406 8.40834 21.4304 8.15607 21.0902C7.73561 21.2603 7.39922 21.3453 6.97876 21.5154C7.39922 22.1107 7.73558 22.706 8.07194 23.2163C8.15604 23.3013 8.07194 23.4714 8.07194 23.6415C7.73558 23.4714 7.48332 23.3863 7.14695 23.2163C6.97877 24.0667 7.39924 24.4919 7.73561 24.9171C8.99698 26.5329 10.3424 28.0636 11.6038 29.5944C11.9402 30.0196 12.3606 30.3598 12.697 30.6999C12.8652 30.785 13.1175 30.87 13.622 31.0401ZM8.4924 23.8966C8.66059 24.1517 8.91285 24.4069 9.16513 24.662C8.57648 24.662 8.57649 24.662 8.4924 23.8966ZM10.5106 27.1282C10.3424 26.873 10.0902 26.6179 9.92197 26.3628C10.0061 26.2778 10.0901 26.2778 10.1742 26.1927C10.3424 26.4478 10.5947 26.7029 10.7629 26.9581C10.6788 26.9581 10.5947 27.0431 10.5106 27.1282ZM11.0152 27.6384C11.5197 27.6384 11.8561 27.7235 12.1083 27.2132C13.1174 27.4684 12.6129 28.2337 12.3607 29.0841C11.9402 28.5739 11.5197 28.1487 11.0152 27.6384Z" fill="black"/>
<path fill-rule="evenodd" clip-rule="evenodd" d="M16.6483 33.4212C16.312 33.1661 16.312 32.5707 16.1438 32.0605C15.8915 32.4857 15.7233 32.8259 15.387 33.3361C15.8074 33.8464 16.312 34.4417 16.8165 34.9519C17.3211 35.4622 17.9097 35.9724 18.4142 36.4827C19.6756 37.5882 19.6757 37.5882 20.1802 37.5882C20.1802 37.5032 20.1802 37.3331 20.0961 37.2481C19.5915 36.8229 18.8347 36.4827 19.2552 35.4622C19.2552 35.3771 19.2552 35.2921 19.1711 35.2921C18.7506 34.6968 18.4143 34.1015 18.0779 33.6763C17.4893 33.5913 16.9006 33.6763 16.6483 33.4212Z" fill="black"/>
<path fill-rule="evenodd" clip-rule="evenodd" d="M25.8153 47.8786C25.9835 48.3888 26.488 48.3888 26.9926 47.8786C25.8153 46.5179 24.7221 45.1573 23.5448 43.7966C22.9562 44.3919 22.9562 44.4769 23.1243 44.732C23.4607 45.2423 23.8811 45.7525 24.3016 46.2628C24.8062 46.8581 25.4789 47.1132 25.8153 47.8786Z" fill="black"/>
<path fill-rule="evenodd" clip-rule="evenodd" d="M11.2656 9.18448C11.4338 10.1199 13.6202 11.8208 14.9657 11.9909C14.7975 11.7357 14.7134 11.5656 14.6293 11.3956C14.2088 10.8853 13.7884 10.3751 13.2838 9.86481C12.9475 9.52464 13.0316 9.18446 13.2838 8.8443C13.0316 8.67421 12.6952 8.41908 12.4429 8.24899C12.1066 8.84429 12.1065 8.84432 11.2656 9.18448Z" fill="black"/>
<path fill-rule="evenodd" clip-rule="evenodd" d="M96.1158 61.0594C96.3681 61.3146 96.8726 61.3146 97.209 61.4846C97.2931 61.3996 97.3772 61.3145 97.3772 61.1445C96.8726 60.3791 96.1158 59.9539 95.2749 59.6137C94.434 59.2735 94.0976 58.2531 93.0044 58.2531C93.7612 59.5287 95.2749 59.9539 96.1158 61.0594Z" fill="black"/>
<path fill-rule="evenodd" clip-rule="evenodd" d="M103.094 64.3773C104.103 66.2482 105.449 67.6089 106.71 67.7789C105.281 66.5884 104.86 64.8025 103.094 64.3773Z" fill="black"/>
<path fill-rule="evenodd" clip-rule="evenodd" d="M76.4379 94.9914C75.6811 94.4812 75.3447 93.4607 74.3356 93.0355C74.0834 93.7158 74.3357 93.8859 74.672 94.056C75.0925 94.2261 75.597 94.4812 75.7652 94.8214C76.2698 95.9269 77.1948 96.5222 78.0357 97.2876C78.1198 97.2025 78.2039 97.1175 78.288 97.0324C77.6993 96.3521 77.1948 95.5017 76.4379 94.9914Z" fill="black"/>
<path fill-rule="evenodd" clip-rule="evenodd" d="M118.82 82.1501C118.988 82.2352 119.409 82.1501 119.913 82.1501C119.156 80.9596 118.147 80.7044 117.054 80.4493C117.222 81.3848 118.147 81.6399 118.82 82.1501Z" fill="black"/>
<path fill-rule="evenodd" clip-rule="evenodd" d="M17.6573 15.9033C18.2459 15.4781 18.33 15.138 17.9096 14.7128C17.6573 14.4576 17.4891 14.1175 17.3209 13.8623C17.1527 13.6072 16.9004 13.267 16.6482 12.9268C16.1436 14.2025 16.3959 14.9679 17.6573 15.9033Z" fill="black"/>
<path fill-rule="evenodd" clip-rule="evenodd" d="M80.1377 99.669C80.8104 100.604 81.2309 101.455 82.3241 101.625C82.0718 100.945 81.8195 100.179 81.4831 99.3289C81.0627 99.4139 80.7263 99.4989 80.1377 99.669Z" fill="black"/>
<path fill-rule="evenodd" clip-rule="evenodd" d="M56.4231 24.8322C57.264 24.322 57.4322 24.7472 57.6845 25.2574C57.8527 25.5125 57.9368 25.9378 58.6936 25.5126C58.105 24.8323 57.5163 24.237 56.9277 23.6417C56.255 24.237 56.255 24.237 55.2458 24.0669C55.414 24.6622 55.8345 25.1724 56.4231 24.8322Z" fill="black"/>
<path fill-rule="evenodd" clip-rule="evenodd" d="M34.3082 56.2973C34.2241 57.9131 35.2332 58.4233 35.8218 59.2737C35.7377 58.0832 35.3173 57.1477 34.3082 56.2973Z" fill="black"/>
<path fill-rule="evenodd" clip-rule="evenodd" d="M17.8252 39.2039C17.657 37.8432 17.2365 37.3329 16.1433 37.0778C16.3115 38.0133 16.9001 38.6936 17.8252 39.2039Z" fill="black"/>
<path fill-rule="evenodd" clip-rule="evenodd" d="M30.6089 52.0455C30.9453 53.6613 31.1976 54.0015 31.9544 54.4267C31.9544 53.4062 31.5339 52.6408 30.6089 52.0455Z" fill="black"/>
<path fill-rule="evenodd" clip-rule="evenodd" d="M121.763 88.0182C121.511 86.5725 121.09 85.7221 120.165 85.1268C120.67 86.1473 121.09 87.1678 121.595 88.1883C121.595 88.1883 121.679 88.1033 121.763 88.0182Z" fill="black"/>
<path fill-rule="evenodd" clip-rule="evenodd" d="M4.53906 13.3515C4.79134 14.372 5.04365 14.6271 6.05276 14.9673C5.46411 13.7767 5.46407 13.7767 4.53906 13.3515Z" fill="black"/>
<path fill-rule="evenodd" clip-rule="evenodd" d="M20.8536 17.8586C20.265 17.1782 20.265 17.1782 19.4241 17.9436C19.6763 18.1987 19.8446 18.4538 20.1809 18.879C20.4332 18.4538 20.6855 18.1137 20.8536 17.8586Z" fill="black"/>
<path fill-rule="evenodd" clip-rule="evenodd" d="M9.58572 11.9063C9.83799 11.6512 10.0062 11.396 10.2585 11.1409C9.0812 11.7362 9.16528 10.5456 8.66073 10.2054C8.32436 10.9708 8.40843 11.0559 9.58572 11.9063Z" fill="black"/>
<path fill-rule="evenodd" clip-rule="evenodd" d="M19.5069 41.0751C19.5069 39.7145 19.1705 39.2892 18.1614 39.3743C18.6659 40.0546 19.0864 40.5649 19.5069 41.0751Z" fill="black"/>
<path fill-rule="evenodd" clip-rule="evenodd" d="M89.3879 113.445C89.472 114.211 89.388 114.891 90.1448 115.231C90.313 114.126 90.313 114.041 89.3879 113.445Z" fill="black"/>
<path fill-rule="evenodd" clip-rule="evenodd" d="M14.3792 14.7972C14.3792 15.0523 14.6315 15.2225 14.8837 15.3075C14.9678 15.3075 15.2201 15.1374 15.4723 14.9673C15.136 14.4571 14.8837 14.1169 14.5473 13.6917C14.4633 14.0318 14.3792 14.457 14.3792 14.7972Z" fill="black"/>
<path fill-rule="evenodd" clip-rule="evenodd" d="M19.3394 32.7409C19.2553 32.8259 19.0871 32.8259 19.003 32.9109C18.6666 33.5912 19.0871 33.8464 19.8439 33.8464C19.6757 33.5062 19.5075 33.1661 19.3394 32.7409Z" fill="black"/>
<path fill-rule="evenodd" clip-rule="evenodd" d="M84.0906 107.153C84.1747 107.323 84.2588 107.493 84.511 107.918C84.7633 107.323 84.9315 106.898 85.0156 106.558C84.9315 106.558 84.9315 106.473 84.8474 106.473C84.5951 106.643 84.4269 106.898 84.0906 107.153Z" fill="black"/>
<path fill-rule="evenodd" clip-rule="evenodd" d="M70.3831 89.5489C70.1309 89.2088 69.7945 88.8686 69.374 88.3583C69.4581 89.5489 69.4581 89.634 70.3831 89.5489Z" fill="black"/>
<path fill-rule="evenodd" clip-rule="evenodd" d="M55.4982 22.1112C55.1618 21.686 54.8255 21.3458 54.405 20.9206C54.4891 21.601 54.9096 21.9411 55.4982 22.1112Z" fill="black"/>
<path fill-rule="evenodd" clip-rule="evenodd" d="M18.0772 23.5565C17.9931 23.6416 17.909 23.7266 17.825 23.7266C17.9931 24.0668 18.3295 24.2369 18.7499 24.3219C18.4977 24.0668 18.3295 23.8116 18.0772 23.5565Z" fill="black"/>
<path fill-rule="evenodd" clip-rule="evenodd" d="M5.63232 21.0902C5.80051 21.4304 6.05274 21.6855 6.22093 22.0257C6.30502 21.9406 6.38913 21.8556 6.55731 21.7706C6.38913 21.4304 6.13684 21.1753 5.96866 20.8351C5.80048 21.0052 5.71642 21.0902 5.63232 21.0902Z" fill="black"/>
<path fill-rule="evenodd" clip-rule="evenodd" d="M6.30492 13.3513C6.05265 13.0962 5.88447 12.8411 5.6322 12.5859C5.54811 12.671 5.46397 12.756 5.37988 12.8411C5.63216 13.0962 5.80038 13.3513 6.05266 13.6064C6.13675 13.5214 6.22083 13.4363 6.30492 13.3513Z" fill="black"/>
<path fill-rule="evenodd" clip-rule="evenodd" d="M71.0557 90.2295C71.3079 90.4846 71.5602 90.7397 71.8966 90.9098C71.9807 90.8248 71.9807 90.8247 72.0648 90.7397C71.8125 90.4846 71.5602 90.3145 71.3079 90.0594C71.1397 90.1444 71.0557 90.2295 71.0557 90.2295Z" fill="black"/>
<path fill-rule="evenodd" clip-rule="evenodd" d="M20.3474 36.5684C20.5997 36.8235 20.852 36.9936 21.0201 37.1636C21.0201 36.7384 21.0201 36.3133 20.3474 36.5684Z" fill="black"/>
<path fill-rule="evenodd" clip-rule="evenodd" d="M23.2074 28.9144C23.2915 28.8293 23.2915 28.8293 23.3756 28.7443C23.2074 28.5742 23.0393 28.4041 22.8711 28.234C22.787 28.234 22.787 28.3191 22.7029 28.3191C22.787 28.4041 22.787 28.5742 22.8711 28.6592C22.9552 28.7443 23.1233 28.8293 23.2074 28.9144Z" fill="black"/>
<path fill-rule="evenodd" clip-rule="evenodd" d="M20.0956 25.5126C19.9274 25.2575 19.6751 25.0873 19.507 24.8322C19.4229 24.9173 19.3387 25.0023 19.2546 25.0874C19.4228 25.2575 19.6751 25.5126 19.8433 25.6826C19.9274 25.6826 20.0115 25.5976 20.0956 25.5126Z" fill="black"/>
<path fill-rule="evenodd" clip-rule="evenodd" d="M62.3955 83.3406C62.6478 83.5957 62.9 83.7658 63.1523 84.0209C63.1523 84.0209 63.1523 83.9359 63.2364 83.9359C62.9842 83.7658 62.7319 83.5107 62.3955 83.3406C62.4796 83.3406 62.3955 83.3406 62.3955 83.3406Z" fill="black"/>
<path fill-rule="evenodd" clip-rule="evenodd" d="M33.8882 8.92912C33.8882 8.84408 33.9723 8.84407 33.9723 8.75903C33.8041 8.5039 33.5518 8.24879 33.3837 8.0787C33.2996 8.16375 33.2154 8.1637 33.1313 8.24875C33.2154 8.41883 33.2996 8.58891 33.3837 8.67395C33.5518 8.84404 33.72 8.84408 33.8882 8.92912Z" fill="black"/>
<path fill-rule="evenodd" clip-rule="evenodd" d="M112.513 29.7643C112.849 29.254 113.269 28.8288 113.522 28.3185C114.11 27.213 114.11 27.128 113.858 26.6177C113.185 27.5532 112.176 28.1484 112.176 29.5091C112.344 29.5941 112.429 29.6792 112.513 29.7643Z" fill="black"/>
<path fill-rule="evenodd" clip-rule="evenodd" d="M95.3577 45.4124C96.1145 45.0722 96.7031 44.562 97.0395 43.7115C96.1986 43.6265 95.3577 44.3919 95.3577 45.4124Z" fill="black"/>
<path fill-rule="evenodd" clip-rule="evenodd" d="M93.8452 47.1982C94.4338 47.0281 94.4339 47.0281 94.602 46.4328C94.2657 46.773 94.0134 46.9431 93.8452 47.1982Z" fill="black"/>
<path fill-rule="evenodd" clip-rule="evenodd" d="M38.4287 114.041C38.9333 113.956 39.1855 113.871 39.4378 113.871C38.9332 113.191 38.8492 113.616 38.4287 114.041Z" fill="black"/>
<path fill-rule="evenodd" clip-rule="evenodd" d="M97.5437 43.5414C97.8801 43.2862 98.0482 43.1162 98.2164 42.9461C97.9641 42.9461 97.5437 42.776 97.5437 43.5414Z" fill="black"/>
<path fill-rule="evenodd" clip-rule="evenodd" d="M97.9643 17.9439C98.2166 17.7738 98.4689 17.6037 98.6371 17.3486C98.553 17.2635 98.4689 17.1785 98.4689 17.0935C98.2166 17.2636 97.9643 17.4337 97.7961 17.6888C97.8802 17.8589 97.9643 17.9439 97.9643 17.9439Z" fill="black"/>
<path fill-rule="evenodd" clip-rule="evenodd" d="M94.2649 21.1757C94.349 21.2608 94.4331 21.3458 94.4331 21.4308C94.6013 21.3458 94.7694 21.1758 94.8535 21.0907C94.7694 21.0057 94.7694 21.0057 94.6853 20.9206C94.6013 21.0057 94.4331 21.0907 94.2649 21.1757Z" fill="black"/>
<path fill-rule="evenodd" clip-rule="evenodd" d="M111.926 21.2605C111.842 21.0053 111.758 20.8352 111.674 20.5801C111.59 20.5801 111.506 20.5801 111.422 20.6652C111.506 20.9203 111.506 21.0904 111.59 21.3455C111.674 21.3455 111.758 21.3455 111.926 21.2605Z" fill="black"/>
<path fill-rule="evenodd" clip-rule="evenodd" d="M111.251 22.9609C111.419 22.8758 111.588 22.7057 111.756 22.6207C111.672 22.5356 111.588 22.4506 111.503 22.3656C111.335 22.5357 111.251 22.6207 111.083 22.7908C111.083 22.7908 111.251 22.9609 111.251 22.9609Z" fill="black"/>
<path fill-rule="evenodd" clip-rule="evenodd" d="M95.1906 21.7707C95.1906 21.7707 95.1065 21.6006 95.0224 21.5156C94.9383 21.6006 94.8542 21.6856 94.686 21.7707C94.7701 21.8557 94.7701 21.9408 94.8542 21.9408C95.0224 21.9408 95.1065 21.8557 95.1906 21.7707Z" fill="black"/>
<path fill-rule="evenodd" clip-rule="evenodd" d="M38.0068 107.918C38.0909 108.003 38.175 108.003 38.2591 108.088C38.3432 107.918 38.4273 107.748 38.5114 107.578C38.4273 107.578 38.3432 107.493 38.3432 107.408C38.175 107.578 38.0909 107.748 38.0068 107.918Z" fill="black"/>
<path fill-rule="evenodd" clip-rule="evenodd" d="M9.08273 33.2515C8.66227 32.6563 8.41002 32.231 8.15774 31.8058C8.24183 31.7208 8.32592 31.6357 8.41001 31.5507C8.99865 32.231 9.50318 32.8264 10.1759 33.5917C9.83955 33.5917 9.5873 33.5067 9.41912 33.5067C9.75549 34.0169 9.83958 34.7823 10.6805 35.0374C10.7646 34.1019 10.8487 33.4216 10.26 32.8263C9.50321 31.9759 8.5782 31.2105 8.5782 29.8499C8.5782 29.7648 8.41001 29.6798 8.41001 29.5948C8.07364 29.1695 7.73724 28.8294 7.48497 28.4041C7.1486 27.8089 6.72818 27.3837 6.05544 27.0435C5.13043 26.6183 4.54179 25.8529 4.37361 24.6623C4.28952 24.1521 3.86904 23.6418 3.61676 23.3016C3.1963 23.4717 2.85991 23.5568 2.43945 23.7268C2.85991 24.3221 3.19632 24.9174 3.53269 25.4277C3.61678 25.5127 3.53269 25.6828 3.53269 25.8529C3.19632 25.6828 2.94401 25.5978 2.60765 25.4277C2.43946 26.2781 2.85993 26.7033 3.1963 27.1285C4.45768 28.7443 5.80313 30.2751 7.06451 31.8058C7.40087 32.231 7.82137 32.5712 8.15774 32.9114C8.32593 33.0814 8.57818 33.0815 9.08273 33.2515ZM3.95315 26.1931C4.12133 26.4482 4.3736 26.7033 4.62587 26.9584C4.03723 26.8734 4.03724 26.8734 3.95315 26.1931ZM5.97132 29.3396C5.80314 29.0845 5.55085 28.8294 5.38267 28.5742C5.46676 28.4892 5.55089 28.4892 5.63499 28.4041C5.80317 28.6593 6.0554 28.9144 6.22359 29.1695C6.1395 29.1695 6.05541 29.2546 5.97132 29.3396ZM6.4759 29.8499C6.98046 29.8499 7.31681 29.9349 7.56909 29.4247C8.57819 29.6798 8.07363 30.4452 7.82135 31.2956C7.40089 30.8704 6.98046 30.4452 6.4759 29.8499Z" fill="black"/>
<path fill-rule="evenodd" clip-rule="evenodd" d="M12.109 35.7177C11.7727 35.4625 11.7727 34.8672 11.6045 34.357C11.3522 34.7822 11.184 35.1223 10.8477 35.6326C11.2681 36.1428 11.7727 36.7382 12.2772 37.2484C12.7818 37.7587 13.3704 38.2689 13.875 38.7792C15.1364 39.8847 15.1364 39.8847 15.6409 39.8847C15.6409 39.7997 15.6409 39.6296 15.5568 39.5446C15.0523 39.1193 14.2955 38.7791 14.7159 37.7586C14.7159 37.6736 14.7159 37.5886 14.6318 37.5886C14.2113 36.9933 13.875 36.398 13.5386 35.9728C12.95 35.8027 12.3613 35.8878 12.109 35.7177Z" fill="black"/>
<path fill-rule="evenodd" clip-rule="evenodd" d="M21.2757 50.1752C21.4439 50.6854 21.9485 50.6854 22.4531 50.1752C21.2758 48.8145 20.1825 47.4538 19.0053 46.0931C18.4166 46.6884 18.4166 46.7735 18.5848 47.0286C18.9212 47.5389 19.3416 48.0491 19.7621 48.5594C20.2667 49.0696 20.9394 49.4098 21.2757 50.1752Z" fill="black"/>
<path fill-rule="evenodd" clip-rule="evenodd" d="M8.74683 11.0555C8.83092 11.0555 8.83093 11.0555 8.91502 11.0555C8.83093 11.0555 8.74683 10.9705 8.74683 11.0555C8.74683 10.9705 8.74683 10.9705 8.74683 11.0555Z" fill="black"/>
<path fill-rule="evenodd" clip-rule="evenodd" d="M6.72656 11.3958C6.89475 12.3313 9.08111 14.0321 10.4266 14.2022C10.2584 13.9471 10.1743 13.777 10.0902 13.6069C9.66978 13.0967 9.24929 12.5864 8.74474 12.0762C8.40837 11.736 8.49246 11.3959 8.74474 11.0557C8.49246 10.8856 8.15609 10.6305 7.90382 10.4604C7.56745 11.0557 7.56748 11.0557 6.72656 11.3958Z" fill="black"/>
<path fill-rule="evenodd" clip-rule="evenodd" d="M91.5767 63.2712C91.829 63.5263 92.3335 63.5263 92.6699 63.6964C92.754 63.6114 92.838 63.5264 92.838 63.3563C92.3335 62.5909 91.5767 62.1657 90.7358 61.8255C89.8948 61.4853 89.5585 60.4648 88.4653 60.4648C89.2222 61.8255 90.7358 62.1657 91.5767 63.2712Z" fill="black"/>
<path fill-rule="evenodd" clip-rule="evenodd" d="M98.5552 66.5876C99.5643 68.4585 100.91 69.8192 102.171 69.9893C100.742 68.7987 100.321 67.0128 98.5552 66.5876Z" fill="black"/>
<path fill-rule="evenodd" clip-rule="evenodd" d="M71.8994 97.288C71.1425 96.7777 70.8062 95.7572 69.7971 95.332C69.5448 96.0123 69.797 96.1824 70.1334 96.3525C70.5539 96.5226 71.0585 96.7777 71.2267 97.1179C71.7312 98.2234 72.6562 98.8187 73.4971 99.5841C73.5812 99.499 73.6653 99.414 73.7494 99.329C73.1608 98.5636 72.6562 97.7982 71.8994 97.288Z" fill="black"/>
<path fill-rule="evenodd" clip-rule="evenodd" d="M114.281 84.3616C114.449 84.4466 114.87 84.3616 115.374 84.3616C114.617 83.171 113.608 82.9159 112.515 82.6607C112.683 83.5962 113.608 83.8513 114.281 84.3616Z" fill="black"/>
<path fill-rule="evenodd" clip-rule="evenodd" d="M13.1182 18.1991C13.7069 17.7739 13.7909 17.4338 13.3705 17.0086C13.1182 16.7534 12.9501 16.4133 12.7819 16.1581C12.6137 15.903 12.3614 15.5628 12.1091 15.2227C11.6046 16.4132 11.8568 17.2637 13.1182 18.1991Z" fill="black"/>
<path fill-rule="evenodd" clip-rule="evenodd" d="M75.5986 101.88C76.2714 102.816 76.6918 103.666 77.785 103.836C77.5328 103.156 77.2805 102.39 76.9441 101.54C76.5237 101.625 76.1873 101.71 75.5986 101.88Z" fill="black"/>
<path fill-rule="evenodd" clip-rule="evenodd" d="M51.8841 27.0436C52.725 26.5334 52.8932 26.9586 53.1455 27.4688C53.3137 27.724 53.3977 28.1492 54.1545 27.724C53.5659 27.0436 52.9773 26.4483 52.3886 25.853C51.7159 26.4483 51.7159 26.4483 50.7068 26.2782C50.875 26.9586 51.2955 27.4688 51.8841 27.0436Z" fill="black"/>
<path fill-rule="evenodd" clip-rule="evenodd" d="M29.7689 58.509C29.6848 60.1248 30.6939 60.6351 31.2825 61.4855C31.1985 60.2949 30.778 59.3594 29.7689 58.509Z" fill="black"/>
<path fill-rule="evenodd" clip-rule="evenodd" d="M13.2861 41.4156C13.1179 40.0549 12.6974 39.5447 11.6042 39.2896C11.7724 40.3101 12.3611 40.9054 13.2861 41.4156Z" fill="black"/>
<path fill-rule="evenodd" clip-rule="evenodd" d="M26.0676 54.2569C26.404 55.8727 26.6562 56.2128 27.4131 56.638C27.4131 55.6175 26.9926 54.8522 26.0676 54.2569Z" fill="black"/>
<path fill-rule="evenodd" clip-rule="evenodd" d="M117.223 90.2297C116.971 88.784 116.551 87.9335 115.626 87.3382C116.13 88.3587 116.551 89.3793 117.055 90.3998C117.055 90.3998 117.139 90.3147 117.223 90.2297Z" fill="black"/>
<path fill-rule="evenodd" clip-rule="evenodd" d="M0 15.648C0.252276 16.6685 0.504541 16.9237 1.51364 17.2638C0.925 15.9882 0.92501 15.9882 0 15.648Z" fill="black"/>
<path fill-rule="evenodd" clip-rule="evenodd" d="M16.314 20.0703C15.7254 19.39 15.7254 19.39 14.8845 20.1553C15.1368 20.4105 15.305 20.6656 15.6413 21.0908C15.8936 20.6656 16.1459 20.4105 16.314 20.0703Z" fill="black"/>
<path fill-rule="evenodd" clip-rule="evenodd" d="M5.04669 14.117C5.29897 13.8619 5.46714 13.6067 5.71942 13.3516C4.54213 13.9469 4.6262 12.7563 4.12165 12.4162C3.78528 13.1815 3.86941 13.2666 5.04669 14.117Z" fill="black"/>
<path fill-rule="evenodd" clip-rule="evenodd" d="M14.9678 43.3714C14.9678 42.0107 14.6314 41.5855 13.6223 41.6705C14.1269 42.2658 14.5473 42.7761 14.9678 43.3714Z" fill="black"/>
<path fill-rule="evenodd" clip-rule="evenodd" d="M84.8489 115.742C84.933 116.507 84.8489 117.188 85.6057 117.528C85.7739 116.337 85.7739 116.252 84.8489 115.742Z" fill="black"/>
<path fill-rule="evenodd" clip-rule="evenodd" d="M9.8396 17.0087C9.8396 17.2638 10.0919 17.4339 10.3441 17.5189C10.4282 17.5189 10.6805 17.3488 10.9328 17.1787C10.5964 16.6685 10.3441 16.3283 10.0077 15.9031C9.92365 16.2433 9.8396 16.6685 9.8396 17.0087Z" fill="black"/>
<path fill-rule="evenodd" clip-rule="evenodd" d="M14.7998 35.0374C14.7157 35.1225 14.5475 35.1225 14.4634 35.2075C14.127 35.8878 14.5475 36.143 15.3043 36.143C15.1362 35.8028 14.9679 35.3776 14.7998 35.0374Z" fill="black"/>
<path fill-rule="evenodd" clip-rule="evenodd" d="M79.5493 109.363C79.6334 109.533 79.7175 109.704 79.9698 110.129C80.222 109.533 80.3903 109.108 80.4744 108.768C80.3903 108.768 80.3903 108.683 80.3062 108.683C80.0539 108.938 79.8857 109.108 79.5493 109.363Z" fill="black"/>
<path fill-rule="evenodd" clip-rule="evenodd" d="M65.8441 91.7599C65.5918 91.4198 65.2554 91.0796 64.835 90.5694C64.9191 91.76 64.9191 91.845 65.8441 91.7599Z" fill="black"/>
<path fill-rule="evenodd" clip-rule="evenodd" d="M50.9591 24.3223C50.6228 23.8971 50.2864 23.5569 49.866 23.1317C49.9501 23.812 50.3705 24.1522 50.9591 24.3223Z" fill="black"/>
<path fill-rule="evenodd" clip-rule="evenodd" d="M13.5382 25.7679C13.4541 25.8529 13.37 25.938 13.2859 25.938C13.4541 26.2781 13.7904 26.4482 14.2109 26.5332C13.9586 26.2781 13.7904 26.023 13.5382 25.7679Z" fill="black"/>
<path fill-rule="evenodd" clip-rule="evenodd" d="M1.09326 23.3869C1.26145 23.727 1.51373 23.9821 1.68191 24.3223C1.76601 24.2372 1.85007 24.1522 2.01825 24.0672C1.85007 23.727 1.59783 23.4719 1.42965 23.1317C1.26147 23.2167 1.17735 23.3018 1.09326 23.3869Z" fill="black"/>
<path fill-rule="evenodd" clip-rule="evenodd" d="M1.76581 15.5631C1.51353 15.3079 1.34536 15.0528 1.09309 14.7977C1.00899 14.8827 0.924912 14.9677 0.84082 15.0528C1.0931 15.3079 1.26127 15.5631 1.51354 15.8182C1.59764 15.8182 1.68172 15.7331 1.76581 15.5631Z" fill="black"/>
<path fill-rule="evenodd" clip-rule="evenodd" d="M66.5166 92.5257C66.7689 92.7808 67.0212 93.0359 67.3575 93.206C67.4416 93.1209 67.4416 93.1209 67.5257 93.0359C67.2734 92.7808 67.0211 92.6107 66.7689 92.3556C66.6007 92.4406 66.5166 92.4406 66.5166 92.5257Z" fill="black"/>
<path fill-rule="evenodd" clip-rule="evenodd" d="M15.8083 38.8639C16.0606 39.119 16.3129 39.2891 16.4811 39.4592C16.4811 38.9489 16.4811 38.5237 15.8083 38.8639Z" fill="black"/>
<path fill-rule="evenodd" clip-rule="evenodd" d="M18.6684 31.1254C18.7525 31.0404 18.7525 31.0403 18.8365 30.9553C18.6684 30.7852 18.5002 30.6152 18.332 30.4451C18.2479 30.4451 18.2479 30.5301 18.1638 30.5301C18.2479 30.6151 18.2479 30.7852 18.332 30.8703C18.4161 30.9553 18.5843 31.0404 18.6684 31.1254Z" fill="black"/>
<path fill-rule="evenodd" clip-rule="evenodd" d="M15.5563 27.8087C15.3881 27.5536 15.1358 27.3835 14.9676 27.1284C14.8835 27.2135 14.7994 27.2985 14.7153 27.3835C14.8835 27.5536 15.1358 27.8087 15.304 27.9788C15.3881 27.8938 15.4722 27.8087 15.5563 27.8087Z" fill="black"/>
<path fill-rule="evenodd" clip-rule="evenodd" d="M57.856 85.637C58.1082 85.8921 58.3605 86.0622 58.6128 86.3173C58.6128 86.3173 58.6128 86.2322 58.6969 86.2322C58.4446 85.9771 58.1923 85.722 57.856 85.637C57.94 85.5519 57.856 85.5519 57.856 85.637Z" fill="black"/>
<path fill-rule="evenodd" clip-rule="evenodd" d="M29.3491 11.2257C29.3491 11.1406 29.4332 11.1407 29.4332 11.0556C29.265 10.8005 29.0127 10.5454 28.8446 10.3753C28.7605 10.4603 28.6764 10.4603 28.5923 10.5454C28.6764 10.7155 28.7605 10.8855 28.8446 10.9706C29.0127 11.0556 29.1809 11.1406 29.3491 11.2257Z" fill="black"/>
<path fill-rule="evenodd" clip-rule="evenodd" d="M107.974 31.976C108.31 31.4658 108.73 31.0406 108.983 30.5303C109.571 29.4248 109.571 29.3397 109.319 28.8295C108.646 29.7649 107.637 30.3602 107.637 31.7209C107.805 31.806 107.889 31.891 107.974 31.976Z" fill="black"/>
<path fill-rule="evenodd" clip-rule="evenodd" d="M90.904 47.6234C91.6608 47.2833 92.2495 46.773 92.5859 45.9226C91.6608 45.8376 90.8199 46.6029 90.904 47.6234Z" fill="black"/>
<path fill-rule="evenodd" clip-rule="evenodd" d="M89.3062 49.4096C89.8948 49.2395 89.8947 49.2395 90.0629 48.6442C89.7266 48.9844 89.4743 49.2395 89.3062 49.4096Z" fill="black"/>
<path fill-rule="evenodd" clip-rule="evenodd" d="M33.8896 116.252C34.3942 116.167 34.6465 116.082 34.8988 116.082C34.3942 115.402 34.3101 115.827 33.8896 116.252Z" fill="black"/>
<path fill-rule="evenodd" clip-rule="evenodd" d="M93.0046 45.7524C93.341 45.4973 93.5092 45.3272 93.6774 45.1571C93.4251 45.1571 93.0046 44.987 93.0046 45.7524Z" fill="black"/>
<path fill-rule="evenodd" clip-rule="evenodd" d="M93.4253 20.2401C93.6775 20.07 93.9298 19.9 94.098 19.6448C94.0139 19.5598 93.9299 19.4748 93.9299 19.3897C93.6776 19.5598 93.4253 19.7299 93.2571 19.985C93.3412 20.0701 93.4253 20.1551 93.4253 20.2401Z" fill="black"/>
<path fill-rule="evenodd" clip-rule="evenodd" d="M89.7253 23.4716C89.8094 23.5566 89.8935 23.6417 89.8935 23.7267C90.0617 23.6417 90.2298 23.4716 90.3139 23.3866C90.2298 23.3015 90.2299 23.3015 90.1458 23.2165C90.0617 23.2165 89.8935 23.3015 89.7253 23.4716Z" fill="black"/>
<path fill-rule="evenodd" clip-rule="evenodd" d="M107.387 23.4715C107.303 23.2163 107.219 23.0463 107.135 22.7911C107.051 22.7911 106.967 22.7911 106.883 22.8762C106.967 23.1313 106.967 23.3014 107.051 23.5565C107.135 23.5565 107.219 23.5565 107.387 23.4715Z" fill="black"/>
<path fill-rule="evenodd" clip-rule="evenodd" d="M106.712 25.1726C106.88 25.0876 107.048 24.9175 107.217 24.8324C107.133 24.7474 107.048 24.6624 106.964 24.5773C106.796 24.7474 106.712 24.8325 106.544 25.0025C106.628 25.0025 106.712 25.1726 106.712 25.1726Z" fill="black"/>
<path fill-rule="evenodd" clip-rule="evenodd" d="M90.6515 23.9821C90.6515 23.9821 90.5674 23.812 90.4833 23.727C90.3992 23.812 90.3152 23.8971 90.147 23.9821C90.2311 24.0671 90.231 24.1522 90.3151 24.1522C90.4833 24.1522 90.5674 24.0671 90.6515 23.9821Z" fill="black"/>
<path fill-rule="evenodd" clip-rule="evenodd" d="M33.4678 110.13C33.5519 110.215 33.6359 110.215 33.72 110.3C33.8041 110.129 33.8882 109.959 33.9723 109.789C33.8882 109.789 33.8042 109.704 33.8042 109.619C33.636 109.874 33.5519 109.959 33.4678 110.13Z" fill="black"/>
</svg>
