<svg version="1.2" baseProfile="tiny-ps" xmlns="http://www.w3.org/2000/svg" viewBox="0 0 1920 1286" width="1920" height="1286">
	<title>dark-bg-svg</title>
	<defs>
		<clipPath clipPathUnits="userSpaceOnUse" id="cp1">
			<path d="M-102 -9L2021 -9L2021 1277L-102 1277L-102 -9Z" />
		</clipPath>
	</defs>
	<style>
		tspan { white-space:pre }
		.shp0 { fill: #0f0f0f } 
		.shp1 { fill: none;stroke: #ffffff;stroke-width: 0.943 } 
	</style>
	<path id="Layer" class="shp0" d="M0 -11L1922 -11L1922 1286L0 1286L0 -11Z" />
	<g id="Clip-Path" clip-path="url(#cp1)">
		<g id="Layer">
			<g id="Layer" style="opacity: 0.102">
				<path id="Layer" class="shp1" d="M-102 1257.61L-41.17 1257.61C-5.03 1257.61 19.66 1273.87 19.66 1305.79L19.66 1306.39C19.66 1338.92 -5.03 1356.38 -41.77 1356.38L-56.23 1356.38L-56.23 1393.12L-101.4 1393.12L-101.4 1257.61L-102 1257.61ZM-44.18 1323.26L-56.83 1323.26L-56.83 1293.14L-44.18 1293.14C-32.13 1293.14 -24.91 1298.56 -24.91 1308.2L-24.91 1308.8C-24.91 1318.44 -32.74 1323.86 -44.18 1323.86L-44.18 1323.26Z" />
				<path id="Layer" class="shp1" d="M26.29 1269.05C26.29 1229.3 58.81 1197.98 100.37 1197.98C141.93 1197.98 173.85 1228.7 173.85 1268.45L173.85 1269.05C173.85 1308.2 141.33 1339.52 99.77 1339.52C58.21 1339.52 26.29 1308.2 26.29 1269.05ZM100.37 1299.77C82.9 1299.77 72.06 1285.31 72.06 1269.05L72.06 1268.45C72.06 1252.79 82.9 1238.33 100.37 1238.33C117.84 1238.33 128.68 1252.79 128.68 1269.05C128.68 1284.71 117.84 1299.16 100.37 1299.77Z" />
				<path id="Layer" class="shp1" d="M186.5 1257.61L247.33 1257.61C283.46 1257.61 308.16 1273.87 308.16 1305.79L308.16 1306.39C308.16 1338.92 283.46 1356.38 246.72 1356.38L232.27 1356.38L232.27 1393.12L187.1 1393.12L187.1 1257.61L186.5 1257.61ZM244.32 1323.26L231.67 1323.26L231.67 1293.14L244.32 1293.14C256.36 1293.14 263.59 1298.56 263.59 1308.2L263.59 1308.8C263.59 1318.44 255.76 1323.86 244.32 1323.86L244.32 1323.26Z" />
				<path id="Layer" class="shp1" d="M506.92 1200.99L552.09 1200.99L552.09 1297.96L615.93 1297.96L615.93 1336.51L506.92 1336.51L506.92 1200.99Z" />
				<path id="Layer" class="shp1" d="M677.97 1257.61L728.56 1257.61L755.06 1333.5L781.56 1257.61L831.55 1257.61L776.75 1394.33L733.38 1394.33L677.97 1257.61Z" />
				<path id="Layer" class="shp1" d="M836.97 1200.99L952.61 1200.99L952.61 1238.33L881.54 1238.33L881.54 1252.19L947.79 1252.19L947.79 1284.71L881.54 1284.71L881.54 1299.17L953.82 1299.17L953.82 1336.51L836.97 1336.51L836.97 1200.99Z" />
				<path id="Layer" class="shp1" d="M1025.49 1257.61L1086.32 1257.61C1122.46 1257.61 1147.16 1273.87 1147.16 1305.79L1147.16 1306.39C1147.16 1338.92 1122.46 1356.38 1085.72 1356.38L1071.27 1356.38L1071.27 1393.12L1026.09 1393.12L1026.09 1257.61L1025.49 1257.61ZM1083.31 1323.26L1070.66 1323.26L1070.66 1293.14L1083.31 1293.14C1095.36 1293.14 1102.59 1298.56 1102.59 1308.2L1102.59 1308.8C1102.59 1318.44 1094.76 1323.86 1083.31 1323.86L1083.31 1323.26Z" />
				<path id="Layer" class="shp1" d="M1153.78 1269.05C1153.78 1229.3 1186.3 1197.98 1227.86 1197.98C1269.42 1197.98 1301.34 1228.7 1301.34 1268.45L1301.34 1269.05C1301.34 1308.2 1268.82 1339.52 1227.26 1339.52C1185.7 1339.52 1153.78 1308.2 1153.78 1269.05ZM1227.86 1299.77C1210.4 1299.77 1199.56 1285.31 1199.56 1269.05L1199.56 1268.45C1199.56 1252.79 1210.4 1238.33 1227.86 1238.33C1245.33 1238.33 1256.17 1252.79 1256.17 1269.05C1256.17 1284.71 1245.33 1299.16 1227.86 1299.77Z" />
				<path id="Layer" class="shp1" d="M1313.99 1257.61L1375.42 1257.61C1411.56 1257.61 1436.25 1273.87 1436.25 1305.79L1436.25 1306.39C1436.25 1338.92 1411.56 1356.38 1374.82 1356.38L1360.36 1356.38L1360.36 1393.12L1315.19 1393.12L1315.19 1257.61L1313.99 1257.61ZM1371.81 1323.26L1359.16 1323.26L1359.16 1293.14L1371.81 1293.14C1383.85 1293.14 1391.08 1298.56 1391.08 1308.2L1391.08 1308.8C1391.08 1318.44 1383.25 1323.86 1371.81 1323.86L1371.81 1323.26Z" />
				<path id="Layer" class="shp1" d="M1634.41 1200.99L1679.58 1200.99L1679.58 1297.96L1743.43 1297.96L1743.43 1336.51L1634.41 1336.51L1634.41 1200.99Z" />
				<path id="Layer" class="shp1" d="M1805.46 1257.61L1856.05 1257.61L1882.55 1333.5L1909.06 1257.61L1959.05 1257.61L1904.24 1394.33L1860.87 1394.33L1805.46 1257.61Z" />
				<path id="Layer" class="shp1" d="M-102 602.92L-41.17 602.92C-5.03 602.92 19.66 619.18 19.66 651.1L19.66 651.7C19.66 684.23 -5.03 701.69 -41.77 701.69L-56.23 701.69L-56.23 738.43L-101.4 738.43L-101.4 602.92L-102 602.92ZM-56.83 669.17L-56.83 639.05L-44.18 639.05C-32.13 639.05 -24.91 644.48 -24.91 654.11C-24.91 663.75 -32.74 669.17 -44.18 669.17L-56.83 669.17Z" />
				<path id="Layer" class="shp1" d="M26.29 614.36C26.29 574.61 58.81 543.29 100.37 543.29C141.93 543.29 173.85 574.01 173.85 613.76L173.85 614.36C173.85 653.51 141.33 684.83 99.77 684.83C58.21 684.83 26.29 653.51 26.29 614.36ZM100.37 645.08C82.9 645.08 72.06 630.62 72.06 614.36L72.06 613.76C72.06 598.1 82.9 583.64 100.37 583.64C117.84 583.64 128.68 598.1 128.68 614.36C128.68 630.02 117.84 644.47 100.37 645.08Z" />
				<path id="Layer" class="shp1" d="M186.5 602.92L247.33 602.92C283.46 602.92 308.16 619.18 308.16 651.1L308.16 651.7C308.16 684.23 283.46 701.69 246.72 701.69L232.27 701.69L232.27 738.43L187.1 738.43L187.1 602.92L186.5 602.92ZM231.67 669.17L231.67 639.05L244.32 639.05C256.36 639.05 263.59 644.48 263.59 654.11C263.59 663.75 255.76 669.17 244.32 669.17L231.67 669.17Z" />
				<path id="Layer" class="shp1" d="M314.79 728.19C314.79 687.24 346.1 657.12 387.06 657.12C417.18 657.12 437.05 671.58 448.49 692.66L411.15 714.34C406.33 704.7 399.11 698.08 386.46 698.08C371.4 698.08 361.16 711.33 361.16 727.59L361.16 728.19C361.16 745.66 371.4 758.31 386.46 758.31C399.11 758.31 406.33 751.08 411.75 741.44L449.1 762.52C437.65 782.4 418.98 799.26 385.25 799.26C347.91 798.06 314.79 769.75 314.79 728.19Z" />
				<path id="Layer" class="shp1" d="M506.92 546.3L552.09 546.3L552.09 643.27L615.93 643.27L615.93 681.82L506.92 681.82L506.92 546.3Z" />
				<path id="Layer" class="shp1" d="M626.17 659.53L671.34 659.53L671.34 795.05L626.17 795.05L626.17 659.53Z" />
				<path id="Layer" class="shp1" d="M677.97 602.92L728.56 602.92L755.06 678.8L781.56 602.92L831.55 602.92L776.75 739.64L733.38 739.64L677.97 602.92Z" />
				<path id="Layer" class="shp1" d="M836.97 546.3L952.61 546.3L952.61 583.64L881.54 583.64L881.54 597.5L947.79 597.5L947.79 630.02L881.54 630.02L881.54 644.48L953.82 644.48L953.82 681.82L836.97 681.82L836.97 546.3Z" />
				<path id="Layer" class="shp1" d="M-102 768.54L-41.17 768.54C-5.03 768.54 19.66 784.8 19.66 816.73L19.66 817.33C19.66 849.85 -5.03 867.32 -41.77 867.32L-56.23 867.32L-56.23 904.06L-101.4 904.06L-101.4 768.54L-102 768.54ZM-44.18 834.19L-56.83 834.19L-56.83 804.08L-44.18 804.08C-32.13 804.08 -24.91 809.5 -24.91 819.14L-24.91 819.74C-24.91 829.38 -32.74 834.8 -44.18 834.8L-44.18 834.19Z" />
				<path id="Layer" class="shp1" d="M26.29 779.99C26.29 740.24 58.81 708.92 100.37 708.92C141.93 708.92 173.85 739.64 173.85 779.39L173.85 779.99C173.85 819.14 141.33 850.46 99.77 850.46C58.21 849.86 26.29 819.14 26.29 779.99ZM100.37 810.71C82.9 810.71 72.06 796.25 72.06 779.99L72.06 779.39C72.06 763.73 82.9 749.27 100.37 749.27C117.84 749.27 128.68 763.73 128.68 779.99C128.68 795.65 117.84 810.11 100.37 810.71Z" />
				<path id="Layer" class="shp1" d="M186.5 768.54L247.33 768.54C283.46 768.54 308.16 784.8 308.16 816.73L308.16 817.33C308.16 849.85 283.46 867.32 246.72 867.32L232.27 867.32L232.27 904.06L187.1 904.06L187.1 768.54L186.5 768.54ZM244.32 834.19L231.67 834.19L231.67 804.08L244.32 804.08C256.36 804.08 263.59 809.5 263.59 819.14L263.59 819.74C263.59 829.38 255.76 834.8 244.32 834.8L244.32 834.19Z" />
				<path id="Layer" class="shp1" d="M314.79 893.22C314.79 852.26 346.1 822.15 387.06 822.15C417.18 822.15 437.05 836.6 448.49 857.68L411.15 879.37C406.33 869.73 399.11 863.11 386.46 863.11C371.4 863.11 361.16 876.36 361.16 892.62L361.16 893.22C361.16 910.69 371.4 923.34 386.46 923.34C399.11 923.34 406.33 916.11 411.75 906.47L449.1 927.55C437.65 947.43 418.98 964.29 385.25 964.29C347.91 963.69 314.79 935.38 314.79 893.22Z" />
				<path id="Layer" class="shp1" d="M506.92 711.33L552.09 711.33L552.09 808.3L615.93 808.3L615.93 846.84L506.92 846.84L506.92 711.33Z" />
				<path id="Layer" class="shp1" d="M626.17 825.16L671.34 825.16L671.34 960.68L626.17 960.68L626.17 825.16Z" />
				<path id="Layer" class="shp1" d="M677.97 768.54L728.56 768.54L755.06 844.43L781.56 768.54L831.55 768.54L776.75 905.26L733.38 905.26L677.97 768.54Z" />
				<path id="Layer" class="shp1" d="M836.97 711.33L952.61 711.33L952.61 748.67L881.54 748.67L881.54 762.52L947.79 762.52L947.79 795.05L881.54 795.05L881.54 809.5L953.82 809.5L953.82 846.84L836.97 846.84L836.97 711.33Z" />
				<path id="Layer" class="shp1" d="M-102 931.77L-41.17 931.77C-5.03 931.77 19.66 948.03 19.66 979.95L19.66 980.55C19.66 1013.08 -5.03 1030.54 -41.77 1030.54L-56.23 1030.54L-56.23 1067.28L-101.4 1067.28L-101.4 931.77L-102 931.77ZM-44.18 997.42L-56.83 997.42L-56.83 967.3L-44.18 967.3C-32.13 967.3 -24.91 972.72 -24.91 982.36L-24.91 982.96C-24.91 992.6 -32.74 998.02 -44.18 998.02L-44.18 997.42Z" />
				<path id="Layer" class="shp1" d="M26.29 943.21C26.29 903.46 58.81 872.14 100.37 872.14C141.93 872.14 173.85 902.86 173.85 942.61L173.85 943.21C173.85 982.36 141.33 1013.68 99.77 1013.68C58.21 1013.08 26.29 982.36 26.29 943.21ZM100.37 973.93C82.9 973.93 72.06 959.47 72.06 943.21L72.06 942.61C72.06 926.95 82.9 912.5 100.37 912.5C117.84 912.5 128.68 926.95 128.68 943.21C128.68 958.87 117.84 973.33 100.37 973.93Z" />
				<path id="Layer" class="shp1" d="M186.5 931.77L247.33 931.77C283.46 931.77 308.16 948.03 308.16 979.95L308.16 980.55C308.16 1013.08 283.46 1030.54 246.72 1030.54L232.27 1030.54L232.27 1067.28L187.1 1067.28L187.1 931.77L186.5 931.77ZM244.32 997.42L231.67 997.42L231.67 967.3L244.32 967.3C256.36 967.3 263.59 972.72 263.59 982.36L263.59 982.96C263.59 992.6 255.76 998.02 244.32 998.02L244.32 997.42Z" />
				<path id="Layer" class="shp1" d="M314.79 1056.44C314.79 1015.49 346.1 985.37 387.06 985.37C417.18 985.37 437.05 999.83 448.49 1020.91L411.15 1042.59C406.33 1032.95 399.11 1026.33 386.46 1026.33C371.4 1026.33 361.16 1039.58 361.16 1055.84L361.16 1056.44C361.16 1073.91 371.4 1086.56 386.46 1086.56C399.11 1086.56 406.33 1079.33 411.75 1069.69L449.1 1090.77C437.65 1110.65 418.98 1127.51 385.25 1127.51C347.91 1126.91 314.79 1098.6 314.79 1056.44Z" />
				<path id="Layer" class="shp1" d="M506.92 874.55L552.09 874.55L552.09 971.52L615.93 971.52L615.93 1010.07L506.92 1010.07L506.92 874.55Z" />
				<path id="Layer" class="shp1" d="M626.17 988.38L671.34 988.38L671.34 1123.9L626.17 1123.9L626.17 988.38Z" />
				<path id="Layer" class="shp1" d="M677.97 931.77L728.56 931.77L755.06 1007.65L781.56 931.77L831.55 931.77L776.75 1068.49L733.38 1068.49L677.97 931.77Z" />
				<path id="Layer" class="shp1" d="M836.97 874.55L952.61 874.55L952.61 911.89L881.54 911.89L881.54 925.75L947.79 925.75L947.79 958.27L881.54 958.27L881.54 972.72L953.82 972.72L953.82 1010.07L836.97 1010.07L836.97 874.55Z" />
				<path id="Layer" class="shp1" d="M-102 1091.38L-41.17 1091.38C-5.03 1091.38 19.66 1107.64 19.66 1139.56L19.66 1140.16C19.66 1172.68 -5.03 1190.15 -41.77 1190.15L-56.23 1190.15L-56.23 1226.89L-101.4 1226.89L-101.4 1091.38L-102 1091.38ZM-44.18 1157.63L-56.83 1157.63L-56.83 1127.51L-44.18 1127.51C-32.13 1127.51 -24.91 1132.93 -24.91 1142.57L-24.91 1143.17C-24.91 1152.81 -32.74 1158.23 -44.18 1158.23L-44.18 1157.63Z" />
				<path id="Layer" class="shp1" d="M26.29 1102.82C26.29 1063.07 58.81 1031.75 100.37 1031.75C141.93 1031.75 173.85 1062.46 173.85 1102.22L173.85 1102.82C173.85 1141.97 141.33 1173.29 99.77 1173.29C58.21 1173.29 26.29 1141.97 26.29 1102.82ZM100.37 1133.54C82.9 1133.54 72.06 1119.08 72.06 1102.82L72.06 1102.22C72.06 1086.56 82.9 1072.1 100.37 1072.1C117.84 1072.1 128.68 1086.56 128.68 1102.82C128.68 1119.08 117.84 1132.93 100.37 1133.54Z" />
				<path id="Layer" class="shp1" d="M186.5 1091.38L247.33 1091.38C283.46 1091.38 308.16 1107.64 308.16 1139.56L308.16 1140.16C308.16 1172.68 283.46 1190.15 246.72 1190.15L232.27 1190.15L232.27 1226.89L187.1 1226.89L187.1 1091.38L186.5 1091.38ZM244.32 1157.63L231.67 1157.63L231.67 1127.51L244.32 1127.51C256.36 1127.51 263.59 1132.93 263.59 1142.57L263.59 1143.17C263.59 1152.81 255.76 1158.23 244.32 1158.23L244.32 1157.63Z" />
				<path id="Layer" class="shp1" d="M314.79 1216.65C314.79 1175.7 346.1 1145.58 387.06 1145.58C417.18 1145.58 437.05 1160.04 448.49 1181.12L411.15 1202.8C406.33 1193.16 399.11 1186.54 386.46 1186.54C371.4 1186.54 361.16 1199.79 361.16 1216.05L361.16 1216.65C361.16 1234.12 371.4 1246.77 386.46 1246.77C399.11 1246.77 406.33 1239.54 411.75 1229.9L449.1 1250.98C437.65 1270.86 418.98 1287.72 385.25 1287.72C347.91 1287.12 314.79 1258.81 314.79 1216.65Z" />
				<path id="Layer" class="shp1" d="M506.92 1034.76L552.09 1034.76L552.09 1131.73L615.93 1131.73L615.93 1170.28L506.92 1170.28L506.92 1034.76Z" />
				<path id="Layer" class="shp1" d="M626.17 1148.59L671.34 1148.59L671.34 1284.11L626.17 1284.11L626.17 1148.59Z" />
				<path id="Layer" class="shp1" d="M677.97 1091.38L728.56 1091.38L755.06 1167.26L781.56 1091.38L831.55 1091.38L776.75 1228.1L733.38 1228.1L677.97 1091.38Z" />
				<path id="Layer" class="shp1" d="M836.97 1034.76L952.61 1034.76L952.61 1072.1L881.54 1072.1L881.54 1085.96L947.79 1085.96L947.79 1118.48L881.54 1118.48L881.54 1132.93L953.82 1132.93L953.82 1170.28L836.97 1170.28L836.97 1034.76Z" />
				<path id="Layer" class="shp1" d="M-102 1254.59L-41.17 1254.59C-5.03 1254.59 19.66 1270.86 19.66 1302.78L19.66 1303.38C19.66 1335.9 -5.03 1353.37 -41.77 1353.37L-56.23 1353.37L-56.23 1390.11L-101.4 1390.11L-101.4 1254.59L-102 1254.59ZM-44.18 1320.85L-56.83 1320.85L-56.83 1290.73L-44.18 1290.73C-32.13 1290.73 -24.91 1296.15 -24.91 1305.79L-24.91 1306.39C-24.91 1316.03 -32.74 1321.45 -44.18 1321.45L-44.18 1320.85Z" />
				<path id="Layer" class="shp1" d="M26.29 1266.04C26.29 1226.29 58.81 1194.97 100.37 1194.97C141.93 1194.97 173.85 1225.69 173.85 1265.44L173.85 1266.04C173.85 1305.19 141.33 1336.51 99.77 1336.51C58.21 1336.51 26.29 1305.79 26.29 1266.04ZM100.37 1296.76C82.9 1296.76 72.06 1282.3 72.06 1266.04L72.06 1265.44C72.06 1249.78 82.9 1235.32 100.37 1235.32C117.84 1235.32 128.68 1249.78 128.68 1266.04C128.68 1282.3 117.84 1296.16 100.37 1296.76Z" />
				<path id="Layer" class="shp1" d="M186.5 1254.59L247.33 1254.59C283.46 1254.59 308.16 1270.86 308.16 1302.78L308.16 1303.38C308.16 1335.9 283.46 1353.37 246.72 1353.37L232.27 1353.37L232.27 1390.11L187.1 1390.11L187.1 1254.59L186.5 1254.59ZM244.32 1320.85L231.67 1320.85L231.67 1290.73L244.32 1290.73C256.36 1290.73 263.59 1296.15 263.59 1305.79L263.59 1306.39C263.59 1316.03 255.76 1321.45 244.32 1321.45L244.32 1320.85Z" />
				<path id="Layer" class="shp1" d="M506.92 1197.98L552.09 1197.98L552.09 1294.95L615.93 1294.95L615.93 1333.49L506.92 1333.49L506.92 1197.98Z" />
				<path id="Layer" class="shp1" d="M677.97 1254.59L728.56 1254.59L755.06 1330.48L781.56 1254.59L831.55 1254.59L776.75 1391.31L733.38 1391.31L677.97 1254.59Z" />
				<path id="Layer" class="shp1" d="M836.97 1197.98L952.61 1197.98L952.61 1235.32L881.54 1235.32L881.54 1249.17L947.79 1249.17L947.79 1281.7L881.54 1281.7L881.54 1296.15L953.82 1296.15L953.82 1333.49L836.97 1333.49L836.97 1197.98Z" />
				<path id="Layer" class="shp1" d="M-102 -48.77L-41.17 -48.77C-5.03 -48.77 19.66 -32.5 19.66 -0.58L19.66 0.02C19.66 32.54 -5.03 50.01 -41.77 50.01L-56.23 50.01L-56.23 86.75L-101.4 86.75L-101.4 -48.77L-102 -48.77ZM-44.18 17.49L-56.83 17.49L-56.83 -12.63L-44.18 -12.63C-32.13 -12.63 -24.91 -7.21 -24.91 2.43L-24.91 3.03C-24.91 12.67 -32.74 18.09 -44.18 18.09L-44.18 17.49Z" />
				<path id="Layer" class="shp1" d="M26.29 -37.32C26.29 -77.07 58.81 -108.39 100.37 -108.39C141.93 -108.39 173.85 -77.68 173.85 -37.92L173.85 -37.32C173.85 1.83 141.33 33.15 99.77 33.15C58.21 33.15 26.29 1.83 26.29 -37.32ZM100.37 -6.61C82.9 -6.61 72.06 -21.06 72.06 -37.32L72.06 -37.92C72.06 -53.58 82.9 -68.04 100.37 -68.04C117.84 -68.04 128.68 -53.58 128.68 -37.32C128.68 -21.06 117.84 -7.21 100.37 -6.61Z" />
				<path id="Layer" class="shp1" d="M186.5 -48.76L247.33 -48.76C283.46 -48.76 308.16 -32.5 308.16 -0.58L308.16 0.02C308.16 32.54 283.46 50.01 246.72 50.01L232.27 50.01L232.27 86.75L187.1 86.75L187.1 -48.76L186.5 -48.76ZM244.32 17.49L231.67 17.49L231.67 -12.63L244.32 -12.63C256.36 -12.63 263.59 -7.21 263.59 2.43L263.59 3.03C263.59 12.67 255.76 18.09 244.32 18.09L244.32 17.49Z" />
				<path id="Layer" class="shp1" d="M314.79 76.51C314.79 35.56 346.1 5.44 387.06 5.44C417.18 5.44 437.05 19.9 448.49 40.98L411.15 62.66C406.33 53.02 399.11 46.4 386.46 46.4C371.4 46.4 361.16 59.65 361.16 75.91C361.16 93.38 371.4 106.02 386.46 106.02C399.11 106.02 406.33 98.8 411.75 89.16L449.1 110.24C437.65 130.12 418.98 146.98 385.25 146.98C347.91 146.38 314.79 118.67 314.79 76.51Z" />
				<path id="Layer" class="shp1" d="M506.92 -105.38L552.09 -105.38L552.09 -8.41L615.93 -8.41L615.93 30.14L506.92 30.14L506.92 -105.38Z" />
				<path id="Layer" class="shp1" d="M626.17 8.45L671.34 8.45L671.34 143.97L626.17 143.97L626.17 8.45Z" />
				<path id="Layer" class="shp1" d="M677.97 -48.76L728.56 -48.76L755.06 27.73L781.56 -48.16L831.55 -48.16L776.14 87.96L732.78 87.96L677.97 -48.76Z" />
				<path id="Layer" class="shp1" d="M836.97 -105.38L952.61 -105.38L952.61 -68.04L881.54 -68.04L881.54 -54.18L947.79 -54.18L947.79 -21.66L881.54 -21.66L881.54 -7.21L953.82 -7.21L953.82 30.14L836.97 30.14L836.97 -105.38Z" />
				<path id="Layer" class="shp1" d="M-102 116.86L-41.17 116.86C-5.03 116.86 19.66 133.12 19.66 165.04L19.66 165.65C19.66 198.17 -5.03 215.64 -41.77 215.64L-56.23 215.64L-56.23 252.38L-101.4 252.38L-101.4 116.86L-102 116.86ZM-44.18 182.51L-56.83 182.51L-56.83 152.4L-44.18 152.4C-32.13 152.4 -24.91 157.82 -24.91 167.45L-24.91 168.06C-24.91 177.69 -32.74 183.11 -44.18 183.11L-44.18 182.51Z" />
				<path id="Layer" class="shp1" d="M26.29 128.31C26.29 88.56 58.81 57.24 100.37 57.24C141.93 57.24 173.85 87.96 173.85 127.71L173.85 128.31C173.85 167.46 141.33 198.78 99.77 198.78C58.21 198.18 26.29 167.46 26.29 128.31ZM100.37 159.03C82.9 159.03 72.06 144.57 72.06 128.31L72.06 127.71C72.06 112.05 82.9 97.59 100.37 97.59C117.84 97.59 128.68 112.05 128.68 128.31C128.68 143.97 117.84 158.42 100.37 159.03Z" />
				<path id="Layer" class="shp1" d="M186.5 116.86L247.33 116.86C283.46 116.86 308.16 133.12 308.16 165.04L308.16 165.65C308.16 198.17 283.46 215.64 246.72 215.64L232.27 215.64L232.27 252.38L187.1 252.38L187.1 116.86L186.5 116.86ZM244.32 182.51L231.67 182.51L231.67 152.4L244.32 152.4C256.36 152.4 263.59 157.82 263.59 167.45L263.59 168.06C263.59 177.69 255.76 183.11 244.32 183.11L244.32 182.51Z" />
				<path id="Layer" class="shp1" d="M314.79 241.54C314.79 200.58 346.1 170.47 387.06 170.47C417.18 170.47 437.05 184.92 448.49 206L411.15 227.69C406.33 218.05 399.11 211.42 386.46 211.42C371.4 211.42 361.16 224.67 361.16 240.94L361.16 241.54C361.16 259 371.4 271.65 386.46 271.65C399.11 271.65 406.33 264.42 411.75 254.79L449.1 275.87C437.65 295.75 418.98 312.61 385.25 312.61C347.91 312.01 314.79 283.7 314.79 241.54Z" />
				<path id="Layer" class="shp1" d="M506.92 60.25L552.09 60.25L552.09 157.22L615.93 157.22L615.93 195.76L506.92 195.76L506.92 60.25Z" />
				<path id="Layer" class="shp1" d="M626.17 173.48L671.34 173.48L671.34 309L626.17 309L626.17 173.48Z" />
				<path id="Layer" class="shp1" d="M677.97 116.86L728.56 116.86L755.06 192.75L781.56 116.86L831.55 116.86L776.75 253.58L733.38 253.58L677.97 116.86Z" />
				<path id="Layer" class="shp1" d="M836.97 60.25L952.61 60.25L952.61 97.59L881.54 97.59L881.54 111.44L947.79 111.44L947.79 143.97L881.54 143.97L881.54 158.42L953.82 158.42L953.82 195.76L836.97 195.76L836.97 60.25Z" />
				<path id="Layer" class="shp1" d="M-102 280.09L-41.17 280.09C-5.03 280.09 19.66 296.35 19.66 328.27L19.66 328.88C19.66 361.4 -5.03 378.87 -41.77 378.87L-56.23 378.87L-56.23 415.61L-101.4 415.61L-101.4 280.09L-102 280.09ZM-44.18 345.74L-56.83 345.74L-56.83 315.62L-44.18 315.62C-32.13 315.62 -24.91 321.05 -24.91 330.68L-24.91 331.28C-24.91 340.92 -32.74 346.34 -44.18 346.34L-44.18 345.74Z" />
				<path id="Layer" class="shp1" d="M26.29 291.53C26.29 251.78 58.81 220.46 100.37 220.46C141.93 220.46 173.85 251.18 173.85 290.93L173.85 291.53C173.85 330.68 141.33 362 99.77 362C58.21 362 26.29 330.68 26.29 291.53ZM100.37 322.25C82.9 322.25 72.06 307.79 72.06 291.53L72.06 290.93C72.06 275.27 82.9 260.82 100.37 260.82C117.84 260.82 128.68 275.27 128.68 291.53C128.68 307.19 117.84 321.65 100.37 322.25Z" />
				<path id="Layer" class="shp1" d="M186.5 280.09L247.33 280.09C283.46 280.09 308.16 296.35 308.16 328.27L308.16 328.88C308.16 361.4 283.46 378.87 246.72 378.87L232.27 378.87L232.27 415.61L187.1 415.61L187.1 280.09L186.5 280.09ZM244.32 345.74L231.67 345.74L231.67 315.62L244.32 315.62C256.36 315.62 263.59 321.05 263.59 330.68L263.59 331.28C263.59 340.92 255.76 346.34 244.32 346.34L244.32 345.74Z" />
				<path id="Layer" class="shp1" d="M314.79 405.36C314.79 364.4 346.1 334.29 387.06 334.29C417.18 334.29 437.05 348.75 448.49 369.83L411.15 391.51C406.33 381.87 399.11 375.25 386.46 375.25C371.4 375.25 361.16 388.5 361.16 404.76L361.16 405.36C361.16 422.83 371.4 435.48 386.46 435.48C399.11 435.48 406.33 428.25 411.75 418.61L449.1 439.69C437.65 459.57 418.98 476.43 385.25 476.43C347.91 475.23 314.79 446.92 314.79 405.36Z" />
				<path id="Layer" class="shp1" d="M506.92 223.47L552.09 223.47L552.09 320.44L615.93 320.44L615.93 358.99L506.92 358.99L506.92 223.47Z" />
				<path id="Layer" class="shp1" d="M626.17 336.7L671.34 336.7L671.34 472.22L626.17 472.22L626.17 336.7Z" />
				<path id="Layer" class="shp1" d="M677.97 280.09L728.56 280.09L755.06 355.98L781.56 280.09L831.55 280.09L776.75 416.81L733.38 416.81L677.97 280.09Z" />
				<path id="Layer" class="shp1" d="M836.97 223.47L952.61 223.47L952.61 260.81L881.54 260.81L881.54 274.66L947.79 274.66L947.79 307.19L881.54 307.19L881.54 321.64L953.82 321.64L953.82 358.99L836.97 358.99L836.97 223.47Z" />
				<path id="Layer" class="shp1" d="M-102 440.3L-41.17 440.3C-5.03 440.3 19.66 456.56 19.66 488.48L19.66 489.09C19.66 521.61 -5.03 539.08 -41.77 539.08L-56.23 539.08L-56.23 575.82L-101.4 575.82L-101.4 440.3L-102 440.3ZM-44.18 505.95L-56.83 505.95L-56.83 475.83L-44.18 475.83C-32.13 475.83 -24.91 481.25 -24.91 490.89L-24.91 491.49C-24.91 501.13 -32.74 506.55 -44.18 506.55L-44.18 505.95Z" />
				<path id="Layer" class="shp1" d="M26.29 451.14C26.29 411.38 58.81 380.07 100.37 380.07C141.93 380.07 173.85 410.78 173.85 450.53L173.85 451.14C173.85 490.29 141.33 521.61 99.77 521.61C58.21 521.61 26.29 490.89 26.29 451.14ZM100.37 481.85C82.9 481.85 72.06 467.4 72.06 451.14L72.06 450.53C72.06 434.88 82.9 420.42 100.37 420.42C117.84 420.42 128.68 434.88 128.68 451.14C128.68 467.4 117.84 481.85 100.37 481.85Z" />
				<path id="Layer" class="shp1" d="M186.5 440.3L247.33 440.3C283.46 440.3 308.16 456.56 308.16 488.48L308.16 489.09C308.16 521.61 283.46 539.08 246.72 539.08L232.27 539.08L232.27 575.82L187.1 575.82L187.1 440.3L186.5 440.3ZM244.32 505.95L231.67 505.95L231.67 475.83L244.32 475.83C256.36 475.83 263.59 481.25 263.59 490.89L263.59 491.49C263.59 501.13 255.76 506.55 244.32 506.55L244.32 505.95Z" />
				<path id="Layer" class="shp1" d="M314.79 564.97C314.79 524.01 346.1 493.9 387.06 493.9C417.18 493.9 437.05 508.35 448.49 529.43L411.15 551.12C406.33 541.48 399.11 534.86 386.46 534.86C371.4 534.86 361.16 548.11 361.16 564.37L361.16 564.97C361.16 582.44 371.4 595.09 386.46 595.09C399.11 595.09 406.33 587.86 411.75 578.22L449.1 599.3C437.65 619.18 418.98 636.04 385.25 636.04C347.91 635.44 314.79 607.13 314.79 564.97Z" />
				<path id="Layer" class="shp1" d="M506.92 383.08L552.09 383.08L552.09 480.05L615.93 480.05L615.93 518.6L506.92 518.6L506.92 383.08Z" />
				<path id="Layer" class="shp1" d="M626.17 496.91L671.34 496.91L671.34 632.43L626.17 632.43L626.17 496.91Z" />
				<path id="Layer" class="shp1" d="M677.97 440.3L728.56 440.3L755.06 516.19L781.56 440.3L831.55 440.3L776.75 577.02L733.38 577.02L677.97 440.3Z" />
				<path id="Layer" class="shp1" d="M836.97 383.08L952.61 383.08L952.61 420.42L881.54 420.42L881.54 434.27L947.79 434.27L947.79 466.8L881.54 466.8L881.54 481.25L953.82 481.25L953.82 518.6L836.97 518.6L836.97 383.08Z" />
				<path id="Layer" class="shp1" d="M-102 603.52L-41.17 603.52C-5.03 603.52 19.66 619.78 19.66 651.7L19.66 652.3C19.66 684.83 -5.03 702.29 -41.77 702.29L-56.23 702.29L-56.23 739.03L-101.4 739.03L-101.4 603.52L-102 603.52ZM-44.18 669.17L-56.83 669.17L-56.83 639.05L-44.18 639.05C-32.13 639.05 -24.91 644.47 -24.91 654.11L-24.91 654.71C-24.91 664.35 -32.74 669.77 -44.18 669.77L-44.18 669.17Z" />
				<path id="Layer" class="shp1" d="M26.29 614.96C26.29 575.21 58.81 543.89 100.37 543.89C141.93 543.89 173.85 574.61 173.85 614.36L173.85 614.96C173.85 654.11 141.33 685.43 99.77 685.43C58.21 684.83 26.29 654.11 26.29 614.96ZM100.37 645.68C82.9 645.68 72.06 631.22 72.06 614.96L72.06 614.36C72.06 598.7 82.9 584.24 100.37 584.24C117.84 584.24 128.68 598.7 128.68 614.96C128.68 630.62 117.84 645.07 100.37 645.68Z" />
				<path id="Layer" class="shp1" d="M186.5 603.52L247.33 603.52C283.46 603.52 308.16 619.78 308.16 651.7L308.16 652.3C308.16 684.83 283.46 702.29 246.72 702.29L232.27 702.29L232.27 739.03L187.1 739.03L187.1 603.52L186.5 603.52ZM244.32 669.17L231.67 669.17L231.67 639.05L244.32 639.05C256.36 639.05 263.59 644.47 263.59 654.11L263.59 654.71C263.59 664.35 255.76 669.77 244.32 669.77L244.32 669.17Z" />
				<path id="Layer" class="shp1" d="M314.79 728.19C314.79 687.24 346.1 657.12 387.06 657.12C417.18 657.12 437.05 671.58 448.49 692.66L411.15 714.34C406.33 704.7 399.11 698.08 386.46 698.08C371.4 698.08 361.16 711.33 361.16 727.59L361.16 728.19C361.16 745.66 371.4 758.31 386.46 758.31C399.11 758.31 406.33 751.08 411.75 741.44L449.1 762.52C437.65 782.4 418.98 799.26 385.25 799.26C347.91 798.66 314.79 770.35 314.79 728.19Z" />
				<path id="Layer" class="shp1" d="M506.92 546.3L552.09 546.3L552.09 643.27L615.93 643.27L615.93 681.81L506.92 681.81L506.92 546.3Z" />
				<path id="Layer" class="shp1" d="M626.17 660.14L671.34 660.14L671.34 795.65L626.17 795.65L626.17 660.14Z" />
				<path id="Layer" class="shp1" d="M677.97 603.52L728.56 603.52L755.06 679.4L781.56 603.52L831.55 603.52L776.75 740.24L733.38 740.24L677.97 603.52Z" />
				<path id="Layer" class="shp1" d="M836.97 546.3L952.61 546.3L952.61 583.64L881.54 583.64L881.54 597.49L947.79 597.49L947.79 630.02L881.54 630.02L881.54 644.47L953.82 644.47L953.82 681.81L836.97 681.81L836.97 546.3Z" />
				<path id="Layer" class="shp1" d="M1025.49 602.92L1086.32 602.92C1122.46 602.92 1147.16 619.18 1147.16 651.1L1147.16 651.7C1147.16 684.23 1122.46 701.69 1085.72 701.69L1071.27 701.69L1071.27 738.43L1026.09 738.43L1026.09 602.92L1025.49 602.92ZM1070.66 669.17L1070.66 639.05L1083.31 639.05C1095.36 639.05 1102.59 644.48 1102.59 654.11C1102.59 663.75 1094.76 669.17 1083.31 669.17L1070.66 669.17Z" />
				<path id="Layer" class="shp1" d="M1153.78 614.36C1153.78 574.61 1186.3 543.29 1227.86 543.29C1269.42 543.29 1301.34 574.01 1301.34 613.76L1301.34 614.36C1301.34 653.51 1268.82 684.83 1227.26 684.83C1185.7 684.83 1153.78 653.51 1153.78 614.36ZM1227.86 645.08C1210.4 645.08 1199.56 630.62 1199.56 614.36L1199.56 613.76C1199.56 598.1 1210.4 583.64 1227.86 583.64C1245.33 583.64 1256.17 598.1 1256.17 614.36C1256.17 630.02 1245.33 644.47 1227.86 645.08Z" />
				<path id="Layer" class="shp1" d="M1313.99 602.92L1375.42 602.92C1411.56 602.92 1436.25 619.18 1436.25 651.1L1436.25 651.7C1436.25 684.23 1411.56 701.69 1374.82 701.69L1360.36 701.69L1360.36 738.43L1315.19 738.43L1315.19 602.92L1313.99 602.92ZM1359.16 669.17L1359.16 639.05L1371.81 639.05C1383.85 639.05 1391.08 644.48 1391.08 654.11C1391.08 663.75 1383.25 669.17 1371.81 669.17L1359.16 669.17Z" />
				<path id="Layer" class="shp1" d="M1442.28 728.19C1442.28 687.24 1473.6 657.12 1514.55 657.12C1544.67 657.12 1564.54 671.58 1575.99 692.66L1538.64 714.34C1533.83 704.7 1526.6 698.08 1513.95 698.08C1498.89 698.08 1488.65 711.33 1488.65 727.59L1488.65 728.19C1488.65 745.66 1498.89 758.31 1513.95 758.31C1526.6 758.31 1533.83 751.08 1539.25 741.44L1576.59 762.52C1565.15 782.4 1546.47 799.26 1512.75 799.26C1475.4 798.06 1442.28 769.75 1442.28 728.19Z" />
				<path id="Layer" class="shp1" d="M1634.41 546.3L1679.58 546.3L1679.58 643.27L1743.43 643.27L1743.43 681.82L1634.41 681.82L1634.41 546.3Z" />
				<path id="Layer" class="shp1" d="M1753.66 659.53L1798.84 659.53L1798.84 795.05L1753.66 795.05L1753.66 659.53Z" />
				<path id="Layer" class="shp1" d="M1805.46 602.92L1856.05 602.92L1882.55 678.81L1909.06 602.92L1959.05 602.92L1904.24 739.64L1860.87 739.64L1805.46 602.92Z" />
				<path id="Layer" class="shp1" d="M1025.49 768.54L1086.32 768.54C1122.46 768.54 1147.16 784.8 1147.16 816.73L1147.16 817.33C1147.16 849.85 1122.46 867.32 1085.72 867.32L1071.27 867.32L1071.27 904.06L1026.09 904.06L1026.09 768.54L1025.49 768.54ZM1083.31 834.19L1070.66 834.19L1070.66 804.08L1083.31 804.08C1095.36 804.08 1102.59 809.5 1102.59 819.14L1102.59 819.74C1102.59 829.38 1094.76 834.8 1083.31 834.8L1083.31 834.19Z" />
				<path id="Layer" class="shp1" d="M1153.78 779.99C1153.78 740.24 1186.3 708.92 1227.86 708.92C1269.42 708.92 1301.34 739.64 1301.34 779.39L1301.34 779.99C1301.34 819.14 1268.82 850.46 1227.26 850.46C1185.7 849.86 1153.78 819.14 1153.78 779.99ZM1227.86 810.71C1210.4 810.71 1199.56 796.25 1199.56 779.99L1199.56 779.39C1199.56 763.73 1210.4 749.27 1227.86 749.27C1245.33 749.27 1256.17 763.73 1256.17 779.99C1256.17 795.65 1245.33 810.11 1227.86 810.71Z" />
				<path id="Layer" class="shp1" d="M1313.99 768.54L1375.42 768.54C1411.56 768.54 1436.25 784.8 1436.25 816.73L1436.25 817.33C1436.25 849.85 1411.56 867.32 1374.82 867.32L1360.36 867.32L1360.36 904.06L1315.19 904.06L1315.19 768.54L1313.99 768.54ZM1371.81 834.19L1359.16 834.19L1359.16 804.08L1371.81 804.08C1383.85 804.08 1391.08 809.5 1391.08 819.14L1391.08 819.74C1391.08 829.38 1383.25 834.8 1371.81 834.8L1371.81 834.19Z" />
				<path id="Layer" class="shp1" d="M1442.28 893.22C1442.28 852.26 1473.6 822.15 1514.55 822.15C1544.67 822.15 1564.54 836.6 1575.99 857.68L1538.64 879.37C1533.83 869.73 1526.6 863.11 1513.95 863.11C1498.89 863.11 1488.65 876.36 1488.65 892.62L1488.65 893.22C1488.65 910.69 1498.89 923.34 1513.95 923.34C1526.6 923.34 1533.83 916.11 1539.25 906.47L1576.59 927.55C1565.15 947.43 1546.47 964.29 1512.75 964.29C1475.4 963.69 1442.28 935.38 1442.28 893.22Z" />
				<path id="Layer" class="shp1" d="M1634.41 711.33L1679.58 711.33L1679.58 808.3L1743.43 808.3L1743.43 846.84L1634.41 846.84L1634.41 711.33Z" />
				<path id="Layer" class="shp1" d="M1753.66 825.16L1798.84 825.16L1798.84 960.68L1753.66 960.68L1753.66 825.16Z" />
				<path id="Layer" class="shp1" d="M1805.46 768.54L1856.05 768.54L1882.55 844.43L1909.06 768.54L1959.05 768.54L1904.24 905.26L1860.87 905.26L1805.46 768.54Z" />
				<path id="Layer" class="shp1" d="M1025.49 931.77L1086.32 931.77C1122.46 931.77 1147.16 948.03 1147.16 979.95L1147.16 980.55C1147.16 1013.08 1122.46 1030.54 1085.72 1030.54L1071.27 1030.54L1071.27 1067.28L1026.09 1067.28L1026.09 931.77L1025.49 931.77ZM1083.31 997.42L1070.66 997.42L1070.66 967.3L1083.31 967.3C1095.36 967.3 1102.59 972.72 1102.59 982.36L1102.59 982.96C1102.59 992.6 1094.76 998.02 1083.31 998.02L1083.31 997.42Z" />
				<path id="Layer" class="shp1" d="M1153.78 943.21C1153.78 903.46 1186.3 872.14 1227.86 872.14C1269.42 872.14 1301.34 902.86 1301.34 942.61L1301.34 943.21C1301.34 982.36 1268.82 1013.68 1227.26 1013.68C1185.7 1013.08 1153.78 982.36 1153.78 943.21ZM1227.86 973.93C1210.4 973.93 1199.56 959.47 1199.56 943.21L1199.56 942.61C1199.56 926.95 1210.4 912.5 1227.86 912.5C1245.33 912.5 1256.17 926.95 1256.17 943.21C1256.17 958.87 1245.33 973.33 1227.86 973.93Z" />
				<path id="Layer" class="shp1" d="M1313.99 931.77L1375.42 931.77C1411.56 931.77 1436.25 948.03 1436.25 979.95L1436.25 980.55C1436.25 1013.08 1411.56 1030.54 1374.82 1030.54L1360.36 1030.54L1360.36 1067.28L1315.19 1067.28L1315.19 931.77L1313.99 931.77ZM1371.81 997.42L1359.16 997.42L1359.16 967.3L1371.81 967.3C1383.85 967.3 1391.08 972.72 1391.08 982.36L1391.08 982.96C1391.08 992.6 1383.25 998.02 1371.81 998.02L1371.81 997.42Z" />
				<path id="Layer" class="shp1" d="M1442.28 1056.44C1442.28 1015.49 1473.6 985.37 1514.55 985.37C1544.67 985.37 1564.54 999.83 1575.99 1020.91L1538.64 1042.59C1533.83 1032.95 1526.6 1026.33 1513.95 1026.33C1498.89 1026.33 1488.65 1039.58 1488.65 1055.84L1488.65 1056.44C1488.65 1073.91 1498.89 1086.56 1513.95 1086.56C1526.6 1086.56 1533.83 1079.33 1539.25 1069.69L1576.59 1090.77C1565.15 1110.65 1546.47 1127.51 1512.75 1127.51C1475.4 1126.91 1442.28 1098.6 1442.28 1056.44Z" />
				<path id="Layer" class="shp1" d="M1634.41 874.55L1679.58 874.55L1679.58 971.52L1743.43 971.52L1743.43 1010.07L1634.41 1010.07L1634.41 874.55Z" />
				<path id="Layer" class="shp1" d="M1753.66 988.38L1798.84 988.38L1798.84 1123.9L1753.66 1123.9L1753.66 988.38Z" />
				<path id="Layer" class="shp1" d="M1805.46 931.77L1856.05 931.77L1882.55 1007.65L1909.06 931.77L1959.05 931.77L1904.24 1068.49L1860.87 1068.49L1805.46 931.77Z" />
				<path id="Layer" class="shp1" d="M1025.49 1091.38L1086.32 1091.38C1122.46 1091.38 1147.16 1107.64 1147.16 1139.56L1147.16 1140.16C1147.16 1172.68 1122.46 1190.15 1085.72 1190.15L1071.27 1190.15L1071.27 1226.89L1026.09 1226.89L1026.09 1091.38L1025.49 1091.38ZM1083.31 1157.63L1070.66 1157.63L1070.66 1127.51L1083.31 1127.51C1095.36 1127.51 1102.59 1132.93 1102.59 1142.57L1102.59 1143.17C1102.59 1152.81 1094.76 1158.23 1083.31 1158.23L1083.31 1157.63Z" />
				<path id="Layer" class="shp1" d="M1153.78 1102.82C1153.78 1063.07 1186.3 1031.75 1227.86 1031.75C1269.42 1031.75 1301.34 1062.46 1301.34 1102.22L1301.34 1102.82C1301.34 1141.97 1268.82 1173.29 1227.26 1173.29C1185.7 1173.29 1153.78 1141.97 1153.78 1102.82ZM1227.86 1133.54C1210.4 1133.54 1199.56 1119.08 1199.56 1102.82L1199.56 1102.22C1199.56 1086.56 1210.4 1072.1 1227.86 1072.1C1245.33 1072.1 1256.17 1086.56 1256.17 1102.82C1256.17 1119.08 1245.33 1132.93 1227.86 1133.54Z" />
				<path id="Layer" class="shp1" d="M1313.99 1091.38L1375.42 1091.38C1411.56 1091.38 1436.25 1107.64 1436.25 1139.56L1436.25 1140.16C1436.25 1172.68 1411.56 1190.15 1374.82 1190.15L1360.36 1190.15L1360.36 1226.89L1315.19 1226.89L1315.19 1091.38L1313.99 1091.38ZM1371.81 1157.63L1359.16 1157.63L1359.16 1127.51L1371.81 1127.51C1383.85 1127.51 1391.08 1132.93 1391.08 1142.57L1391.08 1143.17C1391.08 1152.81 1383.25 1158.23 1371.81 1158.23L1371.81 1157.63Z" />
				<path id="Layer" class="shp1" d="M1442.28 1216.65C1442.28 1175.7 1473.6 1145.58 1514.55 1145.58C1544.67 1145.58 1564.54 1160.04 1575.99 1181.12L1538.64 1202.8C1533.83 1193.16 1526.6 1186.54 1513.95 1186.54C1498.89 1186.54 1488.65 1199.79 1488.65 1216.05L1488.65 1216.65C1488.65 1234.12 1498.89 1246.77 1513.95 1246.77C1526.6 1246.77 1533.83 1239.54 1539.25 1229.9L1576.59 1250.98C1565.15 1270.86 1546.47 1287.72 1512.75 1287.72C1475.4 1287.12 1442.28 1258.81 1442.28 1216.65Z" />
				<path id="Layer" class="shp1" d="M1634.41 1034.76L1679.58 1034.76L1679.58 1131.73L1743.43 1131.73L1743.43 1170.28L1634.41 1170.28L1634.41 1034.76Z" />
				<path id="Layer" class="shp1" d="M1753.66 1148.59L1798.84 1148.59L1798.84 1284.11L1753.66 1284.11L1753.66 1148.59Z" />
				<path id="Layer" class="shp1" d="M1805.46 1091.38L1856.05 1091.38L1882.55 1167.26L1909.06 1091.38L1959.05 1091.38L1904.24 1228.1L1860.87 1228.1L1805.46 1091.38Z" />
				<path id="Layer" class="shp1" d="M1025.49 1254.59L1086.32 1254.59C1122.46 1254.59 1147.16 1270.86 1147.16 1302.78L1147.16 1303.38C1147.16 1335.9 1122.46 1353.37 1085.72 1353.37L1071.27 1353.37L1071.27 1390.11L1026.09 1390.11L1026.09 1254.59L1025.49 1254.59ZM1083.31 1320.85L1070.66 1320.85L1070.66 1290.73L1083.31 1290.73C1095.36 1290.73 1102.59 1296.15 1102.59 1305.79L1102.59 1306.39C1102.59 1316.03 1094.76 1321.45 1083.31 1321.45L1083.31 1320.85Z" />
				<path id="Layer" class="shp1" d="M1153.78 1266.04C1153.78 1226.29 1186.3 1194.97 1227.86 1194.97C1269.42 1194.97 1301.34 1225.69 1301.34 1265.44L1301.34 1266.04C1301.34 1305.19 1268.82 1336.51 1227.26 1336.51C1185.7 1336.51 1153.78 1305.79 1153.78 1266.04ZM1227.86 1296.76C1210.4 1296.76 1199.56 1282.3 1199.56 1266.04L1199.56 1265.44C1199.56 1249.78 1210.4 1235.32 1227.86 1235.32C1245.33 1235.32 1256.17 1249.78 1256.17 1266.04C1256.17 1282.3 1245.33 1296.16 1227.86 1296.76Z" />
				<path id="Layer" class="shp1" d="M1313.99 1254.59L1375.42 1254.59C1411.56 1254.59 1436.25 1270.86 1436.25 1302.78L1436.25 1303.38C1436.25 1335.9 1411.56 1353.37 1374.82 1353.37L1360.36 1353.37L1360.36 1390.11L1315.19 1390.11L1315.19 1254.59L1313.99 1254.59ZM1371.81 1320.85L1359.16 1320.85L1359.16 1290.73L1371.81 1290.73C1383.85 1290.73 1391.08 1296.15 1391.08 1305.79L1391.08 1306.39C1391.08 1316.03 1383.25 1321.45 1371.81 1321.45L1371.81 1320.85Z" />
				<path id="Layer" class="shp1" d="M1634.41 1197.98L1679.58 1197.98L1679.58 1294.95L1743.43 1294.95L1743.43 1333.49L1634.41 1333.49L1634.41 1197.98Z" />
				<path id="Layer" class="shp1" d="M1805.46 1254.59L1856.05 1254.59L1882.55 1330.48L1909.06 1254.59L1959.05 1254.59L1904.24 1391.31L1860.87 1391.31L1805.46 1254.59Z" />
				<path id="Layer" class="shp1" d="M1025.49 -48.76L1086.32 -48.76C1122.46 -48.76 1147.16 -32.5 1147.16 -0.58L1147.16 0.02C1147.16 32.54 1122.46 50.01 1085.72 50.01L1071.27 50.01L1071.27 86.75L1026.09 86.75L1026.09 -48.76L1025.49 -48.76ZM1083.31 17.49L1070.66 17.49L1070.66 -12.63L1083.31 -12.63C1095.36 -12.63 1102.59 -7.21 1102.59 2.43L1102.59 3.03C1102.59 12.67 1094.76 18.09 1083.31 18.09L1083.31 17.49Z" />
				<path id="Layer" class="shp1" d="M1153.78 -37.32C1153.78 -77.07 1186.3 -108.39 1227.86 -108.39C1269.42 -108.39 1301.34 -77.68 1301.34 -37.92L1301.34 -37.32C1301.34 1.83 1268.82 33.15 1227.26 33.15C1185.7 33.15 1153.78 1.83 1153.78 -37.32ZM1227.86 -6.61C1210.4 -6.61 1199.56 -21.06 1199.56 -37.32L1199.56 -37.92C1199.56 -53.58 1210.4 -68.04 1227.86 -68.04C1245.33 -68.04 1256.17 -53.58 1256.17 -37.32C1256.17 -21.06 1245.33 -7.21 1227.86 -6.61Z" />
				<path id="Layer" class="shp1" d="M1313.99 -48.76L1375.42 -48.76C1411.56 -48.76 1436.25 -32.5 1436.25 -0.58L1436.25 0.02C1436.25 32.54 1411.56 50.01 1374.82 50.01L1360.36 50.01L1360.36 86.75L1315.19 86.75L1315.19 -48.76L1313.99 -48.76ZM1371.81 17.49L1359.16 17.49L1359.16 -12.63L1371.81 -12.63C1383.85 -12.63 1391.08 -7.21 1391.08 2.43L1391.08 3.03C1391.08 12.67 1383.25 18.09 1371.81 18.09L1371.81 17.49Z" />
				<path id="Layer" class="shp1" d="M1442.28 76.51C1442.28 35.56 1473.6 5.44 1514.55 5.44C1544.67 5.44 1564.54 19.9 1575.99 40.98L1538.64 62.66C1533.83 53.02 1526.6 46.4 1513.95 46.4C1498.89 46.4 1488.65 59.65 1488.65 75.91C1488.65 93.38 1498.89 106.02 1513.95 106.02C1526.6 106.02 1533.83 98.8 1539.25 89.16L1576.59 110.24C1565.15 130.12 1546.47 146.98 1512.75 146.98C1475.4 146.38 1442.28 118.67 1442.28 76.51Z" />
				<path id="Layer" class="shp1" d="M1634.41 -105.38L1679.58 -105.38L1679.58 -8.41L1743.43 -8.41L1743.43 30.14L1634.41 30.14L1634.41 -105.38Z" />
				<path id="Layer" class="shp1" d="M1753.66 8.45L1798.84 8.45L1798.84 143.97L1753.66 143.97L1753.66 8.45Z" />
				<path id="Layer" class="shp1" d="M1805.46 -48.76L1856.05 -48.76L1882.55 27.12L1909.06 -48.76L1959.05 -48.76L1903.63 87.96L1860.27 87.96L1805.46 -48.76Z" />
				<path id="Layer" class="shp1" d="M1025.49 116.86L1086.32 116.86C1122.46 116.86 1147.16 133.12 1147.16 165.04L1147.16 165.65C1147.16 198.17 1122.46 215.64 1085.72 215.64L1071.27 215.64L1071.27 252.38L1026.09 252.38L1026.09 116.86L1025.49 116.86ZM1083.31 182.51L1070.66 182.51L1070.66 152.4L1083.31 152.4C1095.36 152.4 1102.59 157.82 1102.59 167.45L1102.59 168.06C1102.59 177.69 1094.76 183.11 1083.31 183.11L1083.31 182.51Z" />
				<path id="Layer" class="shp1" d="M1153.78 128.31C1153.78 88.56 1186.3 57.24 1227.86 57.24C1269.42 57.24 1301.34 87.96 1301.34 127.71L1301.34 128.31C1301.34 167.46 1268.82 198.78 1227.26 198.78C1185.7 198.18 1153.78 167.46 1153.78 128.31ZM1227.86 159.03C1210.4 159.03 1199.56 144.57 1199.56 128.31L1199.56 127.71C1199.56 112.05 1210.4 97.59 1227.86 97.59C1245.33 97.59 1256.17 112.05 1256.17 128.31C1256.17 143.97 1245.33 158.42 1227.86 159.03Z" />
				<path id="Layer" class="shp1" d="M1313.99 116.86L1375.42 116.86C1411.56 116.86 1436.25 133.12 1436.25 165.04L1436.25 165.65C1436.25 198.17 1411.56 215.64 1374.82 215.64L1360.36 215.64L1360.36 252.38L1315.19 252.38L1315.19 116.86L1313.99 116.86ZM1371.81 182.51L1359.16 182.51L1359.16 152.4L1371.81 152.4C1383.85 152.4 1391.08 157.82 1391.08 167.45L1391.08 168.06C1391.08 177.69 1383.25 183.11 1371.81 183.11L1371.81 182.51Z" />
				<path id="Layer" class="shp1" d="M1442.28 241.54C1442.28 200.58 1473.6 170.47 1514.55 170.47C1544.67 170.47 1564.54 184.92 1575.99 206L1538.64 227.69C1533.83 218.05 1526.6 211.42 1513.95 211.42C1498.89 211.42 1488.65 224.67 1488.65 240.94L1488.65 241.54C1488.65 259 1498.89 271.65 1513.95 271.65C1526.6 271.65 1533.83 264.42 1539.25 254.79L1576.59 275.87C1565.15 295.75 1546.47 312.61 1512.75 312.61C1475.4 312.01 1442.28 283.7 1442.28 241.54Z" />
				<path id="Layer" class="shp1" d="M1634.41 60.25L1679.58 60.25L1679.58 157.22L1743.43 157.22L1743.43 195.76L1634.41 195.76L1634.41 60.25Z" />
				<path id="Layer" class="shp1" d="M1753.66 173.48L1798.84 173.48L1798.84 309L1753.66 309L1753.66 173.48Z" />
				<path id="Layer" class="shp1" d="M1805.46 116.86L1856.05 116.86L1882.55 192.75L1909.06 116.86L1959.05 116.86L1904.24 253.58L1860.87 253.58L1805.46 116.86Z" />
				<path id="Layer" class="shp1" d="M1025.49 280.09L1086.32 280.09C1122.46 280.09 1147.16 296.35 1147.16 328.27L1147.16 328.88C1147.16 361.4 1122.46 378.87 1085.72 378.87L1071.27 378.87L1071.27 415.61L1026.09 415.61L1026.09 280.09L1025.49 280.09ZM1083.31 345.74L1070.66 345.74L1070.66 315.62L1083.31 315.62C1095.36 315.62 1102.59 321.05 1102.59 330.68L1102.59 331.28C1102.59 340.92 1094.76 346.34 1083.31 346.34L1083.31 345.74Z" />
				<path id="Layer" class="shp1" d="M1153.78 291.53C1153.78 251.78 1186.3 220.46 1227.86 220.46C1269.42 220.46 1301.34 251.18 1301.34 290.93L1301.34 291.53C1301.34 330.68 1268.82 362 1227.26 362C1185.7 362 1153.78 330.68 1153.78 291.53ZM1227.86 322.25C1210.4 322.25 1199.56 307.79 1199.56 291.53L1199.56 290.93C1199.56 275.27 1210.4 260.82 1227.86 260.82C1245.33 260.82 1256.17 275.27 1256.17 291.53C1256.17 307.19 1245.33 321.65 1227.86 322.25Z" />
				<path id="Layer" class="shp1" d="M1313.99 280.09L1375.42 280.09C1411.56 280.09 1436.25 296.35 1436.25 328.27L1436.25 328.88C1436.25 361.4 1411.56 378.87 1374.82 378.87L1360.36 378.87L1360.36 415.61L1315.19 415.61L1315.19 280.09L1313.99 280.09ZM1371.81 345.74L1359.16 345.74L1359.16 315.62L1371.81 315.62C1383.85 315.62 1391.08 321.05 1391.08 330.68L1391.08 331.28C1391.08 340.92 1383.25 346.34 1371.81 346.34L1371.81 345.74Z" />
				<path id="Layer" class="shp1" d="M1442.28 405.36C1442.28 364.4 1473.6 334.29 1514.55 334.29C1544.67 334.29 1564.54 348.75 1575.99 369.83L1538.64 391.51C1533.83 381.87 1526.6 375.25 1513.95 375.25C1498.89 375.25 1488.65 388.5 1488.65 404.76L1488.65 405.36C1488.65 422.83 1498.89 435.48 1513.95 435.48C1526.6 435.48 1533.83 428.25 1539.25 418.61L1576.59 439.69C1565.15 459.57 1546.47 476.43 1512.75 476.43C1475.4 475.23 1442.28 446.92 1442.28 405.36Z" />
				<path id="Layer" class="shp1" d="M1634.41 223.47L1679.58 223.47L1679.58 320.44L1743.43 320.44L1743.43 358.99L1634.41 358.99L1634.41 223.47Z" />
				<path id="Layer" class="shp1" d="M1753.66 336.7L1798.84 336.7L1798.84 472.22L1753.66 472.22L1753.66 336.7Z" />
				<path id="Layer" class="shp1" d="M1805.46 280.09L1856.05 280.09L1882.55 355.98L1909.06 280.09L1959.05 280.09L1904.24 416.81L1860.87 416.81L1805.46 280.09Z" />
				<path id="Layer" class="shp1" d="M1025.49 440.3L1086.32 440.3C1122.46 440.3 1147.16 456.56 1147.16 488.48L1147.16 489.09C1147.16 521.61 1122.46 539.08 1085.72 539.08L1071.27 539.08L1071.27 575.82L1026.09 575.82L1026.09 440.3L1025.49 440.3ZM1083.31 505.95L1070.66 505.95L1070.66 475.83L1083.31 475.83C1095.36 475.83 1102.59 481.25 1102.59 490.89L1102.59 491.49C1102.59 501.13 1094.76 506.55 1083.31 506.55L1083.31 505.95Z" />
				<path id="Layer" class="shp1" d="M1153.78 451.14C1153.78 411.38 1186.3 380.07 1227.86 380.07C1269.42 380.07 1301.34 410.78 1301.34 450.53L1301.34 451.14C1301.34 490.29 1268.82 521.6 1227.26 521.6C1185.7 521.6 1153.78 490.89 1153.78 451.14ZM1227.86 481.85C1210.4 481.85 1199.56 467.4 1199.56 451.14L1199.56 450.53C1199.56 434.87 1210.4 420.42 1227.86 420.42C1245.33 420.42 1256.17 434.87 1256.17 451.14C1256.17 467.4 1245.33 481.85 1227.86 481.85Z" />
				<path id="Layer" class="shp1" d="M1313.99 440.3L1375.42 440.3C1411.56 440.3 1436.25 456.56 1436.25 488.48L1436.25 489.09C1436.25 521.61 1411.56 539.08 1374.82 539.08L1360.36 539.08L1360.36 575.82L1315.19 575.82L1315.19 440.3L1313.99 440.3ZM1371.81 505.95L1359.16 505.95L1359.16 475.83L1371.81 475.83C1383.85 475.83 1391.08 481.25 1391.08 490.89L1391.08 491.49C1391.08 501.13 1383.25 506.55 1371.81 506.55L1371.81 505.95Z" />
				<path id="Layer" class="shp1" d="M1442.28 564.97C1442.28 524.01 1473.6 493.9 1514.55 493.9C1544.67 493.9 1564.54 508.35 1575.99 529.43L1538.64 551.12C1533.83 541.48 1526.6 534.86 1513.95 534.86C1498.89 534.86 1488.65 548.11 1488.65 564.37L1488.65 564.97C1488.65 582.44 1498.89 595.09 1513.95 595.09C1526.6 595.09 1533.83 587.86 1539.25 578.22L1576.59 599.3C1565.15 619.18 1546.47 636.04 1512.75 636.04C1475.4 635.44 1442.28 607.13 1442.28 564.97Z" />
				<path id="Layer" class="shp1" d="M1634.41 383.08L1679.58 383.08L1679.58 480.05L1743.43 480.05L1743.43 518.6L1634.41 518.6L1634.41 383.08Z" />
				<path id="Layer" class="shp1" d="M1753.66 496.91L1798.84 496.91L1798.84 632.43L1753.66 632.43L1753.66 496.91Z" />
				<path id="Layer" class="shp1" d="M1805.46 440.3L1856.05 440.3L1882.55 516.19L1909.06 440.3L1959.05 440.3L1904.24 577.02L1860.87 577.02L1805.46 440.3Z" />
				<path id="Layer" class="shp1" d="M1025.49 603.52L1086.32 603.52C1122.46 603.52 1147.16 619.78 1147.16 651.7L1147.16 652.3C1147.16 684.83 1122.46 702.29 1085.72 702.29L1071.27 702.29L1071.27 739.03L1026.09 739.03L1026.09 603.52L1025.49 603.52ZM1083.31 669.17L1070.66 669.17L1070.66 639.05L1083.31 639.05C1095.36 639.05 1102.59 644.47 1102.59 654.11L1102.59 654.71C1102.59 664.35 1094.76 669.77 1083.31 669.77L1083.31 669.17Z" />
				<path id="Layer" class="shp1" d="M1153.78 614.96C1153.78 575.21 1186.3 543.89 1227.86 543.89C1269.42 543.89 1301.34 574.61 1301.34 614.36L1301.34 614.96C1301.34 654.11 1268.82 685.43 1227.26 685.43C1185.7 684.83 1153.78 654.11 1153.78 614.96ZM1227.86 645.68C1210.4 645.68 1199.56 631.22 1199.56 614.96L1199.56 614.36C1199.56 598.7 1210.4 584.24 1227.86 584.24C1245.33 584.24 1256.17 598.7 1256.17 614.96C1256.17 630.62 1245.33 645.07 1227.86 645.68Z" />
				<path id="Layer" class="shp1" d="M1313.99 603.52L1375.42 603.52C1411.56 603.52 1436.25 619.78 1436.25 651.7L1436.25 652.3C1436.25 684.83 1411.56 702.29 1374.82 702.29L1360.36 702.29L1360.36 739.03L1315.19 739.03L1315.19 603.52L1313.99 603.52ZM1371.81 669.17L1359.16 669.17L1359.16 639.05L1371.81 639.05C1383.85 639.05 1391.08 644.47 1391.08 654.11L1391.08 654.71C1391.08 664.35 1383.25 669.77 1371.81 669.77L1371.81 669.17Z" />
				<path id="Layer" class="shp1" d="M1442.28 728.19C1442.28 687.24 1473.6 657.12 1514.55 657.12C1544.67 657.12 1564.54 671.58 1575.99 692.66L1538.64 714.34C1533.83 704.7 1526.6 698.08 1513.95 698.08C1498.89 698.08 1488.65 711.33 1488.65 727.59L1488.65 728.19C1488.65 745.66 1498.89 758.31 1513.95 758.31C1526.6 758.31 1533.83 751.08 1539.25 741.44L1576.59 762.52C1565.15 782.4 1546.47 799.26 1512.75 799.26C1475.4 798.66 1442.28 770.35 1442.28 728.19Z" />
				<path id="Layer" class="shp1" d="M1634.41 546.3L1679.58 546.3L1679.58 643.27L1743.43 643.27L1743.43 681.81L1634.41 681.81L1634.41 546.3Z" />
				<path id="Layer" class="shp1" d="M1753.66 660.14L1798.84 660.14L1798.84 795.65L1753.66 795.65L1753.66 660.14Z" />
				<path id="Layer" class="shp1" d="M1805.46 603.52L1856.05 603.52L1882.55 679.4L1909.06 603.52L1959.05 603.52L1904.24 740.24L1860.87 740.24L1805.46 603.52Z" />
			</g>
		</g>
	</g>
</svg>