<svg width="48" height="86" viewBox="0 0 48 86" fill="none" xmlns="http://www.w3.org/2000/svg">
<path fill-rule="evenodd" clip-rule="evenodd" d="M19.2689 47.2417C19.2689 47.5642 19.5107 47.0805 19.7526 47.2417C21.6068 49.6602 24.1866 51.2726 26.2826 53.4493C29.5879 50.3052 32.9738 47.2417 36.6016 44.3395C36.6016 44.5007 36.521 44.8232 36.7629 44.8232C37.166 44.5813 36.6016 44.3396 36.6016 44.0977C36.8435 43.9365 37.166 43.8558 37.3272 43.6139C37.7303 43.7752 37.0853 44.0171 37.0853 44.2589C38.3752 43.8558 38.7783 42.4854 40.1488 42.0823C40.1488 42.4854 39.907 42.5659 39.7457 42.8078C40.5519 42.7271 40.955 42.3241 41.4387 41.921C41.7611 42.3241 40.7937 42.4854 40.7131 42.8885C41.358 42.9691 42.003 42.0822 42.8092 41.921C43.051 41.921 42.8898 42.4047 42.9704 42.6466C43.4541 42.4853 43.7766 42.2435 44.099 41.921C44.3409 42.2435 43.3735 42.4853 43.3735 43.0497C44.0991 42.969 44.4215 42.4047 45.0665 42.1629C45.1471 43.0497 44.4215 43.1303 44.1797 43.7752C44.2603 44.1783 44.4215 43.6946 44.6634 43.7752C44.5827 44.0977 44.1797 44.0171 44.2603 44.5008C44.2603 44.8233 44.6634 44.5007 44.6634 44.3395C45.0665 44.662 44.1797 44.7426 44.2603 45.2263C44.744 45.2263 44.8246 44.7426 45.3889 44.7426C44.9859 45.0651 44.5021 45.3069 44.4215 45.9519C45.3889 45.7906 45.7114 45.065 46.5982 44.8232C46.7594 45.1457 46.5982 45.7906 47.0013 45.9519C46.5176 46.5968 45.9532 47.1611 45.147 47.5642C44.9052 47.8061 44.744 48.0479 44.4215 48.2092C40.955 51.0308 38.1334 55.5454 34.3444 59.0119C32.0064 61.1886 29.7491 63.7683 27.1694 65.945C26.6857 66.3481 25.5571 66.8317 24.8315 66.1868C24.8315 65.8643 24.6702 65.7032 24.5896 65.4613C24.4284 65.2195 24.1866 65.0582 23.8641 64.9775C19.1883 58.2057 13.8675 52.1595 8.06305 46.5162C7.01503 45.9519 5.967 44.9039 5.64453 44.0977C6.28947 44.0171 6.77317 44.4201 6.85379 43.8558C7.41811 43.8558 7.49875 44.4202 7.98246 44.5814C8.14369 44.3395 7.90186 43.4528 7.49877 43.3721C7.66001 42.9691 7.98247 43.4527 8.1437 43.4527C8.22432 42.7272 7.09565 42.6466 7.41812 42.0823C7.82121 42.0823 7.98246 42.4048 8.38554 42.4854C8.54678 41.7598 7.82124 41.921 7.90186 41.2761C9.11112 42.0017 10.0785 42.8885 11.2072 43.6946C11.2072 43.2109 10.3203 42.4853 9.83665 42.0016C10.0785 41.5985 10.1591 42.4047 10.5622 42.2435C10.401 41.4373 9.27234 41.5986 9.35296 40.5505C10.3204 40.9536 11.3684 41.276 12.1746 41.921C12.497 42.0016 12.094 41.3567 12.5777 41.5179C12.6583 41.0342 12.2552 41.1148 12.1746 40.7923C13.4644 41.276 15.1574 43.5333 16.931 44.3395C17.5759 45.2263 18.3821 45.9519 19.2689 46.6774C19.1077 46.758 19.3495 46.8386 19.2689 47.2417ZM38.4558 43.6139C39.0201 43.4527 38.2946 44.0171 38.6977 44.0977C38.8589 43.9365 39.1008 43.2109 38.9396 42.9691C38.8589 43.2915 38.5364 43.2915 38.4558 43.6139Z" fill="black"/>
<path fill-rule="evenodd" clip-rule="evenodd" d="M43.6928 19.5895C43.6122 19.6702 43.3704 20.1538 43.6928 20.2344C44.1765 20.0732 44.3378 19.6701 44.6602 19.3476C45.0633 19.3476 45.0634 19.8314 45.3858 19.9926C45.0634 20.96 45.547 21.605 44.7408 22.3306C45.1439 22.2499 45.4664 22.4112 45.7083 21.9275C46.1114 22.4918 45.2246 22.8142 45.4664 23.6204C45.7083 24.0235 46.1114 23.2173 46.192 23.4591C46.192 24.1847 45.6277 24.4265 45.4664 25.0715C45.7083 25.4746 45.7083 24.6684 46.1114 24.8297C45.1439 26.8451 43.451 28.0543 42.5642 30.1504C42.2417 30.231 42.0805 30.4729 41.6774 30.5535C41.0325 32.1658 39.3395 32.0046 38.7752 33.6976C38.5333 33.7782 38.4527 33.6169 38.2915 33.5363C36.6791 35.3099 34.5831 36.6804 32.9707 38.3733C30.1491 39.9857 28.1337 42.4043 25.5539 44.1778C19.9107 38.6959 12.9776 34.5037 8.22118 28.135C8.05995 26.3614 6.36698 26.2002 5.80266 24.8297C5.9639 25.0715 6.20577 25.2327 6.52824 25.3134C6.60885 24.5878 5.39956 24.1847 5.64142 23.1367C7.25376 23.9429 9.10796 23.9428 10.4785 25.0715C10.2366 23.9428 9.02736 23.7817 8.62427 22.7336C9.10797 22.5724 9.75291 22.9755 10.2366 23.2173C10.5591 22.8949 9.75292 22.7336 9.99477 22.0887C11.204 22.7336 12.4133 22.653 13.1389 23.701C13.4613 23.5398 13.6226 23.701 13.7838 23.5398C17.5728 26.6033 21.4424 29.5861 25.5539 32.4077C27.4081 31.0372 29.6654 30.3922 30.8747 28.6186C31.2778 28.6993 31.1165 28.6993 31.5196 28.6186C34.5025 25.797 37.969 23.4592 41.1131 20.7182C41.1131 20.557 41.1131 20.3957 41.1131 20.2344C41.2743 20.7181 41.758 20.1538 41.9999 19.8313C42.0805 20.7181 43.1285 19.7508 43.6928 19.5895Z" fill="black"/>
<path fill-rule="evenodd" clip-rule="evenodd" d="M15.398 6.44947C15.1562 6.61071 15.7205 6.9332 15.8011 7.17505C15.9624 7.17505 15.8817 6.93316 16.043 6.93316C18.139 8.14242 19.9932 9.51292 21.7668 10.964C22.6536 10.964 23.1373 11.4478 23.4598 11.9315C23.8629 11.7703 23.9435 11.7702 24.1047 12.1733C24.5884 12.3345 24.4272 11.8509 24.8303 11.9315C24.9109 12.1733 25.1527 12.254 25.0721 12.6571C25.5558 12.254 25.7977 12.9795 26.2814 13.0602C31.199 9.67423 35.9554 6.2076 40.47 2.4992C40.7119 2.4992 40.5506 2.90233 40.6313 3.14418C41.5987 3.06356 41.6793 2.09618 42.9692 2.25741C42.9692 2.6605 42.5661 2.66052 42.4855 2.98299C42.7273 2.98299 43.5335 2.4992 44.1784 2.4992C43.4529 3.62785 42.9692 4.27287 42.3242 5.40151C42.8885 5.72398 43.2916 4.51464 43.9366 4.91773C43.3722 6.2076 42.0824 6.69139 41.3568 7.82003C42.3242 7.33633 42.8886 6.53011 43.7754 5.96579C43.6947 6.44949 43.1304 6.53013 43.0498 7.09445C43.4529 7.41692 43.6141 6.69137 44.1784 6.69137C43.856 7.09445 43.4529 7.49754 43.211 7.90063C43.211 8.14248 43.5335 7.73937 43.6947 7.98122C43.2916 8.86802 42.4049 9.27114 41.5987 9.83546C39.8251 11.206 38.2128 12.8988 36.7616 14.5918C35.4718 14.5918 33.7788 17.8972 33.1339 17.2522C32.9726 18.2196 31.7633 18.6228 31.199 19.1065C29.9898 19.9933 29.2642 21.2024 27.8131 21.4443C27.3294 22.0086 26.6038 22.1699 26.362 22.8954C25.5558 22.6536 25.6364 23.5403 25.1527 23.0566C24.7496 23.2179 25.1527 23.4597 24.9109 23.7822C21.2831 21.6055 17.9778 19.2676 14.995 16.5266C13.9469 16.6073 13.8663 15.8011 13.0601 15.6399C12.9795 15.3174 12.7377 15.0756 12.5764 14.7531C12.4152 14.7531 12.2539 14.7531 12.0927 14.7531C12.0121 14.5919 11.9315 14.4306 11.9315 14.1081C11.1253 14.1081 9.99667 13.6245 9.75482 12.7377C10.1579 12.6571 10.2385 12.8988 10.4803 12.9795C9.91603 12.4958 9.35173 11.5284 8.54556 11.609C7.49753 10.1579 5.80454 9.35176 4.43404 8.22312C4.6759 7.82003 4.9984 8.38431 5.32087 8.38431C4.67593 7.33628 3.54728 6.77192 2.90234 5.7239C3.06358 5.15958 3.46668 4.83717 3.06359 4.27284C3.30544 4.11161 3.46666 3.95034 3.95036 4.03095C3.62789 3.06355 4.27283 2.98291 4.35345 2.09612C4.5953 2.0155 4.83713 1.85432 5.24022 1.85432C5.40145 1.37062 4.99838 1.37064 4.99838 0.967552C6.36887 1.04817 6.77198 2.0962 8.14247 2.17681C7.90062 1.37064 6.69137 1.5318 6.69137 0.483769C8.2231 1.85427 10.8835 2.17673 11.7703 4.11155C13.3826 4.27279 14.1888 6.53015 15.5593 6.20768C15.8011 6.2883 16.6879 6.77194 16.2042 6.85256C15.8011 6.53009 15.398 6.69133 15.398 6.44947ZM42.9692 7.98122C42.5661 7.98122 42.5661 8.30373 42.4855 8.6262C42.8079 8.6262 43.2917 8.38431 42.9692 7.98122ZM7.90063 2.17681C8.06187 2.66052 8.7068 3.22482 9.10989 3.06358C8.62619 2.82173 8.38434 2.33805 7.90063 2.17681Z" fill="black"/>
<path fill-rule="evenodd" clip-rule="evenodd" d="M16.5265 68.3635C16.2846 68.5248 16.8489 68.8472 16.9295 69.0891C17.0908 69.0891 17.0102 68.8472 17.1714 68.8472C19.2675 70.0565 21.1217 71.427 22.8952 72.8781C23.782 72.8781 24.2657 73.3617 24.5882 73.8454C24.9913 73.6842 25.0719 73.6842 25.2332 74.0873C25.7169 74.2486 25.5556 73.7648 25.9587 73.8454C26.0393 74.0873 26.2812 74.1679 26.2005 74.571C26.6842 74.1679 26.9261 74.8935 27.4098 74.9741C32.3275 71.5882 37.0839 68.1216 41.5985 64.4133C41.8403 64.4133 41.6791 64.8164 41.7597 65.0582C42.7271 64.9776 42.8077 64.0101 44.0976 64.1714C44.0976 64.5744 43.6945 64.5745 43.6139 64.8969C43.8558 64.8969 44.6619 64.4133 45.3069 64.4133C44.5813 65.5419 44.0976 66.1868 43.4527 67.3155C44.017 67.6379 44.4201 66.4287 45.065 66.8318C44.5007 68.1216 43.2108 68.6053 42.4853 69.734C43.4527 69.2503 44.017 68.4442 44.9038 67.8798C44.8232 68.3635 44.2589 68.4441 44.1783 69.0084C44.5813 69.3309 44.7425 68.6053 45.3069 68.6053C44.9844 69.0084 44.5813 69.4115 44.3394 69.8146C44.3394 70.0564 44.6619 69.6534 44.8232 69.9759C44.4201 70.8627 43.5333 71.2657 42.7271 71.83C40.9535 73.2005 39.3412 74.8935 37.8901 76.5865C36.6002 76.5865 34.9072 79.8918 34.2623 79.2469C34.101 80.2143 32.8918 80.6173 32.3275 81.101C31.1182 81.9878 30.3927 83.1971 28.9415 83.4389C28.4578 83.9226 27.7323 84.1645 27.4904 84.8901C26.6843 84.6482 26.7649 85.535 26.2812 85.0513C25.8781 85.2125 26.2812 85.4544 26.0393 85.7769C22.4116 83.6002 19.1062 81.2623 16.1234 78.5213C15.0753 78.6019 14.9948 77.7958 14.1886 77.6345C14.108 77.312 13.8661 77.0702 13.7048 76.7477C13.5436 76.7477 13.3824 76.7477 13.2212 76.7477C13.1405 76.5865 13.0599 76.4252 13.0599 76.1028C12.2537 76.1028 11.1251 75.6191 10.8832 74.7323C11.2863 74.6517 11.367 74.8935 11.6088 74.9741C11.0445 74.4904 10.4802 73.523 9.67398 73.6037C8.62595 72.1525 6.93301 71.3463 5.56251 70.2177C5.80436 69.8146 6.12681 70.379 6.44928 70.379C5.80434 69.3309 4.6757 68.7666 4.03076 67.7185C4.192 67.1542 4.59509 66.8318 4.19201 66.2675C4.43386 66.1063 4.59512 65.945 5.07883 66.0256C4.75636 65.0582 5.4013 64.9776 5.48191 64.0908C5.72377 64.0101 5.9656 63.849 6.36869 63.849C6.52992 63.3653 6.12684 63.3652 6.12684 62.9621C7.49734 63.0427 7.9004 64.0907 9.27089 64.1714C9.02904 63.3652 7.81979 63.5264 7.81979 62.4784C9.35152 63.8489 12.0119 64.1714 12.8987 66.1062C14.511 66.2674 15.3172 68.5247 16.6877 68.2022C16.9296 68.2828 17.8163 68.7666 17.3326 68.8472C16.9295 68.4441 16.5265 68.6054 16.5265 68.3635ZM44.0976 69.9759C43.6945 69.9759 43.6945 70.2983 43.6139 70.6207C44.017 70.5401 44.4201 70.2983 44.0976 69.9759ZM9.02905 64.1714C9.19028 64.6551 9.83522 65.2195 10.2383 65.0582C9.75461 64.7358 9.51275 64.3326 9.02905 64.1714Z" fill="black"/>
<path fill-rule="evenodd" clip-rule="evenodd" d="M16.3665 46.7579C16.3665 47.0804 16.6084 46.5967 16.8502 46.7579C18.7044 49.1765 21.2842 50.7889 23.3802 52.9655C26.6855 49.8215 30.0715 46.758 33.6993 43.8557C33.6993 44.017 33.6186 44.3394 33.8605 44.3394C34.2636 44.0976 33.6993 43.8557 33.6993 43.6138C33.9411 43.4526 34.2636 43.372 34.4248 43.1302C34.8279 43.2914 34.183 43.5333 34.183 43.7751C35.4728 43.372 35.8759 42.0015 37.2464 41.5984C37.2464 42.0015 37.0046 42.0821 36.8433 42.324C37.6495 42.2434 38.0526 41.8403 38.5363 41.4372C38.8588 41.8403 37.8914 42.0015 37.8107 42.4046C38.4557 42.4852 39.1006 41.5984 39.9068 41.4372C40.1486 41.4372 39.9874 41.9209 40.068 42.1628C40.5517 42.0015 40.8742 41.7597 41.1967 41.4372C41.4385 41.7597 40.4711 42.0015 40.4711 42.5659C41.1967 42.4853 41.5192 41.921 42.1641 41.6791C42.2447 42.5659 41.5191 42.6465 41.2773 43.2914C41.3579 43.6945 41.5192 43.2108 41.761 43.2914C41.6804 43.6139 41.2773 43.5332 41.3579 44.0169C41.3579 44.3394 41.761 44.017 41.761 43.8557C42.1641 44.1782 41.2773 44.2588 41.3579 44.7425C41.8416 44.7425 41.9222 44.2588 42.4865 44.2588C42.0835 44.5813 41.5997 44.8231 41.5191 45.4681C42.4865 45.3068 42.809 44.5813 43.6958 44.3394C43.857 44.6619 43.6958 45.3068 44.0989 45.4681C43.6152 46.113 43.0509 46.6773 42.2447 47.0804C42.0028 47.3223 41.8416 47.5642 41.5191 47.7254C38.0526 50.547 35.231 55.0615 31.442 58.5281C29.104 60.7047 26.8468 63.2846 24.267 65.4612C23.7833 65.8643 22.6547 66.348 21.9291 65.703C21.9291 65.3806 21.7679 65.2193 21.6873 64.9774C21.526 64.7356 21.2842 64.5744 20.9617 64.4938C16.2859 57.7219 10.9652 51.6756 5.16071 46.0324C4.11268 45.468 3.06466 44.42 2.74219 43.6138C3.38713 43.5332 3.87083 43.9364 3.95145 43.372C4.51577 43.372 4.59641 43.9364 5.08011 44.0976C5.24135 43.8558 4.99946 42.969 4.59638 42.8884C4.75761 42.4853 5.08007 42.969 5.24131 42.969C5.32192 42.2434 4.19331 42.1627 4.51578 41.5984C4.91887 41.5984 5.08011 41.9209 5.4832 42.0015C5.64443 41.2759 4.91885 41.4372 4.99946 40.7922C6.20872 41.5178 7.17616 42.4046 8.30481 43.2108C8.30481 42.727 7.418 42.0015 6.9343 41.5178C7.17615 41.1147 7.25674 41.9209 7.65983 41.7597C7.49859 40.9535 6.36995 41.1148 6.45057 40.0667C7.41798 40.4698 8.466 40.7923 9.27218 41.4372C9.59464 41.5178 9.19156 40.8729 9.67526 41.0341C9.75588 40.5504 9.35279 40.631 9.27218 40.3085C10.5621 40.7922 12.255 43.0496 14.0286 43.8557C14.6736 44.7425 15.4798 45.4681 16.3665 46.1937C16.2859 46.3549 16.4472 46.3548 16.3665 46.7579ZM35.5535 43.1302C36.1178 42.9689 35.3922 43.5332 35.7953 43.6138C35.9565 43.4526 36.1984 42.7271 36.0372 42.4853C35.9565 42.8077 35.6341 42.8077 35.5535 43.1302Z" fill="#DBFE00"/>
<path fill-rule="evenodd" clip-rule="evenodd" d="M40.7944 19.1058C40.7138 19.1864 40.4719 19.67 40.7944 19.7506C41.2781 19.5894 41.4393 19.1863 41.7618 18.8639C42.1649 18.8639 42.1649 19.3476 42.4873 19.5088C42.1649 20.4763 42.6486 21.1211 41.8424 21.8467C42.2455 21.7661 42.568 21.9273 42.8098 21.4436C43.2129 22.0079 42.3261 22.3305 42.568 23.1366C42.8098 23.5397 43.2129 22.7335 43.2935 22.9753C43.2935 23.7009 42.7292 23.9427 42.568 24.5877C42.8098 24.9908 42.8098 24.1847 43.2129 24.3459C42.2455 26.3613 40.5525 27.5706 39.6657 29.6666C39.3433 29.7472 39.182 29.9891 38.779 30.0697C38.134 31.6821 36.441 31.5208 35.8767 33.2138C35.6348 33.2944 35.5543 33.1331 35.393 33.0525C33.7807 34.8261 31.6846 36.1966 30.0723 37.8896C27.2507 39.5019 25.2352 41.9205 22.6555 43.6941C17.0123 38.2121 10.0792 34.02 5.32275 27.6512C5.16151 25.8776 3.46855 25.7164 2.90422 24.3459C3.06546 24.5877 3.30728 24.749 3.62975 24.8296C3.71037 24.104 2.50113 23.7009 2.74298 22.6528C4.35533 23.459 6.20953 23.459 7.58002 24.5877C7.33817 23.459 6.12892 23.2978 5.72583 22.2498C6.20954 22.0885 6.85448 22.4917 7.33818 22.7335C7.66065 22.4111 6.85449 22.2498 7.09634 21.6049C8.3056 22.2498 9.51483 22.1692 10.2404 23.2172C10.5629 23.056 10.7241 23.2172 10.8853 23.0559C14.6743 26.1194 18.544 29.1022 22.6555 31.9238C24.5097 30.5533 26.7669 29.9085 27.9762 28.1349C28.3793 28.2155 28.2181 28.2155 28.6211 28.1349C31.604 25.3133 35.0705 22.9753 38.2146 20.2343C38.2146 20.0731 38.2146 19.9119 38.2146 19.7506C38.3759 20.2343 38.8595 19.67 39.1014 19.3476C39.182 20.2343 40.2301 19.267 40.7944 19.1058Z" fill="#DBFE00"/>
<path fill-rule="evenodd" clip-rule="evenodd" d="M12.4957 5.96573C12.2538 6.12696 12.8182 6.44945 12.8988 6.6913C13.06 6.6913 12.9794 6.44941 13.1407 6.44941C15.2367 7.65867 17.0909 9.02917 18.8645 10.4803C19.7513 10.4803 20.235 10.964 20.5574 11.4477C20.9605 11.2865 21.0412 11.2865 21.2024 11.6895C21.6861 11.8508 21.5248 11.3671 21.9279 11.4477C22.0086 11.6896 22.2504 11.7701 22.1698 12.1732C22.6535 11.7701 22.8953 12.4957 23.379 12.5763C28.2967 9.19038 33.0532 5.72385 37.5677 2.01545C37.8096 2.01545 37.6484 2.41858 37.729 2.66043C38.6964 2.57982 38.777 1.61243 40.0668 1.77366C40.0668 2.17675 39.6638 2.17667 39.5832 2.49914C39.825 2.49914 40.6312 2.01545 41.2761 2.01545C40.5505 3.1441 40.0669 3.78902 39.4219 4.91766C39.9862 5.24013 40.3893 4.03089 41.0343 4.43398C40.4699 5.72385 39.1801 6.20754 38.4545 7.33618C39.4219 6.85248 39.9862 6.04636 40.873 5.48204C40.7924 5.96574 40.2281 6.04638 40.1475 6.6107C40.5506 6.93317 40.7118 6.20762 41.2761 6.20762C40.9536 6.6107 40.5505 7.01379 40.3087 7.41688C40.3087 7.65873 40.6312 7.25562 40.7924 7.49748C40.3893 8.38427 39.5025 8.78729 38.6963 9.35162C36.9228 10.7221 35.3104 12.4151 33.8593 14.1081C32.5694 14.1081 30.8765 17.4134 30.2315 16.7685C30.0703 17.7359 28.861 18.1389 28.2967 18.6226C27.0875 19.5094 26.3619 20.7187 24.9108 20.9605C24.4271 21.5249 23.7015 21.6861 23.4597 22.4117C22.6535 22.1698 22.7341 23.0566 22.2504 22.5729C21.8473 22.7341 22.2504 22.976 22.0086 23.2985C18.3808 21.1218 15.0754 18.7839 12.0926 16.0429C11.0446 16.1235 10.964 15.3174 10.1578 15.1561C10.0772 14.8337 9.83532 14.5918 9.67408 14.2694C9.51285 14.2694 9.35164 14.2694 9.1904 14.2694C9.10978 14.1081 9.02916 13.9468 9.02916 13.6244C8.22298 13.6244 7.09433 13.1407 6.85248 12.2539C7.25556 12.1733 7.3362 12.4151 7.57805 12.4957C7.01373 12.012 6.44939 11.0446 5.64322 11.1253C4.59519 9.67414 2.90225 8.86791 1.53175 7.73927C1.7736 7.33618 2.09605 7.90056 2.41852 7.90056C1.77358 6.85254 0.644939 6.28818 2.15343e-07 5.24015C0.161235 4.67583 0.564332 4.35342 0.161245 3.78909C0.403097 3.62786 0.564361 3.46659 1.04807 3.5472C0.725596 2.5798 1.37054 2.49916 1.45115 1.61237C1.693 1.53175 1.93484 1.37057 2.33792 1.37057C2.49916 0.886869 2.09608 0.886791 2.09608 0.483704C3.46658 0.564322 3.86963 1.61235 5.24013 1.69296C4.99828 0.886791 3.78903 1.04805 3.78903 1.91187e-05C5.32076 1.37052 7.98112 1.69298 8.86791 3.6278C10.4803 3.78904 11.2864 6.0463 12.6569 5.72383C12.8988 5.80445 13.7856 6.28819 13.3019 6.36881C12.8988 6.04634 12.5763 6.20758 12.4957 5.96573ZM40.0668 7.57807C39.6638 7.57807 39.6638 7.90058 39.5832 8.22305C39.9862 8.14243 40.3893 7.90054 40.0668 7.57807ZM4.99829 1.69296C5.15952 2.17667 5.80446 2.74107 6.20755 2.57983C5.80446 2.33798 5.48199 1.93482 4.99829 1.69296Z" fill="#DBFE00"/>
<path fill-rule="evenodd" clip-rule="evenodd" d="M13.7066 67.9604C13.4648 68.1216 14.0291 68.4441 14.1097 68.686C14.271 68.686 14.1904 68.4441 14.3516 68.4441C16.4477 69.6534 18.3018 71.0239 20.0754 72.475C20.9622 72.475 21.4459 72.9586 21.7684 73.4423C22.1715 73.2811 22.2521 73.2811 22.4133 73.6842C22.8971 73.8455 22.7358 73.3617 23.1389 73.4423C23.2195 73.6842 23.4613 73.7648 23.3807 74.1679C23.8644 73.7648 24.1063 74.4904 24.59 74.571C29.5076 71.1851 34.2641 67.7185 38.7787 64.0101C39.0205 64.0101 38.8593 64.4133 38.9399 64.6551C39.9073 64.5745 39.9879 63.607 41.2778 63.7683C41.2778 64.1713 40.8747 64.1714 40.7941 64.4938C41.0359 64.4938 41.8421 64.0101 42.487 64.0101C41.7615 65.1388 41.2778 65.7837 40.6329 66.9124C41.1972 67.2348 41.6003 66.0256 42.2452 66.4287C41.6809 67.7185 40.391 68.2022 39.6654 69.3309C40.6328 68.8472 41.1972 68.0411 42.084 67.4767C42.0033 67.9604 41.439 68.041 41.3584 68.6053C41.7615 68.9278 41.9227 68.2022 42.487 68.2022C42.1646 68.6053 41.7615 69.0084 41.5196 69.4115C41.5196 69.6533 41.8421 69.2503 42.0034 69.5728C41.6003 70.4596 40.7135 70.8626 39.9073 71.4269C38.1337 72.7974 36.5213 74.4904 35.0702 76.1833C33.7804 76.1833 32.0874 79.4887 31.4425 78.8438C31.2812 79.8112 30.072 80.2142 29.5077 80.6979C28.2984 81.5847 27.5728 82.794 26.1217 83.0358C25.638 83.5195 24.9125 83.7614 24.6706 84.487C23.8644 84.2451 23.9451 85.1319 23.4614 84.6482C23.0583 84.8094 23.4614 85.0513 23.2195 85.3737C19.5917 83.1971 16.2864 80.8592 13.3035 78.1182C12.2555 78.1988 12.1749 77.3926 11.3688 77.2314C11.2881 76.9089 11.0463 76.6671 10.885 76.3446C10.7238 76.3446 10.5626 76.3446 10.4013 76.3446C10.3207 76.1834 10.2401 76.0221 10.2401 75.6997C9.43392 75.6997 8.30527 75.216 8.06341 74.3292C8.4665 74.2486 8.54714 74.4904 8.78899 74.571C8.22467 74.0873 7.66033 73.1199 6.85415 73.2005C5.80613 71.7494 4.11318 70.9432 2.74269 69.8146C2.98454 69.4115 3.30699 69.9758 3.62946 69.9758C2.98452 68.9278 1.85588 68.3635 1.21094 67.3154C1.37217 66.7511 1.77527 66.4287 1.37218 65.8644C1.61403 65.7031 1.7753 65.5419 2.259 65.6225C1.93653 64.6551 2.58147 64.5744 2.66209 63.6877C2.90394 63.607 3.14577 63.4459 3.54886 63.4459C3.7101 62.9622 3.30702 62.9621 3.30702 62.559C4.67751 62.6396 5.08057 63.6876 6.45107 63.7683C6.20921 62.9621 4.99996 63.1233 4.99996 62.0753C6.53169 63.4458 9.19206 63.7683 10.0788 65.7031C11.6912 65.8643 12.4974 68.1216 13.8679 67.7991C14.1097 67.8797 14.9965 68.3635 14.5128 68.4441C14.1097 68.041 13.7066 68.1216 13.7066 67.9604ZM41.2778 69.4922C40.8747 69.4922 40.8747 69.8146 40.7941 70.137C41.1166 70.0564 41.5196 69.8146 41.2778 69.4922ZM6.12863 63.6877C6.28986 64.1714 6.9348 64.7357 7.33789 64.5744C6.9348 64.252 6.69295 63.8489 6.12863 63.6877Z" fill="#DBFE00"/>
</svg>
