<svg width="1920" height="25" viewBox="0 0 1920 25" fill="none" xmlns="http://www.w3.org/2000/svg">
<path d="M1269.8 8.54004H-66V12.54H1269.8V8.54004Z" fill="white"/>
<path d="M389.71 10.54H61.3789V24.1901H389.71V10.54Z" fill="white"/>
<path d="M908.593 10.54H786.309V24.1901H908.593V10.54Z" fill="white"/>
<path d="M933.726 10.54H927.77V24.1901H933.726V10.54Z" fill="white"/>
<path d="M945.64 10.54H939.684V24.1901H945.64V10.54Z" fill="white"/>
<path d="M1236.98 10.54H1231.03V24.1901H1236.98V10.54Z" fill="white"/>
<path d="M411.355 10.54H405.398V24.1901H411.355V10.54Z" fill="white"/>
<path d="M423.269 10.54H417.312V24.1901H423.269V10.54Z" fill="white"/>
<path d="M279.594 0H274.535V5.67999H279.594V0Z" fill="white"/>
<path d="M286.832 0H281.773V5.67999H286.832V0Z" fill="white"/>
<path d="M30.6409 0H25.582V5.67999H30.6409V0Z" fill="white"/>
<path d="M745.992 0H740.934V5.67999H745.992V0Z" fill="white"/>
<path d="M753.23 0H748.172V5.67999H753.23V0Z" fill="white"/>
<path d="M927.77 0H922.711V5.67999H927.77V0Z" fill="white"/>
<path d="M1256.47 0H1251.41V5.67999H1256.47V0Z" fill="white"/>
<path d="M1956.34 9H1269.8V13H1956.34V9Z" fill="white"/>
<path d="M1747.15 10.54H1741.2V24.1901H1747.15V10.54Z" fill="white"/>
<path d="M1759.07 10.54H1753.11V24.1901H1759.07V10.54Z" fill="white"/>
<path d="M1615.39 0H1610.33V5.67999H1615.39V0Z" fill="white"/>
<path d="M1622.63 0H1617.57V5.67999H1622.63V0Z" fill="white"/>
<path d="M1359.2 0H1354.14V5.67999H1359.2V0Z" fill="white"/>
<path d="M1366.44 0H1361.38V5.67999H1366.44V0Z" fill="white"/>
</svg>
