<svg width="45" height="25" viewBox="0 0 45 25" fill="none" xmlns="http://www.w3.org/2000/svg">
<path d="M37.4264 -0.000976562C31.9125 -0.000976562 29.8128 4.51516 29.7473 7.55054V12.4576C29.7364 12.6792 29.6491 13.3133 29.3546 13.8339C29.0947 14.2932 28.6874 14.7202 27.4876 14.7202C26.2968 14.7202 25.8987 14.3004 25.6442 13.8465C25.3533 13.3259 25.2697 12.6864 25.2624 12.472V7.58837C25.2406 4.53858 23.1863 -0.000976562 17.6179 -0.000976562C12.0913 -0.000976562 9.95697 4.52417 9.86971 7.56676C9.86971 7.59198 9.8679 7.6172 9.8679 7.64422V17.4133C9.86244 17.6204 9.78609 18.2473 9.5043 18.7553C9.26251 19.1913 8.87892 19.593 7.71361 19.593C6.51921 19.593 6.1029 19.1498 5.85202 18.7157C5.55024 18.1915 5.42116 17.588 5.41207 17.3845C5.283 16.0262 4.13041 14.9652 2.72694 14.9652C1.29802 14.9652 0.092716 16.0676 0 17.4619C0.0436311 20.4901 2.13429 24.9972 7.71361 24.9972C10.4587 24.9972 12.1567 23.8767 13.1002 22.9364C15.2545 20.7855 15.3236 17.8186 15.3236 17.4187V7.70907C15.3327 7.61179 15.4036 6.9849 15.6999 6.41746C15.9726 5.88964 16.3944 5.40326 17.6179 5.40326C18.7723 5.40326 19.1668 5.81939 19.4195 6.27154C19.7103 6.79035 19.7976 7.42625 19.8085 7.64782V12.499C19.8085 15.565 21.8537 20.1262 27.4876 20.1262C33.1069 20.1262 35.1794 15.5776 35.2012 12.5188V7.67304C35.2176 7.43886 35.3157 6.81016 35.612 6.29136C35.8757 5.83019 36.2774 5.40506 37.4264 5.40506C38.5499 5.40506 38.928 5.81218 39.1698 6.25353C39.457 6.77774 39.537 7.41904 39.5461 7.63521V22.2969C39.5461 23.7885 40.7678 24.999 42.2731 24.999C43.7783 24.999 45 23.7885 45 22.2969V7.60819C45 4.54939 42.9821 -0.000976562 37.4264 -0.000976562Z" fill="#AD906E"/>
</svg>
