<svg width="375" height="44" viewBox="0 0 375 44" fill="none" xmlns="http://www.w3.org/2000/svg">
<rect width="120" height="12" transform="matrix(1 0 0 -1 -50 24)" fill="#AD50FF"/>
<rect width="55" height="12" transform="matrix(1 0 0 -1 70 24)" fill="#FC309A"/>
<rect width="96.4363" height="12.2021" transform="matrix(1 0 0 -1 -50 12.2871)" fill="#00BFFF"/>
<rect width="75" height="10" transform="matrix(1 0 0 -1 222 34)" fill="#DBFE00"/>
<rect width="66.1278" height="9.44683" transform="matrix(1 0 0 -1 286.012 43.3398)" fill="#00CAB1"/>
<rect width="23" height="9" transform="matrix(1 0 0 -1 352 43)" fill="#00BFFF"/>
<rect width="64" height="9" transform="matrix(1 0 0 -1 311 15)" fill="#FC309A"/>
<rect opacity="0.2" width="64" height="18" transform="matrix(1 0 0 -1 247 24)" fill="white"/>
<rect width="89" height="19" transform="matrix(1 0 0 -1 286 34)" fill="#00BFFF"/>
</svg>
