<svg width="188" height="25" viewBox="0 0 188 25" fill="none" xmlns="http://www.w3.org/2000/svg">
<path d="M42.4424 17.1772L45.5664 0.894531H41.1045L37.9805 17.1772H42.4424Z" fill="white"/>
<path d="M37.2252 21.1226L37.0745 21.9073H46.8856L47.0364 21.1226H37.2252Z" fill="white"/>
<path d="M37.5297 19.5479L37.3789 20.3326H47.1901L47.333 19.5899H41.9838L41.9917 19.5479H37.5297Z" fill="white"/>
<path d="M36.6202 24.2778L36.5071 24.867H46.3182L46.4313 24.2778H36.6202Z" fill="white"/>
<path d="M46.5846 23.4859L46.7354 22.7012H36.9243L36.7734 23.4859H46.5846Z" fill="white"/>
<path d="M37.8302 17.9707L37.6794 18.7554H42.1414L42.2922 17.9707H37.8302Z" fill="white"/>
<path d="M73.2669 21.9073L73.8219 21.1226H68.4648L67.9019 21.9073H73.2669Z" fill="white"/>
<path d="M70.7269 17.9707L70.1641 18.7554H75.4966L76.0516 17.9707H70.7269Z" fill="white"/>
<path d="M74.3796 20.3326L74.9346 19.5479H69.5941L69.0312 20.3326H74.3796Z" fill="white"/>
<path d="M72.1503 23.4859L72.7053 22.7012H67.3324L66.7695 23.4859H72.1503Z" fill="white"/>
<path d="M71.2969 17.1772H76.6128L76.7066 17.0448L76.739 17.1772H81.7112L80.1392 12.0849L87.9548 0.894531H82.446L78.3883 7.09338L77.2555 0.894531H71.7467L74.9496 12.0849L71.2969 17.1772Z" fill="white"/>
<path d="M76.9336 17.9707L77.1282 18.7554H82.196L81.954 17.9707H76.9336Z" fill="white"/>
<path d="M66.2038 24.2773L65.7812 24.8665H71.1761L71.5925 24.2773H66.2038Z" fill="white"/>
<path d="M83.4132 22.7007H78.1052L78.2999 23.4854H83.6561L83.4132 22.7007Z" fill="white"/>
<path d="M78.4954 24.2778L78.6418 24.867H84.0822L83.8998 24.2778H78.4954Z" fill="white"/>
<path d="M77.324 19.5479L77.5186 20.3326H82.6828L82.4408 19.5479H77.324Z" fill="white"/>
<path d="M77.7148 21.1226L77.9086 21.9073H83.1693L82.9264 21.1226H77.7148Z" fill="white"/>
<path d="M9.49345 19.5503L9.48029 19.5547C9.05381 19.6838 8.61071 19.7496 8.16512 19.7502C7.74382 19.7542 7.32488 19.6867 6.92623 19.5503H0.36792C0.437185 19.8203 0.514346 20.0834 0.602024 20.335H15.189C15.3778 20.0825 15.5605 19.8209 15.737 19.5503H9.49345Z" fill="white"/>
<path d="M1.94922 22.7012C2.18801 22.986 2.45212 23.2487 2.73832 23.4859H11.7516C12.0147 23.3298 12.2724 23.1659 12.5267 22.9844C12.6521 22.8967 12.7722 22.7959 12.8949 22.7012H1.94922Z" fill="white"/>
<path d="M0.921875 21.1245C0.98851 21.2665 1.05865 21.4051 1.1323 21.5401C1.20332 21.6707 1.28749 21.7865 1.36464 21.9092H13.8149C14.0674 21.6646 14.3112 21.3998 14.5514 21.1201L0.921875 21.1245Z" fill="white"/>
<path d="M8.85522 16.1029H12.5202C12.4038 16.4715 12.2599 16.8308 12.0897 17.1778H17.0128C17.3505 16.4097 17.6333 15.6186 17.8589 14.8105C18.133 13.8273 18.3925 12.7331 18.6374 11.5278H9.78198L8.85522 16.1029Z" fill="white"/>
<path d="M4.96062 17.178C4.83865 16.6982 4.77159 16.2061 4.76072 15.7112C4.74605 14.8106 4.8343 13.9114 5.02375 13.0309C5.2169 12.0345 5.52404 11.0636 5.93911 10.1375C6.29145 9.34227 6.7485 8.59773 7.29811 7.92361C7.76441 7.34837 8.33678 6.86797 8.98416 6.50848C9.57251 6.18308 10.2337 6.01206 10.9061 6.01135C11.7104 6.01135 12.3726 6.28228 12.8928 6.82413C13.4131 7.36598 13.7442 8.2594 13.8862 9.50443L18.5875 7.18798C18.2333 5.03871 17.4845 3.45234 16.3412 2.42884C15.1979 1.40535 13.731 0.893581 11.9407 0.893581C10.5808 0.890299 9.23718 1.1898 8.00743 1.77036C6.74274 2.37003 5.59911 3.19715 4.63358 4.21044C3.62587 5.25381 2.7561 6.51346 2.02428 7.98937C1.27042 9.53252 0.721299 11.1675 0.390844 12.8528C0.0740344 14.4153 -0.050176 15.8579 0.0182128 17.1807L4.96062 17.178Z" fill="white"/>
<path d="M4.02246 24.2778C4.87907 24.668 5.85317 24.867 6.9474 24.867C7.92543 24.8655 8.89651 24.7026 9.82148 24.3848C9.91617 24.3532 10.0082 24.3129 10.102 24.2778H4.02246Z" fill="white"/>
<path d="M0.19378 18.7549H5.75081C5.54382 18.5177 5.37197 18.2519 5.24053 17.9658H0.0859375C0.113118 18.235 0.149064 18.498 0.19378 18.7549Z" fill="white"/>
<path d="M11.6199 17.9727C11.4147 18.2624 11.1763 18.5273 10.9097 18.7618H16.2203C16.3653 18.5075 16.5053 18.2445 16.6403 17.9727H11.6199Z" fill="white"/>
<path d="M34.3748 22.7007H29.6753L29.7174 23.4854H34.4379L34.3748 22.7007Z" fill="white"/>
<path d="M21.9745 23.4854L22.3182 22.7007H17.6178L17.2539 23.4854H21.9745Z" fill="white"/>
<path d="M33.931 17.1772L32.6158 0.894531H27.7444L20.1831 17.1772H33.931ZM28.8211 7.98416L29.2928 15.9628H25.286L28.8211 7.98416Z" fill="white"/>
<path d="M18.3482 21.123L17.9844 21.9078H22.6629L23.0065 21.123H18.3482Z" fill="white"/>
<path d="M16.8868 24.2773L16.6133 24.8665H21.3707L21.6293 24.2773H16.8868Z" fill="white"/>
<path d="M29.7617 24.2773L29.7933 24.8665H34.5516L34.5033 24.2773H29.7617Z" fill="white"/>
<path d="M29.5894 21.1226L29.6323 21.9073H34.3108L34.2477 21.1226H29.5894Z" fill="white"/>
<path d="M19.083 19.5479L18.7183 20.3326H34.1838L34.1207 19.5479H19.083Z" fill="white"/>
<path d="M19.814 17.9707L19.4492 18.7554H34.0555L33.9924 17.9707H19.814Z" fill="white"/>
<path d="M49.4233 21.123L49.0586 21.9078H53.738L54.0808 21.123H49.4233Z" fill="white"/>
<path d="M53.0448 23.4859L53.3885 22.7012H48.6881L48.3242 23.4859H53.0448Z" fill="white"/>
<path d="M65.447 22.7007H60.7466L60.7887 23.4854H65.5101L65.447 22.7007Z" fill="white"/>
<path d="M65.0016 17.1772L63.6864 0.894531H58.815L51.2537 17.1772H65.0016ZM59.8917 7.98416L60.3643 15.9628H56.3574L59.8917 7.98416Z" fill="white"/>
<path d="M60.8318 24.2778L60.8642 24.867H65.6216L65.5743 24.2778H60.8318Z" fill="white"/>
<path d="M47.9571 24.2778L47.6836 24.867H52.4419L52.6996 24.2778H47.9571Z" fill="white"/>
<path d="M60.6602 21.123L60.7022 21.9078H65.3816L65.3176 21.123H60.6602Z" fill="white"/>
<path d="M50.1543 19.5479L49.7896 20.3326H65.2559L65.1919 19.5479H50.1543Z" fill="white"/>
<path d="M50.8882 17.9707L50.5234 18.7554H65.1306L65.0666 17.9707H50.8882Z" fill="white"/>
<path d="M94.751 23.4859L94.9018 22.7012H90.4398L90.2891 23.4859H94.751Z" fill="white"/>
<path d="M90.7412 21.1226L90.5903 21.9073H95.0523L95.2031 21.1226H90.7412Z" fill="white"/>
<path d="M91.4979 17.1772H95.9598L96.6928 13.3571L105.367 0.894531H100.039L95.6197 7.44409L93.689 0.894531H88.3625L92.2309 13.3571L91.4979 17.1772Z" fill="white"/>
<path d="M90.1363 24.2778L90.0232 24.867H94.4851L94.5982 24.2778H90.1363Z" fill="white"/>
<path d="M91.0454 19.5479L90.8945 20.3326H95.3565L95.5073 19.5479H91.0454Z" fill="white"/>
<path d="M91.3461 17.9707L91.1953 18.7554H95.6572L95.808 17.9707H91.3461Z" fill="white"/>
<path d="M124.851 24.2778L124.578 24.867H129.335L129.594 24.2778H124.851Z" fill="white"/>
<path d="M129.939 23.4859L130.283 22.7012H125.583L125.219 23.4859H129.939Z" fill="white"/>
<path d="M137.726 24.2778L137.758 24.867H142.516L142.468 24.2778H137.726Z" fill="white"/>
<path d="M126.317 21.123L125.953 21.9078H130.632L130.975 21.123H126.317Z" fill="white"/>
<path d="M141.896 17.1772L140.581 0.894531H135.71L128.148 17.1772H141.896ZM136.786 7.98416L137.258 15.9628H133.252L136.786 7.98416Z" fill="white"/>
<path d="M142.341 22.7007H137.641L137.683 23.4854H142.405L142.341 22.7007Z" fill="white"/>
<path d="M127.783 17.9707L127.418 18.7554H142.024L141.961 17.9707H127.783Z" fill="white"/>
<path d="M127.048 19.5479L126.684 20.3326H142.15L142.086 19.5479H127.048Z" fill="white"/>
<path d="M137.555 21.1226L137.598 21.9073H142.277L142.213 21.1226H137.555Z" fill="white"/>
<path d="M145.337 21.1245C145.396 21.242 145.449 21.3665 145.512 21.4796C145.6 21.6278 145.687 21.7707 145.775 21.9092H155.817L155.975 21.1201L145.337 21.1245Z" fill="white"/>
<path d="M148.434 24.2773C149.266 24.6725 150.177 24.8739 151.099 24.8665C151.705 24.8628 152.309 24.7871 152.897 24.6412C153.297 24.5415 153.692 24.42 154.078 24.2773H148.434Z" fill="white"/>
<path d="M146.375 22.7007C146.621 22.9847 146.89 23.2472 147.18 23.4854H155.498L155.657 22.7007H146.375Z" fill="white"/>
<path d="M144.493 18.7554H150.975C150.92 18.7239 150.861 18.6976 150.807 18.6625C150.517 18.4726 150.257 18.2393 150.038 17.9707H144.351C144.394 18.2355 144.437 18.5029 144.493 18.7554Z" fill="white"/>
<path d="M144.707 19.5508C144.789 19.8226 144.882 20.0821 144.982 20.3355H156.138L156.297 19.5508H144.707Z" fill="white"/>
<path d="M149.532 17.1773C149.259 16.6021 149.09 15.9832 149.032 15.3492C148.955 14.513 149.006 13.67 149.185 12.8495C149.355 11.9914 149.642 11.1606 150.038 10.3805C150.398 9.66119 150.858 8.99691 151.405 8.40771C151.902 7.87376 152.489 7.43078 153.139 7.0987C153.742 6.785 154.411 6.61969 155.091 6.61648C156.611 6.61648 157.717 7.44942 158.409 9.1153L159.836 2.06861C159.243 1.69214 158.603 1.39363 157.934 1.18044C157.299 0.988148 156.64 0.891783 155.977 0.894591C154.778 0.894591 153.572 1.19064 152.36 1.78276C151.101 2.40813 149.958 3.24306 148.98 4.25178C147.892 5.37046 146.969 6.63809 146.237 8.01667C145.431 9.52377 144.853 11.1429 144.525 12.8205C144.208 14.3812 144.114 15.8334 144.244 17.1773H149.532Z" fill="white"/>
<path d="M155.532 17.9727C155.136 18.2853 154.704 18.5501 154.246 18.7618H156.455L156.613 17.9727H155.532Z" fill="white"/>
<path d="M156.438 17.1776H156.777L156.865 16.7393C156.723 16.8927 156.58 17.0356 156.438 17.1776Z" fill="white"/>
<path d="M115.107 21.9073L115.257 21.1226H110.796L110.645 21.9073H115.107Z" fill="white"/>
<path d="M111.401 17.9707L111.25 18.7554H115.712L115.862 17.9707H111.401Z" fill="white"/>
<path d="M115.411 20.3326L115.562 19.5479H111.1L110.949 20.3326H115.411Z" fill="white"/>
<path d="M116.016 17.1772L116.309 15.6463L116.722 17.1772H121.604L120.842 15.0422C122.14 14.645 123.274 13.8359 124.072 12.7372C124.919 11.6032 125.518 10.1247 125.868 8.30156C126.058 7.36062 126.124 6.39873 126.064 5.44064C126.019 4.62549 125.816 3.82672 125.468 3.08823C125.148 2.42363 124.642 1.86583 124.012 1.48199C123.374 1.09095 122.577 0.895116 121.621 0.894531H114.678L111.555 17.1772H116.016ZM118.219 5.69139H119.061C119.941 5.69139 120.568 5.94567 120.941 6.4542C121.314 6.96273 121.409 7.69338 121.226 8.64615C121.042 9.60009 120.666 10.3307 120.099 10.8381C119.531 11.3455 118.807 11.5994 117.926 11.6H117.085L118.219 5.69139Z" fill="white"/>
<path d="M114.806 23.4859L114.956 22.7012H110.495L110.344 23.4859H114.806Z" fill="white"/>
<path d="M117.785 21.1226L117.998 21.9073H123.292L123.013 21.1226H117.785Z" fill="white"/>
<path d="M110.191 24.2778L110.078 24.867H114.539L114.652 24.2778H110.191Z" fill="white"/>
<path d="M118.637 24.2778L118.795 24.867H124.35L124.139 24.2778H118.637Z" fill="white"/>
<path d="M116.934 17.9707L117.145 18.7554H122.164L121.885 17.9707H116.934Z" fill="white"/>
<path d="M117.36 19.5479L117.573 20.3326H122.73L122.449 19.5479H117.36Z" fill="white"/>
<path d="M123.576 22.7007H118.212L118.423 23.4854H123.856L123.576 22.7007Z" fill="white"/>
<path d="M164.954 17.1772L165.285 15.4561H170.292L171.305 10.1779H166.296L167.065 6.17186H172.369L173.382 0.894531H163.616L160.492 17.1772H164.954Z" fill="white"/>
<path d="M159.737 21.1226L159.586 21.9073H169.351L169.502 21.1226H159.737Z" fill="white"/>
<path d="M160.038 19.5479L159.887 20.3326H169.652L169.794 19.5899H164.491L164.499 19.5479H160.038Z" fill="white"/>
<path d="M169.051 23.4859L169.202 22.7012H159.436L159.285 23.4859H169.051Z" fill="white"/>
<path d="M159.132 24.2778L159.019 24.867H168.784L168.897 24.2778H159.132Z" fill="white"/>
<path d="M160.342 17.9707L160.191 18.7554H164.653L164.804 17.9707H160.342Z" fill="white"/>
<path d="M176.72 23.4854L176.871 22.7007H172.409L172.258 23.4854H176.72Z" fill="white"/>
<path d="M177.931 17.1772L178.224 15.6463L178.637 17.1772H183.519L182.756 15.0422C184.054 14.6452 185.189 13.8361 185.987 12.7372C186.834 11.6032 187.432 10.1247 187.782 8.30156C187.972 7.36059 188.038 6.39877 187.979 5.44064C187.933 4.62543 187.731 3.82665 187.382 3.08823C187.062 2.42363 186.556 1.86583 185.926 1.48199C185.289 1.09095 183.641 0.894531 182.682 0.894531H176.589L173.465 17.1772H177.931ZM180.133 5.69139H180.976C181.853 5.69139 182.479 5.94567 182.855 6.4542C183.231 6.96273 183.326 7.69338 183.14 8.64615C182.956 9.60009 182.581 10.3307 182.013 10.8381C181.445 11.3455 180.722 11.5994 179.841 11.6H178.999L180.133 5.69139Z" fill="white"/>
<path d="M177.024 21.9078L177.175 21.123H172.713L172.562 21.9078H177.024Z" fill="white"/>
<path d="M173.315 17.9707L173.164 18.7554H177.626L177.777 17.9707H173.315Z" fill="white"/>
<path d="M177.325 20.3326L177.476 19.5479H173.014L172.863 20.3326H177.325Z" fill="white"/>
<path d="M179.703 21.123L179.914 21.9078H185.21L184.93 21.123H179.703Z" fill="white"/>
<path d="M172.105 24.2773L171.992 24.8665H176.454L176.567 24.2773H172.105Z" fill="white"/>
<path d="M180.551 24.2773L180.71 24.8665H186.264L186.054 24.2773H180.551Z" fill="white"/>
<path d="M178.852 17.9707L179.064 18.7554H184.083L183.803 17.9707H178.852Z" fill="white"/>
<path d="M185.493 22.7012H180.129L180.341 23.4859H185.774L185.493 22.7012Z" fill="white"/>
<path d="M179.277 19.5479L179.49 20.3326H184.647L184.366 19.5479H179.277Z" fill="white"/>
</svg>
