<svg width="74" height="51" viewBox="0 0 74 51" fill="none" xmlns="http://www.w3.org/2000/svg">
<path fill-rule="evenodd" clip-rule="evenodd" d="M31.3833 30.6698C31.7399 30.6698 31.205 30.4024 31.3833 30.1349C34.058 28.0843 35.8412 25.2313 38.2484 22.9132C34.7713 19.2578 31.3833 15.5132 28.1737 11.5012C28.352 11.5012 28.7086 11.5903 28.7086 11.3229C28.4411 10.8771 28.1737 11.5012 27.9063 11.5012C27.728 11.2337 27.6387 10.8771 27.3713 10.6988C27.5496 10.253 27.8171 10.9663 28.0845 10.9663C27.6388 9.53978 26.1232 9.09396 25.6774 7.5783C26.1232 7.5783 26.2122 7.84577 26.4797 8.02408C26.3905 7.13252 25.9448 6.68675 25.499 6.15182C25.9448 5.79519 26.1232 6.86509 26.5689 6.95425C26.6581 6.241 25.6773 5.52771 25.499 4.63615C25.499 4.36868 26.034 4.54698 26.3014 4.45782C26.1231 3.92289 25.8556 3.56629 25.499 3.20967C25.8556 2.9422 26.1231 4.01204 26.7472 4.01204C26.658 3.20964 26.034 2.85303 25.7665 2.13978C26.7472 2.05062 26.8364 2.85301 27.5496 3.12048C27.9954 3.03132 27.4605 2.85303 27.5496 2.58556C27.9063 2.67472 27.8171 3.1205 28.3521 3.03134C28.7087 3.03134 28.352 2.58556 28.1737 2.58556C28.5303 2.13978 28.6194 3.1205 29.1544 3.03134C29.1544 2.4964 28.6195 2.40723 28.6195 1.78313C28.9761 2.22891 29.2436 2.76386 29.9568 2.85302C29.7785 1.78314 28.9761 1.42651 28.7086 0.445788C29.0652 0.267473 29.7785 0.445788 29.9568 5.80145e-06C30.6701 0.534945 31.2942 1.15908 31.7399 2.05065C32.0074 2.31811 32.2749 2.49639 32.4532 2.85302C35.5737 6.68675 40.5665 9.80722 44.4002 13.9976C46.8074 16.5831 49.6604 19.0795 52.0676 21.9325C52.5134 22.4674 53.0483 23.7156 52.335 24.518C51.9784 24.518 51.8002 24.6964 51.5327 24.7855C51.2653 24.9638 51.0869 25.2313 50.9977 25.5879C43.5086 30.759 36.8219 36.6433 30.581 43.0626C29.9569 44.2216 28.7978 45.3807 27.9063 45.7373C27.8171 45.024 28.2629 44.4891 27.6388 44.3999C27.6388 43.7758 28.2629 43.6867 28.4412 43.1517C28.1737 42.9734 27.193 43.2409 27.1039 43.6866C26.6581 43.5083 27.193 43.1517 27.193 42.9734C26.3906 42.8842 26.3015 44.1325 25.6774 43.7758C25.6774 43.33 26.034 43.1517 26.1232 42.7059C25.3207 42.5276 25.4991 43.33 24.7858 43.2409C25.5882 41.9035 26.5689 40.8337 27.4605 39.5855C26.9256 39.5855 26.1231 40.5662 25.5881 41.1011C25.1423 40.8337 26.034 40.7445 25.8556 40.2987C24.9641 40.477 25.1424 41.7252 23.9834 41.6361C24.4292 40.5662 24.7857 39.4071 25.499 38.5156C25.5881 38.159 24.8749 38.6047 25.0532 38.0698C24.5183 37.9806 24.6074 38.4264 24.2508 38.5156C24.7857 37.0891 27.2821 35.2168 28.1737 33.2554C29.1544 32.5421 29.9568 31.6505 30.7592 30.6698C30.8484 30.8481 30.9375 30.5807 31.3833 30.6698ZM27.3713 9.45061C27.1929 8.82652 27.8171 9.62894 27.9063 9.18316C27.728 9.00484 26.9255 8.73733 26.6581 8.91564C27.0147 9.0048 27.0146 9.36146 27.3713 9.45061Z" fill="#DBFE00"/>
<path fill-rule="evenodd" clip-rule="evenodd" d="M0.802656 3.65532C0.891813 3.74448 1.42669 4.01195 1.51584 3.65532C1.33753 3.12039 0.891769 2.94206 0.535145 2.58544C0.535145 2.13965 1.07013 2.13963 1.24844 1.78301C2.31832 2.13963 3.03159 1.60474 3.834 2.4963C3.74484 2.05052 3.92315 1.69388 3.38821 1.42641C4.01231 0.980631 4.36891 1.96134 5.26048 1.69387C5.70626 1.4264 4.81463 0.9806 5.0821 0.891443C5.88451 0.891443 6.15198 1.51556 6.86523 1.69387C7.31101 1.4264 6.41951 1.42641 6.59782 0.980631C8.82673 2.05051 10.1641 3.92276 12.4821 4.90348C12.5713 5.26011 12.8387 5.43845 12.9279 5.88423C14.711 6.59748 14.5327 8.46975 16.405 9.09384C16.4942 9.36131 16.3158 9.4505 16.2266 9.62881C18.1881 11.4119 19.7037 13.73 21.576 15.5131C23.3592 18.6336 26.0339 20.8625 27.9954 23.7155C21.9327 29.9565 17.2966 37.6239 10.2532 42.8841C8.29178 43.0624 8.11349 44.9347 6.59783 45.5588C6.8653 45.3805 7.04359 45.113 7.13274 44.7564C6.33034 44.6672 5.8846 46.0046 4.72556 45.7372C5.61713 43.954 5.61704 41.9034 6.86523 40.3878C5.61704 40.6552 5.43881 41.9926 4.27978 42.4384C4.10147 41.9034 4.54723 41.1902 4.8147 40.6552C4.45807 40.2986 4.27974 41.1902 3.56649 40.9227C4.27974 39.5853 4.19058 38.248 5.34961 37.4456C5.1713 37.0889 5.34966 36.9106 5.17135 36.7323C8.55929 32.542 11.8581 28.2625 14.9785 23.7155C13.4629 21.6649 12.7496 19.1685 10.7881 17.8312C10.8773 17.3854 10.8773 17.5637 10.7881 17.1179C7.66766 13.8191 5.08219 9.98544 2.05087 6.50834C1.87256 6.50834 1.69416 6.50834 1.51584 6.50834C2.05078 6.33003 1.42669 5.79505 1.07006 5.52759C2.05078 5.43843 0.980971 4.27942 0.802656 3.65532Z" fill="#DBFE00"/>
<path fill-rule="evenodd" clip-rule="evenodd" d="M54.7422 33.7012C54.9206 33.9687 55.2772 33.3446 55.5447 33.2554C55.5447 33.0771 55.2772 33.1662 55.2772 32.9879C56.6145 30.6698 58.1302 28.6193 59.735 26.6578C59.735 25.6771 60.2699 25.1422 60.8048 24.7856C60.6265 24.3398 60.6265 24.2506 61.0723 24.0723C61.2506 23.5373 60.7157 23.7157 60.8048 23.2699C61.0723 23.1807 61.1615 22.9133 61.6072 23.0024C61.1615 22.4675 61.9639 22.2 62.053 21.6651C58.3085 16.2266 54.4747 10.9663 50.3736 5.97354C50.3736 5.70607 50.8194 5.88437 51.0868 5.79521C50.9977 4.72534 49.9277 4.63621 50.106 3.20971C50.5518 3.20971 50.5518 3.65547 50.9085 3.74463C50.9085 3.47716 50.3736 2.58562 50.3736 1.87236C51.6217 2.67477 52.335 3.2097 53.5832 3.92295C53.9398 3.29886 52.6025 2.85307 53.0482 2.13982C54.4747 2.76392 55.0097 4.19043 56.2579 4.99284C55.7229 3.92296 54.8314 3.29886 54.2073 2.31814C54.7423 2.4073 54.8313 3.03136 55.4554 3.12052C55.812 2.67474 55.0096 2.49646 55.0096 1.87236C55.4554 2.22899 55.9012 2.67478 56.347 2.94225C56.6145 2.94225 56.1687 2.58559 56.5254 2.40728C57.5061 2.85306 57.9518 3.83381 58.5759 4.72538C60.0916 6.68682 61.9639 8.46995 63.8361 10.0748C63.8361 11.5013 67.4916 13.3735 66.7784 14.0868C67.8482 14.2651 68.2939 15.6024 68.8289 16.2265C69.8096 17.5639 71.147 18.3663 71.4144 19.9711C71.9494 20.506 72.2169 21.3084 73.0193 21.5759C72.7518 22.4675 73.7325 22.3783 73.1976 22.9133C73.3759 23.359 73.6434 22.9132 74 23.1807C71.5928 27.1927 69.0072 30.8482 65.9759 34.147C66.0651 35.306 65.1735 35.3951 64.9952 36.2867C64.6386 36.3759 64.3712 36.6434 64.0145 36.8217C64.0145 37 64.0145 37.1783 64.0145 37.3566C63.8362 37.4458 63.6579 37.5349 63.3012 37.5349C63.3012 38.4265 62.7663 39.6747 61.7856 39.9422C61.6965 39.4964 61.9639 39.4072 62.053 39.1397C61.5181 39.7638 60.4483 40.3879 60.5374 41.2795C58.9326 42.4385 58.041 44.3108 56.7928 45.8265C56.347 45.559 56.9712 45.2024 56.9712 44.8458C55.8121 45.559 55.188 46.8072 54.0289 47.5204C53.4049 47.3421 53.0483 46.8963 52.4242 47.3421C52.2459 47.0747 52.0675 46.8963 52.1567 46.3614C51.0868 46.718 50.9976 46.0047 50.0169 45.9156C49.9278 45.6481 49.7495 45.3807 49.7495 44.9349C49.2146 44.7566 49.2145 45.2023 48.7687 45.2023C48.8579 43.6867 50.0169 43.2409 50.106 41.7253C49.2145 41.9928 49.3928 43.3301 48.2338 43.3301C49.7494 41.6361 50.1061 38.694 52.2458 37.7132C52.4241 35.9301 54.9205 35.0385 54.5639 33.5229C54.653 33.2554 55.188 32.2747 55.2772 32.8096C54.8314 33.2554 55.0097 33.7012 54.7422 33.7012ZM56.5254 3.20971C56.5254 3.65549 56.8819 3.65547 57.2386 3.74463C57.1494 3.29884 56.882 2.85308 56.5254 3.20971ZM50.106 41.9927C50.641 41.8144 51.2652 41.1012 51.0869 40.6554C50.7302 41.1903 50.2844 41.4578 50.106 41.9927Z" fill="#DBFE00"/>
<path fill-rule="evenodd" clip-rule="evenodd" d="M30.8484 33.8797C31.205 33.8797 30.6701 33.6123 30.8484 33.3448C33.5231 31.2942 35.3063 28.4412 37.7135 26.1232C34.2364 22.4678 30.8484 18.7231 27.6388 14.7111C27.8171 14.7111 28.1737 14.8003 28.1737 14.5328C27.9062 14.087 27.6387 14.7111 27.3713 14.7111C27.1929 14.4436 27.1038 14.087 26.8363 13.9087C27.0147 13.4629 27.2822 14.1762 27.5496 14.1762C27.1039 12.7497 25.5881 12.3039 25.1423 10.7883C25.5881 10.7883 25.6773 11.0557 25.9448 11.234C25.8556 10.3425 25.4099 9.89665 24.9641 9.36172C25.4099 9.00509 25.5881 10.075 26.0339 10.1641C26.1231 9.4509 25.1424 8.73767 24.9641 7.8461C24.9641 7.57863 25.499 7.75693 25.7665 7.66778C25.5882 7.13284 25.3207 6.77619 24.9641 6.41957C25.3207 6.1521 25.5882 7.222 26.2123 7.222C26.1231 6.41959 25.4991 6.06293 25.2316 5.34968C26.2123 5.26052 26.3015 6.06296 27.0147 6.33043C27.4605 6.24128 26.9256 6.06293 27.0147 5.79546C27.3713 5.88462 27.2821 6.3304 27.817 6.24124C28.1737 6.24124 27.8171 5.79546 27.6388 5.79546C27.9954 5.34968 28.0845 6.3304 28.6195 6.24124C28.6195 5.7063 28.0846 5.61718 28.0846 4.99309C28.4412 5.43887 28.7086 5.97382 29.4219 6.06298C29.2436 4.9931 28.4412 4.63646 28.1737 3.65574C28.5303 3.47743 29.2436 3.65574 29.4219 3.20996C30.1351 3.7449 30.7592 4.36898 31.205 5.26055C31.4725 5.52801 31.74 5.70635 31.9183 6.06297C35.0388 9.8967 40.0315 13.0172 43.8652 17.2075C46.2724 19.7931 49.1255 22.2894 51.5327 25.1424C51.9785 25.6773 52.5134 26.9256 51.8001 27.728C51.4435 27.728 51.2652 27.9063 50.9977 27.9954C50.7302 28.1737 50.5519 28.4412 50.4628 28.7979C42.9736 33.9689 36.2869 39.8532 30.046 46.2725C29.4219 47.4315 28.2628 48.5906 27.3713 48.9472C27.2821 48.2339 27.728 47.699 27.1039 47.6098C27.1039 46.9857 27.728 46.8966 27.9063 46.3616C27.6388 46.1833 26.6581 46.4508 26.5689 46.8966C26.1232 46.7183 26.6581 46.3617 26.6581 46.1833C25.8557 46.0942 25.7664 47.3424 25.1424 46.9857C25.1424 46.5399 25.499 46.3616 25.5881 45.9158C24.7857 45.7375 24.964 46.54 24.2508 46.4508C25.0532 45.1135 26.0339 44.0436 26.9255 42.7954C26.3905 42.7954 25.5882 43.7761 25.0532 44.311C24.6074 44.0436 25.499 43.9544 25.3207 43.5087C24.4292 43.687 24.6075 44.9352 23.4485 44.846C23.8942 43.7761 24.2508 42.6171 24.9641 41.7255C25.0532 41.3689 24.34 41.8147 24.5183 41.2797C23.9834 41.1906 24.0725 41.6364 23.7159 41.7255C24.2508 40.299 26.7472 38.4267 27.6388 36.4653C28.6195 35.752 29.4219 34.8604 30.2243 33.8797C30.4026 33.9689 30.4026 33.7906 30.8484 33.8797ZM26.8363 12.6605C26.658 12.0364 27.2821 12.8388 27.3713 12.3931C27.1929 12.2147 26.3906 11.9473 26.1232 12.1256C26.4798 12.2148 26.4797 12.5714 26.8363 12.6605Z" fill="#FC309A"/>
<path fill-rule="evenodd" clip-rule="evenodd" d="M0.2675 6.86498C0.356657 6.95413 0.891531 7.22161 0.980686 6.86498C0.802374 6.33004 0.356613 6.15172 -1.14049e-05 5.79509C-1.14439e-05 5.34931 0.534969 5.34934 0.713284 4.99272C1.78316 5.34934 2.49632 4.81439 3.29873 5.70596C3.20958 5.26018 3.38789 4.90354 2.85295 4.63607C3.47704 4.19029 3.83376 5.171 4.72532 4.90353C5.1711 4.63606 4.27947 4.19031 4.54694 4.10115C5.34935 4.10115 5.61682 4.72521 6.33007 4.90353C6.77585 4.63606 5.88435 4.63607 6.06267 4.19029C8.29158 5.26016 9.6289 7.13247 11.947 8.11319C12.0361 8.46982 12.3036 8.64811 12.3927 9.09389C14.1759 9.80714 13.9976 11.6795 15.8699 12.3036C15.959 12.571 15.7806 12.6602 15.6915 12.8385C17.6529 14.6216 19.1686 16.9396 21.0409 18.7228C22.824 21.8432 25.4988 24.0722 27.4602 26.9252C21.3976 33.1661 16.7614 40.8336 9.71806 46.0938C7.75662 46.2721 7.57833 48.1444 6.06267 48.7685C6.33014 48.5902 6.50843 48.3227 6.59759 47.9661C5.79518 47.877 5.34933 49.2143 4.1903 48.9468C5.08186 47.1637 5.08188 45.1131 6.33007 43.5974C5.08188 43.8649 4.90355 45.2022 3.74452 45.648C3.5662 45.1131 4.01207 44.3998 4.27954 43.8649C3.92292 43.5083 3.74458 44.3998 3.03133 44.1323C3.74458 42.795 3.65543 41.4577 4.81446 40.6553C4.63615 40.2986 4.81439 40.1203 4.63608 39.942C8.02402 35.7517 11.3228 31.4721 14.4433 26.9252C12.9276 24.8746 12.2144 22.3782 10.253 21.0409C10.3421 20.5951 10.3421 20.7734 10.253 20.3276C7.1325 17.0288 4.54692 13.1951 1.5156 9.71799C1.33729 9.71799 1.159 9.71799 0.980687 9.71799C1.51563 9.53968 0.891531 9.00477 0.534905 8.7373C1.51563 8.64814 0.445814 7.48907 0.2675 6.86498Z" fill="#FC309A"/>
<path fill-rule="evenodd" clip-rule="evenodd" d="M54.2967 36.8216C54.475 37.0891 54.8316 36.465 55.0991 36.3758C55.0991 36.1975 54.8316 36.2866 54.8316 36.1083C56.1689 33.7902 57.6846 31.7397 59.2894 29.7782C59.2894 28.7975 59.8243 28.2626 60.3593 27.906C60.1809 27.4602 60.181 27.371 60.6268 27.1927C60.8051 26.6577 60.2701 26.8361 60.3593 26.3903C60.6267 26.3011 60.7159 26.0337 61.1617 26.1228C60.7159 25.5879 61.5183 25.3204 61.6075 24.7855C57.8629 19.3469 54.0292 14.0867 49.928 9.09393C49.928 8.82646 50.3738 9.00476 50.6413 8.91561C50.5521 7.84573 49.4822 7.75661 49.6605 6.3301C50.1063 6.3301 50.1063 6.77586 50.4629 6.86502C50.4629 6.59755 49.928 5.70601 49.928 4.99275C51.1762 5.79516 51.8894 6.33009 53.1376 7.04334C53.4942 6.41925 52.1569 5.97346 52.6027 5.26021C54.0292 5.88431 54.5641 7.31082 55.8123 8.11323C55.2774 7.04335 54.3859 6.41926 53.7618 5.43854C54.2967 5.52769 54.3858 6.15175 55.0099 6.24091C55.3665 5.79513 54.5641 5.61685 54.5641 4.99275C55.0099 5.34938 55.4556 5.79518 55.9014 6.06264C56.1689 6.06264 55.7232 5.70598 56.0798 5.52767C57.0605 5.97345 57.5062 6.95421 58.1303 7.84577C59.646 9.80721 61.5183 11.5903 63.3906 13.1952C63.3906 14.6217 67.046 16.4939 66.3328 17.2072C67.4027 17.3855 67.8484 18.7228 68.3833 19.3469C69.364 20.6843 70.7014 21.4867 70.9689 23.0915C71.5038 23.6264 71.7713 24.4288 72.5737 24.6963C72.3063 25.5879 73.287 25.4987 72.752 26.0336C72.9303 26.4794 73.1978 26.0336 73.5544 26.3011C71.1472 30.3131 68.5617 33.9686 65.5304 37.2674C65.6195 38.4264 64.728 38.5155 64.5497 39.4071C64.193 39.4963 63.9256 39.7638 63.569 39.9421C63.569 40.1204 63.569 40.2987 63.569 40.477C63.3907 40.5661 63.2123 40.6553 62.8557 40.6553C62.8557 41.5469 62.3208 42.7951 61.3401 43.0625C61.2509 42.6168 61.5183 42.5276 61.6075 42.2601C61.0725 42.8842 60.0027 43.5083 60.0918 44.3999C58.487 45.5589 57.5954 47.4312 56.3472 48.9468C55.9014 48.6794 56.5256 48.3228 56.5256 47.9661C55.3666 48.6794 54.7424 49.9276 53.5834 50.6408C52.9593 50.4625 52.6027 50.0167 51.9786 50.4625C51.8003 50.195 51.622 50.0167 51.7111 49.4818C50.6413 49.8384 50.5521 49.1251 49.5714 49.036C49.4822 48.7685 49.3039 48.5011 49.3039 48.0553C48.769 47.877 48.7689 48.3227 48.3231 48.3227C48.4123 46.8071 49.5713 46.3613 49.6605 44.8457C48.7689 45.1131 48.9473 46.4505 47.7882 46.4505C49.3039 44.7565 49.6605 41.8144 51.8003 40.8336C51.9786 39.0505 54.4749 38.1589 54.1183 36.6433C54.2075 36.3758 54.7424 35.3951 54.8316 35.93C54.3858 36.3758 54.475 36.8216 54.2967 36.8216ZM55.9907 6.3301C55.9907 6.77588 56.3472 6.77586 56.7039 6.86502C56.6147 6.50839 56.3473 6.06263 55.9907 6.3301ZM49.5714 45.2023C50.1063 45.024 50.7304 44.3107 50.5521 43.8649C50.1954 44.3107 49.7497 44.5782 49.5714 45.2023Z" fill="#FC309A"/>
</svg>
