<svg width="13" height="13" viewBox="0 0 13 13" fill="none" xmlns="http://www.w3.org/2000/svg">
<path d="M6.29355 0.460431L6.09984 0.654935C5.97147 0.783852 5.97147 0.992882 6.09984 1.12183L10.9896 6.0324L0.692358 6.0324C0.510814 6.0324 0.363623 6.18022 0.363623 6.36254L0.363623 6.63765C0.363623 6.81997 0.510814 6.96778 0.692358 6.96778L10.9896 6.96778L6.09984 11.8784C5.97147 12.0073 5.97147 12.2163 6.09984 12.3453L6.29355 12.5398C6.42192 12.6687 6.63006 12.6687 6.75843 12.5398L12.5401 6.73353C12.6684 6.60461 12.6684 6.39558 12.5401 6.26663L6.75844 0.460403C6.63007 0.331486 6.42192 0.331486 6.29355 0.460431Z" fill="#0E0E0E"/>
</svg>
