<svg width="384" height="456" viewBox="0 0 384 456" fill="none" xmlns="http://www.w3.org/2000/svg">
<path fill-rule="evenodd" clip-rule="evenodd" d="M1.9283 353.545L-3.38085 357.692C-1.53072 356.415 0.242092 355.031 1.9283 353.545Z" fill="#FEED01"/>
<path fill-rule="evenodd" clip-rule="evenodd" d="M400.03 167.147C388.866 156.551 375.232 149.25 359.725 142.43C352.911 139.436 347.082 133.521 337.758 136.272C333.508 137.522 329.689 143.852 326.965 148.06C318.019 161.825 311.27 177.707 297.406 184.919C303.924 168.184 314.117 154.931 324.823 142.162C324.466 140.471 323.63 137.751 325.033 135.441C323.01 134.67 322.248 138.116 319.957 138.349C301.689 131.5 282.501 126.908 263.568 120.404C257.329 118.263 250.713 116.523 244.392 114.959C218.518 108.564 192.453 101.262 166.526 94.4159C168.812 91.285 173.027 93.359 175.634 93.7753C217.606 100.448 255.445 112.686 293.043 125.18C301.959 128.141 308.885 132.894 321.371 131.968C271.999 115.192 222.325 98.7252 168.311 86.8286L161.063 85.1302C160.59 85.6588 160.11 86.1832 159.605 86.683C154.271 94.9717 152.099 103.207 149.601 113.947C147.175 124.436 144.615 143.921 144.916 146.751C142.519 126.577 144.908 107.557 151.828 93.2544C154.128 88.4801 157.011 83.8779 161.425 81.1119C156.01 80.1587 151.607 78.1684 147.023 76.3337C149.386 77.6309 154.955 84.5347 150.923 88.9178C148.006 88.463 147.983 84.9573 146.02 83.4985C137.144 81.334 129.248 79.0521 119.328 78.6486C89.1849 77.4244 64.0426 88.2507 49.4407 103.901C46.3973 107.155 43.7361 111.322 40.6123 114.841C31.5946 125.003 23.422 137.02 16.1332 149.195C11.2668 157.323 5.5565 164.819 1.30502 173.375C-2.94645 181.93 -7.52624 190.299 -11.894 199.097C-20.5277 216.491 -26.9941 235.33 -33.4135 255.184C-36.5899 265.386 -39.0969 275.783 -40.9185 286.311C-42.1052 292.818 -43.3748 299.971 -43.9509 306.863C-44.5271 313.756 -43.3029 322.117 -42.0782 328.044L-41.7825 328.758L-41.9553 328.655C-41.0502 333.041 -40.1881 336.012 -40.1881 336.012C-35.9139 337.514 -31.0825 337.874 -26.9445 335.52C-26.5918 338.557 -27.7098 340.196 -29.973 340.758C-27.3017 344.088 -23.8368 346.583 -20.1476 348.851C-19.658 349.144 -6.92613 356.531 1.97628 353.636C14.0416 343.039 22.5374 327.46 31.1908 314.166C36.1082 306.655 41.0943 298.784 46.049 291.177C54.6852 277.912 62.9287 267.883 76.1431 259.452C57.3527 259.538 50.2485 272.009 41.8719 282.945C33.3825 294.281 25.6253 306.147 18.6475 318.471C12.5285 329.018 7.21519 339.314 -1.20426 347.546C-2.8236 347.212 -3.37626 345.766 -4.83601 345.264C1.13601 334.57 9.61122 327.438 13.9898 313.443C6.51434 324.557 -0.589058 333.449 -11.3258 339.882C-2.94367 328.773 5.00339 317.246 10.3131 303.231C2.42508 313.385 -4.2021 328.097 -17.0051 334.878C-8.26665 321.654 -0.111607 307.886 6.46329 292.623C6.46329 292.623 -2.35461 307.041 -7.39195 314.002C-11.1387 319.182 -17.7462 327.49 -23.0329 331.044C-23.0329 331.044 -19.7664 323.415 -17.7692 320.112C-11.0996 309.053 -6.07118 295.819 0.299468 283.642C8.61364 267.729 16.8259 252.116 26.8166 237.716C46.712 209.156 70.7928 184.011 102.685 167.514C107.28 158.353 114.969 150.623 125.602 149.458C141.048 147.771 159.013 156.873 161.097 173.486C161.449 176.279 161.406 182.199 161.406 182.199C161.406 182.199 164.437 183.867 165.758 184.863C169.859 187.945 173.401 196.471 173.779 203.289C174.838 222.447 162.343 236.62 140.589 237.866C140.4 236.286 142.091 235.684 142.885 234.634C144.409 232.612 145.407 230.422 147.485 228.585C149.834 226.491 153.061 225.136 155.265 222.827C160.523 217.31 165.728 209.238 162.584 199.639C160.592 203.18 161.265 206.859 159.321 210.399C150.316 226.78 110.434 231.989 105.741 208.641C112.863 219.223 138.508 221.265 149.467 212.647C148.437 211.688 145.448 210.554 145.081 208.897C145.081 208.897 152.923 203.068 154.73 195.768C151.85 198.579 148.823 201.236 145.662 203.728C139.081 208.512 128.484 210.677 118.797 207.205C114.874 205.835 104.841 200.718 104.601 186.383C111.764 192.129 115.376 197.792 128.08 198.151C145.602 198.665 150.92 186.025 151.439 181.875C153.322 167.032 136.354 156.952 121.126 160.627C110.695 163.185 105.204 171.311 104.408 182.492L101.207 178.444C97.0674 180.279 92.3055 184.851 89.0114 190.811C86.4672 195.42 85.0946 206.158 85.6657 211.919C86.6624 221.689 91.3677 229.856 95.7303 235.05C99.9345 240.051 106.969 244.36 113.867 246.886C117.593 248.227 121.727 247.611 126.207 248.542C131.23 249.594 137.027 252.262 142.611 254.06C169.327 262.641 198.248 271.348 226.932 278.8C243.411 283.081 256.615 290.399 276.005 290.193C281.115 290.064 286.172 289.131 290.991 287.428C301.695 283.402 314.05 270.738 313.147 255.518C308.472 272.279 295.673 284.1 274.33 284.545C265.548 284.725 256.641 282.825 251.877 277.665C251.877 277.665 262.088 281.323 270.179 280.044C279.756 278.521 287.511 275.222 294.094 269.911C298.549 266.181 302.086 261.475 304.431 256.158C299.478 259.922 292.957 265.162 283.717 266.252C273.771 267.378 262.092 265.306 255.404 260.255C251.435 257.263 246.165 251.672 248.677 245.763C254.85 259.073 278.244 264.579 294.962 256.846C292.213 256.814 287.05 257.107 285.749 254.265C284.573 252.113 288.372 251.698 288.812 249.819C276.214 254.297 260.562 250.971 252.699 243.242C249.004 239.611 243.04 227.209 248.044 222.674C248.044 222.674 251.598 231.081 259.083 235.454C271.469 242.684 294.383 241.281 298.945 228.139C304.467 212.217 289.705 200.397 277.556 198.962C265.407 197.527 252.951 203.156 247.469 219.191C245.585 204.859 254.31 194.483 268.671 192.86C265.45 190.071 261.166 192.768 257.565 192.754C253.964 192.741 249.297 190.523 244.778 189.119C232.401 185.288 218.683 182.063 207.614 178.204C195.284 173.903 183.796 170.449 171.611 166.069C167.969 164.768 163.507 163.711 161.146 160.4C190.398 166.773 218.331 172.278 246.135 180.366C255.296 183.034 264.434 185.12 273.687 187.569C274.978 187.912 276.543 189.201 278.095 189.436C282.721 190.122 287.421 188.3 291.198 189.456C291.419 191.212 290.179 191.584 289.697 192.666C292.329 193.991 294.773 195.661 296.964 197.632C297.368 195.683 299.541 188.182 299.541 188.182C299.704 191.597 300.177 194.99 300.954 198.319C302.141 203.05 304.891 208.226 306.922 212.855C312.828 226.514 320.348 240.288 325.471 254.798C334.457 280.237 338.54 310.614 340.916 344.399C341.492 352.568 341.329 362.642 341.405 371.353C341.622 397.831 332.95 422.479 339.356 449.924C330.484 445.972 332.348 430.705 329.461 420.449C328.629 427.687 328.689 437.503 330.09 444.621C323.326 443.193 323.799 430.624 322.368 422.217C320.56 427.541 323.177 435.191 322.88 441.634C317.539 439.121 317.538 430.954 316.462 423.963C314.584 434.761 317.759 442.51 322.537 448.627C322.716 448.803 329.668 455.83 339.402 456.397C340.69 456.434 341.979 456.403 343.264 456.302C343.643 456.256 343.995 456.212 344.32 456.172C357.947 454.647 367.407 445.543 371.508 438.726C388.874 409.18 402.882 370.132 410.559 325.485C414.348 303.44 417.323 279.88 416.651 255.927C416.013 231.622 414.322 206.609 410.769 183.122C410.015 178.142 403.608 170.531 400.03 167.147ZM-29.6025 295.443C-28.3664 278.969 -22.0052 264.489 -16.8968 250.696C-11.5286 236.158 -6.35815 222.441 1.44682 209.764C2.12881 209.605 -23.1715 272.71 -29.6025 295.443ZM-39.1283 309.965C-39.5142 305.187 -37.7547 291.335 -35.4923 282.508C-24.3773 238.686 -8.90133 201.417 11.8065 166.273C20.4787 151.542 29.7467 136.748 38.6691 126.304C4.56828 180.111 -23.4866 238.652 -39.1211 309.97L-39.1283 309.965ZM98.6939 93.0051C102.885 92.3261 110.139 96.9228 110.77 100.606C111.401 104.29 108.659 108.673 107.462 110.607C105.688 113.457 104.676 116.519 100.09 116.746C97.4907 110.73 102.815 106.084 104.446 101.564C102.319 100.623 90.8247 94.2892 98.7011 93.0094L98.6939 93.0051ZM115.09 143.331C114.324 146.57 107.073 144.224 104.787 143.598C97.5494 141.622 93.9175 139.047 90.2498 133.673C88.5022 136.167 91.3432 137.809 91.6234 140.363C92.2349 146.187 87.4718 159.991 81.8047 160.031C74.0911 160.107 60.3609 157.491 59.7365 150.301C59.5516 148.127 62.6 142.528 64.2236 139.882C67.4349 134.616 71.7112 132.276 77.0495 130.024C77.0908 128.093 75.4127 127.939 74.5871 126.917C69.0237 131.586 47.1739 131.865 47.1296 123.281C47.0688 122.453 47.3056 121.631 47.7973 120.962C48.289 120.294 49.0032 119.823 49.8114 119.634C46.8436 113.271 53.7919 104.687 59.7178 104.313C66.2265 103.896 72.2382 110.371 76.2012 112.997C70.7479 113.938 65.1731 108.351 59.8614 109.856C55.4977 111.067 57.6617 118.006 52.9789 119.555C53.4014 120.385 54.7794 121.269 53.8464 122.304C60.7667 124.892 72.1857 127.415 78.8296 122.444C78.2168 118.273 77.0284 114.197 81.411 113.231C76.8382 103.52 81.8092 90.4469 91.5221 90.7556C93.5376 96.0308 88.6442 100.006 87.5129 104.346C86.3243 108.945 88.2559 112.204 89.051 117.394C91.6306 119.702 95.0428 118.184 98.5695 117.538C98.4072 120.913 94.883 122.568 93.2295 125.608C95.2697 129.617 96.5319 134.059 101.055 136.503C102.915 137.578 116.064 139.22 115.097 143.335L115.09 143.331ZM116.229 141.313C113.92 136.626 118.693 132.461 118.632 127.368C112.945 125.088 108.358 121.657 100.247 121.907C104.244 115.067 116.471 120.636 122.451 121.723C126.412 128.241 124.166 141.664 116.236 141.318L116.229 141.313ZM133.052 102.807C129.957 98.8608 130.862 87.6953 137.42 88.0127C141.45 91.6872 140.945 103.688 133.059 102.811L133.052 102.807ZM121.668 190.107C130.418 189.477 136.956 187.034 142.205 183.575C145.19 190.663 127.596 195.612 121.676 190.111L121.668 190.107ZM144.286 179.021C141.795 178.283 141.099 175.998 140.618 173.5C143.785 170.007 147.394 176.608 144.285 179.04L144.286 179.021ZM112.788 175.421C114.476 166.72 133.605 161.282 140.326 170.264C140.326 170.264 132.111 168.417 122.567 174.165C118.635 176.535 117.802 178.677 115.732 182.788C111.742 182.902 112.453 177.206 112.795 175.425L112.788 175.421ZM92.7489 213.303C87.6895 207.868 91.5832 195.304 94.9217 190.642C93.688 196.232 91.3652 205.061 92.7518 213.315L92.7489 213.303ZM101.083 228.543L101.049 226.967C108.105 232.824 116.263 237.494 127.554 238.923C116.795 243.123 106.447 234.629 101.086 228.554L101.083 228.543ZM264.1 230.194C264.442 229.853 264.694 229.432 264.833 228.97C269.198 229.52 271.755 231.979 275.645 233.046C273.172 236.916 263.795 235.507 264.09 230.227L264.1 230.194ZM282.794 232.475C281.928 230.001 284.915 224.669 287.828 227.988C288.518 231.54 285.545 233.467 282.797 232.487L282.794 232.475ZM276.52 205.119C283.224 205.358 293.378 212.444 290.988 222.251C281.679 209.294 266.029 212.433 262.576 217.956C261.511 219.734 262.25 221.164 260.754 223.955C257.837 223.715 257.434 222.232 257.1 220.878C254.749 211.147 266.76 204.792 276.523 205.131L276.52 205.119ZM169.438 234.276C169.785 234.024 170.127 233.779 170.222 234.257C186.334 234.66 200.171 239.139 212.899 243.444C216.808 244.806 221.907 246.108 223.775 249.897C202.006 248.816 187.372 240.211 169.453 235.068C169.204 234.732 168.963 234.383 169.441 234.288L169.438 234.276ZM158.946 242.489C172.339 242.614 184.528 245.99 196.003 249.026C207.477 252.061 218.875 254.357 227.253 261.29C199.916 259.838 180.376 250.165 158.178 243.281C158.233 243.098 158.332 242.931 158.466 242.795C158.601 242.659 158.766 242.558 158.949 242.501L158.946 242.489ZM132.556 249.126C132.473 248.792 132.694 248.749 132.937 248.718C133.581 248.82 133.611 248.329 134.157 248.314C152.911 247.033 169.512 252.727 185.528 257.259C201.544 261.791 217.901 264.61 231.12 271.918C233.027 272.981 235.941 274.941 236.4 276.937C200.457 269.062 166.286 259.324 132.559 249.138L132.556 249.126ZM236.492 221.01C232.51 229.834 228.601 243.045 232.294 254.684C235.745 265.484 235.461 263.279 243.428 273.986C226.494 267.525 221.391 234.914 236.479 221.032C236.406 220.714 236.953 220.943 236.495 221.022L236.492 221.01ZM230.189 191.808C230.94 194.116 229.041 197.419 224.77 196.711C224.438 196.135 224.024 195.61 223.541 195.153C222.527 190.312 228.931 188.013 230.175 191.848L230.189 191.808ZM216.675 205.234C211.99 204.532 214.782 195.015 220.061 198.4C221.363 202.123 219.785 205.756 216.652 205.288L216.675 205.234ZM217.632 226.619C206.806 226.407 194.447 222.186 184.503 218.375C178.641 216.127 190.965 218.331 192.046 218.568C200.76 220.618 209.306 223.328 217.609 226.674L217.632 226.619ZM219.394 188.113C219.618 188.785 219.663 189.504 219.524 190.199C219.384 190.894 219.065 191.541 218.598 192.074C218.132 192.607 217.533 193.009 216.863 193.24C216.193 193.471 215.474 193.522 214.778 193.389C210.101 189.259 217.636 183.256 219.371 188.167L219.394 188.113ZM209.24 194.748C211.268 197.732 209.047 201.899 206.249 201.574C201.946 201.1 203.428 192.335 209.234 194.774L209.24 194.748ZM207.417 184.855C207.848 188.399 206.591 190.825 204.025 190.521C198.875 189.893 202.875 179.553 207.394 184.909L207.417 184.855ZM198.476 191.834C201.487 198.469 192.37 201.51 191.454 195.983C190.887 192.797 194.659 188.767 198.444 191.904L198.476 191.834ZM190.24 180.155C195.945 177.977 195.841 189.015 190.032 187.298C186.962 186.447 187.604 181.208 190.217 180.21L190.24 180.155ZM201.413 212.772C195.555 213.882 187.837 210.014 182.24 208.139C188.961 207.743 195.739 210.764 201.39 212.827L201.413 212.772ZM223.492 238.363C203.725 238.431 189.709 232.436 175.603 226.544C193.141 227.243 210.621 231.469 223.469 238.417L223.492 238.363ZM352.639 173.495C357.068 173.545 357.672 178.924 360.744 181.193C367.721 186.349 379.976 184.159 382.831 176.646C382.65 175.315 380.55 176.062 380.399 174.73C381.385 163.281 366.576 160.244 359.164 166.565C356.895 168.492 356.181 171.547 353.793 172.269C354.928 155.099 379.841 156.302 383.837 169.101C384.308 170.586 383.925 171.814 384.354 173.449C384.783 175.085 385.904 175.63 386.032 176.968C387.422 191.766 364.77 195.721 355.742 186.101C353.212 183.481 350.863 178.437 352.616 173.549L352.639 173.495ZM344.35 144.766C344.861 150.627 341.136 160.721 334.835 160.088C325.938 159.25 337.137 140.282 344.327 144.821L344.35 144.766ZM312.838 197.942C317.031 197.685 320.981 201.722 326.418 201.544C335.657 201.256 343.932 191.403 336.645 183.431C330.321 176.515 315.875 179.799 313.403 189.205C312.804 191.447 313.717 192.962 312.778 195.559C307.12 192.25 311.996 183.355 314.361 180.858C320.51 174.378 331.582 175.128 338.119 179.433C340.349 180.905 343.03 182.862 343.791 184.042C351.647 196.159 338.085 210.857 323.825 207.591C319.246 206.581 313.712 202.788 312.815 197.997L312.838 197.942ZM320.678 209.629C327.187 209.457 334.667 207.646 341.623 206.696C340.905 211.88 322.139 217.056 320.655 209.683L320.678 209.629ZM349.355 389.424C348.976 396.493 346.759 420.584 343.976 426.605C351.321 370.228 347.988 306.089 337.335 256.365C350.302 291.621 351.784 344.069 349.355 389.424ZM345.118 250.667C352.559 251.308 361.377 248.127 367.248 247.29C365.067 251.226 355.022 255.54 347.989 253.745C346.942 253.5 344.711 252.654 345.132 250.676L345.118 250.667ZM361.01 361.984C359.723 385.273 359.078 407.538 354.038 426.086C354.038 426.086 355.326 419.033 356.078 410.574C359.273 373.756 360.194 331.949 356.487 292.79C356.498 292.396 363.164 323.018 361.024 361.993L361.01 361.984ZM363.982 409.574C367.851 383.753 367.689 358.081 369.304 330.127C368.793 330.115 369.939 329.999 369.304 330.127C371.621 356.904 370.02 388.298 363.996 409.583L363.982 409.574ZM350.205 248.148C344.729 247.363 337.035 244.351 336.867 238.588C339.642 236.337 342.307 239.615 345.239 240.353C355.214 242.853 365.19 236.434 362.284 224.836C360.445 217.485 346.727 215.796 340.77 221.041C336.606 224.73 337.225 229.169 336.38 235.04C332.933 234.688 333.193 230.022 333.401 227.584C333.76 223.407 337.01 218.663 339.077 217.123C351.813 207.661 368.413 218.764 368.793 231.412C369.089 241.193 361.835 249.829 350.22 248.157L350.205 248.148ZM362.259 193.905C369.297 192.407 377.84 192.122 383.147 188.992C383.401 189.057 383.623 189.211 383.774 189.425C383.925 189.639 383.996 189.9 383.973 190.161C380.665 195.212 368.42 198.513 362.273 193.914L362.259 193.905ZM387.811 230.504C394.066 231.491 401.378 231.056 405.592 228.053C405.27 233.23 390.796 236.643 387.826 230.513L387.811 230.504ZM398.062 227.839C390.439 229.055 378.695 223.53 379.124 216.442C385.124 217.022 395.301 223.516 401.352 217.035C402.125 213.586 404.48 211.417 403.467 207.064C401.574 199.085 386.566 198.081 380.826 205.676C379.068 208.008 379.654 210.901 377.462 213.305C374.466 210.534 377.187 204.877 378.766 202.565C381.905 197.96 390.724 194.975 397.249 196.916C399.28 197.526 401.132 199.563 403.309 201.121C405.487 202.679 408.075 203.975 408.981 205.729C413.668 215.02 406.385 226.533 398.064 227.869L398.062 227.839Z" fill="#FEED01"/>
<path fill-rule="evenodd" clip-rule="evenodd" d="M82.6285 130.299C72.9559 132.978 68.4344 140.531 66.0994 150.165C68.4328 151.094 70.8393 151.829 73.2942 152.36C75.3741 152.823 78.8124 154.578 80.8743 154.14C85.7993 153.02 90.701 132.286 82.6285 130.299Z" fill="#FEED01"/>
<path fill-rule="evenodd" clip-rule="evenodd" d="M330.455 400.944C334.338 368.059 333.114 323.12 324.095 294.844C323.405 292.729 322.931 289.863 321.999 290.538C330.364 321.865 329.165 364.415 330.455 400.944Z" fill="#FEED01"/>
<path fill-rule="evenodd" clip-rule="evenodd" d="M112.813 252.432C112.389 253.01 112.415 253.407 113.243 253.609C123.054 259.062 135.463 262.236 147.27 265.794C182.302 276.381 218.284 288.044 253.942 296.296C251.948 294.3 248.811 293.43 246.309 292.529C203.563 277.118 154.872 267.275 112.813 252.432Z" fill="#FEED01"/>
<path fill-rule="evenodd" clip-rule="evenodd" d="M13.601 276.066C31.0403 247.933 51.0035 221.106 73.31 197.57C54.4125 211.949 39.2562 233.213 25.8341 253.003C21.1392 259.913 13.601 276.066 13.601 276.066Z" fill="#FEED01"/>
<path fill-rule="evenodd" clip-rule="evenodd" d="M87.3776 39.7731C66.986 40.3771 48.8493 48.2091 33.9145 57.4397C24.796 63.0812 11.7321 75.3781 8.24773 91.4247C26.8371 68.0686 62.5811 48.0289 87.3776 39.7731Z" fill="#363309"/>
<path fill-rule="evenodd" clip-rule="evenodd" d="M233.394 48.1336C233.46 44.0853 233.947 38.8119 231.269 36.0155C229.844 35.8167 228.398 36.1776 227.234 37.0225C225.025 47.7201 229.599 75.3005 229.599 75.3005C229.599 75.3005 233.223 57.665 233.394 48.1336Z" fill="#363309"/>
<path fill-rule="evenodd" clip-rule="evenodd" d="M268.258 57.8571C271.728 48.0908 276.762 38.0971 277.839 27.8366C272.241 23.6441 267.771 33.9367 265.487 38.5354C259.55 50.5117 254.986 84.8274 254.986 84.8274C254.986 84.8274 260.225 76.5504 262.313 72.0007C264.401 67.4511 266.525 62.7273 268.258 57.8571Z" fill="#363309"/>
<path fill-rule="evenodd" clip-rule="evenodd" d="M198.209 51.7146C195.551 50.8465 193.613 53.2661 193.381 56.9706C192.951 63.8629 201.948 74.0416 201.948 74.0416C201.948 74.0416 201.962 52.9443 198.209 51.7146Z" fill="#363309"/>
<path fill-rule="evenodd" clip-rule="evenodd" d="M309.495 62.6343C310.98 60.8728 319.42 53.3093 317.859 49.5288C317.099 47.6947 313.485 47.4089 311.407 48.3651C303.515 52.0223 299.798 59.5871 293.642 67.4031C287.783 74.8692 279.525 91.637 279.525 91.637C279.525 91.637 300.343 73.4782 309.495 62.6343Z" fill="#363309"/>
<path fill-rule="evenodd" clip-rule="evenodd" d="M30.1613 95.6036C42.9317 81.9672 60.2756 69.8071 80.4644 63.3503C62.2747 64.0501 46.2235 72.0744 36.7481 82.1674C34.2193 84.8394 28.4516 91.1081 30.1613 95.6036Z" fill="#363309"/>
<path fill-rule="evenodd" clip-rule="evenodd" d="M423.298 222.439C421.062 206.684 419.492 192.775 414.651 180.244C413.165 176.42 409.987 173.168 408.806 169.292C407.549 165.136 408.576 162.161 405.782 159.853C404.312 158.503 403.088 161.086 401.841 160.75C401.114 160.56 399.015 157.973 397.772 156.896C393.395 153.082 387.623 149.245 384.812 146.525C392.798 147.219 398.214 152.76 404.44 153.944C401.856 145.893 391.183 139.689 380.935 134.737C370.686 129.785 360.131 124.708 350.087 122.861C340.043 121.014 334.744 125.979 328.852 129.366C324.908 121.939 315.475 121.602 307.138 118.049C301.116 115.48 294.847 113.879 289.132 111.777C253.43 98.6483 213.283 89.3517 173.374 82.7114C173.374 82.7114 167.55 81.0046 165.751 80.612C166.604 80.0349 167.534 79.5811 168.514 79.2638C163.033 69.3219 146.935 65.4649 131.192 63.1891C114.339 60.7575 97.8513 59.1703 93.3469 72.4936C82.4861 75.6544 71.2993 79.5393 62.7626 85.5976C59.1112 88.1844 55.8816 92.3538 52.3318 95.7838C48.7819 99.2137 45.0189 102.526 41.4936 105.98C20.1215 126.976 2.60115 151.569 -11.3222 178.354C-16.1587 187.674 -21.0462 196.23 -24.8647 206.072C-32.5091 225.603 -39.9221 246.203 -45.4224 268.475C-48.1761 279.61 -51.1349 291.462 -51.6062 302.623C-51.6062 302.623 -55.4364 328.624 -44.3073 337.986C-43.2931 339.102 -42.2197 340.283 -41.1131 341.718C-36.7111 347.434 -29.7004 354.282 -22.4659 357.341C-15.3177 360.398 -10.0778 360.533 -7.90051 360.408C-8.61105 360.795 -9.33167 361.165 -10.0653 361.509C17.9452 355.187 29.1841 332.281 42.5613 312.142C52.0011 298.008 61.9666 281.362 76.3396 270.015C80.3301 266.879 88.4495 260.962 93.1553 260.845C95.8622 260.783 101.26 263.545 105.159 264.891C117.708 269.236 129.321 274.702 140.414 278.634C174.146 290.593 203.734 299.916 239.956 309.317C248.75 311.686 257.668 313.571 266.67 314.963C275.262 316.195 287.12 319.489 290.696 323.841C295.154 329.267 297.72 340.516 299.634 350.258C301.547 360.001 303.593 371.417 304.255 380.586C305.415 397.076 303.967 413.217 305.756 428.918C306.986 439.67 311.466 448.475 318.897 453.608C329.194 462.384 345.626 462.333 350.134 462.138C350.523 462.126 350.908 462.102 351.303 462.065C361.124 461.196 371.704 453.358 376.438 448.065C380.633 443.147 384.205 437.73 387.071 431.937C399.096 407.751 407.724 381.707 415.13 353.084C417.009 345.827 418.562 338.365 419.708 331.158C422.198 315.416 425.441 299.382 424.416 284.235C427.961 263.921 426.115 242.385 423.298 222.439ZM-3.37422 357.7L1.93494 353.553C0.248724 355.039 -1.52409 356.424 -3.37422 357.7ZM147.268 265.798C135.439 262.227 123.053 259.066 113.241 253.613C112.392 253.397 112.387 253.013 112.811 252.436C154.871 267.278 203.583 277.086 246.279 292.515C248.802 293.429 251.917 294.287 253.911 296.283C218.282 288.048 182.3 276.384 147.268 265.798ZM410.549 325.48C402.872 370.127 388.864 409.175 371.498 438.721C367.412 445.547 357.937 454.642 344.31 456.167C343.962 456.193 343.61 456.236 343.254 456.297C341.969 456.398 340.681 456.429 339.393 456.392C329.651 455.772 322.677 448.781 322.528 448.622C317.75 442.505 314.574 434.756 316.452 423.958C317.543 430.958 317.529 439.116 322.87 441.629C323.168 435.186 320.554 427.528 322.358 422.212C323.789 430.619 323.317 443.188 330.08 444.616C328.679 437.498 328.619 427.682 329.451 420.444C332.338 430.7 330.475 445.967 339.346 449.919C332.947 422.478 341.62 397.831 341.396 371.348C341.327 362.642 341.494 352.561 340.906 344.394C338.531 310.609 334.447 280.232 325.461 254.793C320.338 240.283 312.818 226.509 306.912 212.851C304.917 208.243 302.168 203.066 300.944 198.314C300.167 194.985 299.694 191.592 299.531 188.177C299.531 188.177 297.358 195.678 296.954 197.627C294.763 195.656 292.32 193.986 289.688 192.661C290.169 191.579 291.409 191.207 291.189 189.451C287.428 188.266 282.729 190.088 278.085 189.431C276.534 189.196 274.968 187.907 273.677 187.564C264.395 185.098 255.279 183.025 246.125 180.361C218.321 172.273 190.388 166.768 161.137 160.395C163.497 163.706 167.959 164.763 171.602 166.064C183.795 170.43 195.274 173.898 207.604 178.199C218.702 182.076 232.377 185.275 244.768 189.114C249.287 190.518 254.083 192.734 257.555 192.749C261.028 192.765 265.455 190.075 268.661 192.855C254.3 194.478 245.575 204.854 247.46 219.186C252.942 203.151 265.419 197.535 277.546 198.957C289.674 200.379 304.458 212.212 298.935 228.134C294.373 241.276 271.459 242.679 259.073 235.449C251.588 231.076 248.034 222.669 248.034 222.669C243.031 227.204 248.995 239.607 252.69 243.237C260.552 250.966 276.204 254.292 288.802 249.814C288.362 251.693 284.563 252.108 285.74 254.26C287.007 257.043 292.185 256.759 294.952 256.841C278.226 264.588 254.832 259.082 248.667 245.758C246.12 251.646 251.425 257.258 255.394 260.25C262.083 265.301 273.779 267.344 283.708 266.247C292.979 265.186 299.5 259.945 304.421 256.153C302.077 261.47 298.54 266.176 294.084 269.906C287.493 275.232 279.738 278.531 270.169 280.039C262.078 281.318 251.867 277.66 251.867 277.66C256.609 282.807 265.538 284.72 274.321 284.54C295.664 284.095 308.449 272.296 313.137 255.513C314.044 270.726 301.686 283.397 290.981 287.423C286.162 289.126 281.105 290.059 275.996 290.188C256.605 290.394 243.401 283.076 226.922 278.795C198.238 271.343 169.318 262.636 142.601 254.055C137.017 252.257 131.225 249.581 126.197 248.537C121.717 247.606 117.562 248.258 113.858 246.881C106.946 244.377 99.912 240.068 95.7207 235.045C91.3581 229.851 86.6384 221.676 85.6561 211.914C85.085 206.153 86.4575 195.415 89.0017 190.806C92.3002 184.839 97.0578 180.274 101.198 178.439L104.398 182.487C105.216 171.319 110.707 163.144 121.117 160.622C136.33 156.938 153.298 167.018 151.429 181.87C150.903 186.015 145.592 198.66 128.071 198.146C115.352 197.779 111.754 192.124 104.592 186.378C104.817 200.705 114.877 205.808 118.787 207.2C128.466 210.637 139.084 208.486 145.652 203.723C148.813 201.231 151.84 198.574 154.721 195.763C152.913 203.063 145.071 208.892 145.071 208.892C145.438 210.549 148.427 211.683 149.457 212.642C138.498 221.26 112.854 219.218 105.731 208.636C110.402 232.02 150.303 226.782 159.311 210.395C161.277 206.818 160.604 203.139 162.575 199.634C165.719 209.233 160.528 217.314 155.255 222.822C153.051 225.131 149.824 226.486 147.475 228.581C145.389 230.432 144.414 232.616 142.876 234.629C142.081 235.679 140.39 236.281 140.579 237.861C162.333 236.615 174.828 222.442 173.769 203.284C173.391 196.466 169.85 187.94 165.748 184.859C164.399 183.845 161.397 182.195 161.397 182.195C161.397 182.195 161.44 176.274 161.087 173.481C158.967 156.847 140.994 147.759 125.593 149.453C114.959 150.618 107.27 158.348 102.675 167.509C70.7831 184.006 46.7024 209.151 26.807 237.711C16.7875 252.094 8.57525 267.706 0.28989 283.637C-6.07214 295.799 -11.1264 309.077 -17.7788 320.107C-19.7616 323.419 -23.0425 331.039 -23.0425 331.039C-17.7385 327.457 -11.131 319.148 -7.40145 313.997C-2.36411 307.037 6.4537 292.618 6.4537 292.618C-0.121191 307.881 -8.27623 321.649 -17.0147 334.873C-4.21169 328.092 2.41548 313.38 10.3035 303.226C4.99381 317.241 -2.95326 328.768 -11.3354 339.877C-0.627461 333.427 6.50474 324.552 13.9802 313.438C9.59732 327.44 1.12651 334.565 -4.84551 345.259C-3.38576 345.761 -2.83318 347.207 -1.21386 347.541C7.20561 339.309 12.5189 329.013 18.6378 318.466C25.6157 306.142 33.3729 294.276 41.8623 282.94C50.2432 271.996 57.3474 259.525 76.1335 259.447C62.9119 267.874 54.6799 277.9 46.0394 291.172C41.0847 298.779 36.0986 306.65 31.1812 314.161C22.4918 327.433 14.0406 343.02 1.9667 353.631C-6.93572 356.526 -19.6633 349.132 -20.1571 348.846C-23.8392 346.583 -27.3041 344.088 -29.9826 340.753C-27.6806 340.175 -26.6014 338.552 -26.954 335.515C-31.0921 337.869 -35.9595 337.488 -40.1977 336.007C-40.1977 336.007 -41.0598 333.036 -41.9649 328.65L-41.792 328.754L-42.0878 328.039C-43.2909 322.125 -44.5048 313.877 -43.9604 306.858C-43.416 299.839 -42.1148 292.813 -40.9281 286.306C-39.1065 275.778 -36.5995 265.381 -33.423 255.179C-27.0037 235.325 -20.5373 216.486 -11.9036 199.092C-7.53582 190.294 -2.9316 181.9 1.29543 173.37C5.52248 164.839 11.25 157.314 16.1236 149.19C23.4124 137.015 31.585 124.998 40.6027 114.836C43.6977 111.3 46.3877 107.15 49.4312 103.896C64.0619 88.2631 89.2042 77.4367 119.319 78.6437C129.239 79.0471 137.135 81.3291 146.01 83.4935C147.973 84.9523 147.997 88.458 150.913 88.9128C154.967 84.4937 149.376 77.6259 147.014 76.3287C151.628 78.113 156 80.1537 161.415 81.1069C157.001 83.8729 154.119 88.4751 151.818 93.2494C144.934 107.574 142.509 126.572 144.906 146.746C144.634 143.933 147.165 124.431 149.592 113.942C152.087 103.239 154.245 94.9955 159.596 86.678C160.1 86.1782 160.581 85.6539 161.054 85.1253L168.301 86.8236C222.315 98.7202 271.989 115.187 321.361 131.963C308.875 132.889 301.937 128.158 293.033 125.175C255.436 112.681 217.626 100.46 175.624 93.7703C173.025 93.3584 168.802 91.28 166.517 94.4109C192.443 101.258 218.508 108.559 244.383 114.954C250.703 116.518 257.319 118.258 263.558 120.399C282.492 126.903 301.684 131.488 319.947 138.344C322.238 138.111 323 134.665 325.023 135.436C323.622 137.776 324.444 140.488 324.814 142.157C314.107 154.926 303.914 168.179 297.397 184.914C311.26 177.702 318.01 161.82 326.955 148.055C329.692 143.826 333.499 137.517 337.748 136.267C347.073 133.516 352.884 139.46 359.715 142.425C375.201 149.232 388.857 156.546 400.02 167.142C403.598 170.526 410.005 178.137 410.752 183.113C414.277 206.632 415.96 231.591 416.634 255.917C417.265 279.875 414.339 303.435 410.549 325.48ZM321.997 290.539C322.929 289.865 323.418 292.74 324.094 294.846C333.113 323.122 334.315 368.097 330.454 400.946C329.164 364.416 330.363 321.866 321.997 290.539ZM73.299 197.562C50.9997 221.103 31.0365 247.93 13.5901 276.059C13.5901 276.059 21.1283 259.906 25.816 252.991C39.2453 233.206 54.4016 211.941 73.299 197.562Z" fill="#363309"/>
<path fill-rule="evenodd" clip-rule="evenodd" d="M133.054 102.805C140.941 103.615 141.445 91.6809 137.422 88.0108C130.863 87.6933 129.959 98.8589 133.054 102.805Z" fill="#363309"/>
<path fill-rule="evenodd" clip-rule="evenodd" d="M101.06 136.53C96.5378 134.086 95.2757 129.643 93.2355 125.634C94.889 122.595 98.4262 120.918 98.5755 117.565C95.0488 118.211 91.6366 119.728 89.057 117.421C88.2547 112.227 86.3145 108.933 87.5189 104.373C88.6502 100.033 93.5435 96.0575 91.528 90.7823C81.8151 90.4736 76.8614 103.518 81.417 113.258C77.0776 114.201 78.2659 118.276 78.8356 122.471C72.196 127.435 60.7511 124.906 53.8524 122.331C54.7854 121.295 53.4074 120.412 52.9849 119.582C57.6677 118.033 55.5037 111.094 59.8674 109.883C65.1619 108.407 70.7395 113.956 76.2072 113.024C72.2442 110.397 66.2325 103.923 59.7238 104.339C53.8022 104.706 46.8668 113.268 49.8174 119.661C49.0093 119.85 48.295 120.321 47.8033 120.989C47.3116 121.658 47.0748 122.48 47.1356 123.307C47.2015 131.905 69.0297 131.613 74.5931 126.943C75.4187 127.966 77.1185 128.084 77.0556 130.051C71.7244 132.307 67.4553 134.651 64.2296 139.908C62.6348 142.572 59.5576 148.153 59.7425 150.328C60.3251 157.523 74.0971 160.134 81.8107 160.058C87.4491 160 92.2121 146.196 91.6294 140.39C91.3578 137.821 88.5168 136.179 90.2558 133.699C93.912 139.028 97.5554 141.649 104.793 143.625C107.079 144.25 114.33 146.596 115.096 143.358C116.069 139.216 102.919 137.574 101.06 136.53ZM80.8997 154.113C78.8739 154.573 75.4082 152.782 73.3196 152.333C70.8647 151.802 68.4582 151.068 66.1248 150.139C68.4598 140.504 72.9814 132.952 82.6539 130.273C90.7092 132.288 85.8074 153.022 80.8824 154.142L80.8997 154.113Z" fill="#363309"/>
<path fill-rule="evenodd" clip-rule="evenodd" d="M104.477 101.58C102.847 106.1 97.5223 110.747 100.121 116.762C104.69 116.564 105.711 113.487 107.494 110.623C108.662 108.672 111.428 104.313 110.801 100.622C110.175 96.9318 102.895 92.3293 98.7256 93.0213C90.8275 94.2882 102.322 100.622 104.477 101.58Z" fill="#363309"/>
<path fill-rule="evenodd" clip-rule="evenodd" d="M321.333 94.0044C325.624 90.5291 332.179 87.1768 333.163 80.6163C332.192 79.5754 330.606 78.5968 329.507 78.8972C320.196 81.5283 305.803 103.886 305.803 103.886C305.803 103.886 316.769 97.7073 321.333 94.0044Z" fill="#363309"/>
<path fill-rule="evenodd" clip-rule="evenodd" d="M100.26 121.909C108.363 121.655 112.957 125.09 118.644 127.37C118.705 132.463 113.933 136.628 116.241 141.316C124.171 141.662 126.413 128.246 122.464 121.725C116.483 120.639 104.257 115.07 100.26 121.909Z" fill="#363309"/>
<path fill-rule="evenodd" clip-rule="evenodd" d="M-35.4825 282.512C-37.7233 291.351 -39.5044 305.19 -39.1184 309.969C-23.4839 238.652 4.57095 180.11 38.679 126.308C29.7566 136.751 20.4886 151.546 11.8164 166.276C-8.89146 201.421 -24.3676 238.69 -35.4825 282.512Z" fill="#363309"/>
<path fill-rule="evenodd" clip-rule="evenodd" d="M334.81 160.138C341.111 160.771 344.836 150.678 344.325 144.817C337.135 140.278 325.936 159.246 334.81 160.138Z" fill="#363309"/>
<path fill-rule="evenodd" clip-rule="evenodd" d="M115.752 182.77C117.809 178.681 118.642 176.538 122.587 174.147C132.131 168.399 140.346 170.246 140.346 170.246C133.618 161.259 114.489 166.698 112.808 175.403C112.445 177.201 111.734 182.897 115.752 182.77Z" fill="#363309"/>
<path fill-rule="evenodd" clip-rule="evenodd" d="M385.994 177.04C385.83 175.68 384.717 175.073 384.315 173.522C383.914 171.971 384.27 170.658 383.799 169.173C379.803 156.375 354.889 155.171 353.755 172.341C356.143 171.619 356.878 168.578 359.126 166.637C366.56 160.329 381.335 163.307 380.361 174.802C380.533 176.148 382.626 175.396 382.793 176.718C379.938 184.232 367.683 186.421 360.706 181.266C357.605 178.979 357.001 173.6 352.6 173.567C350.848 178.454 353.197 183.499 355.707 186.185C364.745 195.772 387.433 191.839 385.994 177.04Z" fill="#363309"/>
<path fill-rule="evenodd" clip-rule="evenodd" d="M144.284 179.036C147.385 176.618 143.805 170.035 140.617 173.515C141.105 175.998 141.823 178.296 144.284 179.036Z" fill="#363309"/>
<path fill-rule="evenodd" clip-rule="evenodd" d="M190.013 187.35C195.828 189.071 195.925 178.029 190.22 180.207C187.608 181.206 186.965 186.445 190.013 187.35Z" fill="#363309"/>
<path fill-rule="evenodd" clip-rule="evenodd" d="M343.772 184.087C343.011 182.907 340.33 180.95 338.101 179.478C331.567 175.166 320.496 174.415 314.342 180.903C311.978 183.399 307.093 192.309 312.759 195.604C313.698 193.007 312.785 191.492 313.385 189.249C315.874 179.815 330.302 176.56 336.627 183.476C343.913 191.448 335.638 201.3 326.399 201.589C320.962 201.767 316.984 197.712 312.819 197.987C313.716 202.778 319.25 206.571 323.782 207.611C338.049 210.93 351.629 196.204 343.772 184.087Z" fill="#363309"/>
<path fill-rule="evenodd" clip-rule="evenodd" d="M203.971 190.555C206.566 190.876 207.822 188.45 207.363 184.888C202.872 179.549 198.873 189.889 203.971 190.555Z" fill="#363309"/>
<path fill-rule="evenodd" clip-rule="evenodd" d="M121.667 190.103C127.587 195.604 145.182 190.655 142.204 183.571C136.991 187.052 130.421 189.466 121.667 190.103Z" fill="#363309"/>
<path fill-rule="evenodd" clip-rule="evenodd" d="M214.753 193.444C215.45 193.577 216.168 193.526 216.839 193.296C217.509 193.065 218.107 192.663 218.574 192.129C219.041 191.596 219.36 190.95 219.499 190.255C219.639 189.56 219.594 188.841 219.369 188.168C217.635 183.257 210.1 189.259 214.753 193.444Z" fill="#363309"/>
<path fill-rule="evenodd" clip-rule="evenodd" d="M92.7418 213.307C91.3422 205.075 93.6608 196.253 94.9146 190.646C91.576 195.308 87.6824 207.872 92.7418 213.307Z" fill="#363309"/>
<path fill-rule="evenodd" clip-rule="evenodd" d="M191.433 196.036C192.349 201.563 201.466 198.522 198.455 191.888C194.661 188.766 190.889 192.796 191.433 196.036Z" fill="#363309"/>
<path fill-rule="evenodd" clip-rule="evenodd" d="M224.76 196.747C229.031 197.455 230.93 194.152 230.179 191.844C228.935 188.009 222.532 190.307 223.531 195.189C224.014 195.646 224.428 196.171 224.76 196.747Z" fill="#363309"/>
<path fill-rule="evenodd" clip-rule="evenodd" d="M383.987 190.169C384.01 189.908 383.939 189.647 383.788 189.433C383.637 189.219 383.415 189.065 383.161 189C377.854 192.13 369.299 192.437 362.273 193.913C368.419 198.512 380.664 195.212 383.987 190.169Z" fill="#363309"/>
<path fill-rule="evenodd" clip-rule="evenodd" d="M206.241 201.598C209.039 201.923 211.26 197.756 209.233 194.772C203.426 192.333 201.944 201.098 206.241 201.598Z" fill="#363309"/>
<path fill-rule="evenodd" clip-rule="evenodd" d="M216.65 205.283C219.783 205.751 221.361 202.118 220.037 198.45C214.758 195.065 211.965 204.581 216.65 205.283Z" fill="#363309"/>
<path fill-rule="evenodd" clip-rule="evenodd" d="M403.308 201.159C401.131 199.601 399.28 197.563 397.249 196.954C390.728 195.006 381.904 197.998 378.766 202.603C377.186 204.914 374.456 210.585 377.461 213.343C379.624 210.922 379.068 208.045 380.825 205.714C386.566 198.118 401.595 199.087 403.467 207.102C404.48 211.454 402.133 213.61 401.351 217.073C395.304 223.546 385.128 217.053 379.123 216.48C378.694 223.568 390.425 229.114 398.062 227.877C406.383 226.54 413.688 215.04 408.976 205.774C408.079 204.005 405.489 202.728 403.308 201.159Z" fill="#363309"/>
<path fill-rule="evenodd" clip-rule="evenodd" d="M1.45189 209.762C-6.35308 222.44 -11.5236 236.157 -16.8917 250.694C-22.0002 264.487 -28.3613 278.968 -29.5974 295.441C-23.1737 272.704 2.12667 209.599 1.45189 209.762Z" fill="#363309"/>
<path fill-rule="evenodd" clip-rule="evenodd" d="M260.764 223.95C262.259 221.158 261.485 219.707 262.586 217.95C266.03 212.442 281.68 209.302 290.998 222.245C293.388 212.438 283.212 205.339 276.53 205.114C266.767 204.775 254.756 211.13 257.11 220.872C257.444 222.226 257.847 223.709 260.764 223.95Z" fill="#363309"/>
<path fill-rule="evenodd" clip-rule="evenodd" d="M201.398 212.828C195.777 210.783 188.978 207.73 182.225 208.196C187.793 210.053 195.541 213.938 201.398 212.828Z" fill="#363309"/>
<path fill-rule="evenodd" clip-rule="evenodd" d="M341.595 206.741C334.639 207.692 327.159 209.502 320.65 209.674C322.133 217.046 340.9 211.87 341.595 206.741Z" fill="#363309"/>
<path fill-rule="evenodd" clip-rule="evenodd" d="M184.474 218.425C194.418 222.236 206.777 226.457 217.604 226.669C209.291 223.341 200.738 220.649 192.017 218.618C190.936 218.381 178.595 216.206 184.474 218.425Z" fill="#363309"/>
<path fill-rule="evenodd" clip-rule="evenodd" d="M339.063 217.104C336.996 218.644 333.746 223.388 333.387 227.564C333.179 230.002 332.919 234.668 336.366 235.02C337.206 229.157 336.566 224.705 340.756 221.022C346.709 215.784 360.431 217.466 362.27 224.816C365.168 236.41 355.2 242.834 345.224 240.334C342.31 239.567 339.628 236.318 336.853 238.569C337.021 244.332 344.715 247.344 350.191 248.129C361.806 249.801 369.038 241.152 368.783 231.385C368.457 218.779 351.827 207.659 339.063 217.104Z" fill="#363309"/>
<path fill-rule="evenodd" clip-rule="evenodd" d="M243.408 273.954C235.44 263.247 235.729 265.444 232.273 254.651C228.568 243.034 232.469 229.819 236.471 220.978C221.399 234.899 226.502 267.51 243.408 273.954Z" fill="#363309"/>
<path fill-rule="evenodd" clip-rule="evenodd" d="M236.488 221.012C236.938 220.935 236.4 220.709 236.488 221.012V221.012Z" fill="#363309"/>
<path fill-rule="evenodd" clip-rule="evenodd" d="M101.085 228.553C106.416 234.679 116.809 243.131 127.528 238.966C116.279 237.513 108.099 232.831 101.022 227.009L101.085 228.553Z" fill="#363309"/>
<path fill-rule="evenodd" clip-rule="evenodd" d="M175.577 226.595C189.662 232.474 203.677 238.469 223.466 238.414C210.618 231.465 193.138 227.24 175.577 226.595Z" fill="#363309"/>
<path fill-rule="evenodd" clip-rule="evenodd" d="M282.791 232.482C285.54 233.463 288.512 231.536 287.825 227.995C284.912 224.676 281.926 230.008 282.791 232.482Z" fill="#363309"/>
<path fill-rule="evenodd" clip-rule="evenodd" d="M264.078 230.219C263.77 235.52 273.147 236.929 275.652 233.088C271.762 232.021 269.205 229.562 264.84 229.012C264.69 229.471 264.428 229.886 264.078 230.219Z" fill="#363309"/>
<path fill-rule="evenodd" clip-rule="evenodd" d="M223.768 249.901C221.899 246.112 216.826 244.767 212.892 243.448C200.163 239.143 186.326 234.664 170.215 234.26C170.119 233.783 169.79 234.006 169.43 234.28C168.953 234.375 169.172 234.712 169.445 235.071C187.364 240.215 202.007 248.805 223.768 249.901Z" fill="#363309"/>
<path fill-rule="evenodd" clip-rule="evenodd" d="M195.989 249.045C184.523 245.995 172.333 242.62 158.932 242.509C158.746 242.567 158.577 242.672 158.441 242.813C158.305 242.954 158.207 243.127 158.156 243.315C180.354 250.199 199.893 259.872 227.231 261.324C218.861 254.377 207.332 252.071 195.989 249.045Z" fill="#363309"/>
<path fill-rule="evenodd" clip-rule="evenodd" d="M231.107 271.913C217.88 264.601 201.534 261.798 185.515 257.254C169.496 252.71 152.883 247.019 134.144 248.309C133.633 248.346 133.604 248.837 132.924 248.714C132.681 248.744 132.46 248.787 132.543 249.121C166.27 259.308 200.441 269.046 236.365 276.919C235.911 274.965 233.014 272.976 231.107 271.913Z" fill="#363309"/>
<path fill-rule="evenodd" clip-rule="evenodd" d="M367.248 247.307C361.386 248.13 352.531 251.289 345.118 250.685C344.697 252.662 346.928 253.509 347.98 253.777C355.022 255.558 365.067 251.244 367.248 247.307Z" fill="#363309"/>
<path fill-rule="evenodd" clip-rule="evenodd" d="M343.985 426.61C346.769 420.589 348.986 396.497 349.365 389.428C351.779 344.065 350.297 291.616 337.352 256.422C347.997 306.093 351.323 370.228 343.985 426.61Z" fill="#363309"/>
<path fill-rule="evenodd" clip-rule="evenodd" d="M356.495 292.793C360.202 331.952 359.281 373.759 356.086 410.576C355.346 419.082 354.046 426.089 354.046 426.089C359.065 407.577 359.731 385.276 361.018 361.987C363.158 323.012 356.492 292.39 356.495 292.793Z" fill="#363309"/>
<path fill-rule="evenodd" clip-rule="evenodd" d="M369.312 330.13C369.943 330.002 368.803 330.118 369.312 330.13V330.13Z" fill="#363309"/>
<path fill-rule="evenodd" clip-rule="evenodd" d="M363.986 409.577C370.01 388.292 371.611 356.898 369.309 330.13C367.694 358.083 367.855 383.755 363.986 409.577Z" fill="#363309"/>
</svg>
