<svg width="382" height="456" viewBox="0 0 382 456" fill="none" xmlns="http://www.w3.org/2000/svg">
<path d="M1 -7.2345H23.2389C36.396 -7.2345 45.245 -1.41492 45.245 10.3406V10.457C45.245 22.3289 36.1631 28.7305 22.8896 28.7305H17.5337V42.1155H1V-7.2345ZM21.9582 16.8585C26.1498 16.8585 29.0606 14.9963 29.0606 11.3881V11.2717C29.0606 7.66361 26.4991 5.80135 22.0746 5.80135H17.5337V16.7422H21.9582V16.8585Z" stroke="#1C1C1C" stroke-opacity="0.2" stroke-width="1.7749"/>
<path d="M47.6924 -3.16097V-3.27736C47.6924 -17.5935 59.4522 -28.9999 74.5887 -28.9999C89.8416 -28.9999 101.485 -17.7099 101.485 -3.39375V-3.27736C101.485 11.0388 89.7251 22.4452 74.4722 22.4452C59.3358 22.4452 47.6924 11.1552 47.6924 -3.16097ZM84.8349 -3.16097V-3.27736C84.8349 -9.09693 80.7597 -14.4509 74.4722 -14.4509C68.1848 -14.4509 64.226 -9.21332 64.226 -3.51014V-3.27736C64.226 2.54222 68.3012 7.89622 74.5887 7.89622C80.8761 7.77983 84.8349 2.65861 84.8349 -3.16097Z" stroke="#1C1C1C" stroke-opacity="0.2" stroke-width="1.7749"/>
<path d="M106.023 -7.2345H128.262C141.419 -7.2345 150.268 -1.41492 150.268 10.3406V10.457C150.268 22.3289 141.187 28.7305 127.913 28.7305H122.557V42.1155H106.023V-7.2345ZM126.982 16.8585C131.173 16.8585 134.084 14.9963 134.084 11.3881V11.2717C134.084 7.66361 131.523 5.80135 127.098 5.80135H122.557V16.7422H126.982V16.8585Z" stroke="#1C1C1C" stroke-opacity="0.2" stroke-width="1.7749"/>
<path d="M152.716 38.1581V38.0417C152.716 23.3763 164.243 12.3192 178.914 12.3192C189.742 12.3192 197.077 17.5568 201.269 25.1222L187.646 33.0368C185.783 29.5451 183.222 27.1009 178.681 27.1009C173.092 27.1009 169.482 31.9893 169.482 37.9253V38.0417C169.482 44.4432 173.325 48.9825 178.681 48.9825C183.338 48.9825 185.9 46.4219 187.995 42.8137L201.618 50.4956C197.427 57.8282 190.557 63.7642 178.331 63.7642C164.592 63.7642 152.716 53.5217 152.716 38.1581Z" stroke="#1C1C1C" stroke-opacity="0.2" stroke-width="1.7749"/>
<path d="M222.691 -27.9525H239.225V7.3141H262.395V21.3975H222.691V-27.9525Z" stroke="#1C1C1C" stroke-opacity="0.2" stroke-width="1.7749"/>
<path d="M266.121 13.3668H282.655V62.7168H266.121V13.3668Z" stroke="#1C1C1C" stroke-opacity="0.2" stroke-width="1.7749"/>
<path d="M284.75 -7.2345H303.263L312.811 20.4667L322.358 -7.2345H340.522L320.495 42.4647H304.66L284.75 -7.2345Z" stroke="#1C1C1C" stroke-opacity="0.2" stroke-width="1.7749"/>
<path d="M342.621 -27.9525H384.654V-14.4511H358.805V-9.44627H382.907V2.42566H358.805V7.77967H385.003V21.2811H342.621V-27.9525V-27.9525Z" stroke="#1C1C1C" stroke-opacity="0.2" stroke-width="1.7749"/>
<path d="M1 52.9396H23.2389C36.396 52.9396 45.245 58.7592 45.245 70.5147V70.6311C45.245 82.5031 36.1631 88.9046 22.8896 88.9046H17.5337V102.29H1V52.9396ZM21.9582 77.0327C26.1498 77.0327 29.0606 75.1704 29.0606 71.5623V71.4459C29.0606 67.8377 26.4991 65.9755 22.0746 65.9755H17.5337V77.0327H21.9582Z" stroke="#1C1C1C" stroke-opacity="0.2" stroke-width="1.7749"/>
<path d="M47.6924 57.0137V56.8973C47.6924 42.5812 59.4522 31.1748 74.7051 31.1748C89.958 31.1748 101.601 42.4648 101.601 56.7809V56.8973C101.485 71.2135 89.7251 82.6198 74.4722 82.6198C59.3358 82.6198 47.6924 71.3299 47.6924 57.0137ZM84.8349 57.0137V56.8973C84.8349 51.0777 80.7597 45.7237 74.4722 45.7237C68.1848 45.7237 64.226 50.9614 64.226 56.6645V56.7809C64.226 62.6005 68.3012 67.9545 74.5887 67.9545C80.8761 67.9545 84.8349 62.8333 84.8349 57.0137Z" stroke="#1C1C1C" stroke-opacity="0.2" stroke-width="1.7749"/>
<path d="M106.023 52.9396H128.262C141.419 52.9396 150.268 58.7592 150.268 70.5147V70.6311C150.268 82.5031 141.187 88.9046 127.913 88.9046H122.557V102.29H106.023V52.9396ZM126.982 77.0327C131.173 77.0327 134.084 75.1704 134.084 71.5623V71.4459C134.084 67.8377 131.523 65.9755 127.098 65.9755H122.557V77.0327H126.982Z" stroke="#1C1C1C" stroke-opacity="0.2" stroke-width="1.7749"/>
<path d="M152.716 98.3322V98.2158C152.716 83.5505 164.243 72.4933 178.914 72.4933C189.742 72.4933 197.077 77.7309 201.269 85.2964L187.646 93.211C185.783 89.7192 183.222 87.275 178.681 87.275C173.092 87.275 169.482 92.1635 169.482 98.0994V98.2158C169.482 104.617 173.325 109.157 178.681 109.157C183.338 109.157 185.9 106.596 187.995 102.988L201.618 110.67C197.427 118.002 190.557 123.938 178.331 123.938C164.592 123.938 152.716 113.696 152.716 98.3322Z" stroke="#1C1C1C" stroke-opacity="0.2" stroke-width="1.7749"/>
<path d="M222.691 32.2218H239.225V67.4884H262.395V81.5718H222.691V32.2218Z" stroke="#1C1C1C" stroke-opacity="0.2" stroke-width="1.7749"/>
<path d="M266.121 73.5406H282.655V122.891H266.121V73.5406Z" stroke="#1C1C1C" stroke-opacity="0.2" stroke-width="1.7749"/>
<path d="M284.75 52.9396H303.263L312.811 80.6408L322.358 52.9396H340.522L320.495 102.639H304.66L284.75 52.9396Z" stroke="#1C1C1C" stroke-opacity="0.2" stroke-width="1.7749"/>
<path d="M342.621 32.2218H384.654V45.7232H358.805V50.728H382.907V62.6H358.805V67.954H385.003V81.4554H342.621V32.2218V32.2218Z" stroke="#1C1C1C" stroke-opacity="0.2" stroke-width="1.7749"/>
<path d="M1 112.299H23.2389C36.396 112.299 45.245 118.119 45.245 129.874V129.991C45.245 141.863 36.1631 148.264 22.8896 148.264H17.5337V161.649H1V112.299ZM21.9582 136.509C26.1498 136.509 29.0606 134.646 29.0606 131.038V130.922C29.0606 127.314 26.4991 125.451 22.0746 125.451H17.5337V136.392H21.9582V136.509Z" stroke="#1C1C1C" stroke-opacity="0.2" stroke-width="1.7749"/>
<path d="M47.6924 116.489V116.373C47.6924 102.057 59.4522 90.6503 74.7051 90.6503C89.958 90.6503 101.601 101.94 101.601 116.256V116.373C101.601 130.689 89.8416 142.095 74.5887 142.095C59.3358 141.979 47.6924 130.805 47.6924 116.489ZM84.8349 116.489V116.373C84.8349 110.553 80.7597 105.199 74.4722 105.199C68.1848 105.199 64.226 110.437 64.226 116.14V116.256C64.226 122.076 68.3012 127.43 74.5887 127.43C80.8761 127.43 84.8349 122.192 84.8349 116.489Z" stroke="#1C1C1C" stroke-opacity="0.2" stroke-width="1.7749"/>
<path d="M106.023 112.299H128.262C141.419 112.299 150.268 118.119 150.268 129.874V129.991C150.268 141.863 141.187 148.264 127.913 148.264H122.557V161.649H106.023V112.299ZM126.982 136.509C131.173 136.509 134.084 134.646 134.084 131.038V130.922C134.084 127.314 131.523 125.451 127.098 125.451H122.557V136.392H126.982V136.509Z" stroke="#1C1C1C" stroke-opacity="0.2" stroke-width="1.7749"/>
<path d="M152.716 157.808V157.692C152.716 143.027 164.243 131.969 178.914 131.969C189.742 131.969 197.077 137.207 201.269 144.772L187.646 152.687C185.783 149.195 183.222 146.751 178.681 146.751C173.092 146.751 169.482 151.64 169.482 157.575V157.692C169.482 164.093 173.325 168.633 178.681 168.633C183.338 168.633 185.9 166.072 187.995 162.464L201.618 170.146C197.427 177.478 190.557 183.414 178.331 183.414C164.592 183.414 152.716 173.056 152.716 157.808Z" stroke="#1C1C1C" stroke-opacity="0.2" stroke-width="1.7749"/>
<path d="M222.691 91.6979H239.225V126.964H262.395V141.048H222.691V91.6979Z" stroke="#1C1C1C" stroke-opacity="0.2" stroke-width="1.7749"/>
<path d="M266.121 133.017H282.655V182.367H266.121V133.017Z" stroke="#1C1C1C" stroke-opacity="0.2" stroke-width="1.7749"/>
<path d="M284.75 112.299H303.263L312.811 140L322.358 112.299H340.522L320.612 161.998H304.777L284.75 112.299Z" stroke="#1C1C1C" stroke-opacity="0.2" stroke-width="1.7749"/>
<path d="M342.621 91.6979H384.654V105.199H358.805V110.204H382.907V122.076H358.805V127.43H385.003V140.931H342.621V91.6979V91.6979Z" stroke="#1C1C1C" stroke-opacity="0.2" stroke-width="1.7749"/>
<path d="M1 170.495H23.2389C36.396 170.495 45.245 176.315 45.245 188.07V188.187C45.245 200.059 36.1631 206.46 22.8896 206.46H17.5337V219.845H1V170.495ZM21.9582 194.705C26.1498 194.705 29.0606 192.842 29.0606 189.234V189.118C29.0606 185.51 26.4991 183.647 22.0746 183.647H17.5337V194.588H21.9582V194.705Z" stroke="#1C1C1C" stroke-opacity="0.2" stroke-width="1.7749"/>
<path d="M47.6924 174.685V174.569C47.6924 160.253 59.4522 148.846 74.7051 148.846C89.958 148.846 101.601 160.136 101.601 174.452V174.569C101.601 188.885 89.8416 200.291 74.5887 200.291C59.3358 200.175 47.6924 189.001 47.6924 174.685ZM84.8349 174.685V174.569C84.8349 168.749 80.7597 163.395 74.4722 163.395C68.1848 163.395 64.226 168.633 64.226 174.336V174.452C64.226 180.272 68.3012 185.626 74.5887 185.626C80.8761 185.626 84.8349 180.388 84.8349 174.685Z" stroke="#1C1C1C" stroke-opacity="0.2" stroke-width="1.7749"/>
<path d="M106.023 170.495H128.262C141.419 170.495 150.268 176.315 150.268 188.07V188.187C150.268 200.059 141.187 206.46 127.913 206.46H122.557V219.845H106.023V170.495ZM126.982 194.705C131.173 194.705 134.084 192.842 134.084 189.234V189.118C134.084 185.51 131.523 183.647 127.098 183.647H122.557V194.588H126.982V194.705Z" stroke="#1C1C1C" stroke-opacity="0.2" stroke-width="1.7749"/>
<path d="M152.716 216.004V215.888C152.716 201.223 164.243 190.165 178.914 190.165C189.742 190.165 197.077 195.403 201.269 202.968L187.646 210.883C185.783 207.391 183.222 204.947 178.681 204.947C173.092 204.947 169.482 209.836 169.482 215.772V215.888C169.482 222.289 173.325 226.829 178.681 226.829C183.338 226.829 185.9 224.268 187.995 220.66L201.618 228.342C197.427 235.674 190.557 241.61 178.331 241.61C164.592 241.61 152.716 231.252 152.716 216.004Z" stroke="#1C1C1C" stroke-opacity="0.2" stroke-width="1.7749"/>
<path d="M222.691 149.894H239.225V185.161H262.395V199.244H222.691V149.894Z" stroke="#1C1C1C" stroke-opacity="0.2" stroke-width="1.7749"/>
<path d="M266.121 191.213H282.655V240.563H266.121V191.213Z" stroke="#1C1C1C" stroke-opacity="0.2" stroke-width="1.7749"/>
<path d="M284.75 170.495H303.263L312.811 198.196L322.358 170.495H340.522L320.612 220.194H304.777L284.75 170.495Z" stroke="#1C1C1C" stroke-opacity="0.2" stroke-width="1.7749"/>
<path d="M342.621 149.894H384.654V163.396H358.805V168.4H382.907V180.272H358.805V185.626H385.003V199.128H342.621V149.894V149.894Z" stroke="#1C1C1C" stroke-opacity="0.2" stroke-width="1.7749"/>
<path d="M1 229.971H23.2389C36.396 229.971 45.245 235.791 45.245 247.546V247.663C45.245 259.535 36.1631 265.936 22.8896 265.936H17.5337V279.321H1V229.971ZM21.9582 254.064C26.1498 254.064 29.0606 252.202 29.0606 248.594V248.478C29.0606 244.869 26.4991 243.007 22.0746 243.007H17.5337V253.948H21.9582V254.064Z" stroke="#1C1C1C" stroke-opacity="0.2" stroke-width="1.7749"/>
<path d="M47.6924 234.045V233.928C47.6924 219.612 59.4522 208.206 74.7051 208.206C89.958 208.206 101.601 219.496 101.601 233.812V233.928C101.601 248.245 89.8416 259.651 74.5887 259.651C59.3358 259.651 47.6924 248.361 47.6924 234.045ZM84.8349 234.045V233.928C84.8349 228.109 80.7597 222.755 74.4722 222.755C68.1848 222.755 64.226 227.993 64.226 233.696V233.812C64.226 239.632 68.3012 244.986 74.5887 244.986C80.8761 245.102 84.8349 239.864 84.8349 234.045Z" stroke="#1C1C1C" stroke-opacity="0.2" stroke-width="1.7749"/>
<path d="M106.023 229.971H128.262C141.419 229.971 150.268 235.791 150.268 247.546V247.663C150.268 259.535 141.187 265.936 127.913 265.936H122.557V279.321H106.023V229.971ZM126.982 254.064C131.173 254.064 134.084 252.202 134.084 248.594V248.478C134.084 244.869 131.523 243.007 127.098 243.007H122.557V253.948H126.982V254.064Z" stroke="#1C1C1C" stroke-opacity="0.2" stroke-width="1.7749"/>
<path d="M152.716 275.364V275.247C152.716 260.582 164.243 249.525 178.914 249.525C189.742 249.525 197.077 254.763 201.269 262.328L187.646 270.243C185.783 266.751 183.222 264.307 178.681 264.307C173.092 264.307 169.482 269.195 169.482 275.131V275.247C169.482 281.649 173.325 286.188 178.681 286.188C183.338 286.188 185.9 283.628 187.995 280.02L201.618 287.701C197.427 295.034 190.557 300.97 178.331 300.97C164.592 300.97 152.716 290.728 152.716 275.364Z" stroke="#1C1C1C" stroke-opacity="0.2" stroke-width="1.7749"/>
<path d="M222.691 209.254H239.225V244.52H262.395V258.604H222.691V209.254Z" stroke="#1C1C1C" stroke-opacity="0.2" stroke-width="1.7749"/>
<path d="M266.121 250.572H282.655V299.922H266.121V250.572Z" stroke="#1C1C1C" stroke-opacity="0.2" stroke-width="1.7749"/>
<path d="M284.75 229.971H303.263L312.811 257.672L322.358 229.971H340.522L320.495 279.671H304.66L284.75 229.971Z" stroke="#1C1C1C" stroke-opacity="0.2" stroke-width="1.7749"/>
<path d="M342.621 209.254H384.654V222.755H358.805V227.76H382.907V239.632H358.805V244.986H385.003V258.604H342.621V209.254V209.254Z" stroke="#1C1C1C" stroke-opacity="0.2" stroke-width="1.7749"/>
<path d="M1 289.935H23.2389C36.396 289.935 45.245 295.755 45.245 307.511V307.627C45.245 319.499 36.1631 325.9 22.8896 325.9H17.5337V339.285H1V289.935ZM21.9582 314.028C26.1498 314.028 29.0606 312.166 29.0606 308.558V308.442C29.0606 304.834 26.4991 302.971 22.0746 302.971H17.5337V313.912H21.9582V314.028Z" stroke="#1C1C1C" stroke-opacity="0.2" stroke-width="1.7749"/>
<path d="M47.6924 294.009V293.893C47.6924 279.576 59.4522 268.17 74.5887 268.17C89.8416 268.17 101.485 279.46 101.485 293.776V293.893C101.485 308.209 89.7251 319.615 74.4722 319.615C59.3358 319.615 47.6924 308.325 47.6924 294.009ZM84.8349 294.009V293.893C84.8349 288.073 80.7597 282.719 74.4722 282.719C68.1848 282.719 64.226 287.957 64.226 293.66V293.893C64.226 299.712 68.3012 305.066 74.5887 305.066C80.8761 304.95 84.8349 299.829 84.8349 294.009Z" stroke="#1C1C1C" stroke-opacity="0.2" stroke-width="1.7749"/>
<path d="M106.023 289.935H128.262C141.419 289.935 150.268 295.755 150.268 307.511V307.627C150.268 319.499 141.187 325.9 127.913 325.9H122.557V339.285H106.023V289.935ZM126.982 314.028C131.173 314.028 134.084 312.166 134.084 308.558V308.442C134.084 304.834 131.523 302.971 127.098 302.971H122.557V313.912H126.982V314.028Z" stroke="#1C1C1C" stroke-opacity="0.2" stroke-width="1.7749"/>
<path d="M152.716 335.328V335.212C152.716 320.546 164.243 309.489 178.914 309.489C189.742 309.489 197.077 314.727 201.269 322.292L187.646 330.207C185.783 326.715 183.222 324.271 178.681 324.271C173.092 324.271 169.482 329.159 169.482 335.095V335.212C169.482 341.613 173.325 346.152 178.681 346.152C183.338 346.152 185.9 343.592 187.995 339.984L201.618 347.666C197.427 354.998 190.557 360.934 178.331 360.934C164.592 360.934 152.716 350.692 152.716 335.328Z" stroke="#1C1C1C" stroke-opacity="0.2" stroke-width="1.7749"/>
<path d="M222.691 269.218H239.225V304.485H262.395V318.568H222.691V269.218Z" stroke="#1C1C1C" stroke-opacity="0.2" stroke-width="1.7749"/>
<path d="M266.121 310.537H282.655V359.887H266.121V310.537Z" stroke="#1C1C1C" stroke-opacity="0.2" stroke-width="1.7749"/>
<path d="M284.75 289.935H303.263L312.811 317.637L322.358 289.935H340.522L320.495 339.635H304.66L284.75 289.935Z" stroke="#1C1C1C" stroke-opacity="0.2" stroke-width="1.7749"/>
<path d="M342.621 269.218H384.654V282.719H358.805V287.724H382.907V299.596H358.805V304.95H385.003V318.451H342.621V269.218V269.218Z" stroke="#1C1C1C" stroke-opacity="0.2" stroke-width="1.7749"/>
<path d="M1 350.11H23.2389C36.396 350.11 45.245 355.929 45.245 367.685V367.801C45.245 379.673 36.1631 386.075 22.8896 386.075H17.5337V399.46H1V350.11ZM21.9582 374.203C26.1498 374.203 29.0606 372.34 29.0606 368.732V368.616C29.0606 365.008 26.4991 363.145 22.0746 363.145H17.5337V374.203H21.9582Z" stroke="#1C1C1C" stroke-opacity="0.2" stroke-width="1.7749"/>
<path d="M47.6924 354.184V354.067C47.6924 339.751 59.4522 328.345 74.7051 328.345C89.958 328.345 101.601 339.635 101.601 353.951V354.067C101.485 368.383 89.7251 379.79 74.4722 379.79C59.3358 379.79 47.6924 368.5 47.6924 354.184ZM84.8349 354.184V354.067C84.8349 348.248 80.7597 342.894 74.4722 342.894C68.1848 342.894 64.226 348.131 64.226 353.834V353.951C64.226 359.77 68.3012 365.124 74.5887 365.124C80.8761 365.124 84.8349 360.003 84.8349 354.184Z" stroke="#1C1C1C" stroke-opacity="0.2" stroke-width="1.7749"/>
<path d="M106.023 350.11H128.262C141.419 350.11 150.268 355.929 150.268 367.685V367.801C150.268 379.673 141.187 386.075 127.913 386.075H122.557V399.46H106.023V350.11ZM126.982 374.203C131.173 374.203 134.084 372.34 134.084 368.732V368.616C134.084 365.008 131.523 363.145 127.098 363.145H122.557V374.203H126.982Z" stroke="#1C1C1C" stroke-opacity="0.2" stroke-width="1.7749"/>
<path d="M152.716 395.502V395.386C152.716 380.72 164.243 369.663 178.914 369.663C189.742 369.663 197.077 374.901 201.269 382.466L187.646 390.381C185.783 386.889 183.222 384.445 178.681 384.445C173.092 384.445 169.482 389.333 169.482 395.269V395.386C169.482 401.787 173.325 406.327 178.681 406.327C183.338 406.327 185.9 403.766 187.995 400.158L201.618 407.84C197.427 415.172 190.557 421.108 178.331 421.108C164.592 421.108 152.716 410.866 152.716 395.502Z" stroke="#1C1C1C" stroke-opacity="0.2" stroke-width="1.7749"/>
<path d="M222.691 329.392H239.225V364.658H262.395V378.742H222.691V329.392Z" stroke="#1C1C1C" stroke-opacity="0.2" stroke-width="1.7749"/>
<path d="M266.121 370.711H282.655V420.061H266.121V370.711Z" stroke="#1C1C1C" stroke-opacity="0.2" stroke-width="1.7749"/>
<path d="M284.75 350.11H303.263L312.811 377.811L322.358 350.11H340.522L320.495 399.809H304.66L284.75 350.11Z" stroke="#1C1C1C" stroke-opacity="0.2" stroke-width="1.7749"/>
<path d="M342.621 329.392H384.654V342.893H358.805V347.898H382.907V359.77H358.805V365.124H385.003V378.625H342.621V329.392V329.392Z" stroke="#1C1C1C" stroke-opacity="0.2" stroke-width="1.7749"/>
<path d="M1 409.469H23.2389C36.396 409.469 45.245 415.289 45.245 427.044V427.161C45.245 439.033 36.1631 445.434 22.8896 445.434H17.5337V458.819H1V409.469ZM21.9582 433.679C26.1498 433.679 29.0606 431.816 29.0606 428.208V428.092C29.0606 424.484 26.4991 422.621 22.0746 422.621H17.5337V433.562H21.9582V433.679Z" stroke="#1C1C1C" stroke-opacity="0.2" stroke-width="1.7749"/>
<path d="M47.6924 413.659V413.543C47.6924 399.227 59.4522 387.82 74.7051 387.82C89.958 387.82 101.601 399.11 101.601 413.426V413.543C101.601 427.859 89.8416 439.265 74.5887 439.265C59.3358 439.149 47.6924 427.975 47.6924 413.659ZM84.8349 413.659V413.543C84.8349 407.723 80.7597 402.369 74.4722 402.369C68.1848 402.369 64.226 407.607 64.226 413.31V413.426C64.226 419.246 68.3012 424.6 74.5887 424.6C80.8761 424.6 84.8349 419.362 84.8349 413.659Z" stroke="#1C1C1C" stroke-opacity="0.2" stroke-width="1.7749"/>
<path d="M106.023 409.469H128.262C141.419 409.469 150.268 415.289 150.268 427.044V427.161C150.268 439.033 141.187 445.434 127.913 445.434H122.557V458.819H106.023V409.469ZM126.982 433.679C131.173 433.679 134.084 431.816 134.084 428.208V428.092C134.084 424.484 131.523 422.621 127.098 422.621H122.557V433.562H126.982V433.679Z" stroke="#1C1C1C" stroke-opacity="0.2" stroke-width="1.7749"/>
<path d="M152.716 454.978V454.862C152.716 440.197 164.243 429.139 178.914 429.139C189.742 429.139 197.077 434.377 201.269 441.942L187.646 449.857C185.783 446.365 183.222 443.921 178.681 443.921C173.092 443.921 169.482 448.81 169.482 454.745V454.862C169.482 461.263 173.325 465.803 178.681 465.803C183.338 465.803 185.9 463.242 187.995 459.634L201.618 467.316C197.427 474.648 190.557 480.584 178.331 480.584C164.592 480.584 152.716 470.226 152.716 454.978Z" stroke="#1C1C1C" stroke-opacity="0.2" stroke-width="1.7749"/>
<path d="M222.691 388.868H239.225V424.134H262.395V438.218H222.691V388.868Z" stroke="#1C1C1C" stroke-opacity="0.2" stroke-width="1.7749"/>
<path d="M266.121 430.187H282.655V479.537H266.121V430.187Z" stroke="#1C1C1C" stroke-opacity="0.2" stroke-width="1.7749"/>
<path d="M284.75 409.469H303.263L312.811 437.17L322.358 409.469H340.522L320.612 459.168H304.777L284.75 409.469Z" stroke="#1C1C1C" stroke-opacity="0.2" stroke-width="1.7749"/>
<path d="M342.621 388.868H384.654V402.369H358.805V407.374H382.907V419.246H358.805V424.6H385.003V438.101H342.621V388.868V388.868Z" stroke="#1C1C1C" stroke-opacity="0.2" stroke-width="1.7749"/>
<path d="M47.6924 471.855V471.739C47.6924 457.423 59.4522 446.016 74.7051 446.016C89.958 446.016 101.601 457.306 101.601 471.622V471.739C101.601 486.055 89.8416 497.461 74.5887 497.461C59.3358 497.345 47.6924 486.171 47.6924 471.855ZM84.8349 471.855V471.739C84.8349 465.919 80.7597 460.565 74.4722 460.565C68.1848 460.565 64.226 465.803 64.226 471.506V471.622C64.226 477.442 68.3012 482.796 74.5887 482.796C80.8761 482.796 84.8349 477.558 84.8349 471.855Z" stroke="#1C1C1C" stroke-opacity="0.2" stroke-width="1.7749"/>
<path d="M222.691 447.064H239.225V482.331H262.395V496.414H222.691V447.064Z" stroke="#1C1C1C" stroke-opacity="0.2" stroke-width="1.7749"/>
<path d="M342.621 447.064H384.654V460.565H358.805V465.57H382.907V477.442H358.805V482.796H385.003V496.298H342.621V447.064V447.064Z" stroke="#1C1C1C" stroke-opacity="0.2" stroke-width="1.7749"/>
</svg>
