<svg width="308" height="429" viewBox="0 0 308 429" fill="none" xmlns="http://www.w3.org/2000/svg">
<path d="M306.801 274.912C306.801 274.192 305.785 273.306 305.064 272.889C303.848 272.229 302.216 272.186 301.2 271.37C299.943 270.286 298.939 268.941 298.256 267.428C298.144 267.185 300.054 266.038 300.992 265.257C303.597 263.086 306.783 261.428 306.41 257.182C306.037 252.936 306.861 248.499 302.32 245.946C300.792 245.078 299.012 244.635 297.423 243.853C294.184 242.264 293.95 239.39 296.833 237.419C301.078 234.51 302.511 230.108 299.637 225.906C297.644 223.147 295.041 220.885 292.031 219.298C288.097 217.188 285.857 210.493 288.714 207.315C289.795 206.077 290.583 204.61 291.017 203.024C291.452 201.439 291.523 199.775 291.224 198.159C290.925 196.542 290.264 195.014 289.291 193.688C288.318 192.363 287.058 191.275 285.605 190.505C284.412 189.916 283.376 189.052 282.583 187.984C281.79 186.916 281.262 185.675 281.043 184.363C280.824 183.051 280.921 181.705 281.325 180.437C281.728 179.17 282.428 178.016 283.365 177.072C287.707 172.835 285.223 162.806 279.093 161.339C274.891 160.332 274.343 156.867 273.736 154.115C273.371 152.465 276.045 150.251 277.105 148.158C277.825 146.725 278.589 145.058 278.511 143.539C278.268 138.833 274.587 134.769 269.959 133.562C267.302 132.876 266.564 128.934 269.143 126.121C271.721 123.307 272.268 121.032 271.409 117.238C270.471 113.07 267.936 110.977 264.705 109.632C261.692 108.381 260.989 106.575 262.022 103.962C263.035 101.414 264.303 98.9763 265.808 96.6853C268.934 91.9618 266.034 84.1818 260.598 82.6883C258.852 82.1064 257.277 81.1011 256.014 79.7622C254.051 77.8085 254.816 74.2137 257.368 74.0574C262.127 73.7535 261.536 70.5842 261.067 67.7535C260.53 64.5982 259.639 61.5136 258.41 58.5582C251.238 41.1923 240.654 26.7264 224.842 15.8119C216.689 10.1853 208.04 7.37197 198.88 5.23596C191.551 3.49936 184.179 1.82359 176.747 0.729533C172.032 0.0435761 167.195 0.277975 162.411 0.469C157.097 0.686075 151.8 1.20706 146.53 1.78014C132.498 3.31703 118.527 5.1665 105.225 9.90741C93.7547 13.9971 82.1889 16.4197 70.9184 20.9436C64.467 23.5485 57.7724 26.1533 52.2761 30.2169C44.6003 35.9217 37.4454 39.3514 30.69 46.1502C24.7891 52.1455 19.2401 58.4774 14.0708 65.114C11.4659 68.4135 1.28073 86.066 0.725021 102.347C0.542678 108.051 0.125941 113.73 0.0130624 119.417C-0.0824505 123.533 0.33432 132.598 0.759787 136.696C0.907398 138.068 2.25327 140.1 3.47757 140.56C7.62804 142.141 9.55558 145.501 6.75966 148.523C4.31106 151.206 4.35451 153.55 5.50067 156.659C6.23004 158.63 6.36899 160.792 6.93338 162.824C7.65407 165.333 8.48767 167.695 12.0651 166.991C14.3226 166.549 15.3906 167.608 15.078 170.152C14.7654 172.696 13.5759 175.006 13.0376 177.246C12.1693 180.815 13.4543 185.061 14.2792 188.977C14.8001 191.46 14.6785 194.751 19.5671 193.509C22.528 192.754 24.2994 196.653 22.2328 199.171C17.2748 205.188 18.1779 211.674 21.3645 218.273C21.8073 219.202 23.3789 219.88 24.5424 220.201C25.7059 220.522 26.9216 220.036 28.0851 220.201C29.2967 220.476 30.4843 220.848 31.6366 221.312C31.2545 222.571 31.2457 224.169 30.4382 225.029C27.2776 228.38 24.6987 231.862 25.8622 236.907C26.4701 239.512 27.4774 241.405 30.777 242.117C33.1474 242.638 35.1879 244.869 37.4715 246.397C34.1372 250.227 31.9664 253.5 33.9375 258.059C34.6004 259.573 35.1208 261.146 35.4918 262.756C36.0648 265.361 37.0373 266.698 40.2153 266.568C41.5698 266.516 43.9576 268.522 44.3397 269.928C44.7738 271.509 44.0531 274.27 42.8028 275.086C40.5973 276.501 40.8838 278.203 41.2485 279.992C41.8481 282.96 42.6576 285.882 43.6711 288.736C44.0444 289.778 45.2602 291.228 46.1719 291.341C51.208 291.862 52.441 294.814 51.9895 298.999C47.0401 301.604 46.9186 301.691 48.933 306.762C50.0431 309.433 51.3491 312.019 52.8404 314.498C53.1703 315.063 54.438 315.08 55.1413 315.549C56.956 316.747 59.1703 317.789 60.2557 319.456C60.7159 320.168 58.6579 322.235 57.9546 323.798C57.3902 325.013 56.4784 326.568 56.8605 327.627C61.94 341.858 65.7433 354.987 77.804 364.964C86.2699 371.988 99.1642 377.189 109.132 381.887C111.372 382.946 113.291 385.464 114.464 387.713C117.416 393.418 119.873 399.322 122.487 405.14C124.675 410.011 128.773 419.806 128.773 419.806C128.773 419.806 127.731 423.591 126.976 426.022C125.717 430.051 125.682 437.007 127.123 440.975C129.147 446.549 131.968 450.526 134.183 455.996C136.979 462.89 143.647 466.225 149.43 470.358C151.167 471.574 152.538 471.53 154.562 473.388C148.727 474.395 143.274 476.679 141.694 481.272C141.006 483.321 140.575 485.448 140.408 487.602C140.148 490.615 136.709 549.608 136.214 555.703C135.45 565.02 134.374 575.9 133.731 585.164C133.48 590.16 133.556 595.166 133.957 600.151C135.589 592.502 137.517 584.869 138.759 577.115C139.679 571.367 139.627 563.822 140.148 558.013C140.912 549.581 141.641 541.107 142.753 532.658C144.203 521.509 147.641 508.737 149.213 497.51C149.43 495.981 149.057 494.366 148.926 492.3C163.35 495.308 178.086 496.553 192.81 496.007C206.634 495.487 220.596 495.79 234.193 489.73C235.175 495.261 244.492 578.357 246.35 586.545C247.331 590.843 248.364 595.133 249.371 599.413C249.97 599.326 249.458 588.855 249.371 588.125C248.685 579.234 245.117 488.427 244.075 479.093C243.785 478.027 243.118 477.101 242.199 476.488C237.367 472.969 231.726 470.723 225.797 469.958C224.589 469.6 223.411 469.15 222.272 468.613C226.917 464.836 231.076 461.545 235.122 458.132C240.923 453.261 243.962 447.192 243.936 439.681C243.936 435.678 244.734 431.675 244.656 427.672C244.623 422.976 244.193 418.291 243.371 413.667C241.756 405.244 239.629 396.865 237.727 388.434C236.408 382.608 235.123 376.764 233.751 370.556C237.84 368.949 241.695 367.829 245.143 366.006C254.807 360.891 264.705 356.012 273.84 350.046C287.108 341.363 296.997 329.372 304.126 315.488C306.523 310.817 307.313 305.068 307.556 299.72C307.886 291.462 307.191 283.187 306.801 274.912ZM146.426 412.929C147.294 412.824 148.275 413.71 150.073 414.544C148.898 413.917 147.679 413.377 146.426 412.929ZM236.025 405.913C239.169 416.871 241.235 428.176 238.335 439.412C237.059 444.3 235.426 449.371 230.885 452.593C231.424 448.729 232.665 444.856 232.353 441.088C231.628 433.966 230.541 426.886 229.096 419.875C228.228 415.047 225.12 412.451 220.995 413.232C213.18 414.709 205.479 416.541 197.82 418.494C196.952 418.729 195.676 421.29 196.023 421.707C200.165 426.734 199.496 432.761 200.199 438.378C200.929 444.552 202.344 451.047 197.542 456.535C194.668 459.817 192.046 463.411 186.333 462.535C186.558 461.666 186.758 461.041 186.897 460.381C187.548 457.108 189.076 453.739 188.634 450.569C187.175 439.672 185.351 428.732 182.99 417.869C181.505 411.01 178.787 404.367 176.695 397.577C175.574 393.947 180.854 385.751 184.049 384.839C193.244 382.234 202.335 379.282 211.47 376.443C215.073 375.314 217.774 376.121 220.466 378.969C227.741 386.556 233.084 395.783 236.043 405.869L236.025 405.913ZM300.992 302.767C299.846 293.016 299.455 292.226 296.025 292.66C295.765 295.135 295.625 297.618 295.217 300.067C293.481 310.487 293.559 321.193 286.378 330.145C283.087 334.252 279.362 338.698 275.585 339.939C277.096 337.899 278.789 336.188 279.805 334.156C284.077 325.595 287.524 316.851 287.768 307.239C287.881 305.987 287.854 304.726 287.689 303.479C287.689 303.349 287.689 303.228 287.689 303.089C287.325 297.992 284.598 294.484 280.144 293.902C278.216 292.626 274.864 293.277 274.63 296.203L274.526 297.575C274.075 298.113 273.737 298.736 273.532 299.407C273.328 300.079 273.261 300.785 273.336 301.482C272.668 305.824 272.286 310.165 271.174 314.333C268.804 323.277 266.242 332.159 263.29 340.877C260.138 350.168 251.75 354.31 244.708 358.243C247.791 354.171 251.655 349.56 254.92 344.567C258.323 339.305 261.119 333.661 264.141 328.148C267.614 321.835 265.982 314.811 266.286 308.177C266.564 302.29 260.017 297.289 253.357 299.112C247.93 300.588 246.636 305.798 245.394 309.783C243.51 315.861 243.658 322.434 242.668 328.73C241.86 333.774 241.253 338.967 239.438 343.664C235.548 353.737 228.801 361.977 220.005 368.489C218.173 369.844 215.612 370.295 212.746 371.415C217.088 366.049 220.917 361.725 224.286 357.08C229.696 349.63 236.13 342.596 237.067 332.845C237.701 326.255 238.465 319.664 238.804 313.022C239.038 308.924 232.066 303.966 227.516 306.267C224.44 307.945 221.727 310.218 219.536 312.953C214.37 319.031 214.648 326.845 213.415 334.165C212.39 340.243 211.418 346.408 209.56 352.252C206.764 361.013 199.574 366.622 192.619 372.223C191.213 373.351 189.91 374.576 188.512 375.696C187.359 376.421 186.028 376.815 184.666 376.833C185.125 376.247 185.627 375.696 186.168 375.184C195.033 367.447 200.06 357.366 204.254 346.781C205.722 343.083 206.043 338.889 207.823 335.363C211.201 328.678 209.447 321.792 209.264 314.924C209.078 313.927 208.519 313.039 207.702 312.44C205.297 310.594 202.367 309.56 199.336 309.488C196.304 309.416 193.329 310.31 190.839 312.041C189.276 313.126 188.234 315.436 187.8 317.372C186.767 321.879 186.854 326.698 185.378 331.013C182.312 339.957 179.3 349.004 174.871 357.288C170.2 366.084 166.258 375.939 154.431 378.874C151.193 379.681 148.874 379.456 146.469 377.45C137.621 370.095 131.43 360.805 125.769 351.088C124.831 349.473 123.789 347.902 122.869 346.269C122.052 344.819 121.332 343.308 120.568 341.824C126.186 356.489 134.035 369.791 145.557 381.262C143.135 381.192 140.304 381.157 139.08 379.803C134.6 374.839 130.411 369.62 126.533 364.174C118.918 353.52 112.736 342.119 108.933 329.589C105.373 317.858 91.9921 281.937 90.2729 277.561C90.8374 280.492 91.2489 283.452 91.5058 286.426C92.157 294.345 95.2567 302.168 97.5056 309.94C101.161 322.582 104.626 335.233 108.88 347.589C111.372 354.813 114.959 361.768 118.658 368.515C120.602 372.04 123.867 374.914 126.255 377.745C94.9963 375.444 73.8531 360.579 65.7692 329.919C68.0355 328.513 70.1802 326.637 72.7156 325.717C78.9153 323.459 84.4986 320.611 88.267 315.115C90.8719 311.355 91.1151 307.552 88.7186 304.747C86.7041 302.403 80.7302 300.406 78.4987 301.352L59.0141 309.575C55.8882 305.086 56.8085 301.343 61.5234 298.982C67.3236 296.073 73.228 293.329 79.0543 290.429C82.1541 288.883 83.8647 282.067 81.7287 277.925C80.4784 275.503 75.6071 274.53 71.4132 275.885C66.6636 277.422 61.9663 279.072 57.2775 280.739C56.0098 281.182 54.8288 281.859 53.127 282.649C53.0054 277.726 53.5002 274.279 58.4148 273.28C60.3672 272.773 62.2445 272.011 63.9981 271.014C68.8432 268.6 74.0702 266.533 76.4146 261.219C76.944 259.926 76.944 258.476 76.4146 257.182C73.4711 251.164 69.2338 250.14 62.5218 253.092C57.6733 255.174 52.7238 257.011 47.6914 258.597C46.2674 259.057 44.4265 258.432 42.7767 258.302C43.1761 256.418 42.933 253.856 44.1139 252.797C46.8404 250.374 50.383 248.829 53.3873 246.649C58.2932 243.089 63.1991 239.468 67.7403 235.474C68.7736 234.606 68.9125 231.862 68.4002 230.264C67.0891 226.157 58.467 222.363 53.9779 224.369C49.3064 226.453 45.1299 229.579 40.8926 232.453C38.8173 234.039 36.8425 235.753 34.9794 237.584C32.2877 234.267 32.6698 229.405 35.7088 227.243C40.8492 223.596 46.2934 220.296 51.3382 216.537C54.7348 214.155 57.7803 211.308 60.3858 208.079C63.0515 204.511 60.0298 199.692 55.3323 199.796C52.245 199.826 49.1919 200.444 46.3368 201.619C39.7551 204.467 33.4165 207.81 26.3659 211.275C26.9477 208.809 26.7915 205.874 28.1894 204.198C33.0151 198.536 39.379 194.395 46.5104 192.276C51.7202 190.618 54.5336 187.171 55.5409 181.996C56.9649 174.685 50.1573 168.033 43.2978 170.169C41.2318 170.854 39.2666 171.812 37.4541 173.017C32.3572 176.291 27.3731 179.712 21.9636 183.333C21.5989 180.12 18.3081 177.654 22.4847 174.65C29.596 169.536 36.0822 163.57 42.8549 157.961C45.6161 155.678 46.2412 151.883 44.5394 148.01C43.0546 144.598 40.0242 144.859 37.593 145.406C33.1852 146.376 28.8986 147.832 24.8116 149.747C20.7393 151.753 17.1446 154.662 12.3255 157.857C12.1345 155.556 11.3617 153.515 11.9868 152.239C13.2806 149.478 14.8523 146.534 17.1446 144.65C22.2068 140.508 28.0157 137.235 33.0518 133.05C35.0055 131.417 36.8984 128.152 36.525 125.869C36.2298 123.906 32.939 121.527 30.5512 120.659C25.2112 118.697 20.6959 122.083 16.1373 123.794C12.9594 124.983 10.5194 127.935 7.107 130.601C7.107 124.783 6.13452 114.694 6.69023 109.684C7.70614 100.462 8.36605 91.1455 12.2213 82.4452C16.6757 72.3989 20.6524 62.0488 28.0243 53.7913C40.5018 38.2748 58.111 28.5238 64.8056 25.5542C71.6912 22.4978 79.3756 25.9102 86.296 28.1591C91.5058 29.8957 96.4898 33.0997 101.101 36.3472C105.277 39.2907 108.959 43.033 112.614 46.6712C116.27 50.3093 119.265 54.4859 123.034 57.8028C125.743 60.1646 129.494 61.7796 133.011 60.0343C136.11 58.4974 137.352 52.8187 136.18 49.1719C133.019 39.6206 126.133 32.9695 118.545 27.1172C113.725 23.4008 108.125 20.7091 101.83 16.8973C106.744 16.3763 111.216 14.5702 114.741 15.8206C121.427 18.1997 128.408 20.518 133.384 26.7264C137.725 32.1011 143.057 36.5989 147.581 41.8C150.324 44.9606 152.113 48.9636 154.805 52.1676C158.026 55.9968 162.507 55.0851 166.562 53.47C169.887 52.1415 170.156 48.9287 169.748 45.5858C168.585 36.0345 162.724 29.3486 155.812 23.5918C150.159 18.8856 143.899 14.9089 136.787 9.85537C141.033 9.71644 144.819 8.47477 147.528 9.74248C153.363 12.6003 158.89 16.0449 164.026 20.0231C172.431 26.3096 178.301 34.8711 183.589 43.8319C185.725 47.4527 189.624 48.5902 193.14 48.4686C194.981 48.4078 197.603 45.7595 198.202 43.745C198.914 41.3138 198.767 37.667 197.395 35.6525C192.037 27.8378 186.845 19.6237 177.954 14.9869C174.316 13.094 171.068 10.3676 166.961 7.54566C169.47 7.64986 171.155 7.61508 172.813 7.82347C173.606 8.03282 174.362 8.36381 175.054 8.80465C189.172 15.6555 199.87 25.8321 205.444 40.8797C206.937 44.926 209.655 46.541 213.693 46.4368C217.427 46.3413 219.302 43.745 217.852 40.2024C215.002 33.4394 210.961 27.2429 205.922 21.9074C202.162 17.8264 198.272 13.8582 194.434 9.82929C194.616 9.53407 198.445 10.2201 199.748 11.3749C202.309 13.6585 204.445 16.4457 206.964 18.7814C212.173 23.6005 216.845 28.6974 219.988 35.227C221.942 39.2907 223.253 44.0229 227.733 46.2805C228.601 46.7059 230.225 46.9144 230.686 46.4194C231.371 45.6987 231.91 43.9622 231.51 43.1807C228.037 36.4687 225.137 29.34 219.354 24.0781C215.942 20.9957 212.79 17.6179 209.369 14.2315C210.003 14.1534 229.218 27.3863 234.393 38.188C235.947 41.4528 237.814 45.4122 240.645 47.0098C245.855 49.9534 247.791 54.6944 250.101 59.47C250.899 61.1285 251.69 62.8042 252.705 64.975L248.086 65.1225C241.921 65.3483 235.704 65.2181 229.583 65.8953C219.667 66.9894 209.829 68.6479 199.948 70.0025C195.971 70.5408 191.942 70.7579 187.991 71.4091C181.045 72.5553 174.211 74.014 167.291 75.1601C159.798 76.3757 152.208 77.0791 144.776 78.5117C134.677 80.4567 124.657 82.7838 114.655 85.1369C99.9716 88.6101 85.1325 91.5102 71.3613 97.7707C65.4829 100.445 60.8114 103.692 59.1529 110.396C58.8434 111.398 58.8279 112.468 59.108 113.479C59.3881 114.491 59.9521 115.4 60.7333 116.1C64.9272 120.572 70.1977 118.896 74.3916 117.95C90.0644 114.407 105.555 110.135 121.045 105.794C127.028 104.127 132.707 101.452 138.646 99.5767C141.885 98.5608 145.384 98.3437 148.744 97.6925C159.988 95.513 171.181 93.0558 182.486 91.1542C192.984 89.4176 203.56 87.9242 214.17 86.8127C226.283 85.5624 238.483 84.7375 250.639 83.9995C255.571 83.6956 258.558 86.0399 260.451 90.7027C259.947 91.0587 259.452 91.6839 258.888 91.762C249.186 92.9603 239.481 94.118 229.774 95.2352C222.897 96.034 215.994 96.6071 209.16 97.6317C199.244 99.1165 189.38 100.836 179.525 102.616C171.632 104.031 163.783 105.663 155.925 107.235C147.572 108.911 139.236 110.665 130.883 112.297C122.53 113.93 114.003 115.128 105.702 117.151C97.1233 119.244 88.6603 121.785 80.348 124.766C76.2062 126.251 71.9429 128.135 69.6853 132.581C66.9501 137.982 68.6867 143.634 74.0268 145.162C76.4767 145.73 79.0301 145.67 81.4508 144.989C95.1699 141.516 108.811 137.808 122.547 134.352C132.906 131.747 143.326 129.342 153.806 127.032C161.977 125.226 170.191 123.559 178.457 122.135C186.524 120.781 194.677 119.878 202.77 118.801C216.263 117.012 229.687 115.093 243.258 113.591C248.843 113.074 254.454 112.9 260.06 113.07C261.797 113.07 263.585 113.982 265.183 114.807C265.773 115.111 266.147 116.422 266.051 117.22C266.051 117.698 264.949 118.315 264.315 118.436C259.765 119.2 255.215 119.982 250.639 120.529C240.376 121.744 229.956 121.397 219.806 123.88C212.191 125.782 204.324 126.668 196.605 128.152C183.875 130.601 171.137 132.989 158.486 135.733C146.764 138.268 135.12 141.125 123.502 144.025C109.905 147.429 96.3596 150.971 82.8315 154.583C79.0457 155.582 74.9386 160.34 75.8851 164.282C76.6752 167.686 79.6709 170.69 81.7982 173.834C82.05 174.198 83.0398 174.224 83.665 174.181C86.7909 173.947 89.9862 173.964 93.0079 173.313C101.691 171.385 110.374 169.258 118.961 167.009C123.086 165.941 127.002 164.117 131.117 163.145C141.997 160.618 152.938 158.282 163.904 156.025C174.871 153.767 185.794 151.683 196.761 149.599C206.22 147.793 215.687 146.037 225.163 144.329C233.655 142.801 242.156 141.229 250.7 139.987C255.979 139.223 261.397 139.327 266.659 138.45C268.917 138.077 270.792 138.077 271.548 140.039C272.138 141.585 271.548 143.582 271.47 144.772C269.673 144.742 267.875 144.812 266.086 144.98C260.659 145.918 255.293 147.151 249.849 147.932C241.001 149.2 232.031 149.773 223.262 151.406C204.81 154.879 186.42 158.595 168.133 162.693C150.533 166.635 133.071 171.081 115.636 175.509C106.996 177.698 98.4174 180.094 89.9862 182.847C85.6447 184.279 80.435 185.252 80.6868 191.981C80.8344 195.637 85.5665 202.079 89.2829 201.619C92.8255 201.185 96.2293 199.787 99.7025 198.945C112.478 195.854 125.268 192.794 138.073 189.767C148.492 187.31 158.912 184.757 169.383 182.517C179.404 180.372 189.502 178.601 199.574 176.647C209.273 174.771 218.963 172.818 228.688 171.012C231.78 170.447 234.975 170.378 238.083 169.874C241.018 169.397 243.875 168.476 246.81 168.033C254.173 166.931 261.571 166.149 268.943 164.899C273.692 164.083 279.302 167.174 279.519 171.081C277.678 172.149 276.046 173.686 274.118 174.111C267.866 175.388 261.519 176.23 255.206 177.255C249.675 178.123 244.118 178.922 238.63 180.007C229.322 181.848 220.066 183.871 210.801 185.842C198.254 188.517 185.707 191.139 173.213 193.926C160.718 196.713 148.266 199.518 135.876 202.609C124.544 205.414 113.231 208.27 102.134 211.726C98.0093 213.011 94.3884 215.877 90.7589 218.317C87.1294 220.757 89.4305 224.395 90.8024 226.6C92.0093 228.528 95.6909 230.542 97.7488 230.169C109.132 228.137 120.325 225.333 131.665 222.884C145.818 219.827 160 216.82 174.211 213.862C183.641 211.909 193.114 210.172 202.552 208.236C208.118 207.098 213.597 205.631 219.181 204.545C226.943 203.069 234.758 201.828 242.564 200.543C254.72 198.537 266.876 196.505 279.102 194.699C283.443 194.082 284.972 201.498 281.064 202.461C276.315 203.625 271.626 205.014 266.85 206.013C258.758 207.749 250.552 208.93 242.538 210.762C227.221 214.236 212.008 218.091 196.744 221.686C187.114 223.952 177.441 226.027 167.829 228.25C159.337 230.23 150.932 232.505 142.431 234.38C129.094 237.324 115.671 239.894 102.386 242.959C99.9196 243.523 96.7068 245.251 95.9774 247.248C95.1091 249.645 96.1337 253.005 97.028 255.758C98.8601 261.358 103.002 262.878 108.42 260.829C112.667 259.223 117.019 257.909 121.445 256.895C132.133 254.421 142.918 252.267 153.633 249.836C161.447 248.099 169.175 245.807 177.077 244.235C188.026 242.047 199.114 240.432 210.072 238.314C222.141 235.978 234.141 233.329 246.193 230.872C258.436 228.377 270.691 225.926 282.957 223.518C287.299 222.649 290.268 224.49 291.258 228.675C289.2 229.014 287.134 229.188 285.18 229.717C272.162 233.285 258.951 236.108 245.612 238.175C233.594 239.972 221.777 243.124 210.011 246.146C190.249 251.208 170.261 255.011 150.099 258.302C141.78 259.656 133.601 261.775 125.482 263.937C119.23 265.578 113.257 268.174 106.944 269.486C103.74 270.154 102.603 271.552 102.394 274.183C101.847 280.452 104.443 287.503 111.702 286.339C119.517 285.098 127.332 283.656 135.034 282.085C142.379 280.6 149.63 278.689 156.984 277.231C168.758 274.895 180.593 272.802 192.402 270.571C206 267.995 219.603 265.39 233.212 262.756C236.685 262.079 240.115 261.237 243.545 260.394C250.622 258.658 257.655 256.704 264.784 255.185C272.182 253.596 279.727 252.64 287.108 250.965C290.85 250.096 294.15 249.654 297.527 251.937C299.628 253.352 300.132 254.316 297.605 255.584C296.519 256.256 295.352 256.787 294.132 257.164C289.122 258.224 284.069 259.092 279.05 260.099C265.4 262.826 251.75 265.517 238.144 268.357C227.151 270.649 216.211 273.115 205.262 275.52C198.428 277.031 191.621 278.637 184.778 280.079C174.697 282.197 164.573 284.099 154.518 286.287C143.717 288.632 132.958 291.141 122.235 293.728C119.1 294.475 115.584 295.092 113.187 296.915C110.226 299.181 110.73 307.23 113.187 310.2C115.184 312.605 121.375 313.361 125.161 312.249C131.421 310.409 137.777 308.776 144.177 307.422C151.618 305.841 159.181 304.704 166.657 303.228C174.741 301.639 211.036 293.503 221.065 291.627C232.813 289.439 244.57 287.173 256.179 284.377C269.003 281.286 282.41 280.452 294.731 275.182C295.791 274.73 298.456 277.153 298.89 278.056C300.766 281.92 302.893 285.94 303.388 290.082C303.883 294.223 301.313 302.767 300.992 302.724V302.767Z" fill="#143743"/>
<path d="M70.009 188.665C67.7428 179.808 66.883 170.969 64.6689 162.043C60.2839 144.373 56.0467 126.555 51.7226 108.642C48.7063 96.3767 47.4665 83.7413 48.041 71.1232C47.9851 69.386 47.7759 67.6572 47.4159 65.9568C47.0078 65.9568 45.3059 75.5081 45.4448 80.3184C45.7227 89.5485 45.549 98.874 47.1814 107.896C49.1264 118.55 52.7906 128.917 55.6734 139.354C58.5562 149.791 61.1958 160.002 64.1915 170.205C65.2595 173.826 69.0713 186.624 70.009 188.665Z" fill="#143743"/>
<path d="M60.7538 179.755C59.8855 178.635 59.156 178.019 58.8869 177.211C55.2747 166.705 51.4628 156.207 48.1894 145.518C45.324 136.158 43.1794 126.572 40.5224 117.082C38.3334 109.495 37.7246 101.539 38.7337 93.707C46.0882 122.456 53.3907 150.971 60.7538 179.755Z" fill="#143743"/>
<path d="M55.1477 35.2195C51.388 42.4872 50.9104 49.2773 49.2867 55.2685C48.6268 48.5913 48.4879 39.8563 55.1477 35.2195Z" fill="#143743"/>
<path d="M42.5998 51.8652C41.3899 63.7436 40.1889 75.6103 38.9964 87.4655C38.9443 75.3614 38.1541 63.1358 42.5998 51.8652Z" fill="#143743"/>
<path d="M211.513 376.459C202.379 379.298 193.279 382.242 184.092 384.855C180.897 385.767 175.618 393.964 176.738 397.593C178.83 404.383 181.548 411.026 183.033 417.885C185.395 428.748 187.218 439.688 188.677 450.585C189.102 453.755 187.574 457.124 186.94 460.397C186.801 461.057 186.602 461.708 186.376 462.551C192.089 463.419 194.712 459.833 197.586 456.551C202.387 451.063 200.972 444.568 200.243 438.394C199.583 432.777 200.243 426.751 196.066 421.723C195.719 421.306 196.934 418.745 197.864 418.51C205.522 416.557 213.241 414.725 221.038 413.249C225.163 412.467 228.237 415.063 229.14 419.891C230.575 426.897 231.653 433.971 232.37 441.086C232.682 444.855 231.441 448.727 230.902 452.591C235.444 449.37 237.076 444.299 238.352 439.41C241.27 428.175 239.221 416.835 236.043 405.911C233.104 395.824 227.782 386.592 220.526 378.994C217.808 376.094 215.125 375.286 211.513 376.459Z" fill="#00CAB1"/>
<path d="M146.426 412.929C147.679 413.377 148.898 413.917 150.073 414.544C148.275 413.667 147.268 412.781 146.426 412.929Z" fill="#00CAB1"/>
<path d="M298.751 277.911C298.317 277.043 295.651 274.585 294.592 275.037C282.271 280.308 268.864 281.115 256.04 284.232C244.43 287.028 232.674 289.294 220.926 291.483C210.897 293.358 174.602 301.494 166.518 303.083C159.042 304.559 151.479 305.688 144.038 307.277C137.638 308.649 131.282 310.264 125.022 312.105C121.236 313.216 115.045 312.461 113.048 310.056C110.591 307.086 110.087 299.037 113.048 296.771C115.445 294.947 118.961 294.331 122.096 293.584C132.819 290.979 143.577 288.487 154.379 286.143C164.434 283.954 174.558 282.053 184.639 279.934C191.482 278.493 198.289 276.886 205.122 275.376C216.072 272.97 227.012 270.504 238.005 268.212C251.611 265.373 265.261 262.681 278.911 259.955C283.929 258.947 288.983 258.079 293.993 257.02C295.213 256.642 296.38 256.111 297.466 255.439C299.967 254.172 299.489 253.208 297.388 251.793C293.993 249.509 290.693 249.969 286.968 250.82C279.588 252.496 272.042 253.425 264.644 255.04C257.516 256.568 250.482 258.513 243.406 260.25C239.933 261.118 236.546 261.934 233.073 262.612C219.464 265.263 205.861 267.868 192.263 270.426C180.454 272.658 168.619 274.768 156.845 277.086C149.491 278.545 142.24 280.455 134.895 281.94C127.149 283.512 119.369 284.953 111.563 286.195C104.304 287.35 101.708 280.299 102.255 274.039C102.49 271.434 103.601 270.01 106.805 269.341C113.117 268.03 119.091 265.434 125.343 263.793C133.471 261.665 141.641 259.512 149.96 258.157C170.087 254.892 190.075 251.089 209.872 246.001C221.638 242.979 233.455 239.827 245.473 238.03C258.812 235.964 272.022 233.14 285.041 229.573C287.012 229.043 289.078 228.87 291.119 228.531C290.129 224.346 287.125 222.522 282.818 223.373C270.546 225.787 258.291 228.239 246.054 230.728C234.002 233.185 222.002 235.833 209.933 238.169C198.958 240.288 187.869 241.903 176.938 244.091C169.071 245.662 161.352 247.92 153.493 249.691C142.779 252.123 131.994 254.276 121.306 256.751C116.88 257.764 112.528 259.079 108.281 260.684C102.863 262.733 98.7298 261.214 96.889 255.613C96.0207 252.861 94.9614 249.535 95.8384 247.104C96.5678 245.107 99.7804 243.379 102.246 242.814C115.531 239.749 128.955 237.179 142.292 234.236C150.793 232.36 159.198 230.085 167.69 228.105C177.302 225.857 186.975 223.764 196.605 221.541C211.869 217.946 227.082 214.117 242.399 210.618C250.448 208.786 258.653 207.561 266.711 205.868C271.487 204.87 276.175 203.48 280.925 202.317C284.832 201.353 283.287 193.938 278.963 194.554C266.754 196.36 254.59 198.392 242.425 200.398C234.61 201.683 226.795 202.925 219.041 204.401C213.458 205.46 207.979 206.954 202.413 208.091C192.975 210.027 183.502 211.764 174.072 213.718C159.867 216.664 145.684 219.671 131.525 222.739C120.238 225.188 108.993 227.949 97.6098 230.024C95.5432 230.398 91.8617 228.383 90.6634 226.456C89.2915 224.25 86.9731 220.603 90.6199 218.172C94.2668 215.741 97.8703 212.867 101.995 211.582C113.092 208.108 124.405 205.269 135.737 202.465C148.119 199.399 160.587 196.586 173.074 193.782C185.56 190.977 198.115 188.372 210.662 185.698C219.927 183.727 229.183 181.703 238.491 179.863C243.979 178.777 249.536 178.005 255.067 177.11C261.38 176.086 267.727 175.243 273.979 173.967C275.889 173.576 277.539 172.005 279.379 170.937C279.162 167.029 273.553 163.938 268.804 164.754C261.466 166.005 254.043 166.786 246.671 167.889C243.736 168.332 240.879 169.252 237.944 169.73C234.836 170.233 231.641 170.303 228.549 170.867C218.824 172.673 209.134 174.627 199.435 176.502C189.363 178.456 179.265 180.227 169.244 182.372C158.755 184.612 148.353 187.165 137.934 189.622C125.129 192.65 112.339 195.709 99.5635 198.8C96.0903 199.669 92.7039 201.041 89.1439 201.475C85.4276 201.935 80.6952 195.492 80.5476 191.837C80.2784 185.107 85.4621 184.135 89.847 182.702C98.2782 179.95 106.857 177.553 115.497 175.365C132.932 170.937 150.394 166.491 167.994 162.549C186.28 158.45 204.671 154.734 223.122 151.261C231.892 149.62 240.862 149.047 249.71 147.788C255.154 147.006 260.52 145.773 265.947 144.836C267.736 144.667 269.533 144.598 271.33 144.627C271.382 143.438 271.999 141.441 271.409 139.895C270.653 137.933 268.804 137.933 266.52 138.306C261.258 139.174 255.84 139.079 250.561 139.843C242.017 141.084 233.516 142.656 225.024 144.184C215.542 145.886 206.075 147.643 196.622 149.455C185.655 151.556 174.689 153.64 163.765 155.88C152.842 158.12 141.858 160.474 130.978 163C126.828 163.973 122.912 165.796 118.822 166.864C110.209 169.113 101.561 171.206 92.8689 173.168C89.8472 173.837 86.6519 173.819 83.526 174.036C82.9008 174.036 81.9108 174.036 81.659 173.689C79.5317 170.581 76.536 167.611 75.7459 164.138C74.8776 160.196 78.9499 155.455 82.6923 154.439C96.2204 150.853 109.766 147.284 123.363 143.88C134.981 140.98 146.625 138.124 158.347 135.588C170.998 132.844 183.736 130.456 196.466 128.008C204.185 126.523 212.051 125.637 219.666 123.736C229.817 121.209 240.236 121.6 250.5 120.384C255.076 119.837 259.626 119.056 264.176 118.292C264.853 118.17 265.912 117.554 265.912 117.076C265.99 116.277 265.617 114.966 265.044 114.662C263.446 113.837 261.64 112.926 259.921 112.926C254.315 112.755 248.704 112.929 243.119 113.446C229.591 114.992 216.124 116.92 202.631 118.656C194.521 119.733 186.367 120.636 178.318 121.991C170.052 123.371 161.82 125.082 153.667 126.888C143.247 129.197 132.828 131.611 122.408 134.208C108.672 137.681 95.0309 141.414 81.3118 144.844C78.8911 145.525 76.3377 145.585 73.8878 145.018C68.5478 143.49 66.8112 137.837 69.5463 132.436C71.8039 127.973 76.0673 126.089 80.209 124.621C88.5213 121.641 96.9844 119.099 105.563 117.006C113.838 114.983 122.339 113.794 130.744 112.153C139.149 110.512 147.433 108.766 155.786 107.091C163.601 105.519 171.493 103.886 179.386 102.471C189.241 100.735 199.105 98.998 209.021 97.4871C215.855 96.4625 222.758 95.8894 229.635 95.0906C239.342 93.9618 249.047 92.8041 258.749 91.6174C259.313 91.5393 259.808 90.9141 260.312 90.5581C258.419 85.8953 255.432 83.551 250.5 83.8549C238.344 84.5929 226.187 85.4178 214.031 86.6681C203.421 87.7622 192.845 89.2296 182.347 91.0096C171.059 92.9112 159.849 95.3512 148.605 97.548C145.245 98.1992 141.745 98.4162 138.507 99.4321C132.567 101.299 126.889 103.982 120.906 105.649C105.416 109.991 89.9252 114.263 74.2524 117.805C70.0585 118.752 64.788 120.41 60.5941 115.956C59.8129 115.256 59.2489 114.346 58.9688 113.335C58.6887 112.324 58.7045 111.254 59.0139 110.251C60.6724 103.548 65.3437 100.3 71.2221 97.6261C85.002 91.3656 99.876 88.4481 114.516 84.9923C124.518 82.6392 134.538 80.3121 144.637 78.3671C152.069 76.9345 159.658 76.2311 167.152 75.0155C174.098 73.8867 180.932 72.4107 187.852 71.2645C191.803 70.6133 195.832 70.3962 199.809 69.8579C209.69 68.5033 219.528 66.8449 229.444 65.7508C235.565 65.0736 241.782 65.2038 247.947 64.978L252.566 64.8304C251.542 62.6596 250.752 60.9839 249.962 59.3254C247.652 54.5498 245.715 49.7741 240.506 46.8653C237.675 45.2677 235.808 41.3082 234.254 38.0434C229.044 27.2417 209.864 14.0089 209.23 14.087C212.651 17.4734 215.803 20.8511 219.215 23.9335C225.041 29.2041 227.898 36.3328 231.371 43.0361C231.771 43.8176 231.232 45.5542 230.546 46.2748C230.086 46.7698 228.454 46.5614 227.594 46.1359C223.114 43.8783 221.803 39.1895 219.849 35.0825C216.714 28.5528 212.034 23.456 206.824 18.6369C204.306 16.3012 202.17 13.5139 199.609 11.2303C198.306 10.0755 194.477 9.38947 194.295 9.68469C198.133 13.7136 202.023 17.6818 205.782 21.7628C210.822 27.0983 214.863 33.2948 217.713 40.0578C219.163 43.6004 217.288 46.1967 213.554 46.2922C209.516 46.3964 206.798 44.7814 205.305 40.7351C199.739 25.6875 189.042 15.5545 174.915 8.66016C174.223 8.21932 173.467 7.88832 172.674 7.67898C171.016 7.47059 169.331 7.50526 166.822 7.40106C170.929 10.223 174.176 12.9496 177.814 14.8424C186.706 19.4792 191.898 27.6498 197.256 35.5079C198.628 37.5224 198.775 41.1693 198.063 43.6005C197.464 45.615 194.842 48.2632 193.001 48.324C189.467 48.4456 185.568 47.3081 183.45 43.6873C178.162 34.7265 172.292 26.165 163.887 19.8785C158.751 15.9003 153.223 12.4557 147.389 9.59788C144.68 8.33017 140.894 9.59789 136.648 9.71077C143.76 14.799 150.02 18.741 155.673 23.4472C162.619 29.204 168.446 35.89 169.609 45.4413C170.017 48.7843 169.748 51.9969 166.423 53.3254C162.368 54.9405 157.887 55.8522 154.666 52.023C151.974 48.819 150.185 44.8161 147.441 41.6555C142.918 36.4457 137.56 31.9566 133.245 26.5819C128.269 20.3735 121.288 18.0551 114.602 15.676C111.077 14.4256 106.605 16.2317 101.691 16.7527C108.021 20.5645 113.586 23.2562 118.406 26.9726C125.994 32.8249 132.88 39.5021 136.041 49.0274C137.256 52.6742 135.971 58.3529 132.871 59.8898C129.355 61.6264 125.604 60.02 122.895 57.6582C119.1 54.3413 116.061 50.1214 112.475 46.5267C108.889 42.9319 105.138 39.1461 100.961 36.2026C96.3506 32.9552 91.41 29.7337 86.1568 28.0145C79.2104 25.7482 71.552 22.3358 64.6664 25.4096C57.9718 28.3792 40.3541 38.1302 27.8853 53.6467C20.5135 61.9042 16.5366 72.2543 12.0822 82.3006C8.22696 90.9836 7.56706 100.318 6.55115 109.539C5.99544 114.549 6.92461 124.639 6.96802 130.457C10.3804 127.791 12.8203 124.839 15.9982 123.649C20.5568 121.912 25.072 118.552 30.412 120.514C32.7998 121.383 36.0908 123.762 36.386 125.724C36.7246 128.008 34.8317 131.273 32.9128 132.905C27.8767 137.09 22.0677 140.364 17.0055 144.506C14.7132 146.39 13.1416 149.333 11.8479 152.094C11.2227 153.406 11.9954 155.411 12.1864 157.712C17.0055 154.517 20.6003 151.634 24.6727 149.602C28.7597 147.688 33.0463 146.232 37.454 145.261C39.9113 144.671 42.9416 144.393 44.4004 147.866C46.137 151.782 45.4771 155.533 42.7159 157.817C35.9432 163.426 29.4568 169.391 22.3455 174.505C18.1689 177.518 21.4773 179.984 21.8246 183.188C27.2341 179.568 32.2441 176.146 37.3149 172.873C39.1274 171.668 41.0928 170.71 43.1588 170.025C50.0183 167.889 56.8257 174.54 55.4017 181.851C54.3944 187.061 51.6073 190.473 46.3714 192.132C39.24 194.25 32.8759 198.391 28.0502 204.053C26.6523 205.729 26.8087 208.664 26.2269 211.13C33.3123 207.657 39.6509 204.323 46.1978 201.475C49.053 200.3 52.106 199.681 55.1933 199.651C59.8908 199.547 62.9125 204.366 60.2469 207.935C57.6413 211.163 54.5958 214.01 51.1992 216.392C46.1457 220.178 40.7015 223.451 35.5699 227.098C32.5308 229.26 32.1487 234.123 34.8404 237.44C36.7035 235.609 38.6784 233.895 40.7536 232.308C44.9909 229.425 49.1672 226.308 53.8387 224.224C58.3278 222.218 66.9501 226.013 68.2612 230.12C68.7735 231.7 68.6346 234.409 67.6013 235.33C63.0601 239.324 58.1542 242.945 53.2483 246.505C50.244 248.684 46.7014 250.23 43.9749 252.652C42.794 253.712 43.0371 256.273 42.6377 258.157C44.2875 258.288 46.1108 258.913 47.5522 258.452C52.5846 256.866 57.5344 255.029 62.3828 252.947C69.1382 249.995 73.3755 251.02 76.2756 257.037C76.805 258.331 76.805 259.781 76.2756 261.075C73.9312 266.389 68.704 268.455 63.8589 270.869C62.1053 271.866 60.2282 272.628 58.2758 273.135C53.3612 274.134 52.8662 277.581 52.9878 282.504C54.7244 281.714 55.8706 281.037 57.1383 280.594C61.8271 278.927 66.5246 277.277 71.2742 275.74C75.4681 274.386 80.3394 275.358 81.5897 277.781C83.7257 281.923 82.0151 288.739 78.9153 290.284C73.089 293.176 67.1846 295.928 61.3844 298.837C56.6695 301.199 55.749 304.915 58.8749 309.43L78.3595 301.208C80.591 300.261 86.5649 302.258 88.5794 304.603C90.9759 307.407 90.7067 311.21 88.1278 314.97C84.3594 320.466 78.7763 323.314 72.5767 325.572C70.0239 326.492 67.8792 328.368 65.6303 329.775C73.7141 360.434 94.9006 375.3 126.116 377.601C123.737 374.77 120.463 371.896 118.518 368.371C114.819 361.624 111.233 354.669 108.741 347.444C104.487 335.089 101.022 322.437 97.3666 309.795C95.1178 301.98 92.0178 294.166 91.3666 286.281C91.1097 283.307 90.6982 280.348 90.1336 277.416C91.8702 281.758 105.233 317.714 108.793 329.445C112.597 341.974 118.779 353.375 126.394 364.029C130.272 369.476 134.461 374.694 138.941 379.658C140.165 381.013 142.996 381.048 145.418 381.117C133.896 369.647 126.047 356.345 120.429 341.679C121.193 343.164 121.913 344.675 122.73 346.125C123.65 347.757 124.692 349.329 125.63 350.944C131.291 360.66 137.482 369.951 146.33 377.305C148.735 379.311 151.054 379.537 154.292 378.729C166.119 375.794 170.061 365.939 174.732 357.143C179.126 348.86 182.173 339.777 185.238 330.869C186.715 326.527 186.628 321.734 187.661 317.228C188.113 315.291 189.137 312.982 190.7 311.896C193.19 310.166 196.165 309.272 199.197 309.343C202.228 309.415 205.158 310.449 207.562 312.296C208.38 312.895 208.939 313.783 209.125 314.779C209.308 321.647 211.062 328.533 207.684 335.219C205.948 338.744 205.583 342.938 204.115 346.637C199.921 357.222 194.894 367.302 186.029 375.039C185.488 375.551 184.986 376.103 184.526 376.689C185.889 376.67 187.22 376.277 188.373 375.551C189.771 374.414 191.074 373.19 192.48 372.078C199.427 366.46 206.625 360.851 209.421 352.107C211.279 346.264 212.251 340.107 213.276 334.021C214.509 326.71 214.231 318.93 219.397 312.808C221.588 310.073 224.301 307.8 227.377 306.122C231.953 303.821 238.925 308.779 238.665 312.878C238.292 319.52 237.527 326.11 236.928 332.701C235.991 342.452 229.557 349.485 224.147 356.935C220.778 361.58 216.957 365.905 212.607 371.271C215.473 370.151 218.034 369.699 219.866 368.344C228.662 361.832 235.409 353.583 239.299 343.52C241.114 338.822 241.721 333.63 242.529 328.585C243.536 322.29 243.397 315.673 245.255 309.639C246.497 305.653 247.791 300.443 253.218 298.967C259.878 297.144 266.424 302.145 266.147 308.032C265.843 314.666 267.458 321.691 264.002 328.003C260.98 333.517 258.184 339.161 254.781 344.423C251.551 349.424 247.652 354.026 244.569 358.099C251.611 354.2 259.999 350.058 263.151 340.733C266.103 332.05 268.665 323.132 271.035 314.189C272.147 310.012 272.529 305.645 273.197 301.338C273.122 300.64 273.189 299.934 273.393 299.263C273.598 298.591 273.935 297.968 274.387 297.43L274.491 296.059C274.725 293.132 278.077 292.481 280.005 293.758C284.459 294.339 287.186 297.847 287.55 302.944C287.55 303.083 287.55 303.205 287.55 303.335C287.715 304.581 287.741 305.842 287.628 307.095C287.385 316.741 283.938 325.485 279.666 334.012C278.65 336.044 276.957 337.754 275.446 339.795C279.223 338.553 282.948 334.107 286.239 330C293.42 321.048 293.342 310.307 295.078 299.922C295.486 297.474 295.625 294.99 295.886 292.516C299.359 292.082 299.706 292.872 300.852 302.623C301.174 302.666 303.614 294.035 303.11 289.833C302.607 285.63 300.627 281.818 298.751 277.911ZM55.1498 35.2214C51.3901 42.4891 50.9125 49.2791 49.2888 55.2704C48.6289 48.5932 48.49 39.8581 55.1498 35.2214ZM42.5943 51.832C41.3844 63.7103 40.1834 75.5771 38.9909 87.4323C38.9388 75.3629 38.1486 63.1373 42.5943 51.8667V51.832ZM58.9096 177.214C55.2975 166.708 51.4856 156.21 48.2121 145.521C45.3467 136.161 43.2022 126.575 40.5452 117.085C38.3562 109.498 37.7474 101.542 38.7564 93.71C46.1109 122.459 53.4132 151.018 60.7764 179.758C59.9081 178.638 59.1528 177.996 58.9096 177.214ZM64.2237 170.207C61.2281 160.005 58.5537 149.681 55.7057 139.357C52.8576 129.033 49.1587 118.517 47.2137 107.898C45.5726 98.8764 45.7462 89.5508 45.4771 80.3208C45.3381 75.5539 47.04 65.9766 47.4481 65.9592C47.8082 67.6596 48.0174 69.3884 48.0733 71.1256C47.4988 83.7437 48.7386 96.3791 51.7549 108.645C56.0964 126.558 60.3162 144.375 64.7011 162.045C66.9153 170.971 67.775 179.811 70.0413 188.667C69.0688 186.627 65.257 173.828 64.1977 170.207H64.2237Z" fill="#00CAB1"/>
</svg>
