<svg width="384" height="422" viewBox="0 0 384 422" fill="none" xmlns="http://www.w3.org/2000/svg">
<path d="M144.678 294.906C142.573 295.768 140.307 296.163 138.035 296.065C137.652 296.065 137.68 295.452 138.035 295.404C141.407 295.051 144.614 293.769 147.3 291.7C151.598 284.703 151.78 275.695 150.057 267.616C146.812 257.7 140.179 248.472 134.56 239.8C122.116 220.656 107.385 203.656 92.1175 186.752C92.041 186.666 92.175 186.532 92.2611 186.608C110.927 203.321 126.529 224.054 139.633 245.304C141.816 248.836 144.132 252.454 146.219 256.187C142.285 247.343 136.809 239.408 131.727 231.137C131.009 229.97 132.387 232.095 131.353 230.487C124.136 219 115.301 208.634 106.361 198.516C95.8315 186.551 84.7471 175.036 73.4712 163.75C65.871 156.15 58.1847 148.642 50.4122 141.227C42.0175 133.225 32.8091 125.749 25.4482 116.761C20.5112 110.773 16.2064 104.29 12.6026 97.416C6.10316 88.3321 1.53728 77.9368 0.5035 67.0821C-1.1046 50.0056 6.44773 30.919 22.8064 23.6155C23.0935 23.4911 23.352 23.9506 23.0744 24.1037C7.51982 32.9387 0.225921 51.4127 2.66679 68.7955C3.31687 73.345 4.55235 77.7913 6.34248 82.024C4.11881 74.7071 3.28124 67.0393 3.87288 59.4149C5.41398 41.8885 17.9151 24.4099 36.6475 23.5293C55.1407 22.6678 71.2505 36.576 75.2325 54.2939C79.0613 71.2364 70.9346 89.4807 55.3896 97.1096C55.211 97.2564 55.0016 97.3611 54.777 97.416C54.2314 97.6648 53.6762 97.9137 53.1115 98.1339C52.2596 99.3208 51.9628 100.144 52.1543 100.623C61.8507 97.751 70.0731 92.0748 73.5095 81.7561C73.5765 81.5551 73.9115 81.6604 73.8637 81.8614C71.7674 90.7155 65.2488 97.0905 57.3327 100.623L57.8688 100.508C59.8248 100.06 61.6983 99.3073 63.4206 98.2775C66.9177 96.0169 69.8935 93.0378 72.1503 89.5382C77.099 82.3592 79.9132 73.4379 80.88 64.8135C80.8098 61.5782 80.781 58.3428 80.7938 55.1075C78.5731 37.8778 65.8232 21.4331 48.7466 17.4894C31.919 13.6606 13.7703 16.5322 3.66226 31.8475C-9.66202 51.9488 -4.55051 76.1469 4.83966 96.564C15.6656 120.111 37.3271 137.513 55.715 155.135C78.9368 177.4 102.254 200.028 122.068 225.452C130.339 236.057 138.341 247.467 143.491 259.911C145.979 266.018 147.836 272.852 147.693 279.486C147.53 286.933 141.892 294.437 134.388 293.547C133.909 295.347 134.665 296.677 137.192 297.271C139.959 297.931 142.629 296.715 144.678 294.906Z" fill="#00BFFF"/>
<path d="M174.41 271.59C182.556 273.218 190.616 275.304 198.895 276.376C207.353 277.45 215.885 277.828 224.405 277.506C225.515 276.855 226.635 276.233 227.765 275.591C217.075 276.073 206.369 275.152 195.919 272.854C195.893 272.854 195.869 272.844 195.851 272.826C195.833 272.808 195.823 272.783 195.823 272.758C195.823 272.733 195.833 272.708 195.851 272.69C195.869 272.672 195.893 272.662 195.919 272.662C202.169 273.246 208.362 274.022 214.651 274.318C219.762 274.558 224.855 274.395 229.966 274.395C231.019 273.83 232.072 273.275 233.106 272.71C225.844 273.13 218.557 272.751 211.377 271.581C211.215 271.581 211.205 271.284 211.377 271.284C219.705 271.389 227.822 271.523 236.083 271.016C241.585 267.579 246.734 263.606 251.456 259.156C247.474 260.305 243.479 261.422 239.471 262.506C239.012 262.631 238.715 261.951 239.184 261.808C243.894 260.295 248.613 258.812 253.36 257.414C255.82 255.136 258.242 252.839 260.654 250.608C251.863 253.687 242.844 256.072 233.68 257.74C233.431 257.74 233.326 257.385 233.565 257.309C241.003 255.136 248.459 253.126 255.801 250.608C258.529 249.651 261.219 248.694 263.899 247.593C267.537 244.224 271.139 240.826 274.706 237.399C263.083 242.264 251.072 246.148 238.801 249.01C238.485 249.086 238.351 248.541 238.658 248.455C251.979 244.613 265.04 239.919 277.759 234.403C280.842 231.378 283.886 228.315 286.891 225.214C287.389 224.697 287.848 224.161 288.375 223.644C276.227 228.724 263.729 232.921 250.977 236.202C250.709 236.269 250.527 235.887 250.805 235.791C260.137 232.546 269.489 229.416 278.688 225.798C283.015 224.094 287.303 222.227 291.495 220.342C295.688 215.843 299.782 211.255 303.776 206.577C291.325 212.371 278.46 217.231 265.287 221.117C265.038 221.194 264.885 220.83 265.134 220.734C279.109 215.68 292.596 209.832 306.102 203.801C309.51 199.723 312.819 195.576 316.029 191.357C305.462 195.844 294.651 199.73 283.646 202.997C283.436 203.064 283.311 202.758 283.512 202.681C295.228 198.489 306.638 193.798 317.972 188.83C320.907 184.9 323.747 180.898 326.491 176.827C314.642 182.727 302.236 187.434 289.457 190.879C289.112 190.975 288.901 190.467 289.246 190.352C298.239 187.429 307.073 184.039 315.713 180.196C320.106 178.215 324.327 176.004 328.577 173.735C331.513 169.268 334.321 164.718 337.001 160.086C326.151 165.452 314.959 170.098 303.499 173.994C303.192 174.099 303.001 173.63 303.307 173.515C315.406 168.729 326.969 163.168 338.552 157.453C341.519 152.189 344.323 146.841 346.965 141.411C337.729 147.196 327.872 151.926 317.579 155.51C317.536 155.527 317.488 155.525 317.446 155.507C317.404 155.488 317.371 155.453 317.354 155.41C317.338 155.366 317.339 155.318 317.358 155.276C317.377 155.234 317.412 155.201 317.455 155.185C323.456 152.313 329.496 149.556 335.364 146.398C339.767 144.024 343.979 141.353 348.229 138.74C350.647 133.635 352.929 128.437 355.073 123.147C346.942 128.107 338.303 132.182 329.305 135.304C329.257 135.323 329.203 135.322 329.155 135.301C329.108 135.28 329.07 135.242 329.051 135.193C329.032 135.145 329.033 135.091 329.054 135.044C329.074 134.996 329.113 134.959 329.161 134.94C338.925 130.9 347.626 125.684 356.308 120.094C357.909 116.029 359.425 111.925 360.854 107.784C354.736 111.981 348.025 115.243 340.945 117.461C340.879 117.488 340.805 117.487 340.739 117.46C340.674 117.432 340.622 117.379 340.595 117.313C340.569 117.247 340.569 117.173 340.597 117.108C340.625 117.042 340.678 116.99 340.744 116.963C346.058 114.541 351.246 111.851 356.289 108.904C358.203 107.727 359.983 106.453 361.773 105.152C363.027 101.447 364.195 97.7142 365.315 93.9715C360.81 96.8695 355.994 99.2519 350.957 101.074C350.905 101.094 350.847 101.093 350.796 101.071C350.745 101.048 350.704 101.006 350.684 100.954C350.664 100.902 350.665 100.844 350.687 100.793C350.71 100.742 350.752 100.702 350.804 100.682C355.982 98.0014 360.979 95.2159 365.851 92.1432C366.1 91.2913 366.368 90.4585 366.607 89.6066C368.924 81.4704 370.436 73.047 372.551 64.815C354.958 55.511 335.862 49.3466 316.66 44.3404C280.459 34.9119 243.157 28.4221 206.094 23.55C187.313 21.0804 168.437 19.3287 149.513 18.5151C145.57 18.3428 141.635 18.2662 137.701 18.2184C137.567 33.7634 136.629 49.2317 137.175 64.8054C137.978 91.1965 141.549 117.43 147.829 143.076C151.072 156.055 155.119 168.82 159.947 181.297C164.733 193.588 171.117 205.074 176.114 217.212C176.177 217.376 176.204 217.552 176.196 217.729C176.188 217.905 176.143 218.077 176.065 218.235C175.987 218.393 175.877 218.534 175.742 218.648C175.607 218.761 175.45 218.846 175.281 218.896C175.033 219.191 174.685 219.384 174.304 219.438C173.923 219.493 173.535 219.406 173.214 219.193C163.125 212.627 152.241 206.941 143.827 198.134C136.17 190.132 130.714 180.216 126.435 170.06C119.932 154.533 114.928 138.42 111.493 121.941C104.467 88.3144 102.122 52.7734 103.491 18.4959C99.9173 18.5533 96.3373 18.5916 92.751 18.6108C92.4926 29.6856 91.028 40.8466 90.8366 51.9119C90.6131 63.9635 91.022 76.0185 92.0618 88.0272C95.7471 130.24 109.1 170.27 129.393 207.352C135.193 217.939 141.511 228.267 148.068 238.395C154.261 247.967 160.339 257.108 168.38 265.196C170.476 267.302 172.524 269.417 174.41 271.59ZM168.026 258.027C178.986 259.616 189.658 263.033 200.647 264.651C212.06 266.431 223.644 266.842 235.154 265.876C236.896 265.723 237.231 268.422 235.489 268.575C224.026 269.527 212.489 269.106 201.126 267.321C190.089 265.665 177.99 263.492 167.882 258.534C167.826 258.506 167.781 258.46 167.755 258.403C167.73 258.345 167.725 258.281 167.742 258.221C167.759 258.16 167.797 258.108 167.849 258.072C167.901 258.037 167.963 258.021 168.026 258.027Z" fill="#00BFFF"/>
<path d="M173.604 319.135C173.662 324.954 172.781 330.899 172.207 336.651C171.709 341.638 171.814 347.841 170.426 352.981C170.577 353.066 170.721 353.162 170.857 353.269C180.592 354.149 190.288 355.748 200.013 356.896C200.426 356.601 200.911 356.423 201.416 356.381C201.922 356.339 202.429 356.434 202.885 356.657H202.981C202.981 356.198 203.048 355.7 203.105 355.269C200.53 355.126 197.946 354.886 195.4 354.58C195.199 354.58 195.199 354.235 195.4 354.226C198.003 354.226 200.617 354.226 203.22 354.379C203.306 353.718 203.412 353.048 203.536 352.378C200.621 352.245 197.731 351.779 194.921 350.99C194.624 350.914 194.672 350.454 194.988 350.512C197.867 351.002 200.772 351.322 203.689 351.469C203.928 350.253 204.206 349.038 204.484 347.841C201.028 347.583 197.573 347.2 194.127 346.884C193.782 346.884 193.868 346.338 194.203 346.357C197.687 346.578 201.191 346.74 204.675 347.018C204.953 345.841 205.23 344.692 205.479 343.563C201.65 343.457 197.64 343.026 193.811 342.548C193.562 342.548 193.562 342.098 193.811 342.088C197.771 341.967 201.734 342.172 205.661 342.701C205.747 342.328 205.824 341.964 205.891 341.6L206.408 338.853C202.09 339.368 197.712 338.997 193.543 337.762C193.112 337.647 193.189 336.967 193.638 337.063C197.802 337.892 202.056 338.178 206.293 337.915C206.386 337.913 206.479 337.936 206.561 337.982C206.752 336.967 206.934 335.943 207.125 334.919C202.339 335.589 197.218 334.689 192.72 333.454C192.423 333.378 192.471 332.909 192.787 332.976C197.707 334.067 202.359 333.933 207.327 333.866C207.882 330.994 208.494 328.123 209.289 325.404C203.689 326.448 197.171 325.672 191.705 324.868C185.387 323.94 179.108 322.427 173.604 319.135Z" fill="#00BFFF"/>
<path d="M101.189 9.498C101.12 10.6423 101.22 11.7905 101.485 12.9056C101.858 14.1239 102.099 15.3786 102.203 16.6483C112.216 15.9208 122.305 15.7964 132.422 15.9687C131.023 13.3283 130.5 10.3112 130.929 7.35387C122.166 7.12547 113.396 7.44517 104.673 8.31107C103.582 8.42594 102.491 8.55987 101.399 8.71303C101.279 8.95859 101.208 9.22521 101.189 9.498Z" fill="#00BFFF"/>
<path d="M98.4823 13.4254C97.7261 13.5499 96.9603 13.636 96.2328 13.77C95.0746 13.9902 93.9164 14.2295 92.7773 14.5262C92.7773 15.4834 92.7773 16.5268 92.7773 17.5319C94.9502 17.283 97.1422 17.0724 99.3342 16.8905C98.8506 15.7939 98.5623 14.6212 98.4823 13.4254Z" fill="#00BFFF"/>
<path d="M133.469 10.2163C135.885 10.152 138.302 10.2478 140.705 10.5034C140.781 10.5165 140.849 10.5559 140.899 10.6146C140.948 10.6732 140.975 10.7475 140.975 10.8242C140.975 10.9009 140.948 10.975 140.899 11.0337C140.849 11.0924 140.781 11.1317 140.705 11.1448C138.399 11.3699 136.082 11.4498 133.766 11.3841C134.254 13.2028 134.895 15.031 134.819 16.0169C141.576 16.1701 148.306 16.4477 154.968 16.7636C194.271 18.678 233.181 24.5648 271.747 32.0214C306.206 38.7218 341.824 45.9105 373.134 62.3457C373.316 61.6756 373.497 60.996 373.689 60.326C363.409 53.8936 352.525 49.1649 341.058 44.9532C341.016 44.9341 340.983 44.9006 340.964 44.8589C340.944 44.8172 340.941 44.7701 340.954 44.7261C340.967 44.682 340.995 44.644 341.033 44.6189C341.071 44.5939 341.118 44.5834 341.163 44.5895C352.822 47.3654 363.916 52.563 374.1 58.9476C374.196 58.6317 374.301 58.3158 374.397 57.9903C374.139 57.6458 373.871 57.3012 373.584 56.9758C373.88 57.3587 372.062 55.5974 371.526 55.1762C366.548 51.2804 359.972 48.4183 353.406 45.8147C328.997 36.1278 303.038 30.4325 277.327 25.4741C238.972 17.9579 200.238 12.5257 161.295 9.20166C152.048 8.44547 142.668 7.74677 133.287 7.46918C133.15 8.38733 133.212 9.32433 133.469 10.2163Z" fill="#00BFFF"/>
<path d="M108.494 85.7997C110.753 106.514 114.333 127.275 121.052 147.061C123.924 155.417 126.671 163.869 130.308 171.948C134.826 181.951 140.646 191.628 148.868 199.027C155.674 205.144 163.638 209.71 171.382 214.525C164.519 203.096 159.599 189.838 155.109 177.519C146.033 152.604 139.891 126.715 136.808 100.378C135.246 86.8466 134.415 73.241 134.319 59.6202C134.185 45.913 134.252 31.8612 136.118 18.2211C125.829 18.1349 115.558 18.355 105.277 18.5273C105.794 40.9929 106.053 63.4203 108.494 85.7997Z" fill="#00BFFF"/>
<path d="M92.5342 10.549C92.6657 10.958 92.7398 11.3832 92.7543 11.8125C92.7543 12.2719 92.7543 12.7698 92.7543 13.1909C93.7116 13.0091 94.6688 12.8751 95.626 12.7315C96.5832 12.5879 97.4638 12.4156 98.4114 12.339C98.4114 11.8604 98.4114 11.3818 98.4114 11.0372C98.4117 10.3933 98.4822 9.75136 98.622 9.1228L97.9328 9.22808C97.1383 9.36209 96.3439 9.51521 95.5589 9.67794C95.0229 9.7928 94.238 9.99379 94.171 10.0129C93.5775 10.1852 93.0415 10.3672 92.5342 10.549Z" fill="#00BFFF"/>
<path d="M169.45 358.782C167.921 359.096 166.368 359.272 164.808 359.308C161.41 359.672 158.021 360.074 154.642 360.553C151.263 361.031 147.655 361.433 144.256 362.266C141.535 362.931 138.96 364.089 136.656 365.683C139.528 366.038 142.399 366.401 145.271 366.794C157.81 368.497 170.35 370.182 182.87 372.02L220.469 377.534L232.195 379.256C231.564 378.482 230.876 377.755 230.137 377.084C222.447 376.736 214.78 376.002 207.164 374.882C198.137 373.714 188.872 372.508 180.113 369.991C179.893 369.924 180.008 369.589 180.219 369.608C189.293 370.68 198.271 372.546 207.346 373.647C214.209 374.48 221.11 374.853 227.993 375.456L227.696 375.255C226.079 374.239 224.397 373.331 222.661 372.537C222.591 372.59 222.509 372.623 222.422 372.633C213.951 372.987 205.192 371.675 196.884 370.115C196.818 370.105 196.758 370.069 196.719 370.015C196.679 369.961 196.663 369.894 196.673 369.828C196.683 369.762 196.719 369.703 196.773 369.663C196.827 369.624 196.894 369.607 196.96 369.617C204.752 370.632 212.534 370.9 220.345 371.532L218.67 370.824C214.257 368.986 208.992 367.387 204.465 365.013C192.523 364.949 180.681 362.842 169.45 358.782Z" fill="#00BFFF"/>
<path d="M199.407 279.011C191.772 278.154 184.22 276.675 176.826 274.589C180.188 278.816 182.356 283.866 183.106 289.215C184.446 299.744 182.091 310.57 174.165 318.007C174.07 318.101 173.96 318.179 173.84 318.237C179.956 319.424 185.939 321.195 192.122 322.066C197.866 322.86 203.532 322.401 209.228 322.726C207.952 320.44 207.007 317.984 206.423 315.432C203.417 315.241 200.421 314.915 197.416 314.628C196.841 314.571 196.975 313.671 197.55 313.738C200.421 313.987 203.35 314.207 206.241 314.542C206.042 313.529 205.895 312.507 205.801 311.479C203.174 311.726 200.524 311.551 197.952 310.962C197.215 310.819 197.377 309.651 198.124 309.794C200.63 310.227 203.175 310.384 205.715 310.264C205.633 308.95 205.633 307.633 205.715 306.32C203.328 306.045 200.974 305.532 198.689 304.788C198.143 304.616 198.507 303.831 199.043 303.984C201.246 304.632 203.506 305.071 205.791 305.296C205.955 303.638 206.234 301.995 206.624 300.376C203.629 300.304 200.645 299.984 197.703 299.418C197.081 299.294 197.224 298.318 197.847 298.461C200.848 298.989 203.892 299.239 206.94 299.208C207.218 298.251 207.524 297.217 207.897 296.24C203.725 296.336 199.555 295.996 195.454 295.226C195.349 295.205 195.256 295.144 195.194 295.057C195.132 294.969 195.105 294.862 195.12 294.756C195.135 294.649 195.189 294.553 195.273 294.486C195.356 294.418 195.462 294.385 195.568 294.393C199.803 294.958 204.076 295.182 208.347 295.063C208.929 293.58 209.591 292.129 210.328 290.717C206.902 290.797 203.477 290.475 200.125 289.76C200.057 289.75 199.993 289.727 199.935 289.692C199.876 289.657 199.825 289.611 199.785 289.556C199.703 289.446 199.669 289.307 199.689 289.171C199.709 289.036 199.783 288.913 199.893 288.832C200.004 288.75 200.142 288.716 200.278 288.736C203.835 289.252 207.423 289.53 211.018 289.569C213.325 285.875 216.4 282.721 220.035 280.322C213.137 280.345 206.246 279.907 199.407 279.011ZM199.206 318.677C202.01 319.07 204.844 319.367 207.62 319.941C207.718 319.971 207.802 320.036 207.857 320.123C207.912 320.21 207.934 320.314 207.919 320.415C207.904 320.517 207.853 320.61 207.775 320.678C207.697 320.745 207.598 320.783 207.495 320.783C204.671 320.534 201.867 320.017 199.072 319.577C198.966 319.545 198.875 319.477 198.815 319.383C198.756 319.29 198.732 319.178 198.749 319.069C198.765 318.96 198.82 318.86 198.904 318.788C198.988 318.716 199.095 318.677 199.206 318.677Z" fill="#00BFFF"/>
<path d="M181.853 378.824C169.352 376.91 156.861 374.766 144.379 372.698C138.291 371.684 132.213 370.583 126.144 369.463C121.061 368.506 115.758 367.816 110.905 365.998C110.838 377.216 108.924 388.626 107.498 399.72C106.789 405.272 106.074 410.827 105.353 416.385C104.846 420.338 104.769 424.942 104.013 429.183C112.552 430.571 121.08 432.514 129.561 434.141C129.631 434.159 129.692 434.203 129.732 434.263C129.773 434.323 129.79 434.395 129.781 434.467C129.771 434.539 129.736 434.604 129.681 434.652C129.627 434.7 129.557 434.726 129.484 434.725C120.834 433.801 112.25 432.334 103.784 430.331C103.458 431.94 102.954 433.506 102.281 435.003H102.865H102.922C113.652 435.682 124.488 437.673 135.113 439.052C147.633 440.689 160.172 442.23 172.693 443.838C185.213 445.446 197.743 447.092 210.253 448.777C221.558 450.299 233.178 451.304 244.368 453.563C244.344 452.316 244.405 451.069 244.55 449.83C235.935 449.399 227.32 448.337 218.763 447.542C218.179 447.494 218.313 446.585 218.887 446.652C227.502 447.351 236.117 447.791 244.665 448.853C245.23 444.613 246.445 440.239 247.087 436.41C247.955 431.12 248.829 425.833 249.709 420.549C251.385 410.441 252.715 399.969 255.357 390.004C249.24 389.842 242.913 388.282 236.912 387.344L219.404 384.615L181.853 378.824ZM219.05 393.584C219.054 393.635 219.054 393.687 219.05 393.738H219.337C219.481 393.738 219.452 394.006 219.337 393.967H219.136C219.816 396.973 220.093 399.768 222.305 402.209C223.321 403.321 224.565 404.203 225.952 404.793C227.349 405.425 228.459 405.808 229.177 407.244C229.291 407.495 229.338 407.771 229.314 408.046C229.291 408.321 229.198 408.585 229.043 408.814C228.958 411.928 228.638 415.032 228.086 418.098C227.617 421.659 227.971 425.852 226.267 429.039C226.235 429.109 226.196 429.177 226.153 429.24C226.164 429.439 226.135 429.638 226.067 429.826C226 430.013 225.895 430.185 225.76 430.331C224.573 431.595 223.271 431.518 221.644 431.786C220.255 431.975 218.919 432.447 217.72 433.174C214.925 434.888 213.833 437.463 212.321 440.152H212.522C212.675 440.152 212.637 440.42 212.522 440.382L212.244 440.325L212.168 440.459C212.09 440.593 211.981 440.706 211.85 440.788C211.719 440.871 211.57 440.92 211.416 440.933C211.261 440.945 211.106 440.919 210.964 440.859C210.821 440.798 210.696 440.703 210.598 440.583C199.054 441.1 187.137 438.994 175.765 437.29C163.599 435.472 151.481 433.509 139.392 431.48C139.226 431.466 139.065 431.413 138.923 431.326C138.781 431.239 138.661 431.121 138.572 430.98C138.483 430.84 138.428 430.68 138.41 430.514C138.393 430.349 138.415 430.181 138.473 430.025C138.032 428.771 138.377 427.479 138.272 426.196C138.169 424.781 137.719 423.413 136.96 422.214C135.237 419.467 132.854 418.568 130.126 417.16C129.926 417.053 129.777 416.871 129.709 416.655C129.641 416.439 129.66 416.205 129.762 416.002C129.675 415.605 129.675 415.193 129.762 414.796C131.026 407.971 131.38 400.945 132.883 394.197C132.929 393.972 133.051 393.77 133.227 393.623C133.157 393.508 133.115 393.377 133.106 393.243C133.097 393.108 133.121 392.973 133.175 392.85C133.23 392.727 133.314 392.618 133.42 392.535C133.525 392.451 133.65 392.394 133.782 392.369C136.654 391.823 139.248 391.862 141.718 389.976C142.769 389.185 143.581 388.118 144.063 386.894C144.551 385.697 144.589 384.386 145.355 383.342C145.347 383.178 145.375 383.014 145.439 382.863C145.503 382.712 145.6 382.577 145.724 382.468C145.847 382.359 145.993 382.28 146.151 382.236C146.31 382.192 146.476 382.184 146.638 382.213C158.842 383.744 171.065 385.085 183.26 386.645C194.641 388.09 206.741 389.267 217.633 393.048C217.758 392.972 217.899 392.925 218.044 392.911C218.19 392.897 218.337 392.917 218.473 392.969C218.61 393.02 218.733 393.103 218.833 393.21C218.933 393.316 219.007 393.445 219.05 393.584Z" fill="#00BFFF"/>
<path d="M401.28 73.2284C390.064 77.0398 380.74 85.0136 375.235 95.5026C373.761 100.455 372.165 105.365 370.449 110.234C370.305 111.191 370.2 112.148 370.123 113.106C369.501 121.012 370.2 129.206 373.196 136.605C374.475 139.969 376.463 143.018 379.025 145.545C380.266 146.682 381.654 147.648 383.151 148.417C377.139 143.497 372.009 135.437 372.564 128.316C372.571 128.294 372.584 128.275 372.602 128.262C372.62 128.249 372.642 128.242 372.665 128.242C372.687 128.242 372.709 128.249 372.727 128.262C372.745 128.275 372.758 128.294 372.765 128.316C374.679 132.786 375.57 137.151 378.508 141.257C381.066 144.675 384.175 147.645 387.707 150.044C387.707 149.029 387.64 148.015 387.602 147C387.248 146.703 386.893 146.416 386.558 146.11C386.355 145.995 386.181 145.835 386.051 145.641C371.473 132.125 370.621 108.243 383.39 92.9372C395.834 77.9953 420.003 72.8359 435.347 86.5718C444.919 95.1867 448.078 107.716 446.776 119.969C447.444 117.462 447.88 114.898 448.078 112.311C449.035 99.3984 443.713 88.6298 432.581 82.0251C432.188 81.7858 432.428 81.1541 432.877 81.3455C444.364 86.2751 449.868 97.618 449.734 109.698C449.519 117.138 447.676 124.44 444.335 131.091C443.508 133.602 442.501 136.049 441.32 138.414C432.064 156.888 414.212 171.562 395.882 180.397C363.461 196.028 331.251 213.019 300.975 232.545C295.059 236.374 289.211 240.308 283.573 244.53C292.618 238.183 301.98 232.287 311.447 226.745C330.38 215.68 350.118 205.227 370.324 196.689C370.468 196.631 370.602 196.851 370.468 196.938C351.084 207.888 330.811 217.125 311.609 228.42C293.107 239.303 276.068 251.881 259.422 265.349C253.804 270.738 248.702 276.587 245.151 283.67C241.925 290.112 239.618 300.469 242.719 307.6C244.985 309.14 247.416 310.425 249.965 311.429C250.056 311.459 250.131 311.524 250.175 311.608C250.22 311.693 250.23 311.791 250.205 311.883C250.179 311.975 250.119 312.053 250.037 312.102C249.955 312.152 249.858 312.167 249.764 312.147C247.846 311.817 245.995 311.17 244.289 310.232C247.161 313.439 253.708 315.602 253.861 310.969C252.247 310.621 250.725 309.937 249.394 308.96C248.063 307.984 246.953 306.737 246.137 305.303C243.207 300.383 244.538 294.582 246.625 289.633C249.374 283.407 253.153 277.689 257.805 272.719C268.526 260.908 281.735 251.393 295.002 242.673C321.421 225.3 349.696 210.894 377.838 196.574C386.654 192.085 395.824 187.672 404.19 182.675C411.35 178.406 418.768 174.281 425.249 168.949C432.466 162.966 438.726 155.414 444.067 147.747C456.109 130.431 462.599 104.615 448.557 86.3708C438.343 73.238 416.768 67.9734 401.28 73.2284Z" fill="#00BFFF"/>
<path d="M216.852 394.285C205.481 394.812 193.736 392.84 182.546 391.155C171.357 389.471 160.062 387.671 148.968 385.135C149.236 388.236 146.536 391.768 144.182 393.347C142.854 394.215 141.353 394.78 139.783 395.003C138.214 395.227 136.614 395.103 135.098 394.64C137.194 401.053 136.696 408.481 135.308 415.009C136.438 414.243 137.586 413.496 138.725 412.74C139.08 412.52 139.463 413.027 139.118 413.267C137.854 414.157 136.6 415.066 135.289 415.937C135.672 416.091 136.055 416.253 136.428 416.445C137.548 415.689 138.668 414.951 139.778 414.195C140.104 413.985 140.458 414.454 140.142 414.683C139.137 415.392 138.142 416.119 137.137 416.837C137.774 417.226 138.374 417.675 138.926 418.177C140.736 417.096 142.583 416.091 144.421 415.066C144.765 414.865 145.091 415.459 144.756 415.66C143.023 416.713 141.31 417.785 139.558 418.79C139.817 419.077 140.066 419.364 140.286 419.661C140.506 419.958 140.63 420.149 140.793 420.417C142.612 419.249 144.469 418.129 146.297 416.99C146.67 416.751 147.091 417.297 146.709 417.545C144.88 418.742 143.062 419.967 141.214 421.145C141.523 421.72 141.795 422.315 142.028 422.925C144.172 421.556 146.316 420.187 148.374 418.656C148.43 418.628 148.494 418.621 148.554 418.636C148.615 418.651 148.669 418.686 148.706 418.736C148.743 418.786 148.762 418.847 148.759 418.909C148.756 418.972 148.732 419.031 148.69 419.077C146.613 420.666 144.497 422.255 142.286 423.691C142.468 424.274 142.609 424.868 142.707 425.471C143.77 424.811 144.832 424.169 145.876 423.557C146.335 423.26 146.833 423.93 146.383 424.227C145.187 425.012 144.009 425.825 142.813 426.61C142.853 427.252 142.805 427.896 142.669 428.525C145.282 426.802 148.029 425.251 150.662 423.595C151.131 423.298 151.619 423.987 151.179 424.294C148.633 425.959 146.105 427.759 143.521 429.386L147.254 429.654C149.886 428.036 152.528 426.438 155.084 424.677C155.144 424.632 155.219 424.613 155.292 424.624C155.366 424.635 155.432 424.674 155.477 424.734C155.521 424.794 155.54 424.869 155.529 424.942C155.518 425.016 155.479 425.082 155.419 425.127C153.16 426.706 150.853 428.295 148.479 429.75C149.953 429.865 151.418 429.999 152.882 430.133C154.969 428.888 157.075 427.673 159.152 426.428C159.698 426.103 160.291 426.897 159.746 427.223C158.051 428.237 156.367 429.271 154.672 430.295L159.755 430.812C161.753 430.097 163.554 428.92 165.01 427.376C165.384 426.974 166.063 427.51 165.69 427.922C164.538 429.202 163.15 430.249 161.603 431.004C166.542 431.54 171.471 432.133 176.401 432.746C187.591 434.153 199.498 435.417 210.219 439.159C209.846 435.512 211.846 431.597 214.479 429.262C216.402 427.731 218.698 426.74 221.131 426.39C221.246 423.662 222.51 421.02 223.304 418.369C224.098 415.717 224.769 412.932 225.63 410.261C222.672 409.945 219.265 406.988 218.049 405.016C216.23 402 215.445 397.664 216.852 394.285ZM195.842 418.005C184.71 417.689 173.386 414.674 162.388 413.027C162.291 412.98 162.211 412.903 162.161 412.808C162.111 412.712 162.092 412.603 162.108 412.496C162.124 412.389 162.174 412.291 162.25 412.214C162.326 412.137 162.424 412.087 162.531 412.07C173.577 413.401 185.303 413.506 196.119 416.177C196.312 416.261 196.472 416.407 196.574 416.592C196.676 416.776 196.714 416.989 196.682 417.197C196.65 417.406 196.551 417.598 196.399 417.744C196.247 417.89 196.051 417.982 195.842 418.005ZM207.95 413.114C189.764 409.62 171.28 407.37 153.17 403.628C153.095 403.616 153.023 403.59 152.958 403.551C152.894 403.512 152.837 403.461 152.792 403.4C152.747 403.339 152.715 403.27 152.697 403.197C152.678 403.123 152.675 403.047 152.686 402.972C152.698 402.897 152.724 402.825 152.763 402.761C152.802 402.696 152.853 402.639 152.914 402.595C152.975 402.55 153.044 402.517 153.117 402.499C153.191 402.481 153.267 402.477 153.342 402.489C171.663 402.872 190.472 406.423 208.391 410.079C210.324 410.472 209.894 413.487 207.95 413.114Z" fill="#00BFFF"/>
<path d="M73.5583 81.7594C69.5572 93.7915 59.0375 99.5251 47.2544 101.861C46.2301 102.062 46.3928 103.631 47.4553 103.488C59.5352 101.794 70.9834 94.2318 73.9125 81.8838C73.9603 81.6828 73.6253 81.5775 73.5583 81.7786V81.7594Z" fill="#062E3C"/>
<path d="M22.8081 23.6174C6.44947 30.9209 -1.122 50.0075 0.505242 67.084C2.41965 87.1853 16.5001 105.793 32.5046 117.328C32.6899 117.459 32.9185 117.515 33.1435 117.483C33.3685 117.452 33.5729 117.335 33.7148 117.158C33.8567 116.98 33.9255 116.755 33.9069 116.529C33.8883 116.302 33.7839 116.092 33.615 115.94C19.1995 103.286 5.46357 88.6498 2.66853 68.7974C0.227663 51.4146 7.52157 32.9406 23.0761 24.1056C23.3537 23.9525 23.0761 23.493 22.8081 23.6174Z" fill="#062E3C"/>
<path d="M92.1331 186.753C107.401 203.657 122.113 220.667 134.576 239.801C140.491 248.876 147.536 258.687 150.561 269.187C154.093 281.43 150.398 293.386 142.587 303.053C142.224 303.503 142.884 304.011 143.267 303.599C150.322 296.458 153.49 286.034 152.944 276.137C152.313 264.746 145.469 254.743 139.649 245.305C126.545 224.055 110.933 203.322 92.2767 186.609C92.1906 186.533 92.0565 186.667 92.1331 186.753Z" fill="#062E3C"/>
<path d="M138.044 296.069C144.332 296.433 151.646 292.298 153.55 286.047C153.684 285.607 153.1 285.09 152.794 285.588C149.119 291.101 144.801 294.576 138.053 295.409C137.689 295.456 137.661 296.04 138.053 296.069H138.044Z" fill="#062E3C"/>
<path d="M249.975 311.48C247.265 310.448 244.693 309.085 242.318 307.421C240.087 305.58 238.099 303.464 236.402 301.123C236.077 300.701 235.301 301.123 235.56 301.592C238.192 306.799 243.926 311.259 249.736 312.198C249.829 312.218 249.927 312.202 250.009 312.153C250.091 312.104 250.151 312.026 250.176 311.934C250.202 311.842 250.192 311.743 250.147 311.659C250.102 311.575 250.027 311.51 249.937 311.48H249.975Z" fill="#062E3C"/>
<path d="M370.329 196.783C350.122 205.322 330.385 215.774 311.451 226.84C292.116 238.154 273.163 250.971 256.575 266.085C255.952 266.65 256.69 267.693 257.36 267.147C274.666 253.057 292.345 239.896 311.614 228.563C330.882 217.229 351.089 208.031 370.472 197.08C370.606 196.994 370.472 196.774 370.329 196.831V196.783Z" fill="#062E3C"/>
<path d="M372.608 128.392C371.89 137.476 380.553 148.168 388.382 151.776C388.89 152.006 389.34 151.269 388.89 150.944C384.956 148.129 381.357 145.315 378.523 141.305C375.69 137.294 374.761 132.833 372.78 128.363C372.773 128.342 372.76 128.323 372.742 128.31C372.724 128.296 372.702 128.289 372.68 128.289C372.657 128.289 372.635 128.296 372.617 128.31C372.599 128.323 372.586 128.342 372.579 128.363L372.608 128.392Z" fill="#062E3C"/>
<path d="M239.492 262.517C246.652 260.603 253.85 258.564 260.886 256.324C261.518 256.123 261.125 255.204 260.503 255.367C253.362 257.281 246.26 259.54 239.205 261.809C238.736 261.952 239.033 262.632 239.492 262.507V262.517Z" fill="#062E3C"/>
<path d="M233.695 257.73C248.493 255.002 264.584 250.254 277.851 243.075C277.932 243.027 277.993 242.951 278.023 242.861C278.053 242.772 278.049 242.675 278.013 242.587C277.977 242.5 277.911 242.429 277.826 242.387C277.742 242.344 277.645 242.334 277.554 242.357C270.231 244.884 263.196 248.1 255.816 250.618C248.436 253.135 241.017 255.126 233.58 257.318C233.341 257.395 233.446 257.787 233.695 257.749V257.73Z" fill="#062E3C"/>
<path d="M238.824 249.047C255.03 245.152 271.369 239.791 286.129 232.028C286.713 231.712 286.369 230.765 285.727 231.071C270.288 237.771 254.934 244.003 238.681 248.521C238.374 248.607 238.508 249.153 238.824 249.076V249.047Z" fill="#062E3C"/>
<path d="M250.987 236.24C269.729 231.368 289.275 224.371 306.304 215.067C306.897 214.741 306.562 213.784 305.892 214.11C296.77 217.938 287.906 222.255 278.698 225.883C269.489 229.511 260.147 232.584 250.814 235.876C250.537 235.972 250.719 236.355 250.987 236.288V236.24Z" fill="#062E3C"/>
<path d="M265.314 221.158C282.496 215.979 299.821 209.365 315.519 200.597C315.998 200.329 315.72 199.535 315.184 199.784C298.625 207.231 282.257 214.592 265.161 220.775C264.912 220.871 265.065 221.235 265.314 221.158Z" fill="#062E3C"/>
<path d="M283.673 203.025C300.891 198.003 317.585 191.336 333.524 183.115C334.147 182.789 333.773 181.765 333.103 182.071C316.764 189.557 300.472 196.65 283.539 202.709C283.338 202.785 283.463 203.092 283.673 203.025Z" fill="#062E3C"/>
<path d="M289.465 190.909C307.345 185.913 326.068 178.686 341.374 168.003C341.824 167.687 341.374 166.883 340.895 167.142C332.472 171.478 324.364 176.274 315.711 180.179C307.075 184.037 298.244 187.443 289.254 190.383C288.909 190.498 289.12 191.005 289.465 190.909Z" fill="#062E3C"/>
<path d="M303.471 173.976C318.786 168.635 334.217 162.327 348.106 153.961C348.651 153.626 348.106 152.688 347.55 153.004C332.896 160.221 318.509 167.534 303.28 173.526C302.973 173.641 303.165 174.11 303.471 174.005V173.976Z" fill="#062E3C"/>
<path d="M317.545 155.493C330.218 151.013 343.677 144.456 354.35 136.196C354.857 135.803 354.302 135.114 353.766 135.411C347.544 138.952 341.638 142.982 335.33 146.38C329.462 149.539 323.422 152.296 317.421 155.167C317.377 155.184 317.343 155.217 317.324 155.259C317.305 155.301 317.304 155.349 317.32 155.392C317.337 155.436 317.37 155.47 317.412 155.489C317.454 155.508 317.502 155.509 317.545 155.493Z" fill="#062E3C"/>
<path d="M329.271 135.294C341.811 130.786 355.116 124.535 365.166 115.653C365.293 115.561 365.379 115.423 365.404 115.269C365.429 115.114 365.392 114.956 365.3 114.829C365.209 114.703 365.071 114.617 364.917 114.592C364.762 114.567 364.604 114.604 364.477 114.695C352.991 122.257 341.954 129.59 329.128 134.902C329.079 134.921 329.041 134.959 329.02 135.006C328.999 135.054 328.999 135.107 329.018 135.156C329.037 135.204 329.074 135.243 329.122 135.263C329.169 135.284 329.223 135.285 329.271 135.266V135.294Z" fill="#062E3C"/>
<path d="M340.92 117.451C351.813 114.045 361.774 108.172 370.028 100.289C370.469 99.8578 369.77 99.1877 369.291 99.5323C364.965 102.701 360.82 106.06 356.264 108.894C351.221 111.841 346.033 114.531 340.719 116.953C340.653 116.98 340.6 117.032 340.572 117.097C340.544 117.163 340.544 117.237 340.57 117.303C340.597 117.369 340.649 117.422 340.714 117.449C340.78 117.477 340.854 117.478 340.92 117.451Z" fill="#062E3C"/>
<path d="M350.983 101.064C358.632 98.2591 365.774 94.2276 372.128 89.1275C372.229 89.0514 372.296 88.938 372.314 88.8124C372.332 88.6867 372.3 88.5591 372.223 88.4575C372.147 88.356 372.034 88.2887 371.908 88.2708C371.783 88.2528 371.655 88.2857 371.553 88.3618C364.933 92.9309 358.009 97.0437 350.83 100.671C350.778 100.692 350.736 100.732 350.714 100.783C350.691 100.834 350.69 100.892 350.71 100.944C350.731 100.996 350.771 101.038 350.822 101.061C350.873 101.083 350.931 101.084 350.983 101.064Z" fill="#062E3C"/>
<path d="M211.404 271.6C220.66 272.969 230.941 273.678 240.168 271.744C240.271 271.703 240.358 271.629 240.414 271.534C240.47 271.438 240.493 271.327 240.479 271.217C240.464 271.107 240.414 271.005 240.335 270.927C240.256 270.849 240.154 270.8 240.044 270.787C230.414 271.629 221.053 271.457 211.404 271.342C211.232 271.342 211.241 271.61 211.404 271.639V271.6Z" fill="#062E3C"/>
<path d="M195.913 272.873C208.222 275.627 220.892 276.399 233.444 275.161C233.837 275.161 233.875 274.453 233.444 274.443C227.184 274.319 220.934 274.634 214.664 274.338C208.394 274.041 202.22 273.266 195.932 272.682C195.906 272.682 195.882 272.692 195.864 272.71C195.846 272.728 195.836 272.752 195.836 272.777C195.836 272.803 195.846 272.827 195.864 272.845C195.882 272.863 195.906 272.873 195.932 272.873H195.913Z" fill="#062E3C"/>
<path d="M200.123 289.712C204.2 290.653 208.402 290.928 212.567 290.526C213.074 290.459 213.131 289.569 212.567 289.569C208.458 289.528 204.356 289.227 200.286 288.669C200.219 288.659 200.15 288.662 200.084 288.679C200.018 288.695 199.956 288.724 199.901 288.765C199.791 288.847 199.717 288.969 199.697 289.104C199.677 289.24 199.711 289.379 199.793 289.489C199.875 289.599 199.997 289.673 200.133 289.693L200.123 289.712Z" fill="#062E3C"/>
<path d="M195.512 295.155C200.554 296.137 205.708 296.417 210.827 295.987C211.459 295.92 211.315 295.03 210.703 295.03C205.676 295.219 200.643 294.985 195.655 294.331C195.549 294.323 195.443 294.357 195.359 294.424C195.276 294.491 195.222 294.588 195.207 294.694C195.192 294.8 195.219 294.908 195.281 294.995C195.343 295.082 195.435 295.143 195.54 295.164L195.512 295.155Z" fill="#062E3C"/>
<path d="M197.749 299.381C202.411 300.242 207.398 300.769 212.107 299.984C212.234 299.969 212.35 299.904 212.429 299.803C212.508 299.703 212.544 299.575 212.528 299.448C212.513 299.321 212.448 299.205 212.348 299.126C212.247 299.047 212.119 299.011 211.992 299.027C207.282 299.299 202.555 299.071 197.893 298.347C197.271 298.232 197.127 299.209 197.749 299.304V299.381Z" fill="#062E3C"/>
<path d="M198.773 304.774C202.62 306.056 206.667 306.63 210.719 306.468C211.351 306.468 211.207 305.511 210.604 305.511C206.721 305.561 202.851 305.042 199.118 303.97C198.582 303.807 198.218 304.602 198.763 304.774H198.773Z" fill="#062E3C"/>
<path d="M197.954 310.95C200.957 311.679 204.079 311.78 207.124 311.246C207.258 311.23 207.381 311.161 207.464 311.054C207.548 310.947 207.585 310.811 207.569 310.677C207.552 310.542 207.483 310.42 207.376 310.336C207.27 310.253 207.134 310.215 206.999 310.232C204.034 310.402 201.059 310.252 198.126 309.782C197.379 309.638 197.217 310.806 197.954 310.95Z" fill="#062E3C"/>
<path d="M197.432 314.616C200.572 314.922 203.711 315.257 206.861 315.449C207.387 315.449 207.531 314.683 206.985 314.616C203.855 314.223 200.706 313.994 197.566 313.726C196.992 313.726 196.858 314.558 197.432 314.616Z" fill="#062E3C"/>
<path d="M199.075 319.576C201.87 320.016 204.674 320.533 207.498 320.782C207.601 320.781 207.7 320.744 207.778 320.676C207.856 320.609 207.907 320.516 207.922 320.414C207.937 320.312 207.915 320.208 207.86 320.121C207.805 320.034 207.721 319.97 207.623 319.939C204.847 319.365 202.013 319.068 199.209 318.676C199.098 318.675 198.991 318.715 198.907 318.787C198.823 318.859 198.768 318.958 198.752 319.068C198.735 319.177 198.759 319.289 198.818 319.382C198.878 319.475 198.969 319.544 199.075 319.576Z" fill="#062E3C"/>
<path d="M192.722 333.454C197.632 334.804 203.347 335.771 208.42 334.718C208.534 334.704 208.638 334.645 208.709 334.554C208.78 334.463 208.812 334.348 208.798 334.234C208.784 334.12 208.725 334.016 208.635 333.945C208.544 333.874 208.429 333.842 208.315 333.856C203.002 333.856 198.034 334.143 192.789 332.975C192.473 332.908 192.425 333.377 192.722 333.454Z" fill="#062E3C"/>
<path d="M193.551 337.764C197.724 338.999 202.105 339.371 206.426 338.855C206.552 338.839 206.668 338.772 206.746 338.671C206.824 338.57 206.858 338.441 206.842 338.314C206.825 338.187 206.759 338.072 206.658 337.994C206.556 337.916 206.428 337.881 206.301 337.898C202.064 338.161 197.811 337.874 193.647 337.046C193.197 336.95 193.12 337.63 193.551 337.745V337.764Z" fill="#062E3C"/>
<path d="M193.798 342.544C198.012 343.13 202.256 343.481 206.509 343.597C206.605 343.603 206.7 343.573 206.775 343.512C206.85 343.45 206.899 343.364 206.912 343.268C206.925 343.172 206.902 343.075 206.847 342.996C206.792 342.917 206.709 342.862 206.615 342.841C202.378 342.197 198.09 341.944 193.807 342.085C193.549 342.085 193.549 342.506 193.807 342.544H193.798Z" fill="#062E3C"/>
<path d="M194.119 346.884C198.512 347.296 202.915 347.842 207.318 348.033C207.807 348.033 207.931 347.325 207.433 347.267C203.04 346.808 198.608 346.636 194.195 346.31C193.86 346.31 193.774 346.808 194.119 346.837V346.884Z" fill="#062E3C"/>
<path d="M194.941 351.03C198.478 352.056 202.153 352.521 205.834 352.409C205.929 352.394 206.015 352.346 206.078 352.273C206.14 352.2 206.174 352.107 206.174 352.011C206.174 351.915 206.14 351.823 206.078 351.75C206.015 351.677 205.929 351.629 205.834 351.614C202.186 351.487 198.548 351.142 194.941 350.58C194.625 350.523 194.577 350.982 194.874 351.059L194.941 351.03Z" fill="#062E3C"/>
<path d="M195.366 354.62C199.123 355.096 202.903 355.37 206.689 355.444C207.168 355.444 207.312 354.735 206.804 354.687C203.002 354.341 199.183 354.201 195.366 354.266C195.165 354.266 195.165 354.601 195.366 354.62Z" fill="#062E3C"/>
<path d="M180.129 369.99C188.887 372.508 198.153 373.714 207.179 374.882C216.206 376.049 225.548 377.294 234.66 377.121C235.216 377.121 235.216 376.164 234.66 376.164C225.596 375.063 216.474 374.767 207.351 373.666C198.229 372.565 189.299 370.699 180.224 369.627C180.014 369.627 179.899 369.942 180.119 370.009L180.129 369.99Z" fill="#062E3C"/>
<path d="M196.86 370.115C205.168 371.665 213.927 372.986 222.398 372.632C222.944 372.632 222.953 371.675 222.398 371.675C213.888 370.948 205.417 370.718 196.927 369.627C196.894 369.622 196.861 369.623 196.829 369.631C196.797 369.639 196.766 369.653 196.74 369.672C196.686 369.712 196.65 369.771 196.64 369.837C196.629 369.903 196.646 369.97 196.685 370.024C196.725 370.078 196.784 370.114 196.85 370.124L196.86 370.115Z" fill="#062E3C"/>
<path d="M138.746 412.738C136.831 414.012 134.917 415.237 133.003 416.567C132.929 416.622 132.88 416.704 132.867 416.794C132.853 416.885 132.876 416.977 132.931 417.051C132.985 417.124 133.067 417.173 133.158 417.187C133.248 417.2 133.341 417.177 133.414 417.123C135.376 415.916 137.243 414.548 139.11 413.217C139.454 412.978 139.11 412.47 138.717 412.691L138.746 412.738Z" fill="#062E3C"/>
<path d="M139.821 414.195C137.907 415.477 135.993 416.712 134.078 418.091C133.714 418.359 134.078 418.885 134.49 418.646C136.404 417.411 138.271 416.013 140.147 414.683C140.463 414.453 140.147 413.984 139.783 414.195H139.821Z" fill="#062E3C"/>
<path d="M144.469 415.066C142.095 416.396 139.682 417.679 137.404 419.143C137.041 419.373 137.404 420.014 137.778 419.804C140.18 418.531 142.477 417.076 144.804 415.659C145.139 415.458 144.804 414.864 144.469 415.066Z" fill="#062E3C"/>
<path d="M146.338 416.99C143.629 418.684 140.862 420.312 138.24 422.149C137.847 422.417 138.24 422.953 138.67 422.724C141.437 421.116 144.079 419.297 146.749 417.545C147.132 417.296 146.749 416.751 146.338 416.99Z" fill="#062E3C"/>
<path d="M148.412 418.655C145.301 420.972 141.989 422.934 138.744 425.059C138.418 425.27 138.744 425.844 139.079 425.652C142.465 423.721 145.691 421.522 148.728 419.076C148.77 419.03 148.794 418.971 148.797 418.909C148.8 418.847 148.781 418.785 148.744 418.735C148.706 418.685 148.653 418.65 148.592 418.636C148.531 418.621 148.468 418.628 148.412 418.655Z" fill="#062E3C"/>
<path d="M341.101 44.9538C354.253 49.7398 366.639 55.3012 378.24 63.2842C378.996 63.8011 379.896 62.6812 379.14 62.1643C367.653 54.3439 354.798 47.8062 341.206 44.59C341.16 44.5839 341.114 44.5944 341.076 44.6195C341.037 44.6445 341.009 44.6825 340.997 44.7266C340.984 44.7707 340.987 44.8178 341.006 44.8595C341.025 44.9012 341.059 44.9346 341.101 44.9538Z" fill="#062E3C"/>
<path d="M100.009 12.3596C98.5342 12.2922 97.0572 12.4177 95.6152 12.7329C93.3753 13.0679 90.8962 13.3646 88.9148 14.4846C88.2447 14.8579 88.618 15.949 89.3838 15.6332C91.6029 14.7817 93.9023 14.1564 96.247 13.7666C97.5401 13.6236 98.8203 13.3804 100.076 13.0392C100.148 13.0106 100.209 12.959 100.249 12.8923C100.29 12.8256 100.307 12.7474 100.298 12.67C100.289 12.5927 100.255 12.5203 100.201 12.4642C100.147 12.408 100.076 12.3713 99.9992 12.3596H100.009Z" fill="#062E3C"/>
<path d="M140.718 10.5029C137.63 10.1202 134.509 10.0913 131.414 10.4167C131.329 10.4307 131.252 10.4745 131.196 10.5403C131.14 10.606 131.109 10.6894 131.109 10.7757C131.109 10.862 131.14 10.9454 131.196 11.0111C131.252 11.0769 131.329 11.1207 131.414 11.1347C134.505 11.4984 137.628 11.4984 140.718 11.1347C140.794 11.1216 140.862 11.0822 140.912 11.0235C140.961 10.9649 140.988 10.8907 140.988 10.814C140.988 10.7374 140.961 10.6631 140.912 10.6044C140.862 10.5457 140.794 10.5064 140.718 10.4933V10.5029Z" fill="#062E3C"/>
<path d="M173.589 319.136C179.103 322.419 185.411 323.922 191.709 324.879C197.663 325.75 204.88 326.63 210.786 325.108C211.925 324.821 212.232 322.955 210.786 322.83C204.574 322.285 198.343 322.926 192.111 322.065C185.88 321.203 179.945 319.432 173.829 318.236C173.264 318.13 173.149 318.887 173.57 319.136H173.589Z" fill="#062E3C"/>
<path d="M167.888 258.533C177.996 263.492 190.095 265.665 201.132 267.321C212.495 269.106 224.032 269.527 235.495 268.575C237.237 268.421 236.902 265.703 235.16 265.875C223.65 266.842 212.066 266.43 200.653 264.65C189.664 263.032 178.992 259.615 168.032 258.026C167.969 258.02 167.907 258.036 167.855 258.072C167.803 258.107 167.765 258.16 167.748 258.22C167.731 258.28 167.736 258.345 167.761 258.402C167.787 258.459 167.832 258.506 167.888 258.533Z" fill="#062E3C"/>
<path d="M167.023 270.826C176.892 275.612 188.617 277.622 199.405 279.01C210.516 280.444 221.75 280.659 232.907 279.651C234.649 279.498 234.314 276.78 232.572 276.962C221.359 277.982 210.068 277.779 198.898 276.359C188.177 274.999 177.839 271.889 167.176 270.319C167.114 270.313 167.051 270.329 166.999 270.364C166.948 270.4 166.91 270.452 166.893 270.513C166.876 270.573 166.88 270.637 166.906 270.694C166.931 270.752 166.976 270.798 167.033 270.826H167.023Z" fill="#062E3C"/>
<path d="M89.3298 18.6275C109.431 18.6275 129.389 17.6703 149.49 18.5031C168.414 19.3167 187.29 21.0684 206.07 23.538C243.133 28.4101 280.445 34.9001 316.637 44.3285C335.886 49.3443 355.031 55.5278 372.653 64.8605C374.06 65.6071 375.055 63.3386 373.61 62.592C342.185 45.9749 306.357 38.6618 271.744 32.0188C233.14 24.5622 194.211 18.618 154.965 16.761C133.246 15.7272 110.838 15.105 89.2436 17.9575C88.8033 18.0149 88.8991 18.6275 89.3298 18.6275Z" fill="#062E3C"/>
<path d="M136.071 18.1121C134.157 31.7331 134.157 45.8709 134.262 59.5781C134.359 73.1989 135.19 86.8045 136.751 100.336C139.834 126.673 145.976 152.562 155.053 177.477C160.116 191.251 165.649 206.193 173.862 218.445C174.052 218.688 174.322 218.856 174.624 218.917C174.927 218.978 175.241 218.929 175.51 218.779C175.779 218.628 175.986 218.387 176.093 218.097C176.2 217.808 176.199 217.49 176.092 217.201C171.095 205.064 164.682 193.577 159.925 181.296C155.099 168.816 151.052 156.047 147.807 143.065C141.527 117.42 137.956 91.1859 137.153 64.7948C136.607 49.202 137.555 33.7048 137.68 18.1311C137.68 17.1739 136.196 17.1739 136.071 18.1311V18.1121Z" fill="#062E3C"/>
<path d="M103.497 18.1425C102.09 52.5252 104.454 88.2099 111.48 121.951C114.915 138.431 119.919 154.544 126.422 170.07C130.701 180.226 136.147 190.171 143.814 198.145C152.228 206.932 163.112 212.618 173.201 219.203C174.809 220.256 176.704 217.902 175.115 216.849C166.261 211.105 156.794 206.099 148.897 199.006C140.675 191.607 134.855 181.93 130.337 171.927C126.7 163.877 123.924 155.425 121.081 147.04C114.38 127.264 110.781 106.502 108.522 85.7785C106.062 63.2651 105.823 40.7899 105.258 18.1425C105.258 17.1853 103.574 17.1853 103.535 18.1425H103.497Z" fill="#062E3C"/>
<path d="M135.173 4.39403C128.952 2.40304 130.387 14.2437 133.039 16.7516C133.192 16.8707 133.373 16.9477 133.565 16.9751C133.756 17.0025 133.952 16.9792 134.132 16.9076C134.312 16.8359 134.47 16.7186 134.591 16.5669C134.711 16.4153 134.79 16.2347 134.819 16.0432C135.03 13.7077 131.067 6.47118 134.925 6.0883C135.748 5.99258 136.035 4.67161 135.173 4.39403Z" fill="#062E3C"/>
<path d="M102.538 6.14655C99.5038 3.98327 98.3168 9.09473 98.3647 11.0379C98.4125 12.981 98.5083 16.6949 100.222 18.0445C100.368 18.1675 100.542 18.2544 100.728 18.2982C100.914 18.342 101.108 18.3416 101.295 18.2969C101.481 18.2523 101.654 18.1645 101.8 18.0409C101.946 17.9173 102.061 17.7612 102.136 17.5851C102.596 16.0249 101.839 14.4646 101.543 12.9044C101.277 11.7892 101.177 10.6411 101.246 9.49677C101.38 8.33855 101.772 8.35768 102.557 7.68764C102.678 7.59867 102.776 7.48251 102.844 7.34866C102.911 7.21482 102.947 7.06699 102.947 6.91703C102.947 6.76708 102.911 6.61925 102.844 6.4854C102.776 6.35156 102.678 6.23552 102.557 6.14655H102.538Z" fill="#062E3C"/>
<path d="M153.166 403.629C171.276 407.391 189.76 409.621 207.946 413.115C209.861 413.488 210.32 410.473 208.387 410.081C190.468 406.424 171.659 402.873 153.338 402.49C153.187 402.467 153.033 402.505 152.91 402.596C152.787 402.687 152.705 402.822 152.682 402.973C152.659 403.124 152.698 403.278 152.788 403.401C152.879 403.524 153.015 403.606 153.166 403.629Z" fill="#062E3C"/>
<path d="M162.399 413.027C173.398 414.673 184.721 417.688 195.854 418.004C196.107 418.041 196.366 417.975 196.571 417.822C196.777 417.668 196.913 417.439 196.95 417.186C196.986 416.932 196.921 416.674 196.767 416.468C196.614 416.263 196.385 416.126 196.131 416.09C185.315 413.419 173.589 413.314 162.543 411.983C162.436 412 162.338 412.05 162.262 412.127C162.186 412.203 162.136 412.302 162.12 412.409C162.104 412.516 162.122 412.625 162.173 412.721C162.223 412.816 162.302 412.893 162.399 412.94V413.027Z" fill="#062E3C"/>
<path d="M174.176 318.033C182.102 310.595 184.456 299.769 183.116 289.24C181.834 279.084 175.334 272.24 168.385 265.243C160.344 257.145 154.276 248.013 148.073 238.441C141.516 228.314 135.199 217.986 129.398 207.399C109.086 170.317 95.7332 130.286 92.0671 88.0738C91.0273 76.065 90.6184 64.01 90.8419 51.9585C91.0716 38.6246 93.1583 25.1567 92.7563 11.8516C92.584 6.29978 84.5818 6.9124 83.5097 11.7463C81.0497 22.8307 81.2507 34.9968 80.9922 46.3301C80.7529 56.9455 80.8582 67.5609 81.4804 78.1571C82.6289 98.4858 85.836 118.645 91.0525 138.327C102.395 180.827 124.086 219.584 149.748 255.029C152.834 259.422 156.293 263.541 160.086 267.339C164.192 271.35 168.615 275.121 172.147 279.668C179.565 289.24 179.393 306.24 172.013 315.812C170.969 317.162 172.826 319.306 174.167 318.042L174.176 318.033Z" fill="#062E3C"/>
<path d="M212.181 321.681C208.505 312.023 211.683 297.014 219.121 289.72C226.041 282.943 236.092 280.148 244.113 274.979C253.685 268.786 262.3 260.295 270.858 252.762C279.137 245.43 287.13 237.734 294.883 229.789C323.6 200.47 347.424 166.786 363.343 128.852C367.952 117.813 371.962 106.534 375.356 95.0627C378.916 83.1072 383.253 70.2328 384.162 57.7317C384.516 52.8404 377.059 49.8539 375.279 55.1664C371.527 66.3178 369.804 78.1967 366.578 89.53C363.536 100.233 359.954 110.776 355.848 121.118C348.242 140.355 338.616 158.731 327.132 175.937C315.19 193.495 301.738 209.977 286.929 225.195C278.687 233.752 270.092 241.955 261.333 249.986C253.006 257.644 244.697 266.182 234.8 271.753C225.869 276.778 215.474 281 210.42 290.495C205.04 300.613 203.595 312.961 209.462 323.136C210.42 324.715 212.784 323.231 212.171 321.623L212.181 321.681Z" fill="#062E3C"/>
<path d="M390.355 145.029C377.366 130.078 379.491 105.688 395.304 93.6944C410.466 82.208 432.319 87.3482 437.21 106.645C442.781 128.585 426.04 148.533 410.093 161.206C401.21 168.289 391.111 172.798 381.032 177.861C370.953 182.925 360.739 188.199 350.698 193.569C317.828 211.134 285.264 229.646 257.706 254.916C249.359 262.574 240.974 271.361 236.437 281.919C232.914 290.151 231.373 301.417 234.522 309.994C237.126 317.135 244.382 323.395 252.393 322.036C259.668 320.763 262.128 313.737 259.783 307.333C258.567 303.992 252.69 305.342 253.6 308.931C255.61 316.838 246.009 313.363 243.53 309.219C239.289 302.126 241.711 290.668 245.176 283.738C251.877 270.404 264.033 261.425 274.849 251.671C273.414 252.964 275.807 250.82 276.419 250.293C278.056 248.886 279.75 247.536 281.454 246.225C287.753 241.372 294.348 236.921 301.029 232.614C331.305 213.087 363.515 196.096 395.936 180.465C414.266 171.63 432.118 156.956 441.374 138.482C449.635 121.989 450.056 99.7439 435.401 86.5919C420.086 72.8273 395.917 77.9771 383.444 92.9574C370.139 108.914 371.613 134.175 388.001 147.317C389.456 148.475 391.695 146.475 390.403 145.001L390.355 145.029Z" fill="#062E3C"/>
<path d="M387.588 146.379L387.732 150.208C386.903 150.135 386.096 149.912 385.348 149.548C384.737 149.282 384.139 148.985 383.558 148.658C381.927 147.842 380.416 146.805 379.069 145.575C376.507 143.048 374.519 139.999 373.24 136.635C370.243 129.236 369.545 121.042 370.167 113.136C370.894 104.172 374.229 95.6166 379.761 88.5255C385.292 81.4343 392.778 76.1172 401.295 73.2298C416.783 67.9748 438.358 73.2299 448.514 86.4297C462.556 104.674 456.066 130.461 444.025 147.806C438.684 155.463 432.423 163.025 425.206 169.008C418.764 174.339 411.346 178.465 404.148 182.734C395.782 187.731 386.612 192.143 377.796 196.633C349.654 210.991 321.378 225.349 294.959 242.731C281.693 251.452 268.483 260.966 257.762 272.778C253.135 277.752 249.378 283.47 246.649 289.692C244.563 294.641 243.232 300.441 246.161 305.361C247.232 307.294 248.843 308.872 250.795 309.906C252.748 310.939 254.959 311.382 257.159 311.181C261.362 310.741 260.414 304.73 256.365 304.787C248.851 304.892 254.862 291.807 256.365 288.984C257.763 286.474 259.391 284.1 261.228 281.891C265.603 276.61 270.493 271.778 275.825 267.466C289.226 256.295 304.11 246.924 319.119 238.089C346.246 222.113 374.771 208.885 402.396 193.933C415.912 186.63 429.198 178.742 439.727 167.342C456.105 149.5 468.912 126.738 464.385 101.716C460.68 81.2991 445.901 67.9939 425.953 63.7918C416.11 61.6247 405.854 62.3108 396.388 65.7697C386.921 69.2285 378.639 75.3166 372.512 83.3188C360.403 98.7585 357.57 121.607 365.993 139.545C369.545 147.097 375.872 154.516 384.573 155.817C388.641 156.43 393.283 155.061 394.47 150.668C394.79 149.636 394.828 148.538 394.581 147.487C394.334 146.436 393.81 145.47 393.065 144.689C392.319 143.908 391.378 143.341 390.34 143.046C389.301 142.75 388.202 142.738 387.157 143.01C386.73 143.082 386.347 143.317 386.088 143.665C385.829 144.012 385.714 144.447 385.767 144.877C385.82 145.307 386.037 145.701 386.372 145.975C386.708 146.25 387.137 146.384 387.569 146.351L387.588 146.379Z" fill="#062E3C"/>
<path d="M53.1114 98.1454C70.1496 91.2631 79.243 72.0615 75.2515 54.2958C71.26 36.5301 55.1502 22.708 36.6666 23.5312C17.9341 24.4118 5.43303 41.8904 3.89193 59.4168C2.0541 80.2073 12.6025 101.055 25.4673 116.763C32.8282 125.751 42.0365 133.227 50.4312 141.229C58.2037 148.651 65.89 156.158 73.4902 163.752C84.7661 175.038 95.8122 186.553 106.38 198.518C115.32 208.635 124.155 219.04 131.372 230.488C132.406 232.135 131.028 229.971 131.746 231.139C137.767 240.941 144.362 250.283 148.267 261.205C151.675 270.777 152.881 283.374 146.927 292.343C144.898 295.406 141.126 298.153 137.259 297.253C133.89 296.469 133.67 294.382 135.345 291.587C137.259 288.438 132.033 285.394 129.889 288.275C126.251 293.137 125.859 299.685 131.171 303.542C136.484 307.4 144.065 306.031 149.09 302.298C155.992 297.167 158.567 288.083 159.438 279.909C160.462 270.26 157.925 260.937 154.039 252.15C149.875 242.712 143.883 234.423 138.724 225.597C136.69 222.236 134.482 218.984 132.109 215.853C118.163 197.015 101.833 179.871 85.4553 163.149C70.14 147.489 53.8676 132.787 38.2268 117.481C30.148 109.584 23.8688 99.7438 19.0349 89.5879C14.5361 80.1307 11.6931 69.7546 12.9758 59.2158C14.2106 49.012 19.7528 38.301 29.6407 34.1371C38.9639 30.203 49.5984 33.0075 56.9689 39.5548C73.9593 54.6595 70.3697 83.3182 51.532 95.2354C49.8951 96.2692 51.4267 98.8537 53.1592 98.107L53.1114 98.1454Z" fill="#062E3C"/>
<path d="M55.1051 94.252C46.72 89.5808 42.3168 102.963 50.9125 106.495C57.9288 109.366 66.4671 105.767 71.971 101.278C84.6731 90.8731 91.297 71.9492 89.8516 55.8203C88.0329 35.5659 73.5791 15.6177 53.8511 9.61605C36.1524 4.19828 15.1896 6.35197 1.78878 20.0113C-15.2877 37.4037 -16.1492 63.8704 -8.99893 85.8287C-5.83279 95.9508 -1.24333 105.571 4.63165 114.401C9.41767 121.37 15.4289 127.591 21.1913 133.765C41.1681 155.159 63.6146 174.236 83.9552 195.314C97.6815 209.528 111.101 224.288 122.55 240.427C127.324 246.934 131.447 253.894 134.859 261.208C136.218 264.13 137.316 267.167 138.143 270.282C138.757 272.741 139.154 275.249 139.329 277.777C139.521 280.648 138.717 288.306 133.931 286.803C130.102 285.588 127.422 291.063 131.327 292.69C140.354 296.461 147.6 287.904 147.791 279.471C147.935 272.838 146.078 266.003 143.589 259.896C138.468 247.376 130.437 235.966 122.167 225.437C102.353 200.014 79.0352 177.385 55.8134 155.121C37.4255 137.499 15.7639 120.097 4.93796 96.5493C-4.45221 76.1321 -9.56366 51.8957 3.76062 31.8327C13.8687 16.6036 32.0173 13.6458 48.8449 17.4747C69.0706 22.1458 83.2373 44.4008 81.007 64.6361C80.0498 73.3084 77.226 82.2966 72.2486 89.5235C69.9919 93.0231 67.016 96.0022 63.5189 98.2627C61.7966 99.2925 59.9231 100.045 57.9671 100.493C57.3545 100.637 56.627 100.78 56.0527 100.866C55.39 100.973 54.7222 101.047 54.0521 101.086C51.6527 101.329 51.5762 100.072 53.8224 97.3151C54.2292 97.4843 54.6861 97.4874 55.0952 97.3236C55.5043 97.1599 55.8329 96.8425 56.0107 96.4393C56.1885 96.0362 56.2012 95.5795 56.0463 95.167C55.8913 94.7546 55.5809 94.4191 55.1816 94.2328L55.1051 94.252Z" fill="#062E3C"/>
<path d="M107.947 364.037C104.473 375.218 102.999 387.24 101.094 398.784C100.213 404.068 99.3356 409.352 98.4614 414.635C97.4563 420.742 94.9963 428.122 95.9631 434.239C96.0627 434.941 96.3859 435.593 96.8847 436.097C97.3836 436.601 98.0316 436.932 98.7328 437.039C99.434 437.147 100.151 437.025 100.778 436.693C101.405 436.361 101.908 435.836 102.214 435.196C104.827 429.778 104.607 422.369 105.372 416.425C106.081 410.867 106.792 405.312 107.507 399.76C109 388.159 111.049 376.223 110.934 364.516C110.934 363.004 108.397 362.602 107.947 364.076V364.037Z" fill="#062E3C"/>
<path d="M256.564 385.869C253.09 397.059 251.616 409.072 249.711 420.616C248.83 425.899 247.956 431.186 247.088 436.476C246.073 442.574 243.613 449.954 244.58 456.08C244.683 456.781 245.008 457.431 245.508 457.934C246.008 458.436 246.656 458.766 247.356 458.873C248.057 458.98 248.774 458.859 249.401 458.529C250.028 458.199 250.533 457.676 250.84 457.037C253.444 451.619 253.224 444.201 253.99 438.257C254.698 432.705 255.409 427.15 256.124 421.592C257.617 410 259.666 398.054 259.551 386.348C259.551 384.835 257.014 384.433 256.564 385.907V385.869Z" fill="#062E3C"/>
<path d="M109.876 365.605C114.997 367.73 120.702 368.477 126.148 369.434C132.217 370.554 138.295 371.655 144.383 372.67C156.827 374.737 169.357 376.843 181.858 378.796L219.409 384.654L236.916 387.382C243.023 388.339 249.36 389.918 255.572 390.052C260.167 390.158 260.999 384.309 256.596 383.046C250.91 381.419 244.67 381.055 238.811 380.174L220.452 377.484L182.853 371.971C170.333 370.133 157.794 368.448 145.254 366.745C139.415 365.95 133.557 365.261 127.709 364.533C121.86 363.806 115.983 362.763 110.201 363.299C109.95 363.34 109.719 363.46 109.541 363.641C109.362 363.823 109.247 364.057 109.21 364.309C109.174 364.561 109.219 364.818 109.339 365.042C109.459 365.267 109.647 365.447 109.876 365.558V365.605Z" fill="#062E3C"/>
<path d="M87.353 12.2932C87.42 11.5849 90.4065 11.2307 91.6413 10.8382C92.4836 10.5607 93.2972 10.2544 94.1587 10.0151C93.8333 10.1108 94.8575 9.83324 95.4988 9.69923C96.1401 9.56522 97.0782 9.38338 97.8727 9.24937C100.122 8.85692 102.391 8.55061 104.669 8.29217C123.392 6.37776 142.632 7.6412 161.326 9.1823C200.269 12.5016 239.004 17.9338 277.358 25.4548C303.069 30.4131 329.047 36.1085 353.437 45.7954C360.003 48.399 366.579 51.261 371.557 55.1569C372.15 55.6163 374.265 57.6934 373.471 56.7936C374.01 57.3912 374.5 58.0314 374.935 58.708C373.749 56.7936 376.285 60.5555 374.935 58.6315C375.271 59.1005 374.993 58.7942 375.175 58.2678C373.26 63.6473 381.397 67.2655 383.34 61.8669C386.977 51.7684 373.414 44.886 366.292 41.3827C344.516 30.662 319.705 25.4643 296.119 20.5252C255.29 11.9604 213.977 5.88693 172.41 2.33827C150.452 0.423857 127.843 -1.21288 105.884 1.58215C101.194 2.18519 82.0692 4.51122 84.5867 12.6092C84.7098 12.8997 84.9241 13.1424 85.1972 13.3005C85.4703 13.4587 85.7874 13.5238 86.1007 13.486C86.414 13.4482 86.7065 13.3095 86.9341 13.0909C87.1617 12.8723 87.3121 12.5856 87.3626 12.2741L87.353 12.2932Z" fill="#062E3C"/>
<path d="M210.197 322.579C208.053 328.638 207.125 335.301 205.899 341.599C204.722 347.668 202.157 355.105 203.104 361.231C203.181 361.729 203.414 362.188 203.771 362.543C204.127 362.898 204.588 363.129 205.086 363.203C205.584 363.277 206.092 363.19 206.536 362.954C206.981 362.718 207.338 362.345 207.555 361.892C210.226 356.321 209.92 348.385 210.532 342.279C211.174 335.884 212.188 329.251 211.882 322.828C211.853 322.64 211.765 322.465 211.63 322.33C211.495 322.196 211.32 322.108 211.132 322.08C210.943 322.052 210.75 322.086 210.582 322.175C210.414 322.265 210.279 322.407 210.197 322.579Z" fill="#062E3C"/>
<path d="M171.866 316.954C169.721 323.013 168.793 329.666 167.568 335.974C166.39 342.033 163.825 349.48 164.773 355.606C164.849 356.103 165.083 356.563 165.439 356.918C165.796 357.273 166.257 357.504 166.755 357.578C167.252 357.652 167.761 357.564 168.205 357.328C168.649 357.092 169.006 356.72 169.224 356.266C171.894 350.686 171.588 342.76 172.201 336.653C172.842 330.259 173.857 323.626 173.56 317.203C173.535 317.011 173.447 316.832 173.311 316.694C173.175 316.557 172.998 316.467 172.807 316.439C172.615 316.41 172.42 316.446 172.25 316.538C172.08 316.631 171.945 316.777 171.866 316.954Z" fill="#062E3C"/>
<path d="M132.934 368.307C136.762 365.551 139.51 363.426 144.267 362.267C147.665 361.435 151.197 361.052 154.653 360.554C158.108 360.056 161.42 359.673 164.818 359.31C166.464 359.128 168.704 359.31 170.226 358.486C173.098 357.031 172.466 353.432 169.527 352.6C167.536 352.035 164.646 352.887 162.655 353.126C158.204 353.672 153.743 354.217 149.35 355.107C142.869 356.409 130.971 359.022 131.239 367.551C131.263 367.736 131.335 367.911 131.447 368.059C131.56 368.207 131.708 368.324 131.879 368.397C132.05 368.471 132.237 368.498 132.422 368.477C132.607 368.457 132.783 368.388 132.934 368.279V368.307Z" fill="#062E3C"/>
<path d="M237.074 383.124C239.257 376.232 231.523 370.613 226.334 367.713C218.897 363.549 210.636 360.055 202.845 356.647C199.628 355.221 197.034 359.624 199.686 361.855C204.817 366.162 212.57 368.249 218.677 370.785C221.812 372 224.833 373.493 227.703 375.246C231.226 377.495 232.824 380.032 235.256 383.325C235.366 383.472 235.514 383.589 235.683 383.662C235.853 383.736 236.039 383.763 236.222 383.743C236.406 383.723 236.581 383.655 236.731 383.546C236.88 383.438 236.998 383.292 237.074 383.124Z" fill="#062E3C"/>
<path d="M165.851 357.402C178.744 362.599 192.547 365.161 206.446 364.935C210.629 364.84 210.686 357.938 206.532 357.565C193.361 356.368 180.286 353.832 167.115 352.932C164.626 352.76 163.286 356.32 165.841 357.373L165.851 357.402Z" fill="#062E3C"/>
<path d="M146.243 384.51C158.217 387.382 170.374 389.296 182.54 391.153C194.16 392.905 206.393 394.982 218.167 394.216C218.273 394.198 218.37 394.147 218.445 394.07C218.52 393.992 218.569 393.893 218.583 393.787C218.598 393.68 218.579 393.572 218.528 393.477C218.477 393.382 218.398 393.306 218.301 393.259C207.216 389.268 194.84 388.081 183.21 386.607C171.015 385.056 158.791 383.735 146.587 382.175C146.277 382.129 145.962 382.208 145.711 382.395C145.46 382.582 145.293 382.861 145.247 383.17C145.201 383.48 145.281 383.795 145.467 384.047C145.654 384.298 145.933 384.465 146.243 384.51Z" fill="#062E3C"/>
<path d="M218.105 393.717L219.339 393.985C219.493 393.985 219.521 393.765 219.339 393.755L218.076 393.66C218.076 393.66 218.028 393.66 218.076 393.717H218.105Z" fill="#062E3C"/>
<path d="M217.32 393.326C215.3 396.811 216.057 401.711 218.095 404.995C219.751 407.675 225.466 412.212 228.625 409.369C228.936 409.119 229.162 408.778 229.27 408.394C229.378 408.009 229.363 407.601 229.228 407.225C228.51 405.789 227.399 405.406 226.002 404.775C224.615 404.184 223.372 403.303 222.355 402.19C220.077 399.654 219.847 396.734 219.1 393.575C219.053 393.394 218.953 393.23 218.814 393.105C218.674 392.979 218.5 392.898 218.315 392.87C218.129 392.843 217.94 392.87 217.769 392.95C217.599 393.029 217.456 393.157 217.358 393.317L217.32 393.326Z" fill="#062E3C"/>
<path d="M133.354 393.739C136.408 395.911 141.223 395.356 144.209 393.346C147.196 391.336 150.488 386.531 148.296 383.133C148.133 382.918 147.923 382.743 147.683 382.62C147.443 382.498 147.178 382.432 146.908 382.426C146.638 382.421 146.371 382.476 146.125 382.589C145.88 382.701 145.664 382.867 145.492 383.075C144.534 384.157 144.534 385.564 144.027 386.904C143.546 388.129 142.734 389.196 141.682 389.986C139.212 391.901 136.638 391.834 133.747 392.379C133.595 392.404 133.453 392.471 133.339 392.574C133.224 392.676 133.141 392.809 133.1 392.957C133.059 393.105 133.061 393.262 133.106 393.409C133.151 393.556 133.237 393.687 133.354 393.786V393.739Z" fill="#062E3C"/>
<path d="M130.105 417.127C132.833 418.534 135.217 419.434 136.94 422.181C137.698 423.38 138.148 424.748 138.251 426.163C138.356 427.579 137.954 428.967 138.548 430.298C138.651 430.548 138.809 430.771 139.011 430.95C139.213 431.129 139.453 431.26 139.713 431.333C139.973 431.406 140.247 431.419 140.512 431.37C140.778 431.322 141.029 431.214 141.247 431.054C144.368 428.364 142.434 422.439 140.338 419.663C138.241 416.887 133.781 414.466 130.124 415.662C129.984 415.726 129.864 415.829 129.781 415.959C129.697 416.089 129.652 416.24 129.652 416.394C129.652 416.549 129.697 416.7 129.781 416.83C129.864 416.96 129.984 417.063 130.124 417.127H130.105Z" fill="#062E3C"/>
<path d="M226.829 407.053C225.307 410.652 224.474 414.586 223.345 418.319C222.388 421.583 220.674 424.838 221.296 428.255C221.379 428.817 221.64 429.337 222.042 429.739C222.443 430.141 222.964 430.402 223.525 430.485C224.087 430.568 224.661 430.467 225.161 430.198C225.661 429.929 226.062 429.507 226.303 428.992C228.006 425.805 227.652 421.612 228.121 418.051C228.59 414.491 229.289 410.939 228.973 407.369C228.933 407.132 228.819 406.913 228.647 406.744C228.475 406.576 228.254 406.466 228.016 406.431C227.778 406.396 227.535 406.438 227.321 406.549C227.108 406.661 226.936 406.837 226.829 407.053Z" fill="#062E3C"/>
<path d="M132.837 394.16C131.334 400.861 130.98 407.935 129.716 414.759C129.056 418.301 134.435 419.019 135.211 415.573C136.742 408.662 137.326 400.669 134.876 393.921C134.784 393.71 134.626 393.534 134.427 393.419C134.227 393.304 133.996 393.256 133.767 393.283C133.538 393.31 133.324 393.41 133.157 393.568C132.989 393.726 132.877 393.934 132.837 394.16Z" fill="#062E3C"/>
</svg>
