<svg width="385" height="406" viewBox="0 0 385 406" fill="none" xmlns="http://www.w3.org/2000/svg">
<path fill-rule="evenodd" clip-rule="evenodd" d="M27.9745 311.434C27.638 312.121 27.2556 312.785 26.8298 313.421C28.1309 311.783 29.0257 309.861 29.4409 307.811C29.5571 307.111 29.592 306.4 29.5449 305.692C29.461 307.7 28.9242 309.663 27.9745 311.434Z" fill="#AD50FF"/>
<path fill-rule="evenodd" clip-rule="evenodd" d="M138.696 373.843C153.495 375.594 168.495 373.53 182.27 367.845L179.754 366.899C132.093 385.394 83.3636 356.493 67.8583 308.501C65.5782 301.334 64.2239 293.904 63.8283 286.393C62.8823 285.447 61.9363 284.435 60.9902 283.47C61.52 326.391 95.2835 368.744 138.696 373.843Z" fill="#AD50FF"/>
<path fill-rule="evenodd" clip-rule="evenodd" d="M2.54799 231.684C3.21021 233.085 3.86298 234.523 4.51573 235.875C3.82514 234.239 3.15343 232.649 2.52905 231.145C2.53851 231.334 2.54799 231.533 2.54799 231.684Z" fill="#AD50FF"/>
<path fill-rule="evenodd" clip-rule="evenodd" d="M275.218 204.969C274.726 207.864 273.903 209.283 270.8 210.125C271.424 211.355 272.02 212.594 272.598 213.852C273.61 211.165 274.934 211.213 276.76 209.065C276.76 208.999 276.855 208.961 276.902 208.904C276.363 207.589 275.776 206.312 275.218 204.969Z" fill="#AD50FF"/>
<path fill-rule="evenodd" clip-rule="evenodd" d="M25.6104 284.407C27.1807 288.37 28.7511 292.363 30.3405 296.449C31.1257 298.455 32.0244 300.706 32.9704 303.072C32.9042 302.267 32.8569 301.473 32.819 300.678C30.5391 295.295 28.0605 289.78 25.6104 284.407Z" fill="#AD50FF"/>
<path fill-rule="evenodd" clip-rule="evenodd" d="M140.108 367.789C151.627 369.15 163.304 368.11 174.401 364.733C149.398 354.213 124.943 338.244 106.288 323.808C92.2275 312.833 78.789 301.084 66.0344 288.616C70.055 327.072 100.999 363.2 140.108 367.789Z" fill="#AD50FF"/>
<path fill-rule="evenodd" clip-rule="evenodd" d="M161.961 237.238H162.131C160.003 236.339 160.892 236.755 161.961 237.238Z" fill="#AD50FF"/>
<path fill-rule="evenodd" clip-rule="evenodd" d="M279.468 215.877C278.683 218.015 277.661 218.715 275.201 219.841C275.674 221.004 276.147 222.196 276.554 223.388C276.924 222.488 277.471 221.671 278.164 220.987C278.856 220.302 279.679 219.765 280.584 219.405C280.234 218.223 279.856 217.05 279.468 215.877Z" fill="#AD50FF"/>
<path fill-rule="evenodd" clip-rule="evenodd" d="M278.945 230.588C279.342 231.912 279.739 233.246 280.099 234.599L280.222 235.1C280.462 234.338 280.908 233.657 281.511 233.133C282.113 232.609 282.849 232.262 283.637 232.13C283.353 230.588 283.041 229.055 282.691 227.522C281.852 228.962 280.522 230.05 278.945 230.588Z" fill="#AD50FF"/>
<path fill-rule="evenodd" clip-rule="evenodd" d="M277.498 210.427C276.495 212.726 275.483 214.155 273.165 215.063C273.733 216.321 274.281 217.608 274.821 218.904C275.104 216.321 276.514 215.281 278.926 214.249C278.472 212.934 277.999 211.695 277.498 210.427Z" fill="#AD50FF"/>
<path fill-rule="evenodd" clip-rule="evenodd" d="M44.7502 292.836C46.3584 314.708 54.3712 333.94 67.2182 350.543C75.2215 358.858 79.2232 363.872 89.2984 370.693C114.661 387.892 151.338 393.975 180.665 384.751C188.573 382.211 196.094 378.598 203.02 374.014C197.73 372.85 192.51 371.394 187.382 369.653C135.417 395.082 80.3112 364.478 63.349 311.945C60.1884 302.078 58.7234 291.746 59.0162 281.389C54.4889 276.689 50.2734 271.7 46.3963 266.451C44.4973 275.109 43.942 284.008 44.7502 292.836Z" fill="#AD50FF"/>
<path fill-rule="evenodd" clip-rule="evenodd" d="M281.104 221.222C280.932 221.641 280.733 222.049 280.508 222.442C280.195 223.104 279.707 223.667 279.097 224.071C278.486 224.474 277.777 224.703 277.045 224.731C277.528 226.084 277.992 227.447 278.417 228.828C279.201 227.234 280.55 225.99 282.201 225.337C281.842 223.956 281.454 222.584 281.104 221.222Z" fill="#AD50FF"/>
<path fill-rule="evenodd" clip-rule="evenodd" d="M59.6942 214.183C59.8267 213.947 59.9686 213.71 60.0821 213.464C64.3013 205.206 67.9719 201.242 74.2724 194.705L74.6887 194.298C72.9574 191.11 70.9613 187.051 69.0125 182.889C67.5935 184.071 66.0799 185.301 64.8311 186.342C59.8078 190.485 53.9708 194.033 48.4555 197.496C47.5095 198.101 46.5635 198.659 45.6174 199.217C48.2285 202.547 52.2396 212.878 54.9074 219.282C56.4399 217.532 58.0482 215.981 59.6942 214.183Z" fill="#AD50FF"/>
<path fill-rule="evenodd" clip-rule="evenodd" d="M228.589 304.803C227.473 328.264 213.907 349.654 189.083 362.662C186.86 363.825 184.637 364.837 182.395 365.793C183.199 366.124 184.003 366.436 184.798 366.739C209.792 355.434 227.842 332.597 228.589 304.803Z" fill="#AD50FF"/>
<path fill-rule="evenodd" clip-rule="evenodd" d="M166.463 141.463C179.382 140.054 192.443 140.732 205.146 143.468C205.922 141.103 206.338 140.942 208.467 138.142C210.813 135.049 213.708 131.274 217.293 129.874C219.435 129.264 221.625 128.84 223.84 128.606H224.029L222.137 128.114C199.13 122.221 168.005 128.654 146.559 138.994C139.71 142.27 133.267 146.337 127.364 151.112L128.367 150.478C127.68 151.542 126.908 152.548 126.059 153.487C138.706 147.11 152.388 143.038 166.463 141.463Z" fill="#AD50FF"/>
<path fill-rule="evenodd" clip-rule="evenodd" d="M300.193 215.082C298.963 204.676 288.179 179.436 281.348 170.695C278.955 167.63 276.306 165.359 273.78 162.493C273.347 162.88 272.942 163.297 272.569 163.742C271.954 164.546 271.131 165.511 270.214 166.494C269.429 167.781 268.672 169.001 268 170.08C267.678 170.6 267.395 171.196 267.054 171.679C270.283 174.982 273.223 178.555 275.843 182.359C285.539 195.84 293.505 211.629 294.044 228.468C294.214 233.889 297.771 236.207 294.498 240.965C292.606 243.803 290.818 245.61 288.727 248.846C290.619 242.895 291.944 243.397 293.713 239.442C295.368 235.753 292.332 233.766 291.906 228.544C290.96 216.388 286.306 205.839 280.856 195.064C276.791 187.003 271.841 179.42 266.099 172.454C265.861 172.521 265.611 172.537 265.367 172.501C265.122 172.466 264.888 172.379 264.68 172.246C262.901 171.3 261.208 171.3 260.186 170.572C259.907 170.372 259.706 170.082 259.618 169.75C259.53 169.419 259.56 169.067 259.703 168.755C258.909 168.169 259.58 168.661 256.865 166.476C247.944 159.43 238.581 152.962 228.835 147.111C226.318 145.587 221.938 144.102 220.888 141.434C219.138 141.888 217.218 142.097 215.401 142.702C214.569 142.976 211.806 143.989 209.848 144.67C250.385 155.53 280.024 188.584 286.069 234.826C287.271 244.068 287.649 254.427 286.154 263.727C286.154 264.077 286.154 264.417 286.154 264.758C286.701 263.844 287.334 262.985 288.046 262.194C290.525 259.545 290.44 260.756 292.899 256.887C296.419 251.305 300.032 244.664 300.619 238.042C300.69 235.424 301.101 232.826 301.839 230.313C302.184 231.308 302.447 232.33 302.624 233.369C302.67 230.988 302.585 228.607 302.369 226.236C301.622 229.906 297.724 236.093 295.69 239.234C299.607 226.397 302.028 230.758 300.193 215.082Z" fill="#AD50FF"/>
<path fill-rule="evenodd" clip-rule="evenodd" d="M280.704 247.322C278.235 254.493 269.219 260.406 266.268 258.343C263.874 256.678 264.735 253.046 265.549 250.832C265.956 256.745 266.495 259.025 271.632 254.938C275.245 252.1 281.035 244.352 277.535 239.669C277.535 239.603 277.374 239.537 277.374 239.499C275.936 239.092 271.443 245.714 271.055 246.121L268.557 248.637C269.503 246.745 274.432 235.393 278.443 237.361C275.127 225.019 269.85 213.291 262.815 202.623C232.003 155.899 170.663 140.592 120.278 163.779C115.578 165.911 111.041 168.383 106.702 171.177C100.695 176.853 94.631 182.378 88.6238 188.054L87.4885 189.123C101.13 179.587 119.445 173.533 134.392 172.322C148.668 171.158 168.099 172.719 181.41 177.534C182.39 177.765 183.316 178.186 184.134 178.774C182.006 178.654 179.894 178.337 177.824 177.828C150.967 173.097 121.309 174.63 96.4663 186.796C88.7184 190.58 83.9694 194.364 77.3283 198.678L76.9688 198.914C72.163 203.55 67.5086 208.441 64.9354 212.556C77.1535 202.415 91.5418 195.223 106.986 191.535C128.593 186.654 158.535 187.751 177.484 200.192C175.232 199.359 173.141 198.47 170.918 197.628C138.47 185.329 97.2231 191.1 69.3439 211.657C66.5414 213.704 63.8626 215.916 61.3216 218.279C59.0368 221.557 56.5569 224.694 53.8954 227.673C52.2209 230.417 50.4518 233.066 48.7774 235.989C70.1574 207.22 108.925 192.917 145.272 198.527C191.267 205.631 229.411 240.814 241.141 285.835C242.816 292.192 244.197 298.966 243.459 305.569C242.911 303.906 242.488 302.205 242.192 300.479C232.675 256.016 199.365 218.554 154.609 208.28C95.1419 194.619 33.2815 230.521 35.5331 295.929C35.5331 296.61 35.5898 297.291 35.6371 297.972C35.7506 299.287 35.8925 300.659 36.1196 302.144C36.3466 303.63 36.6304 305.086 36.9426 306.543C37.6042 308.621 38.1226 310.742 38.4941 312.891C41.0011 321.935 44.4919 330.629 47.3016 339.54C47.3583 339.701 47.3962 339.843 47.4435 339.995C50.414 344.006 53.2615 348.244 56.4212 352.189C73.4496 373.531 90.601 386.085 117.222 392.735C149.207 400.72 184.806 394.75 211.247 375.47C209.923 375.281 208.598 375.064 207.274 374.827C203.482 377.58 199.513 380.079 195.392 382.31C172.12 394.921 145.328 395.488 120.325 388.175C106.693 384.202 91.5281 376.445 79.9772 366.048C66.2693 355.367 54.5008 338.566 48.4084 322.928C42.0511 306.6 39.9983 282.968 45.1541 264.729L44.8514 264.285L45.1825 264.625C46.2084 260.898 47.6458 257.297 49.468 253.888C48.2665 258.325 47.2448 262.222 46.4407 265.94C50.6978 270.32 54.7751 274.804 59.0701 279.241C59.7512 266.725 63.1664 254.436 70.1385 244.532C64.4624 258.098 61.1229 265.931 60.8864 281.086C61.5203 281.729 62.1446 282.382 62.7785 282.978L63.6299 283.81C63.2704 269.544 66.468 255.07 74.3767 243.775C68.8709 256.83 65.7111 264.341 65.503 278.938C65.503 281.237 65.5503 283.536 65.7112 285.835C94.4135 313.421 136.824 345.879 177.417 363.626C213.414 351.073 237.66 314.594 220.726 272.761C216.564 262.506 212.212 256.764 206.489 247.672C207.7 248.94 208.835 250.274 209.932 251.636C209.289 250.69 208.627 249.621 207.955 248.543C211.856 252.732 215.3 257.323 218.229 262.241C242.702 301.974 231.473 346.522 189.716 368.394L189.536 368.479C194.493 370.286 199.393 371.838 204.218 373.086C216.157 364.979 226.412 354.119 233.034 341.82C237.471 333.571 238.994 327.744 241.7 318.927C241.646 321.301 241.329 323.661 240.754 325.965C236.43 345.832 224.17 362.188 208.258 374.061C209.024 374.241 209.8 374.43 210.566 374.591C211.039 374.685 211.512 374.78 212.042 374.865C220.239 368.798 227.407 361.451 233.27 353.107C263.307 310.176 243.1 255.553 206.867 223.388C200.68 217.977 194.121 213.008 187.237 208.516C185.372 207.4 183.623 206.101 182.015 204.638C185.714 205.66 184.749 205.234 188.202 206.833C224.368 223.625 252.976 262.033 256.174 302.173C256.841 310.782 256.284 319.442 254.518 327.895C259.192 319.381 264.205 310.867 266.485 306.458C267.29 304.926 268.141 303.317 269.03 301.652C268.442 302.125 267.785 302.505 267.081 302.778C267.886 300.479 271.045 295.702 273.997 291.956C278.036 283.687 281.735 274.738 282.861 266.508C282.594 260.07 281.873 253.659 280.704 247.322ZM159.528 254.947C157.485 258.239 156.321 260.103 157.844 264.512C161.486 275.116 178.184 274.918 178.278 262.62V260.614L179.48 262.355C181.126 266.139 179.045 270.661 175.961 273.064C168.591 278.825 158.932 275.712 155.649 267.198C154.145 263.357 154.685 255.288 159.528 254.947ZM135.206 273.13C135.414 266.072 137.647 260.832 142.888 256.101C137.325 264.095 135.319 270.878 137.978 280.584C145.385 307.773 183.888 306.43 191.087 280.726C192.894 274.303 191.882 269.894 190.35 263.622C195.222 273.082 194.077 283.489 187.511 291.842C169.953 314.367 134.307 301.955 135.206 273.13ZM197.577 271.096C210.15 307.991 176.244 337.639 141.185 329.115C116.834 323.193 97.6677 292.107 105.936 268.466C105.085 281.086 105.425 289.118 111.555 300.697C122.681 321.642 143.72 330.828 164.618 324.906C157.811 326.232 150.797 326.064 144.061 324.414C121.176 318.86 103.193 289.628 110.95 267.416C110.136 279.279 110.477 286.828 116.229 297.688C128.858 321.49 155.11 329.172 178.25 315.124C194.616 305.2 198.93 288.73 194.994 273.281C192.888 266.219 189.408 259.641 184.753 253.927C180.099 248.213 174.362 243.473 167.872 239.981C167.219 239.66 166.557 239.328 165.876 239.035C160.351 236.575 163.038 237.824 164.4 238.439L161.562 237.162L161.893 237.238L159.802 236.292C165.343 237.261 170.622 239.368 175.308 242.479C184.646 248.427 191.915 257.117 196.12 267.359C196.641 268.589 197.151 269.838 197.577 271.096ZM279.361 257.208C280.364 255.628 280.08 255.988 279.361 255.591C279.421 255.463 279.511 255.353 279.624 255.268C279.737 255.184 279.869 255.129 280.008 255.108C280.147 255.086 280.289 255.099 280.422 255.145C280.555 255.192 280.675 255.27 280.77 255.373C283.249 257.918 273.581 270.727 269.418 272.941C270.941 267.804 276.57 261.636 279.361 257.208ZM273.628 224.807C275.227 229.083 269.002 236.084 266.306 238.647C260.79 243.888 256.997 240.624 258.529 237.067C259.911 241.258 261.717 240.596 264.66 237.067C265.937 235.573 271.556 227.711 271.282 225.8C271.282 225.715 270.241 221.742 269.986 221.288C269.04 220.711 265.833 225.157 265.426 225.63C265.956 223.52 266.154 221.742 268.056 220.257C271.679 217.513 272.625 222.168 273.628 224.807ZM267.791 211.26L267.28 213.152C266.268 215.527 259.333 224.504 257.262 226.917C256.514 227.863 255.37 230.322 254.244 229.868C253.714 229.66 251.179 225.422 250.933 224.845C252.242 225.658 253.425 226.658 254.442 227.815C256.221 224.315 263.345 213.947 265.01 211.733C264.334 210.279 263.437 208.939 262.351 207.76C260.819 209.548 258.189 212.594 256.505 213.493C256.41 212.547 261.471 205.745 262.02 205.395C263.562 204.42 267.261 210.484 267.791 211.26ZM256.893 202.036C255.001 204.723 248.606 212.859 246.572 213.918C243.951 215.29 240.99 210.286 240.432 208.687C246.335 213.559 245.276 213.871 249.608 207.277C251.081 204.812 252.748 202.468 254.594 200.267C256.978 197.429 252.891 193.087 252.049 193.484C250.403 194.26 248.804 197.94 246.647 198.621C246.903 197.675 249.873 192.718 251.103 191.914C254.121 189.937 260.554 196.918 256.855 202.036H256.893ZM245.001 185.424C245.105 188.054 237.111 197.533 235.371 198.971C232.381 201.459 229.695 199.387 227.594 196.653C233.639 199.312 232.76 200.002 236.837 193.91C238.029 192.113 241.331 187.562 241.936 185.708V185.642C236.648 178.565 237.14 182.898 230.584 189.53L228.001 191.791C229.496 189.151 233.393 182.179 235.749 180.439C239.997 177.383 244.925 183.74 245.001 185.424ZM218.569 188.262C220.672 185.854 222.571 183.275 224.246 180.552C226.204 176.957 224.917 178.575 227.869 174.933L228.162 174.573C226.469 173.457 224.473 172 222.902 171.196C221.01 174.195 220.783 174.8 217.888 177.44C218.043 176.463 218.451 175.543 219.071 174.772C222.467 169.285 220.376 167.355 226.573 170.751C231.151 173.239 232.864 173.135 229.411 177.714C226.923 180.997 222.42 188.404 219.005 190.012C217.642 190.646 213.262 186.323 212.799 185.746C214.35 186.181 217.425 187.884 218.569 188.338V188.262ZM260.043 316.495C259.264 318.248 258.182 319.849 256.845 321.226C259.173 315.824 260.507 312.607 261.632 306.676C268.16 272.127 251.529 230.88 227.14 206.681C218.172 197.77 211.323 193.778 201.437 186.607C226.223 196.426 249.183 222.887 258.35 247.758C265.492 267.094 269.683 297.443 260.043 316.524V316.495ZM281.404 267.416C282.123 272.723 273.335 284 269.796 288.607C268.34 284.274 279.181 272.042 280.524 267.35C280.695 266.744 280.657 266.933 281.149 266.309C281.315 266.667 281.417 267.051 281.451 267.444L281.404 267.416Z" fill="#AD50FF"/>
<path fill-rule="evenodd" clip-rule="evenodd" d="M9.698 315.956C11.2116 318.303 12.6591 319.939 13.7943 319.996C16.9256 320.119 20.9462 317.243 23.9356 313.572C23.4346 313.929 22.9063 314.245 22.3558 314.518C16.8594 317.385 14.4281 317.234 9.698 315.956Z" fill="#AD50FF"/>
<path fill-rule="evenodd" clip-rule="evenodd" d="M370.586 93.8116C369.527 93.1115 368.477 92.402 367.426 91.6925L356.822 104.265C356.113 105.213 355.322 106.097 354.457 106.905C355.889 108.545 357.408 110.109 359.007 111.587C362.441 105.315 367.966 99.658 370.586 93.8116Z" fill="#AD50FF"/>
<path fill-rule="evenodd" clip-rule="evenodd" d="M354.448 106.885C355.148 103.47 361.401 94.3789 365.034 90.0934C363.416 89.015 361.808 87.9365 360.19 86.877C358.894 88.3811 357.002 90.4151 356.132 91.6071C353.615 95.2114 353.124 96.5926 349.387 99.7712L349.302 99.8374C350.115 101.143 351.008 102.458 351.979 103.782C352.802 104.937 353.615 105.93 354.448 106.885Z" fill="#AD50FF"/>
<path fill-rule="evenodd" clip-rule="evenodd" d="M364.371 82.5917L364.617 82.7431L364.542 82.6485L364.371 82.5917Z" fill="#AD50FF"/>
<path fill-rule="evenodd" clip-rule="evenodd" d="M354.374 79.2994C353.078 78.9683 351.98 78.6372 350.883 78.2588C351.271 78.6372 351.63 78.9872 351.962 79.3278C353.295 79.9806 354.8 80.7658 356.692 81.8253C368.044 88.2866 388.856 102.203 397.787 111.294C398.874 112.471 399.861 113.737 400.738 115.078C401.438 114.52 402.11 113.99 402.716 113.545L399.632 110.187C394.57 105.684 383.417 98.4469 378.583 95.2588C371.402 90.5287 364.184 85.5431 357.023 80.9549C356.105 80.3211 355.244 79.7913 354.374 79.2994Z" fill="#AD50FF"/>
<path fill-rule="evenodd" clip-rule="evenodd" d="M340.249 76.1113C340.201 76.1113 340.192 76.1114 340.154 76.1681C339.785 76.6979 339.823 77.5493 339.501 78.7318C342.434 85.6662 344.733 92.364 348.886 99.2037C349.868 97.5301 350.938 95.9101 352.093 94.3507C354.221 91.0207 351.478 95.0885 354.108 90.3678C354.846 89.0339 356.539 86.8582 357.693 85.2499L355.489 83.812C351.071 80.9739 347.429 79.4792 344.525 76.9344C342.339 76.0167 340.826 76.4614 340.249 76.1113Z" fill="#AD50FF"/>
<path fill-rule="evenodd" clip-rule="evenodd" d="M341.467 67.9473L341.836 68.2595L341.638 67.8054L341.467 67.9473Z" fill="#AD50FF"/>
<path fill-rule="evenodd" clip-rule="evenodd" d="M343.626 71.8447L344.336 72.3934L344.534 72.4881C344.222 72.1286 343.91 71.7501 343.588 71.3433C343.626 71.4947 343.626 71.665 343.626 71.8447Z" fill="#AD50FF"/>
<path fill-rule="evenodd" clip-rule="evenodd" d="M0.0219206 218.062C0.220585 218.573 0.409794 219.084 0.617919 219.585C0.973968 219.097 1.37975 218.647 1.8288 218.242C2.01361 218.077 2.20959 217.925 2.41533 217.788C1.65851 217.892 0.863871 217.977 0.0124512 218.034L0.0219206 218.062Z" fill="#AD50FF"/>
<path fill-rule="evenodd" clip-rule="evenodd" d="M11.1271 322.039C7.04026 318.842 1.59119 304.471 1.26954 299.249L1.64792 300.035L4.26842 296.184C5.07253 293.025 -2.0321 258.343 -4.85125 250.775L-4.93636 251.078C-5.35249 250.643 -5.59486 250.071 -5.61752 249.47C-9.65972 249.108 -13.7339 249.408 -17.6793 250.359C-21.1323 251.097 -24.3771 251.702 -27.7166 252.251L-33.4495 253.784C-32.5886 259.687 -32.5791 264.871 -31.5574 270.424C-30.8929 269.199 -29.9131 268.173 -28.7194 267.454C-30.2614 270.169 -30.8763 271.947 -30.952 273.518C-30.7438 274.35 -30.5357 275.192 -30.2708 276.053C-28.8045 280.783 -28.4828 281.247 -27.8301 285.513C-26.6286 289.685 -25.9381 288.815 -19.6849 289.477C-14.9901 289.87 -10.2663 289.747 -5.59858 289.108C-6.87571 287.386 -8.07714 283.583 -7.9447 277.33C-7.9447 275.495 -7.75551 272.392 -7.4244 269.601C-8.14337 267.709 -9.06102 266.195 -10.2625 265.675C-11.4639 265.155 -27.622 266.896 -30.3749 267.009C-25.465 265.117 -17.0549 263.934 -11.691 263.291C-10.7362 263.189 -9.77158 263.345 -8.89678 263.74C-8.02199 264.136 -7.26874 264.758 -6.71488 265.543C-6.68322 265.379 -6.63893 265.217 -6.58243 265.06C-6.53513 265.325 -6.46892 265.609 -6.42162 265.912C-5.84453 266.724 -5.35614 267.597 -4.96477 268.513V268.438C-4.98933 263.832 -5.32753 259.233 -5.97702 254.673C-2.33483 261.087 -3.33762 264.029 -2.19293 270.755C-1.54963 274.539 -0.915792 274.747 -0.527922 278.995C-0.386019 280.594 1.28844 297.301 0.0680751 297.234H-0.149489C-0.0832692 297.064 -0.073824 297.036 -0.0454427 297.007C-0.991465 293.706 -1.53069 289.893 -2.10776 286.516C-2.22128 285.844 -2.36318 285.078 -2.51454 284.264C-2.54472 285.17 -2.64915 286.072 -2.82675 286.961C-2.82675 287.036 -2.82675 287.121 -2.82675 287.226C-2.62808 289.893 -3.77277 290.839 -5.01206 289.799C-5.56603 290.153 -6.18787 290.389 -6.83787 290.489C-11.5207 291.435 -15.0304 292.154 -19.8646 292.012C-22.7027 291.937 -25.0109 292.069 -26.7516 291.53C-25.8056 296.099 -24.3393 302.296 -23.573 303.762C-15.5413 301.501 -7.94474 300.129 0.228884 298.549C0.52215 298.549 1.9601 298.076 2.12093 298.076C2.43311 299.089 -14.3776 303.525 -16.2224 304.065C-16.8941 304.273 -18.0577 304.708 -19.3254 305.134C-13.5641 314.253 -9.00425 324.565 2.57506 327.195C5.93344 327.952 11.4203 325.918 16.5667 322.645C15.6874 323.033 14.7207 323.182 13.7652 323.076C12.8096 322.97 11.8994 322.612 11.1271 322.039Z" fill="#AD50FF"/>
<path fill-rule="evenodd" clip-rule="evenodd" d="M-9.52322 194.289C-9.46646 187.543 -7.24327 181.432 -2.15368 175.548C2.00882 170.733 -0.564365 173.798 0.561402 167.601C0.834405 166.207 1.34305 164.87 2.06554 163.647C-5.90756 173.677 -12.3886 184.807 -17.1765 196.691C-19.5416 202.368 -21.2917 207.41 -22.0675 212.651C-22.0675 213.786 -22.0674 214.921 -22.1526 216.038C-19.4848 208.205 -15.1047 201.327 -9.52322 194.289Z" fill="#AD50FF"/>
<path fill-rule="evenodd" clip-rule="evenodd" d="M32.6475 293.649C32.078 285.189 32.5962 276.69 34.1895 268.362C34.3976 267.416 34.653 266.47 34.8895 265.524C33.5651 261.674 35.1733 259.677 36.1856 255.231C37.633 248.864 38.9574 245.837 41.2279 239.877C43.6876 233.473 48.2474 228.156 52.5802 222.849H52.7126L53.1099 222.224C51.0665 216.633 46.2986 202.935 45.7593 199.208C43.6308 200.504 41.6346 201.658 39.7142 202.717C30.9446 208.658 17.9557 214.524 8.86447 217.949C4.83442 219.443 2.81943 219.632 1.62744 221.865C1.94909 222.612 2.28019 223.341 2.63022 224.079C10.4349 240.35 17.8895 255.751 24.6158 272.524C25.2496 274.256 29.1188 283.943 32.6475 293.649Z" fill="#AD50FF"/>
<path fill-rule="evenodd" clip-rule="evenodd" d="M127.147 29.7941C126.887 29.6559 126.656 29.4697 126.465 29.2454C126.445 29.975 126.506 30.7048 126.645 31.4213C127.922 30.9577 129.199 30.4752 130.429 30.0022C129.341 30.2849 128.191 30.212 127.147 29.7941Z" fill="#AD50FF"/>
<path fill-rule="evenodd" clip-rule="evenodd" d="M243.11 34.912C244.189 38.9137 245.702 44.3156 246.1 44.94C246.866 46.132 248.834 45.8859 249.884 46.1508L252.362 46.7468C264.008 47.1725 285.549 42.0829 288.822 40.8815C293.363 39.1976 296.031 37.9867 297.488 36.4258C297.28 35.2338 297.412 36.0852 297.488 33.4363C297.5 30.2215 297.109 27.0179 296.324 23.9005C294.356 26.029 290.724 27.6844 289.456 28.2994C282.616 31.4591 253.507 38.7718 243.11 34.912Z" fill="#AD50FF"/>
<path fill-rule="evenodd" clip-rule="evenodd" d="M242.052 30.8159C242.146 31.2133 242.364 32.0553 242.638 33.1243C243.009 33.2737 243.388 33.4031 243.774 33.5121C252.818 36.1042 287.48 28.6307 294.168 22.3302C297.356 19.3124 289.164 19.4069 282.352 19.9272C280.827 20.3671 279.261 20.6493 277.679 20.7692C273.843 21.1392 270.059 21.9259 266.393 23.1153C263.11 24.0613 251.02 27.4482 247.652 27.6847C247.022 27.7162 246.39 27.7162 245.76 27.6847C244.436 28.6307 242.127 30.3997 241.976 30.8254C242.033 30.8538 242.033 30.8538 242.052 30.8159Z" fill="#AD50FF"/>
<path fill-rule="evenodd" clip-rule="evenodd" d="M129.029 37.4761C135.111 35.4137 140.381 32.5284 146.653 30.3998C150.986 28.943 160.9 25.0359 166.254 24.3642C173.094 22.0843 180.568 19.2651 185.298 14.4498L185.752 14.0052C187.739 11.0252 190.728 8.01694 194.115 6.72089C193.718 5.77487 192.469 2.9368 192.459 2.9368L192.393 2.84222C190.633 4.26126 186.14 7.24121 185.515 7.67638C178.751 12.52 175.384 13.589 167.91 16.9852C163.889 18.8205 132.652 32.0269 126.72 31.8661C127.155 33.4933 128.064 34.7042 129.454 37.0976L128.981 37.4003L129.029 37.4761Z" fill="#AD50FF"/>
<path fill-rule="evenodd" clip-rule="evenodd" d="M410.558 116.336C407.323 117.519 392.328 132.002 389.348 134.623C391.165 131.567 403.69 117.349 409.215 114.435C407.767 114.028 406.055 113.631 405.431 113.981C402.525 117.154 399.36 120.081 395.97 122.731C392.678 125.305 389.604 128.001 386.34 130.527C388.535 126.052 390.654 124.198 394.22 120.735C394.92 120.045 397.863 117.405 400.549 115.229C400.227 115.059 399.944 114.824 399.717 114.539C398.467 113.267 397.126 112.088 395.706 111.01L396.112 111.871C394.012 114.189 383.975 124.169 381.846 125.446C382.887 122.608 390.805 113.148 394.145 109.79C392.253 108.38 390.162 106.876 388.043 105.419C385.46 110.348 379.841 116.771 375.073 119.023C378.497 114.293 383.436 109.184 385.479 103.783L385.716 103.849C384.041 102.714 382.423 101.635 380.985 100.661C377.996 105.287 371.27 113.905 368.489 115.542C370.172 111.237 375.782 104.341 378.611 99.0998L377.107 98.1064L373.029 95.4008C369.86 101.134 363.948 107.5 359.785 112.212C360.41 112.779 361.034 113.347 361.677 113.905C361.602 113.735 361.488 113.441 361.195 112.685C362.678 113.853 363.957 115.259 364.979 116.847L366.379 118.086C369.315 120.87 372.552 123.32 376.028 125.39C377.957 126.369 379.799 127.512 381.534 128.805C381.988 129.126 382.338 129.344 382.669 129.543C383.35 129.959 384.086 130.277 384.855 130.489C384.633 130.599 384.392 130.663 384.145 130.678H384.202L386.094 137.3C386.595 138.53 387.352 139.381 390.351 142.976C394.826 148.255 398.865 153.581 403.17 158.869L404.021 159.938C404.909 160.573 405.608 161.436 406.046 162.436L406.235 162.644C406.23 162.6 406.23 162.556 406.235 162.512C406.32 162.635 406.377 162.758 406.462 162.881C407.362 163.924 408.434 164.807 409.631 165.492C410.946 165 412.706 165.321 414.844 162.341C418.23 157.611 419.517 157.507 424.077 153.96L425.969 152.474C429.062 149.031 431.721 145.303 432.184 141.832C432.704 138.047 424.37 129.429 421.778 126.78C417.209 122.117 415.79 119.988 410.558 116.336ZM382.404 128.483C382.348 128.199 382.329 128.124 382.404 128.483V128.483ZM429.091 141.415C427.388 143.875 419.47 150.686 414.579 154.527C413.954 156.23 412.233 158.236 410.795 157.573C406.282 155.53 398.231 145.71 397.068 141.103C402.138 145.067 406.197 150.232 410.634 154.858C410.71 154.943 411.287 155.454 411.58 155.729C412.627 155.096 413.582 154.323 414.418 153.43C418.476 148.908 423.055 144.859 426.773 140.252C426.532 139.835 426.26 139.436 425.959 139.06C422.497 142.645 418.249 146.628 413.869 148.397C416.802 144.547 420.718 140.829 424.077 136.818L422.875 135.484C419.895 138.208 413.027 144.414 410.643 145.247C411.665 142.815 418.155 136.203 420.841 133.298L418.609 130.943C414.257 134.888 409.016 139.221 404.551 142.901C406.32 138.17 412.611 132.882 416.565 128.824L415.269 127.462C412.337 128.483 401.978 137.735 398.865 139.76C400.303 137.281 413.585 122.731 416.613 125.219C418.741 126.979 431.238 138.275 429.091 141.415Z" fill="#AD50FF"/>
<path fill-rule="evenodd" clip-rule="evenodd" d="M357.815 114.246L357.625 114.454C357.625 114.369 357.711 114.283 357.748 114.189C356.925 113.517 356.14 112.855 355.45 112.231C347.664 105.296 341.259 90.6802 337.977 78.8834C337.644 78.1503 337.436 77.3669 337.362 76.5655C336.945 74.8911 336.586 73.2923 336.312 71.8354L336.397 72.0152C336.397 71.7693 336.321 71.5328 336.302 71.3057C334.384 72.359 332.302 73.0817 330.143 73.4437C328.592 73.5856 324.553 71.0408 325.338 69.5272C326.873 66.7905 328.964 64.4058 331.477 62.5266C330.304 64.7687 329.027 67.427 327.693 69.7069C330.465 71.6746 329.86 70.8232 334.315 68.8838C336.563 68.0056 338.731 66.9359 340.796 65.6863L340.682 65.3741L340.871 65.639C343.122 64.2679 344.768 62.0939 345.479 59.5561L345.535 59.3857C345.443 59.0418 345.282 58.7201 345.062 58.4397C341.004 64.5605 338.781 66.4809 330.872 67.1999C333.256 65.3078 334.93 64.6457 336.803 63.3212C336.586 62.0252 337.645 58.9127 337.645 58.9127C339.301 53.3217 342.726 46.8983 349.821 51.3446C354.409 54.2678 354.806 60.0575 354.068 65.1282C354.286 65.989 354.428 66.5378 354.504 66.831C354.579 67.1243 354.655 67.3797 354.504 66.831C354.352 66.2824 354.078 65.5823 354.645 68.9501C355.213 72.318 359.754 75.4776 362.034 78.0791C360.35 73.5666 360.605 68.7041 360.501 62.4982C360.312 50.4743 355.771 37.4949 340.975 48.2512C339.209 49.4951 337.599 50.9465 336.179 52.5744C336.539 53.5205 336.841 54.3056 337.049 55.0246L337.589 57.9951C336.643 56.7274 335.744 55.4977 334.911 54.2773C332.934 57.333 332.3 60.7103 332.754 65.0241C330.862 61.24 331.704 56.8788 334.041 53.0096C331.573 49.0001 328.776 45.203 325.678 41.6573C322.408 38.2117 318.387 35.5669 313.929 33.9284C313.934 33.9882 313.934 34.0483 313.929 34.1081C314.052 37.0597 308.054 41.1371 305.689 43.0575C299.294 48.289 289.512 51.6284 279.995 53.7286C263.837 58.6573 245.446 60.8616 230.404 58.3925C229.317 58.2127 226.232 58.0424 224.728 57.0302C223.025 56.8599 221.739 56.491 221.455 55.8004C220.746 54.0786 224.293 53.1325 225.655 52.4136C229.903 50.1337 233.905 47.9957 238.342 46.0469L236.667 47.8917C234.448 49.7057 232.109 51.3682 229.667 52.8678C228.862 53.5773 228.068 54.2868 227.453 54.8733C241.151 56.1031 254.66 53.6529 268.132 51.3919C280.009 49.5152 291.656 46.3919 302.879 42.0736L305.348 41.2032C309 38.8382 312.727 36.0758 313.248 34.5811C313.353 34.2969 313.401 33.9947 313.389 33.6919L313.2 33.6161C311.973 33.6046 310.748 33.5224 309.53 33.3701C308.357 33.1904 306.266 32.5471 304.279 32.1025C302.794 32.6039 301.441 33.1053 300.732 34.1554C300.618 34.3279 300.488 34.4895 300.344 34.6379C299.606 38.6301 296.077 40.314 289.767 43.0386C284.933 45.0725 257.773 51.6474 247.452 47.9011H246.884C242.513 47.589 240.726 39.3869 240.177 35.9529C239.958 34.7009 239.809 33.4375 239.732 32.1688C239.517 31.7505 239.443 31.2736 239.521 30.8097C239.6 30.3458 239.826 29.9197 240.167 29.5955C240.716 28.5644 241.851 27.9211 243.885 27.4575H243.639C243.469 27.4575 243.545 27.4576 243.412 27.5711C240.631 27.3157 229.78 21.6301 225.977 19.88C217.378 15.9445 211.787 12.8037 203.736 10.6468C201.808 10.4682 199.892 10.1872 197.994 9.80483C194.806 9.19938 192.318 10.7508 189.782 12.4915C188.723 13.4375 187.673 14.5065 186.632 15.6891C180.757 22.368 168.714 26.8331 160.219 29.3496C150.702 34.6757 138.101 40.1627 128.546 41.1465L127.042 39.4626C122.596 44.7414 113.902 55.7057 112.464 59.3857C109.124 67.9662 110.42 84.0959 112.644 93.0831C115.538 104.719 114.063 111.852 111.963 123.29C110.25 132.636 110.222 140.318 110.345 149.721C110.402 154.347 110.752 157.725 111.054 162.133C107.346 160.62 106.665 132.731 106.92 128.814C107.734 116.516 110.307 110.84 108.112 98.7309C102.729 103.764 96.9681 106.469 90.7243 110.83C90.2229 111.18 89.6742 111.54 89.1256 111.89C90.481 112.345 91.6178 113.29 92.3136 114.539C90.2986 114.813 90.1661 113.933 87.9051 114.179C83.8846 114.596 83.544 115.579 81.0465 117.85C80.8832 117.484 80.7995 117.087 80.8006 116.686C77.4517 118.436 74.0554 120.054 71.1417 121.341C69.0226 122.287 67.1684 123.233 65.3615 124.179C67.3765 124.68 69.0699 125.664 68.7861 126.894C67.978 126.66 67.1522 126.493 66.317 126.393C60.6409 125.967 60.4989 126.989 56.9797 131.028C57.0296 130.188 57.1244 129.351 57.2635 128.521C54.5579 130.12 51.8523 131.728 49.1183 133.251C47.5952 134.112 46.1761 134.888 44.8044 135.616C45.5717 136.118 46.2179 136.783 46.6964 137.565C45.2585 137.376 43.6503 136.95 42.2785 137.338C37.2457 138.748 37.8134 139.845 35.3348 143.903C35.0027 142.781 34.8934 141.605 35.0131 140.441L31.844 141.926C28.6936 143.531 25.6561 145.348 22.7526 147.366C23.3143 147.356 23.8728 147.453 24.3988 147.65C25.4867 148.047 25.288 148.151 25.8461 149.182C24.9093 149.228 23.989 149.447 23.1311 149.826C19.9241 151.623 20.2173 150.346 18.5902 152.843C17.6442 152.645 17.4644 151.755 17.8712 150.753C14.4182 153.241 11.1734 155.757 8.95969 157.706C7.21901 161.991 3.6525 163.07 4.10659 170.307C4.51338 176.995 1.48611 176.844 -1.56954 183.04C-3.81893 187.701 -5.05082 192.786 -5.18335 197.959C-4.59682 202.982 -2.82779 208.678 -1.13441 214.278C3.99303 213.199 14.7777 207.59 17.7198 205.243C24.8055 199.567 40.5568 179.521 37.7566 170.127C36.1389 164.678 27.0949 168.642 23.6987 169.739C17.8712 171.631 12.6397 174.015 6.67027 175.879C10.8233 173.618 15.5913 171.3 19.9146 169.465C25.761 167.005 38.7783 161.14 40.1784 170.827C41.3325 162.587 42.6759 155.776 48.8629 148.634C49.298 148.113 48.8629 148.302 49.5819 147.744C49.9319 149.22 49.1561 149.967 48.475 151.462C46.6615 155.412 45.2419 159.532 44.2368 163.76C42.761 169.228 42.638 170.78 40.0932 175.292C38.4188 187.127 26.4232 202.727 17.4833 208.659C15.0047 210.305 5.0242 215.006 -0.595167 216.132C-0.538406 216.34 -0.472173 216.558 -0.405952 216.766C3.61605 215.61 7.5212 214.08 11.2585 212.197C27.3409 204.628 45.9586 195.708 61.0287 186.465C64.9547 184.062 65.7588 183.182 68.5969 181.924C65.9897 176.386 63.7091 170.7 61.7666 164.896C64.7088 168.68 68.0765 174.677 70.9525 180.978L71.17 180.893L70.9903 181.054C72.7959 184.968 74.3752 188.982 75.7204 193.078C83.4778 185.292 92.7488 177.639 101.689 170.373C105.416 166.743 109.455 163.448 113.76 160.525C116.276 158.633 119.133 156.523 121.858 154.622C134.525 138.237 160.314 127.074 180.275 124.075C194.191 121.984 212.61 121.435 225.636 128.304C229.146 127.944 232.542 127.859 233.271 128.559C233.999 129.259 233.98 129.912 233.479 130.451C247.386 131.511 261.301 140.517 269.059 151.632C270.79 154.12 270.875 154.187 271.462 155.577C273.075 156.322 274.583 157.276 275.946 158.415C276.826 159.305 275.681 160.572 274.423 161.783C276.4 163.675 278.358 165.293 280.231 167.024C289.351 175.538 296.929 193.078 300.315 205.035C301.853 210.494 302.637 216.137 302.643 221.808C303.076 222.969 303.374 224.175 303.532 225.403C303.731 226.444 303.891 227.484 304.043 228.534C304.043 226.387 304.043 224.117 304.118 221.572C306.961 229.613 307.167 238.352 304.705 246.518C304.491 248.753 304.102 250.967 303.541 253.14C301.517 259.29 298.594 262.478 294.829 265.94C302.699 260.898 307.704 257.984 313.342 249.262C318.459 241.235 321.18 231.914 321.185 222.395C319.873 223.319 318.386 223.963 316.814 224.287C304.222 227.267 308.99 210.314 312.245 210.286C310.211 214.827 308.262 223.918 316.029 221.506C318.413 220.777 320.191 219.689 320.977 218.289C320.837 216.736 320.616 215.192 320.314 213.663C319.966 213.162 319.577 212.691 319.151 212.253C317.155 210.182 315.632 209.907 312.916 209.851C313.931 209.245 315.103 208.956 316.282 209.02C317.462 209.084 318.596 209.499 319.539 210.21C317.647 202.793 315.452 195.708 313.03 188.452C315.095 191.59 316.721 194.995 317.864 198.574C319.866 203.533 321.51 208.63 322.783 213.824C323.637 215.337 323.928 217.102 323.607 218.809C323.894 221.432 323.96 224.075 323.805 226.709C322.859 243.737 310.722 261.711 294.091 266.725C292.993 267.719 291.839 268.759 290.609 269.904C287.667 272.638 285.17 277.671 283.419 281.436C284.493 281.379 285.549 281.139 286.541 280.726C294.564 278.409 302.964 274.104 311.289 271.209C327.428 264.19 345.441 256.887 351.448 254.597C356.235 252.781 361.031 250.977 365.837 249.186L366.442 248.836C370.728 245.771 375.193 243.018 379.687 240.322C381.051 239.233 382.28 237.985 383.348 236.604C384.625 234.863 386.347 232.555 388.163 229.982C388.163 229.84 388.22 229.707 388.229 229.566V226.661L388.977 228.847C392.893 223.303 397.027 216.879 398.162 212.433C397.402 208.298 396.346 204.223 395.003 200.239C393.111 203.181 390.414 207.703 387.501 209.746C385.249 211.345 385.07 211.061 384.265 209.018C380.689 200.04 377.643 190.968 373.925 181.914C368.136 167.79 362.573 153.799 356.982 139.608C354.324 132.873 348.534 119.439 347.002 113.12C350.653 118.909 356.954 134.292 359.99 141.264C369.451 162.928 377.322 182.17 384.511 204.78C384.776 205.603 385.401 207.722 385.902 209.046C389.998 206.748 391.351 203.645 395.003 200.229C391.219 188.357 385.476 173.448 383.376 167.601C378.003 152.588 371.21 134.178 364.248 119.354C362.261 117.784 359.915 115.977 357.815 114.246ZM11.249 184.251C10.6247 189.152 10.3976 196.777 17.6252 194.837C29.1478 191.734 32.421 172.549 22.1851 174.791C17.3982 175.851 16.5846 178.66 13.9546 181.366C14.352 176.163 23.0554 169.664 28.2301 174.11C33.9063 179.02 30.3019 188.556 25.5151 193.03C21.8823 196.445 13.9641 199.87 10.7003 194.326C8.77045 191.063 9.5462 187.316 11.249 184.204V184.251ZM37.8606 158.444C32.8846 160.572 31.6264 161.679 27.2747 164.328C25.5813 165.35 22.8946 164.328 20.9931 164.867C11.1166 167.384 15.6764 173.618 6.23514 170.222C14.0304 169.891 10.4922 170.534 14.0966 166.438C16.1967 164.091 20.6147 162.597 23.746 162.483C24.4521 162.5 25.1581 162.452 25.8556 162.341C28.4585 160.28 31.2452 158.462 34.1806 156.911C31.8722 156.322 29.5116 155.961 27.1327 155.833C23.8595 156.088 17.1049 158.671 14.5885 160.979C12.1775 163.023 10.0096 165.337 8.12718 167.876L7.67305 168.453C7.92848 165.492 12.5735 160.26 14.5791 158.567C16.5846 156.873 24.219 153.704 26.5746 153.354C28.9302 153.004 34.8996 153.884 37.4727 154.82C39.4878 155.492 39.8 157.545 37.8606 158.396V158.444ZM67.1873 131.397C59.7232 135.039 52.6091 138.965 45.3248 142.948C39.6486 146.022 30.8411 151.462 24.7109 152.616C36.6402 146.174 48.6264 137.48 60.5179 131.34C64.0938 129.505 67.9441 128.01 71.7282 126.099C78.1895 122.798 90.3364 117.585 97.2046 115.863C92.545 118.588 87.724 121.027 82.7683 123.167C77.1773 125.749 72.5796 128.739 67.2346 131.35L67.1873 131.397ZM106.05 158.832C103.212 155.303 103.212 144.954 102.474 140.384C101.263 132.655 102.625 127.566 102.162 120.395C101.812 114.974 101.036 114.965 97.2803 116.261C100.932 111.956 103.212 116.052 103.846 120.215C104.792 126.26 104.186 133.592 104.792 139.949C105.397 146.306 104.792 150.894 105.88 157.498C105.995 157.915 106.068 158.343 106.097 158.775L106.05 158.832ZM171.874 38.545C172.461 34.4298 175.053 30.8632 179.537 26.6345C182.734 23.6167 186.793 19.7664 191.315 19.2556C186.906 24.4398 175.232 33.5027 177.21 41.3546C179.319 49.9445 189.64 63.605 195.553 70.3123C197.965 73.0463 200.151 75.0425 202.062 78.1738C192.677 74.6546 178.089 58.3073 174.192 49.7174C172.385 45.7536 171.609 42.5088 171.789 39.5761C161.714 45.1955 142.718 53.2934 133.948 55.4125C141.724 50.3891 161.023 41.8276 171.921 38.4882L171.874 38.545ZM205.051 81.5227C193.699 81.7213 178.638 85.8934 167.92 89.5261C155.508 93.717 142.907 98.0402 131.337 104.246C125.453 107.396 121.338 110.603 115.87 113.896C121.546 105.325 133.134 98.92 142.141 94.398C158.223 86.3663 177.569 80.5105 195.629 79.6875C199.943 79.4888 204.701 79.3374 208.599 81.4092C207.434 81.5079 206.264 81.5174 205.098 81.4376L205.051 81.5227ZM277.289 158.652C274.933 155.914 272.771 153.015 270.818 149.977C258.454 131.955 243.516 112.287 227.472 97.5767C222.893 93.3575 213.376 86.0731 209.999 81.7876C219.752 86.092 236.932 100.708 244.358 108.361C255.909 120.243 267.848 138.634 275.199 153.487C276.129 155.09 276.848 156.807 277.337 158.595L277.289 158.652ZM301.734 193.522L299.559 194.62C304.61 189.454 307.496 185.481 306.947 177.809C306.455 170.969 301.091 160.497 294.015 158.888C288.887 157.696 284.611 157.687 280.042 160.478C280.402 161.755 283.41 166.296 284.101 167.894C283.41 167.194 277.1 161.093 278.793 159.456C283.618 154.726 294.781 154.839 299.956 158.727C310.391 166.4 313.352 185.878 301.782 193.465L301.734 193.522ZM306.606 194.402C309.596 191.082 311.743 189.01 312.68 184.374C314.004 177.752 309.984 165.832 305.859 160.298C299.701 152.02 292.615 152.115 283.429 152.843C295.803 147.583 307.808 153.789 312.273 166.088C316.076 176.361 317.864 188.262 306.654 194.345L306.606 194.402ZM320.144 180.77C319.388 182.754 317.953 184.406 316.095 185.434L316.928 184.166C323.096 174.706 318.28 161.632 311.488 153.685C305.746 146.95 300.391 145.587 292.747 145.379C292.843 146.035 292.907 146.695 292.936 147.356C292.416 146.742 291.968 146.069 291.603 145.351H289.71C290.25 145.152 290.77 144.991 291.3 144.84L290.997 144.244C284.995 132.516 278.399 121.102 271.235 110.045C263.666 98.4281 256.278 86.4987 247.66 75.7046C243.337 70.2934 238.531 65.5917 234.416 60.3602C245.011 65.7147 255.389 78.4387 262.72 87.9651C273.557 102.247 282.442 117.909 289.143 134.538C290.617 137.748 291.768 141.098 292.577 144.537C311.45 140.346 327.088 164.451 320.144 180.77ZM376.12 200.154C376.574 201.45 386.403 230.814 383.083 229.84C383.234 228.005 381.115 222.556 380.472 220.796C370.539 193.466 358.117 167.109 346.623 140.384C338.175 120.783 330.295 101.455 321.26 82.0241C316.294 71.353 311.8 62.8672 306.219 52.6407C314.004 59.121 323.02 77.4548 327.75 86.6123C336.189 102.931 345.015 121.085 352.29 137.934C360.738 157.46 369.214 179.956 376.12 200.116V200.154Z" fill="#AD50FF"/>
<path fill-rule="evenodd" clip-rule="evenodd" d="M267.197 203.607C268.38 205.612 269.524 207.646 270.603 209.737C271.549 206.7 272.164 205.953 274.935 204.383C273.989 202.292 272.939 200.23 271.832 198.196C271.161 200.797 269.827 202.282 267.197 203.607Z" fill="#AD50FF"/>
<path fill-rule="evenodd" clip-rule="evenodd" d="M275.056 160.241L274.536 159.967C274.689 160.093 274.866 160.186 275.056 160.241Z" fill="#AD50FF"/>
<path fill-rule="evenodd" clip-rule="evenodd" d="M209.952 141.784C213.518 140.904 217.047 140.072 220.698 140.375C220.405 137.007 223.139 133.961 226.157 131.861C224.355 132.07 222.573 132.431 220.831 132.939C216.479 134.235 213.007 138.104 209.952 141.784Z" fill="#AD50FF"/>
<path fill-rule="evenodd" clip-rule="evenodd" d="M265.577 170.08C266.627 168.84 269.361 165.104 271.149 162.776C271.562 162.142 272.024 161.541 272.53 160.979C271.982 160.288 271.433 159.56 270.913 158.765C268.236 162.899 265.01 165.387 262.947 168.311C263.515 168.689 264.073 169.086 264.631 169.522C264.963 169.679 265.279 169.866 265.577 170.08Z" fill="#AD50FF"/>
<path fill-rule="evenodd" clip-rule="evenodd" d="M262.582 168.822L263.234 169.02C263.083 168.859 262.95 168.689 262.799 168.519C262.733 168.623 262.648 168.717 262.582 168.822Z" fill="#AD50FF"/>
<path fill-rule="evenodd" clip-rule="evenodd" d="M285.927 260.34C285.927 260.122 285.927 259.876 285.927 259.592C286.014 251.206 285.381 242.829 284.035 234.551C283.678 235.157 283.187 235.674 282.6 236.063C282.013 236.451 281.346 236.701 280.648 236.793C280.875 237.739 281.093 238.685 281.31 239.631L281.556 238.799L284.48 237.682L283.713 240.871L281.67 241.372C282.124 243.56 282.524 245.79 282.871 248.06C284.379 252.016 285.405 256.139 285.927 260.34Z" fill="#AD50FF"/>
<path fill-rule="evenodd" clip-rule="evenodd" d="M271.311 158.169C271.198 158.359 271.065 158.529 270.952 158.718C271.702 159.21 272.405 159.77 273.052 160.393C273.326 160.099 273.582 159.806 273.799 159.541C272.938 159.012 271.869 158.453 271.311 158.169Z" fill="#AD50FF"/>
<path fill-rule="evenodd" clip-rule="evenodd" d="M113.155 165.113C127.156 157.3 142.579 152.369 158.516 150.61C200.539 146.23 237.642 162.833 260.564 193.617C261.51 191.261 263.137 187.941 264.963 187.155C234.69 144.584 175.034 133.232 128.66 154.546C125.822 155.861 123.258 157.157 120.912 158.463C118.273 160.761 115.51 162.975 113.155 165.113Z" fill="#AD50FF"/>
<path fill-rule="evenodd" clip-rule="evenodd" d="M265.627 188.073C264.596 190.618 263.801 193.446 261.417 194.79C262.127 195.736 262.827 196.758 263.508 197.77C263.395 195.159 265.684 192.671 268.049 191.725C267.387 190.694 266.734 189.662 266.034 188.641C265.902 188.442 265.76 188.262 265.627 188.073Z" fill="#AD50FF"/>
<path fill-rule="evenodd" clip-rule="evenodd" d="M267.736 194.241C266.757 195.877 265.473 197.309 263.952 198.46C264.917 199.917 265.863 201.399 266.79 202.907C267.67 200.482 269.075 198.282 270.906 196.464C270.149 195.121 269.364 193.796 268.541 192.472C268.474 192.907 268.351 193.068 267.736 194.241Z" fill="#AD50FF"/>
<path fill-rule="evenodd" clip-rule="evenodd" d="M222.667 139.533C222.895 138.507 223.211 137.504 223.614 136.534C222.999 137.413 222.669 138.46 222.667 139.533Z" fill="#AD50FF"/>
<path fill-rule="evenodd" clip-rule="evenodd" d="M252.684 140.091C244.264 134.737 240.566 134.036 232.581 131.227C230.973 132.078 228.494 132.684 227.927 133.365C225.995 135.699 224.443 138.323 223.329 141.141C223.852 141.722 224.498 142.178 225.221 142.475C235.902 147.205 251.965 158.453 259.921 168.018C261.293 164.943 266.174 160.449 266.96 159.589C268.331 158.113 269.135 155.805 270.63 155.521C270.091 154.991 270.63 155.454 268 152.578C263.532 147.691 258.372 143.483 252.684 140.091ZM260.877 152.578C260.671 152.802 260.482 153.039 260.309 153.288C260.312 153.307 260.312 153.326 260.309 153.345C258.625 155.804 258.568 158.784 255.711 156.419C253.176 154.338 250.319 151.983 247.954 149.797C251.042 151.258 253.971 153.033 256.695 155.095C256.695 155.095 256.894 155.237 257.083 155.35C257.149 155.218 257.225 155.057 257.291 154.906H257.225C254.765 153.704 251.293 150.668 249.032 148.454C248.9 148.539 248.796 148.634 248.654 148.728C248.512 148.823 248.332 148.965 248.209 149.04C248.03 148.946 248.285 148.577 248.682 148.094C248.446 147.867 248.219 147.64 248.03 147.432L248.909 147.83C249.5 147.214 250.004 146.52 250.404 145.767C252.495 140.091 252.069 142.693 255.617 144.112C258.928 145.455 260.347 146.004 263.138 148.577C262.097 151.018 262.428 150.857 260.877 152.569V152.578Z" fill="#AD50FF"/>
<path fill-rule="evenodd" clip-rule="evenodd" d="M252.448 143.875C252.268 144.159 252.079 144.726 251.71 145.436C253.602 146.543 257.745 149.04 259.732 150.506C260.076 150.072 260.521 149.728 261.028 149.504C259.685 148.86 257.925 147.082 256.563 146.344C254.065 144.991 254.964 145.975 252.448 143.875Z" fill="#AD50FF"/>
<path fill-rule="evenodd" clip-rule="evenodd" d="M249.459 148.104L250.405 148.529C251.351 149.04 255.76 151.897 257.595 152.758C257.85 152.47 258.135 152.209 258.446 151.982C255.85 150.256 253.515 148.166 251.512 145.776C250.976 146.671 250.28 147.46 249.459 148.104Z" fill="#AD50FF"/>
<path d="M382.403 128.483C382.327 128.123 382.346 128.199 382.403 128.483V128.483Z" fill="#1C1C1C" stroke="#1C1C1C" stroke-width="1.74068" stroke-miterlimit="10"/>
<path d="M159.833 236.282L161.924 237.228L161.593 237.153L164.431 238.43C163.087 237.815 160.382 236.538 165.906 239.026C166.588 239.328 167.25 239.66 167.903 239.972C174.393 243.464 180.13 248.203 184.784 253.918C189.438 259.632 192.919 266.209 195.025 273.272C198.96 288.72 194.647 305.191 178.28 315.114C155.141 329.163 128.889 321.481 116.259 297.679C110.507 286.809 110.167 279.26 110.98 267.406C103.233 289.619 121.216 318.851 144.091 324.404C150.827 326.055 157.841 326.223 164.648 324.896C143.76 330.818 122.711 321.632 111.586 300.687C105.456 289.108 105.115 281.076 105.967 268.456C97.7267 292.107 116.865 323.184 141.215 329.106C176.275 337.62 210.18 307.962 197.608 271.086C197.182 269.828 196.662 268.579 196.141 267.302C191.936 257.061 184.667 248.37 175.329 242.422C170.642 239.329 165.366 237.239 159.833 236.282ZM161.962 237.228C160.893 236.746 160.003 236.282 162.132 237.228H161.962Z" fill="#1C1C1C" stroke="#1C1C1C" stroke-width="1.74068" stroke-miterlimit="10"/>
<path d="M175.944 273.111C179.028 270.708 181.11 266.158 179.464 262.402L178.262 260.661V262.667C178.168 274.889 161.47 275.116 157.828 264.559C156.305 260.15 157.469 258.287 159.512 254.994C154.659 255.335 154.129 263.405 155.614 267.293C158.878 275.76 168.575 278.872 175.944 273.111Z" fill="#1C1C1C" stroke="#1C1C1C" stroke-width="1.74068" stroke-miterlimit="10"/>
<path d="M201.438 186.607C211.323 193.778 218.173 197.77 227.141 206.681C251.529 230.881 268.16 272.127 261.633 306.676C260.507 312.607 259.173 315.824 256.846 321.226C258.182 319.85 259.265 318.248 260.043 316.496C269.683 297.414 265.493 267.066 258.35 247.729C249.183 222.887 226.223 196.427 201.438 186.607Z" fill="#1C1C1C" stroke="#1C1C1C" stroke-width="1.74068" stroke-miterlimit="10"/>
<path d="M268.123 220.276C266.231 221.761 266.023 223.54 265.493 225.649C265.9 225.176 269.107 220.73 270.053 221.307C270.308 221.761 271.358 225.734 271.349 225.819C271.585 227.712 265.966 235.592 264.727 237.087C261.785 240.568 259.997 241.23 258.596 237.087C257.064 240.644 260.858 243.907 266.373 238.666C269.069 236.103 275.294 229.102 273.695 224.826C272.626 222.168 271.68 217.513 268.123 220.276Z" fill="#1C1C1C" stroke="#1C1C1C" stroke-width="1.74068" stroke-miterlimit="10"/>
<path d="M269.392 272.941C273.583 270.727 283.251 257.918 280.744 255.373C280.649 255.27 280.529 255.192 280.396 255.145C280.263 255.099 280.121 255.086 279.982 255.107C279.843 255.129 279.711 255.184 279.598 255.268C279.485 255.353 279.395 255.463 279.335 255.59C280.054 255.988 280.338 255.591 279.335 257.208C276.572 261.636 270.944 267.804 269.392 272.941Z" fill="#1C1C1C" stroke="#1C1C1C" stroke-width="1.74068" stroke-miterlimit="10"/>
<path d="M280.506 267.378C279.162 272.108 268.321 284.302 269.778 288.635C273.316 284.028 282.076 272.752 281.385 267.444C281.363 267.064 281.277 266.689 281.13 266.337C280.657 266.962 280.695 266.773 280.506 267.378Z" fill="#1C1C1C" stroke="#1C1C1C" stroke-width="1.74068" stroke-miterlimit="10"/>
<path d="M71.7778 126.052C67.9937 127.944 64.1434 129.458 60.5675 131.293C48.676 137.414 36.6898 146.127 24.7605 152.569C30.8907 151.462 39.6888 145.947 45.3743 142.901C52.6587 138.927 59.7728 134.992 67.2369 131.35C72.5819 128.739 77.1796 125.749 82.8179 123.119C87.7736 120.98 92.5945 118.541 97.2541 115.816C90.3576 117.557 78.2391 122.75 71.7778 126.052Z" fill="#1C1C1C" stroke="#1C1C1C" stroke-width="1.74068" stroke-miterlimit="10"/>
<path d="M195.677 79.6306C177.618 80.4537 158.262 86.3096 142.189 94.3413C133.183 98.8633 121.576 105.268 115.918 113.839C121.386 110.547 125.502 107.34 131.386 104.189C142.956 98.0024 155.557 93.6601 167.969 89.4693C178.687 85.8365 193.757 81.6646 205.1 81.466C206.284 81.52 207.47 81.482 208.648 81.3524C204.75 79.2807 199.991 79.432 195.677 79.6306Z" fill="#1C1C1C" stroke="#1C1C1C" stroke-width="1.74068" stroke-miterlimit="10"/>
<path d="M244.407 108.304C236.981 100.67 219.811 86.0351 210.048 81.7307C213.425 86.0161 222.942 93.3004 227.521 97.5197C243.603 112.23 258.503 131.898 270.868 149.92C272.82 152.959 274.982 155.857 277.338 158.595C276.869 156.789 276.166 155.053 275.248 153.43C267.897 138.558 255.958 120.224 244.407 108.304Z" fill="#1C1C1C" stroke="#1C1C1C" stroke-width="1.74068" stroke-miterlimit="10"/>
<path d="M26.5751 153.335C24.2195 153.685 16.4716 156.949 14.5795 158.548C12.6875 160.147 7.95732 165.473 7.67351 168.434L8.12764 167.857C10.01 165.318 12.178 163.004 14.5889 160.96C17.1053 158.633 23.8599 156.069 27.1332 155.814C29.5121 155.942 31.8727 156.303 34.1811 156.892C31.2456 158.444 28.4589 160.261 25.8561 162.322C25.1586 162.433 24.4525 162.481 23.7465 162.464C20.6151 162.578 16.1783 164.073 14.097 166.419C10.4927 170.515 14.0308 169.872 6.2356 170.203C15.6958 173.599 11.117 167.365 20.9935 164.848C22.8856 164.356 25.5817 165.331 27.2751 164.309C31.6268 161.66 32.885 160.525 37.8611 158.425C39.7531 157.573 39.4882 155.521 37.4732 154.802C34.9 153.837 29.0253 152.966 26.5751 153.335Z" fill="#1C1C1C" stroke="#1C1C1C" stroke-width="1.74068" stroke-miterlimit="10"/>
<path d="M300.003 158.623C294.828 154.735 283.665 154.65 278.841 159.352C277.147 160.988 283.457 167.09 284.148 167.79C283.457 166.192 280.449 161.651 280.089 160.374C284.659 157.535 288.935 157.592 294.062 158.784C301.138 160.44 306.502 170.912 306.994 177.705C307.543 185.377 304.648 189.35 299.606 194.516L301.782 193.418C313.351 185.878 310.39 166.4 300.003 158.623Z" fill="#1C1C1C" stroke="#1C1C1C" stroke-width="1.74068" stroke-miterlimit="10"/>
<path d="M283.479 152.786C292.703 152.058 299.751 151.963 305.909 160.241C310.034 165.775 314.054 177.686 312.73 184.317C311.784 188.953 309.646 191.024 306.657 194.345C317.867 188.262 316.117 176.371 312.333 166.012C307.858 153.761 295.853 147.526 283.479 152.786Z" fill="#1C1C1C" stroke="#1C1C1C" stroke-width="1.74068" stroke-miterlimit="10"/>
<path d="M292.599 144.49C291.789 141.051 290.639 137.701 289.165 134.491C282.464 117.862 273.578 102.2 262.742 87.9179C255.41 78.3915 245.033 65.6675 234.437 60.313C238.571 65.5445 243.377 70.2462 247.682 75.6575C256.3 86.4516 263.764 98.3619 271.256 109.998C278.421 121.054 285.017 132.469 291.019 144.197L291.322 144.793C290.792 144.944 290.271 145.105 289.732 145.304H291.624C291.99 146.022 292.437 146.695 292.958 147.309C292.928 146.647 292.865 145.987 292.769 145.332C300.413 145.54 305.767 146.902 311.51 153.638C318.302 161.585 323.117 174.611 316.949 184.119L316.117 185.387C317.975 184.359 319.409 182.707 320.166 180.723C327.091 164.451 311.453 140.346 292.599 144.49Z" fill="#1C1C1C" stroke="#1C1C1C" stroke-width="1.74068" stroke-miterlimit="10"/>
<path d="M327.752 86.612C323.022 77.4545 314.006 59.1207 306.22 52.6404C311.755 62.8669 316.295 71.3527 321.262 82.0238C330.297 101.455 338.177 120.811 346.625 140.384C358.119 167.071 370.54 193.427 380.474 220.796C381.117 222.555 383.236 228.004 383.085 229.84C386.405 230.786 376.576 201.459 376.122 200.154C369.216 179.994 360.74 157.497 352.292 137.972C345.017 121.085 336.19 102.931 327.752 86.612Z" fill="#1C1C1C" stroke="#1C1C1C" stroke-width="1.74068" stroke-miterlimit="10"/>
<path d="M430.5 132.438C427.851 128.654 414.559 114.179 410.86 113.905C410.769 113.896 410.677 113.896 410.586 113.905C408.942 112.813 407.033 112.186 405.061 112.089C404.437 112.295 403.856 112.616 403.349 113.035L400.293 109.478C399.877 108.986 399.508 108.532 399.347 108.38C392.536 101.474 378.875 91.7775 367.75 84.7297C365.745 82.3362 364.572 81.0402 363.512 77.029C361.005 67.4269 367.485 45.9429 353.777 42.348C347.931 40.8249 340.07 45.0724 335.481 50.9945C333.211 46.0468 329.361 39.7936 326.702 37.0502C322.436 32.5849 314.896 30.5699 308.927 29.6428C305.341 29.0847 303.676 28.8482 300.583 29.6428C300.562 29.1052 300.496 28.5704 300.384 28.0441C299.901 25.7685 298.971 23.611 297.65 21.6962C297.728 21.2392 297.693 20.7701 297.548 20.3298C297.403 19.8894 297.152 19.4914 296.817 19.1704C293.979 16.1148 283.356 16.9851 273.016 19.0001C268.281 19.3907 263.588 20.1787 258.986 21.3557C255.032 22.3017 252.364 23.6829 248.949 24.6194C244.436 25.8682 240.86 24.4776 238.543 23.7586C229.631 17.7325 220.067 12.255 209.613 9.65341C206.296 7.88329 202.694 6.7112 198.97 6.19093C197.683 5.97131 196.363 6.04896 195.111 6.41797C194.526 5.05208 193.67 3.81937 192.594 2.79475C192.973 2.49202 193.2 2.26495 193.19 2.17981L193.134 2.00012C193.053 2.08993 192.968 2.17522 192.878 2.25557C188.763 3.58 184.799 6.5599 181.043 8.68844C177.288 10.817 170.93 12.9644 166.919 14.5727C158.651 17.8648 150.61 21.5733 142.483 25.0831C143.534 24.5249 144.376 24.0424 145.038 23.7018C145.038 23.7018 154.034 18.5082 151.442 17.8744H151.234C151.669 19.2272 147.242 20.7124 146.116 21.2043C142.436 22.8031 136.088 25.7074 131.32 26.7669C132.673 25.8209 134.159 24.7235 134.594 24.4492C138.558 21.6679 142.313 20.4475 146.249 17.827C139.712 19.1042 135.019 21.3368 129.419 24.9317C128.549 25.4993 125.711 27.2588 126.221 28.7819C123.383 29.2266 125.559 37.0313 126.401 38.649C122.466 41.2506 112.646 52.5177 110.234 56.1883C104.283 65.289 105.381 85.6001 107.679 96.1293C107.783 96.6117 107.869 97.0753 107.963 97.5199C104.652 99.1471 101.814 101.247 98.2286 102.931C93.5836 105.079 91.4267 106.375 87.075 108.815C83.2058 111.001 79.819 112.032 75.7889 114.387C71.4278 116.932 67.7289 118.701 63.3582 121.454C58.4768 124.529 55.4779 125.853 50.5302 128.616C46.4434 130.886 47.5597 130.082 44.8541 132.674C44.0405 133.147 43.2363 133.62 42.3944 134.112L40.3605 135.247C38.9219 135.478 37.5955 136.164 36.5764 137.205C32.7388 139.025 29.0283 141.102 25.47 143.421C21.2697 146.259 13.361 151.935 9.38767 156.665C9.48227 156.344 9.55796 156.022 9.63365 155.719C8.80114 156.4 7.95922 157.119 7.12672 157.867C8.45069 156.499 9.87702 155.234 11.3933 154.083C9.41465 154.622 7.61122 155.668 6.16176 157.119C-8.59618 170.278 -23.0041 194.761 -23.969 214.827C-23.969 215.091 -23.969 215.309 -23.969 215.565C-24.5934 218.715 -25.0475 221.874 -25.7475 225.252C-26.9868 231.325 -26.5517 235.904 -27.318 241.845C-27.6304 243.565 -27.7887 245.309 -27.791 247.057C-27.1298 245.842 -26.5636 244.577 -26.0976 243.273C-26.4854 245.449 -27.0436 247.918 -28.0369 251.419L-33.5144 252.98L-33.5901 253.926C-34.205 261.494 -34.3469 269.308 -32.4359 276.763C-32.4359 276.914 -32.3697 277.046 -32.3319 277.188C-31.9629 279.903 -31.1304 282.751 -30.6953 285.381C-30.6007 285.92 -30.4966 286.403 -30.3831 286.866C-30.3831 287.008 -30.3831 287.14 -30.3831 287.301C-30.033 290.65 -27.2896 304.718 -24.7069 306.127C-23.8366 306.6 -21.3958 305.91 -19.2484 305.181C-16.8928 313.364 -11.7653 322.966 -4.17825 327.309C4.33595 332.218 8.61198 330.714 16.7099 325.558C22.3861 322.001 32.1206 313.667 30.3515 306.004C32.0828 309.845 33.9559 313.941 35.8479 317.773C36.2831 319.173 36.7372 320.516 37.2291 321.784C39.729 328.157 42.5712 334.391 45.7433 340.458C52.2047 355.699 68.5614 374.865 80.5569 383.417C121.614 412.744 181.97 412.611 221.874 381.232C235.553 370.443 245.836 355.943 251.494 339.465C252.657 337.573 253.773 335.832 254.729 334.375C263.423 321.197 274.047 305.588 280.527 289.581C283.725 288.635 288.332 286.611 291.33 285.476C304.244 280.67 314.981 276.706 327.09 270.036C330.496 268.144 333.958 266.508 337.392 264.862C343.806 262.317 350.22 259.725 356.682 256.972C361.071 255.08 377.277 248.666 380.682 246.357C383.636 244.227 386.018 241.4 387.617 238.127C387.56 238.25 387.494 238.401 387.456 238.506C391.694 234.721 397.796 224.268 400.587 219.036C403.198 214.164 401.712 208.99 400.587 203.692C399.868 200.475 398.997 197.117 398.023 193.655C398.732 193.096 399.764 192.623 400.918 191.848C402.072 191.072 403.623 189.956 405.033 188.839C411.551 187.212 418.334 184.601 422.563 180.949C423.285 180.311 423.973 179.635 424.625 178.925C433.376 171.414 436.148 160.005 431.654 148.652C435.712 142.929 435.523 139.552 430.5 132.438ZM378.582 95.2117C383.416 98.3998 394.57 105.618 399.631 110.14L402.715 113.498C402.11 113.943 401.438 114.444 400.738 115.031C399.861 113.69 398.873 112.424 397.786 111.247C388.818 102.155 368.015 88.2394 356.691 81.7781C354.799 80.7185 353.295 79.886 351.961 79.2806C351.63 78.94 351.27 78.59 350.883 78.2116C351.98 78.59 353.077 78.9211 354.373 79.2522C355.225 79.7441 356.105 80.2739 357.022 80.8605C364.184 85.496 371.402 90.491 378.582 95.2117ZM355.49 83.8594L357.694 85.2973C356.54 86.9055 354.856 89.0814 354.109 90.4153C351.479 95.1454 354.222 91.068 352.094 94.398C350.939 95.9574 349.868 97.5774 348.887 99.2511C344.733 92.4113 342.435 85.7135 339.502 78.7792C339.824 77.5966 339.786 76.7453 340.155 76.2155C340.155 76.1587 340.155 76.2155 340.249 76.1588C340.826 76.5088 342.34 76.0642 344.525 76.9818C347.43 79.4793 351.072 80.9929 355.49 83.8121V83.8594ZM341.47 67.9946L341.64 67.8527L341.839 68.3068L341.47 67.9946ZM344.648 56.3774C344.279 56.4342 339.038 61.5238 338.972 61.6279C338.302 62.2584 337.587 62.8401 336.834 63.3685C336.834 63.3118 338.84 57.8438 339.209 57.2099C340.372 55.2517 341.659 53.3028 343.504 52.2054C345.812 50.8053 349.511 53.9272 350.258 55.7814C353.427 63.5766 350.164 67.5121 352.094 73.4153C352.394 74.5288 352.908 75.5731 353.607 76.4899C348.593 74.0302 346.559 73.4341 342.179 67.4269C344.601 65.3078 346.323 62.8199 346.238 60.3224C347.117 59.5939 346.228 56.0274 344.648 56.3301V56.3774ZM344.535 72.5354L344.336 72.4409L343.627 71.8922C343.627 71.7125 343.627 71.5422 343.627 71.3908C343.891 71.7503 344.223 72.1287 344.535 72.4882V72.5354ZM349.388 99.866C353.172 96.6874 353.617 95.3062 356.133 91.7018C357.003 90.4626 358.895 88.4286 360.191 86.9717C361.809 88.0313 363.417 89.1098 365.035 90.1882C361.402 94.4737 355.149 103.565 354.449 106.98C353.617 106.034 352.803 105.031 351.98 103.924C351.009 102.6 350.116 101.285 349.303 99.9795L349.388 99.866ZM356.824 104.312L367.429 91.7397C368.479 92.4492 369.529 93.1587 370.588 93.8588C367.968 99.7052 362.443 105.362 359.009 111.635C357.41 110.156 355.891 108.593 354.459 106.952C355.326 106.129 356.117 105.23 356.824 104.265V104.312ZM364.392 82.639L364.562 82.6957L364.638 82.7904L364.392 82.639ZM247.605 27.7224C250.973 27.4859 263.063 24.1086 266.346 23.1532C270.012 21.9637 273.796 21.1771 277.632 20.807C279.215 20.6871 280.781 20.405 282.305 19.9651C289.117 19.4448 297.309 19.3502 294.121 22.368C287.433 28.6685 252.771 36.142 243.727 33.5499C243.342 33.441 242.963 33.3114 242.592 33.162C242.317 32.093 242.1 31.27 242.005 30.8538C242.005 30.8538 242.005 30.8538 241.948 30.8538C242.071 30.4281 244.379 28.6779 245.732 27.7129C246.372 27.736 247.013 27.7266 247.653 27.6846L247.605 27.7224ZM296.335 23.9383C297.12 27.0558 297.511 30.2595 297.499 33.4743C297.404 36.1231 297.271 35.2716 297.499 36.4636C296.042 38.0246 293.374 39.2355 288.833 40.9195C285.56 42.1209 264.019 47.2105 252.373 46.7848L249.895 46.1888C248.807 45.9712 246.839 46.1887 246.111 44.9778C245.713 44.3534 244.219 38.9517 243.121 34.95C253.527 38.8098 282.627 31.497 289.476 28.3279C290.782 27.713 294.415 26.0291 296.382 23.9005L296.335 23.9383ZM126.42 29.2834C126.61 29.5077 126.842 29.6938 127.101 29.832C128.157 30.2582 129.321 30.3313 130.422 30.0402C129.154 30.5227 127.877 30.9862 126.638 31.4593C126.498 30.73 126.441 29.9874 126.467 29.2455L126.42 29.2834ZM126.713 31.9606C132.645 32.1214 163.882 18.9149 167.903 17.0797C175.377 13.6834 178.745 12.6145 185.509 7.77083C186.133 7.33566 190.627 4.35571 192.386 2.93667L192.452 3.03125C192.452 3.03125 193.711 5.86932 194.108 6.81534C190.721 8.11139 187.732 11.1197 185.745 14.0997L185.291 14.5444C180.561 19.3596 173.087 22.1788 166.248 24.4587C160.893 25.1303 150.979 29.0374 146.646 30.4943C140.374 32.6228 135.105 35.5082 129.022 37.5705L129.495 37.2678C128.104 34.7703 127.196 33.5499 126.761 31.9228L126.713 31.9606ZM-22.1148 212.651C-21.3391 207.41 -19.5889 202.396 -17.2239 196.691C-12.436 184.807 -5.95493 173.677 2.01818 163.647C1.29569 164.87 0.787042 166.207 0.51404 167.601C-0.611727 173.798 1.9614 170.733 -2.2011 175.548C-7.29069 181.432 -9.51382 187.543 -9.57058 194.289C-15.1521 201.327 -19.5322 208.157 -22.2 216.047C-22.1053 214.921 -22.077 213.786 -22.0676 212.651H-22.1148ZM2.52901 224.098C2.17898 223.36 1.84788 222.631 1.52623 221.884C2.71822 219.651 4.73327 219.462 8.76332 217.967C17.8735 214.543 30.8434 208.677 39.6131 202.736C41.5051 201.677 43.5296 200.523 45.6582 199.227C46.1974 202.954 50.9654 216.652 53.0088 222.243L52.6114 222.868H52.479C48.1841 228.137 43.6242 233.454 41.1267 239.896C38.8563 245.856 37.5318 248.883 36.0844 255.25C35.0722 259.696 33.464 261.692 34.7884 265.543C34.5519 266.489 34.2965 267.435 34.0883 268.381C32.4951 276.709 31.9768 285.208 32.5463 293.668C29.0366 283.962 25.1673 274.275 24.4767 272.562C17.8357 255.77 10.381 240.369 2.57636 224.098H2.52901ZM1.78168 218.242C1.33263 218.646 0.926847 219.097 0.570799 219.585C0.362673 219.084 0.173464 218.573 -0.0252019 218.062C0.826219 218.005 1.62086 217.92 2.37768 217.816C2.18579 217.946 2.00249 218.088 1.82897 218.242H1.78168ZM2.60471 327.129C-8.9746 324.499 -13.5344 314.187 -19.2957 305.068C-18.028 304.642 -16.8644 304.207 -16.1927 303.999C-14.3007 303.459 2.46282 299.023 2.15064 298.01C1.95197 298.01 0.514021 298.436 0.258596 298.483C-7.91503 300.063 -15.5116 301.435 -23.5433 303.696C-24.3096 302.229 -25.7665 296.033 -26.722 291.464C-24.9813 292.003 -22.7108 291.871 -19.8349 291.946C-15.0007 292.088 -11.491 291.35 -6.80822 290.423C-6.15821 290.322 -5.53637 290.087 -4.9824 289.733C-3.72419 290.773 -2.59837 289.827 -2.79704 287.159C-2.79704 287.055 -2.79704 286.97 -2.79704 286.895C-2.89164 287.15 -2.87272 285.949 -2.79704 286.895C-2.61944 286.006 -2.51507 285.104 -2.48489 284.198C-2.33353 285.012 -2.19163 285.778 -2.07811 286.45C-1.50104 289.827 -0.914511 293.64 -0.0157872 296.941C-0.0157872 296.941 -0.0157758 296.998 -0.119837 297.168H0.0977877C1.31816 297.235 -0.356306 280.528 -0.498213 278.929C-0.88608 274.681 -1.51992 274.454 -2.16322 270.689C-3.29844 263.944 -2.29566 261.002 -5.94731 254.607C-5.29782 259.167 -4.95962 263.766 -4.93505 268.371V268.447C-5.32643 267.53 -5.81488 266.658 -6.39197 265.846C-6.43927 265.543 -6.50547 265.259 -6.55277 264.994C-6.60927 265.151 -6.65356 265.313 -6.68523 265.477C-7.23909 264.692 -7.99234 264.07 -8.86713 263.674C-9.74193 263.278 -10.7065 263.123 -11.6613 263.225C-17.0253 263.868 -25.4354 265.06 -30.3452 266.943C-27.5923 266.829 -11.3586 265.108 -10.2328 265.609C-9.10705 266.11 -8.11372 267.615 -7.39475 269.535C-7.72585 272.373 -7.87721 275.429 -7.91505 277.264C-8.04749 283.517 -6.84606 287.32 -5.56893 289.042C-10.2367 289.68 -14.9604 289.804 -19.6552 289.411C-25.9178 288.749 -26.599 289.619 -27.8004 285.447C-28.4532 281.209 -28.7464 280.717 -30.2411 275.987C-30.506 275.126 -30.7142 274.284 -30.9223 273.452C-30.8466 271.881 -30.2317 270.103 -28.6897 267.388C-29.8835 268.107 -30.8633 269.133 -31.5278 270.358C-32.4738 264.805 -32.5211 259.621 -33.4198 253.718L-27.6869 252.185C-24.3475 251.655 -21.0647 251.05 -17.6496 250.293C-13.7042 249.342 -9.63 249.042 -5.58781 249.404C-5.56515 250.005 -5.32284 250.577 -4.9067 251.012L-4.82154 250.709C-1.98347 258.277 5.10224 292.949 4.29812 296.118L1.66816 299.987L1.28972 299.202C1.61137 304.424 7.0605 318.794 11.1473 321.992C11.9339 322.568 12.8609 322.922 13.8312 323.016C14.8014 323.111 15.7793 322.944 16.6626 322.531C11.4973 325.852 6.01038 327.886 2.652 327.129H2.60471ZM-5.31349 284.331C-6.10814 281.493 -6.20276 277.709 -6.21222 274.104C-5.59968 277.221 -5.28293 280.388 -5.2662 283.565C-5.25674 283.886 -5.25674 284.123 -5.2662 284.331H-5.31349ZM13.7489 319.996C12.6136 319.939 11.1662 318.302 9.65258 315.956C14.3827 317.233 16.8045 317.385 22.3104 314.547C22.8609 314.273 23.3892 313.957 23.8902 313.601C20.9481 317.243 16.9275 320.119 13.7962 319.996H13.7489ZM29.396 307.811C28.9809 309.861 28.0861 311.783 26.785 313.421C27.2108 312.785 27.5932 312.122 27.9297 311.434C28.8794 309.663 29.4162 307.7 29.5001 305.692C29.5628 306.398 29.5438 307.109 29.4433 307.811H29.396ZM29.3488 303.951V303.791C29.3488 303.791 29.396 303.913 29.396 303.951H29.3488ZM10.0404 259.64C15.2625 272.884 20.7873 285.04 26.6904 297.954C26.9932 298.616 27.3054 299.316 27.6365 300.035C26.6904 302.277 27.3526 307.319 22.1117 311.169C16.6247 315.19 14.7043 314.726 9.28362 315.351C6.67839 310.827 4.32549 306.162 2.23575 301.378L4.27919 297.963C4.88722 297.21 5.26207 296.296 5.35766 295.333C5.97258 286.97 0.996504 253.708 -3.33628 248.032C-3.55407 247.758 -3.83706 247.544 -4.15931 247.408C-3.043 242.318 -1.99293 237.786 -1.98347 232.271C-1.98347 230.937 -1.98347 229.726 -2.04023 228.572C1.829 238.95 6.07664 249.479 10.0878 259.64H10.0404ZM-6.83657 213.72C-6.5614 215.605 -6.06937 217.453 -5.37025 219.226C-4.81209 220.862 -4.19719 222.508 -3.61066 224.154C-3.90393 227.844 -4.17825 230.871 -4.77425 234.684C-5.42248 238.753 -5.78287 242.862 -5.85273 246.982C-10.8856 246.339 -21.4526 249.186 -27.9707 251.286C-23.3447 243.311 -23.619 239.111 -22.4932 230.19C-20.8282 217.144 -16.3725 207.826 -9.7598 197.079C-9.9963 202.878 -8.70021 208.327 -6.81763 213.758L-6.83657 213.72ZM30.2853 296.449C28.7055 292.363 27.1351 288.37 25.5552 284.407C28.0054 289.78 30.484 295.295 32.7544 300.697C32.7544 301.492 32.8396 302.286 32.9058 303.09C32.0165 300.706 31.1178 298.455 30.3326 296.449H30.2853ZM2.50066 231.685C2.50066 231.533 2.50066 231.335 2.50066 231.108C3.12504 232.65 3.79669 234.239 4.48728 235.838C3.86291 234.475 3.21016 233.085 2.54795 231.685H2.50066ZM274.009 292.05C271.057 295.834 267.898 300.564 267.093 302.873C267.797 302.6 268.454 302.22 269.042 301.747C268.153 303.412 267.302 305.02 266.497 306.553C264.217 310.914 259.204 319.476 254.53 327.99C256.296 319.537 256.853 310.877 256.186 302.267C252.988 262.128 224.381 223.748 188.214 206.927C184.761 205.329 185.726 205.754 182.027 204.733C183.635 206.196 185.384 207.495 187.249 208.611C194.133 213.102 200.692 218.072 206.879 223.483C243.112 255.647 263.319 310.271 233.283 353.201C227.419 361.546 220.251 368.893 212.054 374.96C211.543 374.875 211.051 374.78 210.578 374.685C209.812 374.524 209.036 374.335 208.27 374.156C224.182 362.283 236.442 345.917 240.766 326.06C241.341 323.756 241.658 321.395 241.712 319.021C239.006 327.838 237.483 333.666 233.046 341.915C226.424 354.213 216.169 365.074 204.23 373.181C199.406 371.932 194.505 370.343 189.548 368.574L189.728 368.489C231.438 346.617 242.705 302.078 218.241 262.336C215.312 257.418 211.868 252.826 207.967 248.637C208.639 249.716 209.301 250.738 209.944 251.731C208.847 250.369 207.712 249.035 206.501 247.767C212.234 256.858 216.576 262.601 220.738 272.856C237.672 314.689 213.426 351.167 177.43 363.721C136.836 345.974 94.4256 313.516 65.7233 285.93C65.5625 283.631 65.4773 281.332 65.5151 279.033C65.7233 264.436 68.883 256.925 74.3888 243.869C66.4423 255.165 63.2826 269.639 63.642 283.905L62.7906 283.073C62.1378 282.439 61.5135 281.786 60.8986 281.181C61.1351 266.044 64.4367 258.192 70.1507 244.626C63.1785 254.531 59.7444 266.82 59.0822 279.336C54.7873 274.899 50.7099 270.415 46.4528 266.035C47.257 262.317 48.2786 258.467 49.4801 253.982C47.6579 257.392 46.2206 260.993 45.1946 264.72L44.8635 264.379L45.1662 264.824C40.0104 283.063 42.0633 306.695 48.4205 323.023C54.5129 338.661 66.2814 355.462 79.9893 366.143C91.5402 376.549 106.705 384.297 120.337 388.27C145.34 395.583 172.132 395.015 195.404 382.405C199.525 380.174 203.494 377.674 207.286 374.922C208.61 375.158 209.935 375.376 211.259 375.565C184.818 394.845 149.219 400.814 117.234 392.83C90.6131 386.208 73.4523 373.626 56.4334 352.284C53.2737 348.339 50.4261 344.1 47.4556 340.089C47.4083 339.938 47.3705 339.796 47.3137 339.635C44.4756 330.724 41.0132 322.03 38.5062 312.986C38.1347 310.837 37.6164 308.716 36.9548 306.638C36.6426 305.181 36.3682 303.724 36.1317 302.239C35.8952 300.754 35.7628 299.401 35.6492 298.067C35.6019 297.386 35.5641 296.705 35.5452 296.024C33.2937 230.616 95.1446 194.714 154.621 208.375C199.377 218.649 232.687 256.139 242.204 300.574C242.5 302.3 242.924 304.001 243.471 305.664C244.209 299.041 242.828 292.287 241.154 285.93C229.423 240.908 191.279 205.726 145.284 198.621C108.909 193.011 70.1412 207.315 48.7895 236.084C50.464 233.16 52.233 230.512 53.9074 227.768C56.569 224.789 59.0489 221.652 61.3337 218.374C63.8748 216.01 66.5535 213.799 69.356 211.752C97.2353 191.195 138.482 185.386 170.93 197.723C173.153 198.565 175.244 199.454 177.496 200.286C158.575 187.874 128.605 186.749 106.998 191.63C91.554 195.317 77.1656 202.51 64.9476 212.651C67.5207 208.535 72.1751 203.645 76.9809 199.009L77.3404 198.773C83.9626 194.468 88.6927 190.722 96.4784 186.891C121.293 174.725 150.95 173.221 177.836 177.922C179.903 178.431 182.012 178.748 184.137 178.868C183.323 178.279 182.4 177.858 181.422 177.629C168.111 172.814 148.68 171.253 134.404 172.416C119.457 173.627 101.142 179.682 87.5007 189.218L88.6359 188.149C94.6432 182.473 100.707 176.929 106.714 171.272C111.053 168.478 115.59 166.005 120.29 163.874C170.675 140.687 232.015 155.993 262.827 202.717C269.862 213.386 275.139 225.114 278.455 237.455C274.444 235.459 269.496 246.821 268.569 248.732L271.067 246.216C271.455 245.771 275.948 239.149 277.386 239.593C277.386 239.593 277.5 239.697 277.547 239.764C281.047 244.494 275.258 252.157 271.644 255.033C266.469 259.119 265.968 256.839 265.561 250.927C264.747 253.141 263.886 256.773 266.28 258.438C269.231 260.501 278.247 254.588 280.716 247.417C281.899 253.784 282.629 260.227 282.902 266.697C281.766 274.833 278.067 283.782 274.028 292.05H274.009ZM67.8613 308.483C83.3666 356.446 132.096 385.375 179.757 366.881L182.273 367.827C168.498 373.511 153.498 375.576 138.699 373.824C95.2864 368.725 61.5229 326.372 60.9648 283.451C61.9108 284.397 62.8568 285.4 63.8029 286.374C64.2077 293.887 65.5716 301.316 67.8613 308.483ZM66.0354 288.616C78.777 301.093 92.2029 312.851 106.251 323.837C124.944 338.311 149.399 354.242 174.364 364.762C163.267 368.139 151.591 369.179 140.071 367.817C101 363.201 70.056 327.072 66.0354 288.616ZM63.3488 312.011C80.3109 364.525 135.417 395.129 187.382 369.719C192.51 371.46 197.73 372.916 203.019 374.08C196.093 378.663 188.572 382.276 180.665 384.817C151.338 394.041 114.661 387.958 89.2982 370.759C79.223 363.938 75.2213 358.925 67.218 350.609C54.371 333.987 46.4055 314.755 44.75 292.902C43.9457 284.087 44.5009 275.201 46.3961 266.555C50.2732 271.804 54.4887 276.793 59.016 281.493C58.7307 291.828 60.1956 302.137 63.3488 311.983V312.011ZM182.396 365.821C184.638 364.875 186.861 363.853 189.085 362.69C213.908 349.682 227.474 328.292 228.59 304.831C227.843 332.625 209.793 355.462 184.799 366.777C184.014 366.436 183.2 366.124 182.396 365.793V365.821ZM45.7339 199.217C46.6799 198.659 47.5691 198.101 48.5719 197.496C54.0872 194.033 59.9242 190.485 64.9476 186.342C66.1963 185.301 67.7099 184.071 69.129 182.889C71.021 187.051 73.036 191.11 74.8051 194.298L74.3888 194.705C68.0505 201.242 64.3799 205.206 60.1985 213.464C60.085 213.71 59.9431 213.947 59.8107 214.183C58.1646 215.981 56.5564 217.532 55.1373 219.282C52.3655 212.878 48.3449 202.528 45.7339 199.217ZM127.338 151.084C133.241 146.308 139.683 142.241 146.532 138.965C167.979 128.625 199.103 122.192 222.11 128.086L224.002 128.578H223.813C221.598 128.812 219.408 129.236 217.267 129.846C213.681 131.246 210.786 135.02 208.44 138.114C206.312 140.952 205.895 141.075 205.12 143.44C192.416 140.703 179.355 140.026 166.437 141.434C152.353 142.998 138.661 147.06 126.004 153.43C126.853 152.491 127.625 151.485 128.312 150.421L127.338 151.084ZM302.352 226.198C302.568 228.569 302.653 230.95 302.607 233.331C302.43 232.292 302.167 231.27 301.822 230.275C301.083 232.788 300.673 235.386 300.602 238.004C300.015 244.626 296.401 251.248 292.882 256.849C290.422 260.718 290.507 259.507 288.029 262.156C287.317 262.947 286.683 263.806 286.137 264.72C286.137 264.379 286.137 264.039 286.137 263.689C287.632 254.389 287.253 244.03 286.052 234.788C280.007 188.546 250.368 155.492 209.831 144.632C211.789 143.951 214.561 142.938 215.384 142.664C217.2 142.059 219.168 141.85 220.871 141.396C221.921 144.102 226.301 145.587 228.817 147.073C238.564 152.924 247.927 159.392 256.848 166.438C259.535 168.623 258.863 168.131 259.686 168.718C259.543 169.029 259.513 169.381 259.601 169.712C259.689 170.044 259.89 170.334 260.169 170.534C261.19 171.215 262.884 171.253 264.662 172.208C264.871 172.341 265.105 172.428 265.35 172.463C265.594 172.499 265.843 172.483 266.081 172.416C271.824 179.382 276.774 186.965 280.839 195.026C286.288 205.802 290.933 216.35 291.889 228.506C292.314 233.681 295.351 235.715 293.696 239.404C291.926 243.359 290.64 242.857 288.71 248.808C290.801 245.572 292.494 243.737 294.481 240.927C297.754 236.197 294.197 233.851 294.027 228.43C293.487 211.591 285.513 195.802 275.825 182.321C273.206 178.517 270.266 174.944 267.037 171.641C267.377 171.158 267.661 170.562 267.983 170.042C268.654 168.963 269.411 167.743 270.196 166.457C271.142 165.51 271.937 164.508 272.552 163.704C272.925 163.259 273.33 162.842 273.763 162.455C276.279 165.293 278.928 167.592 281.331 170.657C288.161 179.398 298.946 204.638 300.176 215.044C302.011 230.72 299.589 226.396 295.682 239.158C297.735 236.055 301.633 229.868 302.38 226.179L302.352 226.198ZM278.389 228.828C277.954 227.447 277.5 226.084 277.017 224.731C277.749 224.703 278.458 224.474 279.068 224.071C279.679 223.667 280.167 223.104 280.48 222.442C280.705 222.049 280.904 221.641 281.076 221.222C281.463 222.584 281.814 223.956 282.154 225.337C280.52 225.999 279.189 227.243 278.417 228.828H278.389ZM282.674 227.522C283.015 229.055 283.327 230.587 283.62 232.129C282.833 232.262 282.097 232.609 281.494 233.133C280.891 233.657 280.445 234.338 280.205 235.1L280.082 234.598C279.723 233.246 279.325 231.912 278.928 230.587C280.516 230.056 281.857 228.967 282.703 227.522H282.674ZM276.525 223.388C276.09 222.196 275.645 221.004 275.172 219.841C277.632 218.724 278.654 218.015 279.439 215.877C279.827 217.05 280.205 218.223 280.555 219.405C279.656 219.768 278.838 220.307 278.151 220.991C277.463 221.675 276.92 222.49 276.554 223.388H276.525ZM274.794 218.904C274.255 217.608 273.706 216.321 273.139 215.063C275.456 214.117 276.469 212.726 277.471 210.428C277.973 211.695 278.417 212.972 278.9 214.212C276.516 215.281 275.106 216.321 274.832 218.904H274.794ZM276.686 209.065C274.86 211.213 273.536 211.165 272.524 213.852C271.947 212.594 271.351 211.355 270.726 210.125C273.829 209.283 274.652 207.864 275.144 204.969C275.731 206.275 276.289 207.59 276.828 208.904C276.856 208.961 276.809 208.999 276.724 209.065H276.686ZM270.527 209.737C269.449 207.646 268.304 205.612 267.122 203.607C269.742 202.282 271.086 200.769 271.757 198.196C272.864 200.23 273.905 202.292 274.86 204.382C272.164 205.943 271.559 206.7 270.603 209.737H270.527ZM266.743 202.907C265.835 201.399 264.889 199.917 263.905 198.46C265.425 197.31 266.71 195.877 267.689 194.241C268.304 193.059 268.427 192.907 268.484 192.472C269.307 193.797 270.092 195.121 270.849 196.464C269.036 198.287 267.647 200.486 266.781 202.907H266.743ZM263.48 197.798C262.799 196.786 262.098 195.802 261.389 194.818C263.773 193.475 264.568 190.646 265.599 188.101C265.731 188.291 265.873 188.47 266.006 188.669C266.706 189.691 267.358 190.722 268.021 191.753C265.684 192.671 263.395 195.159 263.48 197.798ZM283.696 240.908L284.462 237.72L281.539 238.837L281.293 239.669C281.076 238.723 280.858 237.777 280.631 236.831C281.329 236.739 281.996 236.489 282.583 236.101C283.17 235.712 283.66 235.195 284.018 234.589C285.364 242.867 285.997 251.244 285.91 259.63C285.91 259.914 285.91 260.16 285.91 260.378C285.392 256.171 284.37 252.041 282.864 248.079C282.517 245.809 282.116 243.579 281.662 241.391L283.696 240.908ZM262.553 168.85C262.619 168.746 262.704 168.651 262.77 168.547C262.921 168.717 263.054 168.888 263.205 169.049L262.553 168.85ZM262.922 168.339C264.984 165.435 268.21 162.928 270.887 158.794C271.407 159.588 271.956 160.317 272.505 161.007C271.998 161.569 271.536 162.17 271.123 162.805C269.354 165.132 266.601 168.869 265.551 170.108C265.253 169.894 264.937 169.707 264.605 169.55C264.076 169.086 263.48 168.689 262.95 168.311L262.922 168.339ZM270.925 158.746C271.038 158.557 271.171 158.387 271.284 158.198C271.842 158.482 272.911 159.078 273.772 159.569C273.555 159.834 273.299 160.128 273.025 160.421C272.389 159.79 271.695 159.22 270.953 158.718L270.925 158.746ZM266.98 159.692C266.195 160.544 261.304 165.047 259.942 168.122C251.985 158.519 235.922 147.224 225.241 142.579C224.519 142.282 223.872 141.826 223.349 141.245C224.463 138.427 226.015 135.803 227.947 133.469C228.515 132.788 230.993 132.182 232.601 131.331C240.586 134.169 244.285 134.84 252.704 140.195C258.411 143.595 263.588 147.815 268.068 152.72C270.707 155.558 270.159 155.133 270.698 155.662C269.156 155.823 268.38 158.141 267.008 159.617L266.98 159.692ZM222.64 139.608C222.641 138.536 222.972 137.489 223.586 136.609C223.197 137.556 222.89 138.534 222.668 139.533L222.64 139.608ZM220.672 140.45C217.021 140.148 213.492 140.98 209.925 141.86C212.981 138.18 216.453 134.292 220.805 132.986C222.547 132.478 224.328 132.117 226.131 131.908C223.141 133.961 220.407 137.007 220.701 140.375L220.672 140.45ZM128.634 154.641C174.989 133.317 234.645 144.632 264.937 187.25C263.111 188.007 261.484 191.356 260.538 193.711C237.615 162.928 200.512 146.325 158.49 150.705C142.553 152.464 127.13 157.395 113.128 165.208C115.484 163.07 118.246 160.856 120.886 158.586C123.26 157.119 125.805 155.861 128.662 154.546L128.634 154.641ZM383.359 167.705C385.46 173.552 391.24 188.461 394.986 200.334C391.334 203.749 389.982 206.852 385.885 209.15C385.384 207.826 384.76 205.707 384.495 204.884C377.305 182.274 369.425 163.032 359.974 141.368C356.937 134.396 350.637 119.013 346.985 113.224C348.518 119.553 354.307 132.986 356.965 139.712C362.547 153.903 368.119 167.894 373.909 182.019C377.617 191.072 380.673 200.144 384.249 209.122C385.053 211.165 385.195 211.449 387.484 209.851C390.398 207.807 393.075 203.285 394.986 200.343C396.329 204.327 397.385 208.402 398.146 212.537C397.011 216.983 392.877 223.407 388.96 228.951L388.213 226.765V229.67C388.213 229.812 388.165 229.944 388.146 230.086C386.33 232.631 384.608 234.939 383.331 236.708C382.263 238.089 381.034 239.337 379.67 240.426C375.167 243.132 370.702 245.885 366.426 248.94L365.82 249.29C361.015 251.081 356.218 252.885 351.431 254.701C345.424 256.991 327.412 264.294 311.273 271.314C302.948 274.152 294.547 278.513 286.525 280.831C285.532 281.243 284.476 281.483 283.403 281.54C285.153 277.756 287.651 272.742 290.593 270.008C291.822 268.863 292.977 267.823 294.074 266.829C310.705 261.853 322.795 243.888 323.789 226.813C323.944 224.179 323.877 221.536 323.59 218.913C323.912 217.206 323.62 215.441 322.767 213.928C321.493 208.734 319.849 203.637 317.847 198.678C316.705 195.099 315.078 191.694 313.013 188.556C315.435 195.84 317.658 202.926 319.522 210.314C318.579 209.603 317.445 209.188 316.266 209.124C315.086 209.06 313.914 209.349 312.9 209.955C315.615 210.011 317.138 210.286 319.134 212.357C319.56 212.795 319.949 213.266 320.298 213.767C320.6 215.296 320.821 216.841 320.96 218.393C320.175 219.793 318.396 220.881 316.012 221.61C308.227 224.022 310.175 214.931 312.228 210.39C308.974 210.39 304.206 227.418 316.797 224.391C318.369 224.067 319.857 223.423 321.168 222.499C321.19 232.006 318.502 241.322 313.42 249.356C307.744 258.079 302.777 260.992 294.906 266.035C298.691 262.572 301.595 259.413 303.619 253.235C304.18 251.062 304.569 248.847 304.783 246.613C307.245 238.447 307.039 229.708 304.196 221.666C304.083 224.211 304.092 226.482 304.121 228.629C303.969 227.579 303.809 226.538 303.61 225.498C303.452 224.269 303.154 223.063 302.721 221.903C302.715 216.232 301.932 210.588 300.393 205.13C297.007 193.172 289.429 175.604 280.309 167.119C278.417 165.387 276.525 163.723 274.501 161.878C275.759 160.667 276.904 159.399 276.024 158.51C274.66 157.371 273.153 156.417 271.54 155.672C270.953 154.281 270.868 154.215 269.137 151.727C261.379 140.611 247.463 131.605 233.557 130.546C234.058 130.025 234.134 129.42 233.349 128.654C232.564 127.887 229.224 128.039 225.714 128.398C212.688 121.53 194.269 122.079 180.353 124.169C160.392 127.168 134.603 138.36 121.936 154.716C119.211 156.608 116.354 158.69 113.838 160.619C109.533 163.542 105.494 166.838 101.767 170.468C92.8646 177.771 83.5558 185.424 75.7984 193.172C74.4532 189.077 72.8739 185.062 71.0683 181.148L71.248 180.987L71.0305 181.072C68.1924 174.8 64.7867 168.774 61.8446 164.99C63.787 170.795 66.0677 176.481 68.6749 182.019C65.7895 183.277 65.0043 184.157 61.1067 186.559C46.0366 195.802 27.4567 204.685 11.3365 212.291C7.59916 214.174 3.69407 215.704 -0.327932 216.861C-0.394156 216.652 -0.46039 216.435 -0.517149 216.227C5.10222 215.101 15.0827 210.399 17.5613 208.753C26.5012 202.859 38.4968 187.222 40.1712 175.387C42.716 170.874 42.839 169.323 44.3148 163.855C45.3199 159.626 46.7395 155.507 48.553 151.557C49.2341 150.062 50.0098 149.315 49.6598 147.839C48.9787 148.397 49.376 148.208 48.9408 148.728C42.7538 155.871 41.3727 162.682 40.2564 170.922C38.8562 161.234 25.839 167.138 19.9926 169.559C15.6314 171.395 10.8635 173.713 6.74829 175.974C12.7271 174.081 17.9586 171.716 23.7767 169.834C27.1729 168.736 36.2168 164.773 37.8345 170.222C40.6726 179.616 24.8835 199.681 17.7978 205.338C14.8557 207.684 4.07105 213.294 -1.05639 214.373C-2.74977 208.772 -4.5188 203.077 -5.10533 198.054C-4.9728 192.881 -3.74097 187.795 -1.49158 183.135C1.55461 176.938 4.58188 177.09 4.18455 170.401C3.73046 163.164 7.29696 162.086 9.03764 157.8C11.2513 155.852 14.4962 153.335 17.9492 150.847C17.5424 151.85 17.6843 152.739 18.6681 152.938C20.2953 150.44 20.0021 151.718 23.2091 149.92C24.0671 149.541 24.9874 149.323 25.9242 149.277C25.366 148.246 25.5647 148.141 24.4767 147.744C23.9507 147.547 23.3923 147.451 22.8307 147.46C25.7342 145.443 28.7716 143.626 31.9219 142.021L35.0911 140.535C34.9714 141.7 35.0806 142.876 35.4127 143.998C37.8913 139.94 37.3048 138.842 42.3566 137.433C43.7283 137.045 45.3365 137.433 46.7745 137.66C46.2959 136.878 45.6497 136.212 44.8824 135.711C46.2541 134.982 47.7205 134.207 49.1963 133.346C51.9303 131.794 54.6359 130.186 57.3415 128.616C57.2024 129.446 57.1076 130.283 57.0577 131.123C60.5769 127.083 60.7283 126.061 66.3949 126.487C67.2302 126.587 68.056 126.755 68.8641 126.989C69.1479 125.759 67.4545 124.775 65.4394 124.273C67.2464 123.327 69.1006 122.381 71.2197 121.435C74.1334 120.149 77.5296 118.531 80.8785 116.781C80.8774 117.182 80.9613 117.578 81.1245 117.944C83.622 115.674 83.9626 114.69 87.9832 114.274C90.2442 114.028 90.3766 114.908 92.3917 114.633C91.6958 113.384 90.559 112.44 89.2036 111.985C89.7523 111.635 90.3009 111.275 90.8023 110.925C97.046 106.564 102.807 103.858 108.19 98.8254C110.385 110.963 107.812 116.592 106.998 128.909C106.743 132.825 107.424 160.714 111.132 162.228C110.83 157.819 110.48 154.442 110.423 149.816C110.3 140.356 110.328 132.731 112.04 123.384C114.141 111.947 115.616 104.814 112.722 93.1777C110.499 84.1905 109.202 68.0608 112.542 59.4804C113.98 55.8004 122.674 44.8359 127.12 39.5571L128.624 41.2411C138.179 40.2951 150.78 34.7703 160.297 29.4442C168.811 26.9278 180.835 22.4625 186.71 15.7836C187.751 14.6011 188.801 13.5794 189.86 12.586C192.405 10.8075 194.884 9.29393 198.072 9.89938C199.97 10.2817 201.886 10.5628 203.814 10.7414C211.855 12.8983 217.456 16.0391 226.055 19.9745C229.839 21.7247 240.709 27.4103 243.49 27.6657C243.623 27.5333 243.547 27.5711 243.717 27.5522H243.963C241.929 28.0157 240.794 28.659 240.245 29.6902C239.904 30.0144 239.678 30.4403 239.599 30.9042C239.521 31.3682 239.595 31.8451 239.81 32.2633C239.887 33.5321 240.036 34.7954 240.255 36.0474C240.803 39.4437 242.592 47.6835 246.962 47.9957H247.53C257.851 51.7798 285.011 45.1576 289.845 43.1331C296.155 40.4559 299.684 38.7247 300.422 34.7325C300.566 34.584 300.696 34.4225 300.81 34.25C301.538 33.1999 302.872 32.6985 304.357 32.1971C306.344 32.6417 308.435 33.2851 309.608 33.4648C310.825 33.6171 312.051 33.6992 313.278 33.7108L313.467 33.7864C313.479 34.0893 313.431 34.3914 313.325 34.6756C312.805 36.123 309.078 38.8854 305.426 41.2978L302.957 42.1682C291.734 46.4864 280.087 49.6098 268.21 51.4865C254.738 53.7474 241.229 56.2166 227.531 54.9679C228.146 54.3813 228.94 53.6718 229.744 52.9623C232.187 51.4627 234.526 49.8002 236.745 47.9862L238.42 46.1414C233.983 48.0902 229.972 50.2283 225.733 52.5082C224.362 53.2272 220.824 54.1732 221.533 55.8949C221.817 56.5855 223.103 56.9545 224.806 57.1248C226.282 58.1371 229.366 58.3073 230.482 58.487C245.524 60.9562 263.915 58.752 280.073 53.8232C289.59 51.7231 299.372 48.3836 305.767 43.1521C308.132 41.26 314.13 37.1542 314.007 34.2026C314.012 34.1428 314.012 34.0827 314.007 34.0229C318.465 35.6615 322.486 38.3064 325.756 41.752C328.854 45.2976 331.651 49.0948 334.119 53.1042C331.782 56.9735 330.931 61.3062 332.833 65.1187C332.378 60.8048 333.012 57.4275 334.989 54.3719C335.822 55.5922 336.692 56.822 337.667 58.0897L337.127 55.1193C336.919 54.4003 336.617 53.5677 336.257 52.669C337.677 51.0411 339.287 49.5896 341.053 48.3457C355.802 37.5894 360.39 50.5688 360.579 62.5927C360.683 68.7986 360.428 73.6613 362.112 78.1738C359.832 75.5722 355.291 72.3274 354.723 69.0447C354.156 65.762 354.421 66.3864 354.582 66.9256C354.506 66.6323 354.364 66.0836 354.146 65.2227C354.884 60.152 354.487 54.3624 349.899 51.4392C342.804 46.9551 339.379 53.3313 337.723 59.0074C337.723 59.0074 336.664 62.1197 336.881 63.4158C334.989 64.7402 333.334 65.4498 330.95 67.2946C338.887 66.5756 341.11 64.6551 345.14 58.5344C345.36 58.8147 345.521 59.1365 345.613 59.4804L345.556 59.6506C344.846 62.1885 343.2 64.3625 340.949 65.7336L340.76 65.4687L340.874 65.7808C338.809 67.0304 336.641 68.1002 334.393 68.9784C329.919 70.8704 330.524 71.8164 327.771 69.8014C329.115 67.5215 330.392 64.8632 331.555 62.6212C329.042 64.5003 326.951 66.8851 325.416 69.6217C324.63 71.1354 328.67 73.6802 330.222 73.5383C332.38 73.1763 334.462 72.4535 336.38 71.4003C336.38 71.6273 336.437 71.8638 336.475 72.1098L336.389 71.93C336.664 73.4152 337.023 75.014 337.44 76.6601C337.515 77.4615 337.722 78.2448 338.054 78.9779C341.337 90.7748 347.742 105.391 355.528 112.325C356.218 112.95 357.003 113.612 357.826 114.283C357.826 114.378 357.741 114.463 357.703 114.548L357.893 114.34C359.993 116.071 362.339 117.878 364.335 119.477C371.222 134.188 378.015 152.597 383.388 167.611L383.359 167.705ZM274.539 159.957L275.059 160.232C274.869 160.177 274.691 160.083 274.539 159.957ZM396.254 187.988L396.055 187.354L397.238 187.297L396.254 187.988ZM395.904 186.891V186.815C395.979 186.82 396.055 186.82 396.131 186.815L395.904 186.891ZM398.657 186.115H398.581H398.666H398.657ZM400 183.277C396.14 185.869 397.162 185.424 395.535 185.708C388.608 164.493 379.807 143.937 369.235 124.283L368.289 122.485C370.472 124.127 372.807 125.556 375.262 126.752C379.68 128.852 377.532 127.783 381.013 129.59C381.591 129.917 382.196 130.196 382.82 130.423C383.283 132.723 383.871 134.997 384.58 137.234C384.759 138.121 385.048 138.982 385.441 139.798V139.864C386.519 142.106 388.279 144.007 390.947 147.716C392.782 150.299 398.515 157.98 403.595 162.918C405.771 167.847 406.433 172.823 404.446 178.149C404.077 179.162 403.765 179.937 403.5 180.552C402.404 181.55 401.234 182.464 400 183.286V183.277ZM431.342 150.677C432.988 159.995 430.944 167.705 425.24 174.053C424.54 174.677 423.783 175.368 422.714 176.257C419.299 179.095 412.062 181.933 407.691 183.911L406.452 184.459L405.203 184.771C406.272 183.825 407.152 182.548 408.42 179.862C408.994 178.662 409.398 177.389 409.621 176.078C410.247 173.549 410.106 170.891 409.214 168.443C409.35 168.16 409.559 167.918 409.82 167.743C410.482 168.046 414.55 167.157 415.685 166.466C418.372 164.829 427.454 154.858 428.778 152.626L429.516 150.97C430.036 150.355 430.528 149.769 430.963 149.211C431.105 149.778 431.266 150.279 431.342 150.686V150.677ZM432.089 141.765C431.626 145.237 428.967 148.965 425.874 152.408L423.982 153.893C419.422 157.441 418.135 157.554 414.749 162.275C412.611 165.255 410.851 164.933 409.536 165.425C408.324 164.739 407.239 163.849 406.329 162.795C406.244 162.672 406.187 162.549 406.102 162.426C406.097 162.47 406.097 162.515 406.102 162.559L405.913 162.351C405.475 161.351 404.776 160.488 403.888 159.853L403.037 158.784C398.704 153.496 394.693 148.17 390.218 142.891C387.219 139.343 386.434 138.492 385.961 137.215L384.069 130.593H384.012C384.259 130.578 384.5 130.514 384.722 130.404C383.953 130.192 383.217 129.874 382.536 129.458C382.205 129.259 381.855 129.041 381.401 128.72C379.666 127.427 377.824 126.284 375.895 125.305C372.419 123.234 369.182 120.785 366.246 118.001L364.846 116.762C363.824 115.174 362.545 113.768 361.062 112.599C361.355 113.356 361.469 113.65 361.544 113.82C360.901 113.262 360.277 112.694 359.652 112.126C363.843 107.396 369.756 101.049 372.897 95.3157L376.974 98.0213L378.478 99.0146C375.64 104.256 370.04 111.152 368.356 115.456C371.137 113.848 377.816 105.202 380.853 100.576C382.319 101.522 383.937 102.628 385.583 103.764L385.346 103.697C383.265 109.099 378.327 114.255 374.94 118.938C379.67 116.705 385.346 110.263 387.91 105.334C390.029 106.791 392.139 108.295 394.012 109.705C390.701 113.054 382.782 122.571 381.713 125.361C383.842 124.122 393.879 114.104 395.979 111.786L395.573 110.925C397.039 112.028 398.421 113.239 399.707 114.548C399.934 114.833 400.217 115.068 400.539 115.239C397.853 117.415 394.91 120.054 394.21 120.745C390.644 124.207 388.534 126.061 386.33 130.536C389.594 128.01 392.668 125.314 395.961 122.741C399.35 120.091 402.515 117.164 405.421 113.99C405.421 113.99 405.307 113.99 405.279 114.056C405.336 114.035 405.39 114.007 405.44 113.971C406.036 113.621 407.748 113.971 409.224 114.425C403.746 117.339 391.249 131.558 389.357 134.613C392.337 131.993 407.332 117.509 410.567 116.327C415.808 119.978 417.189 122.107 421.702 126.733C424.303 129.372 432.609 137.972 432.089 141.775V141.765Z" fill="#1C1C1C" stroke="#1C1C1C" stroke-width="1.74068" stroke-miterlimit="10"/>
<path d="M10.7008 194.326C13.9645 199.87 21.8828 196.445 25.5155 193.03C30.3024 188.508 33.9162 178.972 28.2306 174.11C23.0558 169.663 14.3524 176.163 13.9551 181.366C16.585 178.66 17.3986 175.851 22.1855 174.791C32.4214 172.549 29.1482 191.734 17.6257 194.837C10.3981 196.729 10.6251 189.161 11.2495 184.251C9.54664 187.316 8.77089 191.062 10.7008 194.326Z" fill="#1C1C1C" stroke="#1C1C1C" stroke-width="1.74068" stroke-miterlimit="10"/>
<path d="M171.838 39.519C171.658 42.4517 172.434 45.6966 174.241 49.6605C178.138 58.2409 192.726 74.5975 202.111 78.1167C200.218 74.9854 198.014 72.9894 195.602 70.2554C189.689 63.5481 179.368 49.8874 177.259 41.2975C175.31 33.4456 186.955 24.3827 191.364 19.1985C186.842 19.7093 182.783 23.5597 179.586 26.5775C175.102 30.8062 172.509 34.3727 171.923 38.4879C161.025 41.8273 141.726 50.3889 133.978 55.3555C142.767 53.2364 161.763 45.1384 171.838 39.519Z" fill="#1C1C1C" stroke="#1C1C1C" stroke-width="1.74068" stroke-miterlimit="10"/>
<path d="M104.82 139.892C104.233 133.535 104.82 126.203 103.874 120.158C103.24 115.996 100.96 111.899 97.3086 116.204C101.093 114.908 101.84 114.917 102.19 120.338C102.654 127.509 101.291 132.636 102.502 140.327C103.231 144.897 103.24 155.246 106.078 158.775C106.062 158.325 105.998 157.878 105.889 157.441C104.773 150.838 105.435 146.354 104.82 139.892Z" fill="#1C1C1C" stroke="#1C1C1C" stroke-width="1.74068" stroke-miterlimit="10"/>
<path d="M256.506 213.445C258.19 212.499 260.82 209.5 262.352 207.712C263.438 208.892 264.335 210.232 265.01 211.686C263.345 213.947 256.222 224.315 254.443 227.768C253.425 226.611 252.243 225.61 250.934 224.798C251.18 225.375 253.715 229.613 254.245 229.821C255.333 230.275 256.515 227.768 257.263 226.869C259.334 224.419 266.269 215.517 267.281 213.105L267.792 211.213C267.271 210.437 263.553 204.373 262.021 205.3C261.472 205.698 256.411 212.471 256.506 213.445Z" fill="#1C1C1C" stroke="#1C1C1C" stroke-width="1.74068" stroke-miterlimit="10"/>
<path d="M246.65 198.621C248.807 197.94 250.435 194.26 252.052 193.484C252.894 193.087 256.981 197.42 254.597 200.267C252.751 202.467 251.084 204.812 249.611 207.277C245.279 213.899 246.338 213.559 240.435 208.687C240.993 210.286 243.954 215.309 246.575 213.918C248.609 212.859 254.966 204.723 256.896 202.036C260.557 196.918 254.124 189.937 251.106 191.914C249.876 192.718 246.906 197.637 246.65 198.621Z" fill="#1C1C1C" stroke="#1C1C1C" stroke-width="1.74068" stroke-miterlimit="10"/>
<path d="M230.661 189.53C237.169 182.908 236.677 178.566 242.013 185.642V185.708C241.407 187.6 238.106 192.113 236.914 193.91C232.836 200.003 233.716 199.312 227.671 196.654C229.79 199.388 232.458 201.459 235.447 198.971C237.188 197.533 245.182 188.054 245.078 185.424C245.002 183.74 240.073 177.383 235.901 180.448C233.546 182.18 229.648 189.152 228.154 191.801L230.661 189.53Z" fill="#1C1C1C" stroke="#1C1C1C" stroke-width="1.74068" stroke-miterlimit="10"/>
<path d="M219.064 190.013C222.451 188.433 226.954 181.025 229.47 177.714C232.942 173.135 231.23 173.24 226.632 170.752C220.436 167.355 222.526 169.285 219.13 174.772C218.51 175.543 218.102 176.463 217.947 177.44C220.842 174.8 221.088 174.195 222.961 171.196C224.532 172 226.528 173.457 228.221 174.573L227.928 174.933C224.976 178.575 226.263 176.957 224.305 180.552C222.63 183.275 220.731 185.854 218.629 188.262C217.484 187.856 214.409 186.153 212.952 185.718C213.34 186.323 217.701 190.646 219.064 190.013Z" fill="#1C1C1C" stroke="#1C1C1C" stroke-width="1.74068" stroke-miterlimit="10"/>
<path d="M250.368 145.767C249.968 146.52 249.465 147.214 248.874 147.829L247.994 147.432C248.183 147.64 248.41 147.867 248.647 148.094C248.249 148.567 247.994 148.936 248.174 149.04C248.297 148.964 248.476 148.813 248.618 148.728C248.76 148.643 248.864 148.539 248.997 148.454C251.258 150.667 254.729 153.704 257.189 154.906H257.255C257.189 155.057 257.113 155.218 257.047 155.35C256.858 155.237 256.678 155.104 256.659 155.095C253.935 153.033 251.006 151.258 247.918 149.797C250.283 151.954 253.14 154.31 255.676 156.419C258.514 158.784 258.589 155.804 260.273 153.345C260.276 153.326 260.276 153.307 260.273 153.288C260.446 153.041 260.632 152.804 260.831 152.578C262.392 150.866 262.061 151.027 263.064 148.605C260.226 146.079 258.854 145.483 255.543 144.14C252.024 142.711 252.459 140.091 250.368 145.767ZM257.605 152.739C255.77 151.878 251.371 149.021 250.416 148.51L249.47 148.085C250.294 147.442 250.993 146.653 251.532 145.757C253.535 148.147 255.87 150.237 258.466 151.963C258.151 152.196 257.862 152.462 257.605 152.758V152.739ZM261.03 149.456C260.505 149.686 260.046 150.044 259.696 150.497C257.709 149.031 253.566 146.533 251.674 145.426C252.043 144.717 252.232 144.149 252.412 143.865C254.947 145.994 254.029 145.01 256.527 146.335C257.927 147.053 259.696 148.832 261.03 149.475V149.456Z" fill="#1C1C1C" stroke="#1C1C1C" stroke-width="1.74068" stroke-miterlimit="10"/>
<path d="M187.551 291.814C194.078 283.423 195.223 273.092 190.389 263.594C191.921 269.866 192.934 274.274 191.127 280.698C183.927 306.401 145.424 307.745 138.017 280.556C135.368 270.85 137.364 264.067 142.927 256.073C137.686 260.803 135.453 266.072 135.245 273.101C134.309 301.955 169.955 314.367 187.551 291.814Z" fill="#1C1C1C" stroke="#1C1C1C" stroke-width="1.74068" stroke-miterlimit="10"/>
<path d="M354.493 66.8497C354.645 67.3984 354.588 67.1525 354.493 66.8497V66.8497Z" fill="#1C1C1C" stroke="#1C1C1C" stroke-width="1.74068" stroke-miterlimit="10"/>
</svg>
