<svg width="20" height="23" viewBox="0 0 20 23" fill="none" xmlns="http://www.w3.org/2000/svg">
<path d="M20.001 9.42955C18.0356 9.43428 16.1184 8.81751 14.5202 7.66637V15.6948C14.5197 17.1818 14.068 18.6331 13.2256 19.8548C12.3832 21.0765 11.1902 22.0102 9.80621 22.5313C8.42217 23.0523 6.91305 23.1357 5.48062 22.7703C4.0482 22.405 2.76076 21.6083 1.79044 20.4869C0.820128 19.3654 0.213195 17.9725 0.0507968 16.4946C-0.111601 15.0167 0.178277 13.524 0.881672 12.2163C1.58507 10.9087 2.66845 9.84821 3.98695 9.17681C5.30546 8.50541 6.79624 8.25506 8.25997 8.45924V12.4973C7.59016 12.2853 6.87092 12.2917 6.20494 12.5155C5.53896 12.7394 4.96031 13.1693 4.55161 13.7438C4.14292 14.3183 3.92509 15.0081 3.92922 15.7146C3.93336 16.4212 4.15925 17.1083 4.57464 17.6779C4.99003 18.2476 5.57368 18.6706 6.24223 18.8865C6.91079 19.1025 7.63006 19.1004 8.29733 18.8804C8.9646 18.6605 9.54575 18.234 9.95779 17.6619C10.3698 17.0898 10.5917 16.4013 10.5917 15.6948V0H14.5202C14.5175 0.333832 14.5453 0.66721 14.6033 0.995918C14.7398 1.72971 15.0236 2.42776 15.4374 3.04738C15.8513 3.667 16.3863 4.19516 17.01 4.59955C17.8972 5.18987 18.9374 5.5045 20.001 5.50428V9.42955Z" fill="white"/>
</svg>
