<svg width="1913" height="44" viewBox="0 0 1913 44" fill="none" xmlns="http://www.w3.org/2000/svg">
<path opacity="0.2" d="M1910.51 1.0097L1912.19 1.0097L1889.35 23.8497L1887.67 23.8497L1910.51 1.0097Z" fill="white"/>
<path opacity="0.2" d="M1893.53 1.0097L1895.21 1.0097L1872.37 23.8497L1870.69 23.8497L1893.53 1.0097Z" fill="white"/>
<path opacity="0.2" d="M1876.55 1.0097L1878.23 1.0097L1855.39 23.8497L1853.71 23.8497L1876.55 1.0097Z" fill="white"/>
<path opacity="0.2" d="M1859.57 1.0097L1861.25 1.0097L1838.41 23.8497L1836.73 23.8497L1859.57 1.0097Z" fill="white"/>
<path opacity="0.2" d="M1842.59 1.0097L1844.27 1.0097L1821.43 23.8497L1819.75 23.8497L1842.59 1.0097Z" fill="white"/>
<path opacity="0.2" d="M1825.61 1.0097L1827.3 1.0097L1804.45 23.8497L1802.77 23.8497L1825.61 1.0097Z" fill="white"/>
<path opacity="0.2" d="M1808.64 1.0097L1810.32 1.0097L1787.47 23.8497L1785.79 23.8497L1808.64 1.0097Z" fill="white"/>
<path opacity="0.2" d="M1791.66 1.0097L1793.34 1.0097L1770.49 23.8497L1768.81 23.8497L1791.66 1.0097Z" fill="white"/>
<path opacity="0.2" d="M1774.68 1.0097L1776.36 1.0097L1753.51 23.8497L1751.83 23.8497L1774.68 1.0097Z" fill="white"/>
<path opacity="0.2" d="M1757.7 1.0097L1759.38 1.0097L1736.53 23.8497L1734.85 23.8497L1757.7 1.0097Z" fill="white"/>
<path opacity="0.2" d="M1740.72 1.0097L1742.4 1.0097L1719.55 23.8497L1717.87 23.8497L1740.72 1.0097Z" fill="white"/>
<path opacity="0.2" d="M1723.74 1.0097L1725.42 1.0097L1702.57 23.8497L1700.89 23.8497L1723.74 1.0097Z" fill="white"/>
<path opacity="0.2" d="M1706.76 1.0097L1708.44 1.0097L1685.59 23.8497L1683.91 23.8497L1706.76 1.0097Z" fill="white"/>
<path opacity="0.2" d="M1689.78 1.0097L1691.46 1.0097L1668.62 23.8497L1666.93 23.8497L1689.78 1.0097Z" fill="white"/>
<path opacity="0.2" d="M1672.8 1.0097L1674.48 1.0097L1651.64 23.8497L1649.96 23.8497L1672.8 1.0097Z" fill="white"/>
<path opacity="0.2" d="M1655.82 1.0097L1657.5 1.0097L1634.66 23.8497L1632.98 23.8497L1655.82 1.0097Z" fill="white"/>
<path opacity="0.2" d="M1638.84 1.0097L1640.52 1.0097L1617.68 23.8497L1616 23.8497L1638.84 1.0097Z" fill="white"/>
<path opacity="0.2" d="M1621.86 1.0097L1623.54 1.0097L1600.7 23.8497L1599.02 23.8497L1621.86 1.0097Z" fill="white"/>
<path opacity="0.2" d="M1604.88 1.0097L1606.56 1.0097L1583.72 23.8497L1582.04 23.8497L1604.88 1.0097Z" fill="white"/>
<path opacity="0.2" d="M1587.9 1.0097L1589.59 1.0097L1566.74 23.8497L1565.06 23.8497L1587.9 1.0097Z" fill="white"/>
<path opacity="0.2" d="M1570.93 1.0097L1572.61 1.0097L1549.76 23.8497L1548.08 23.8497L1570.93 1.0097Z" fill="white"/>
<path opacity="0.2" d="M1553.95 1.0097L1555.63 1.0097L1532.78 23.8497L1531.1 23.8497L1553.95 1.0097Z" fill="white"/>
<path opacity="0.2" d="M1536.97 1.00977L1538.65 1.00977L1515.8 23.8498L1514.12 23.8498L1536.97 1.00977Z" fill="white"/>
<path opacity="0.2" d="M1519.99 1.00977L1521.67 1.00977L1498.82 23.8498L1497.14 23.8498L1519.99 1.00977Z" fill="white"/>
<path opacity="0.2" d="M1503.01 1.00977L1504.69 1.00977L1481.84 23.8498L1480.16 23.8498L1503.01 1.00977Z" fill="white"/>
<path opacity="0.2" d="M1486.03 1.00977L1487.71 1.00977L1464.86 23.8498L1463.18 23.8498L1486.03 1.00977Z" fill="white"/>
<path opacity="0.2" d="M1469.05 1.00977L1470.73 1.00977L1447.89 23.8498L1446.2 23.8498L1469.05 1.00977Z" fill="white"/>
<path opacity="0.2" d="M1452.07 1.0097L1453.75 1.0097L1430.91 23.8497L1429.22 23.8497L1452.07 1.0097Z" fill="white"/>
<path opacity="0.2" d="M1435.09 1.0097L1436.77 1.0097L1413.93 23.8497L1412.24 23.8497L1435.09 1.0097Z" fill="white"/>
<path opacity="0.2" d="M1418.11 1.0097L1419.79 1.0097L1396.95 23.8497L1395.27 23.8497L1418.11 1.0097Z" fill="white"/>
<path opacity="0.2" d="M1401.13 1.00977L1402.81 1.00977L1379.97 23.8498L1378.29 23.8498L1401.13 1.00977Z" fill="white"/>
<path opacity="0.2" d="M1384.15 1.00977L1385.83 1.00977L1362.99 23.8498L1361.31 23.8498L1384.15 1.00977Z" fill="white"/>
<path opacity="0.2" d="M1367.17 1.00977L1368.85 1.00977L1346.01 23.8498L1344.33 23.8498L1367.17 1.00977Z" fill="white"/>
<path opacity="0.2" d="M1350.19 1.00977L1351.87 1.00977L1329.03 23.8498L1327.35 23.8498L1350.19 1.00977Z" fill="white"/>
<path opacity="0.2" d="M1333.21 1.00977L1334.89 1.00977L1312.05 23.8498L1310.37 23.8498L1333.21 1.00977Z" fill="white"/>
<path opacity="0.2" d="M1316.24 1.00977L1317.92 1.00977L1295.07 23.8498L1293.39 23.8498L1316.24 1.00977Z" fill="white"/>
<path opacity="0.2" d="M1299.26 1.00977L1300.94 1.00977L1278.09 23.8498L1276.41 23.8498L1299.26 1.00977Z" fill="white"/>
<path opacity="0.2" d="M1282.28 1.00977L1283.96 1.00977L1261.11 23.8498L1259.43 23.8498L1282.28 1.00977Z" fill="white"/>
<path opacity="0.2" d="M1265.3 1.00977L1266.98 1.00977L1244.13 23.8498L1242.45 23.8498L1265.3 1.00977Z" fill="white"/>
<path opacity="0.2" d="M1248.32 1.0097L1250 1.0097L1227.15 23.8497L1225.47 23.8497L1248.32 1.0097Z" fill="white"/>
<path opacity="0.2" d="M1231.34 1.0097L1233.02 1.0097L1210.18 23.8497L1208.49 23.8497L1231.34 1.0097Z" fill="white"/>
<path opacity="0.2" d="M1214.36 1.0097L1216.04 1.0097L1193.2 23.8497L1191.51 23.8497L1214.36 1.0097Z" fill="white"/>
<path opacity="0.2" d="M1197.38 1.00977L1199.06 1.00977L1176.22 23.8498L1174.53 23.8498L1197.38 1.00977Z" fill="white"/>
<path opacity="0.2" d="M1180.4 1.00977L1182.08 1.00977L1159.24 23.8498L1157.56 23.8498L1180.4 1.00977Z" fill="white"/>
<path opacity="0.2" d="M1163.42 1.00977L1165.1 1.00977L1142.26 23.8498L1140.58 23.8498L1163.42 1.00977Z" fill="white"/>
<path opacity="0.2" d="M1146.44 1.00977L1148.12 1.00977L1125.28 23.8498L1123.6 23.8498L1146.44 1.00977Z" fill="white"/>
<path opacity="0.2" d="M1129.46 1.00977L1131.14 1.00977L1108.3 23.8498L1106.62 23.8498L1129.46 1.00977Z" fill="white"/>
<path opacity="0.2" d="M1112.48 1.0097L1114.16 1.0097L1091.32 23.8497L1089.64 23.8497L1112.48 1.0097Z" fill="white"/>
<path opacity="0.2" d="M1095.5 1.0097L1097.18 1.0097L1074.34 23.8497L1072.66 23.8497L1095.5 1.0097Z" fill="white"/>
<path opacity="0.2" d="M1078.53 1.00977L1080.21 1.00977L1057.36 23.8498L1055.68 23.8498L1078.53 1.00977Z" fill="white"/>
<path opacity="0.2" d="M1061.55 1.00977L1063.23 1.00977L1040.38 23.8498L1038.7 23.8498L1061.55 1.00977Z" fill="white"/>
<path opacity="0.2" d="M1044.57 1.0097L1046.25 1.0097L1023.4 23.8497L1021.72 23.8497L1044.57 1.0097Z" fill="white"/>
<path opacity="0.2" d="M1027.59 1.0097L1029.27 1.0097L1006.42 23.8497L1004.74 23.8497L1027.59 1.0097Z" fill="white"/>
<path opacity="0.2" d="M1010.61 1.0097L1012.29 1.0097L989.443 23.8497L987.763 23.8497L1010.61 1.0097Z" fill="white"/>
<path opacity="0.2" d="M993.631 1.00977L995.312 1.00977L972.461 23.8498L970.781 23.8498L993.631 1.00977Z" fill="white"/>
<path opacity="0.2" d="M976.651 1.00977L978.332 1.00977L955.491 23.8498L953.802 23.8498L976.651 1.00977Z" fill="white"/>
<path opacity="0.2" d="M959.671 1.00977L961.352 1.00977L938.511 23.8498L936.822 23.8498L959.671 1.00977Z" fill="white"/>
<path opacity="0.2" d="M942.691 1.00977L944.372 1.00977L921.531 23.8498L919.852 23.8498L942.691 1.00977Z" fill="white"/>
<path opacity="0.2" d="M925.711 1.00977L927.391 1.00977L904.552 23.8498L902.872 23.8498L925.711 1.00977Z" fill="white"/>
<path opacity="0.2" d="M908.73 1.0097L910.41 1.0097L887.57 23.8497L885.89 23.8497L908.73 1.0097Z" fill="white"/>
<path opacity="0.2" d="M891.75 1.0097L893.43 1.0097L870.59 23.8497L868.91 23.8497L891.75 1.0097Z" fill="white"/>
<path opacity="0.2" d="M874.773 1.0097L876.453 1.0097L853.613 23.8497L851.933 23.8497L874.773 1.0097Z" fill="white"/>
<path opacity="0.2" d="M857.793 1.0097L859.473 1.0097L836.633 23.8497L834.953 23.8497L857.793 1.0097Z" fill="white"/>
<path opacity="0.2" d="M840.822 1.00983L842.491 1.00983L819.651 23.8499L817.971 23.8499L840.822 1.00983Z" fill="white"/>
<path opacity="0.2" d="M823.844 1.0097L825.523 1.0097L802.673 23.8497L800.993 23.8497L823.844 1.0097Z" fill="white"/>
<path opacity="0.2" d="M806.863 1.0097L808.543 1.0097L785.693 23.8497L784.013 23.8497L806.863 1.0097Z" fill="white"/>
<path opacity="0.2" d="M789.881 1.00983L791.562 1.00983L768.711 23.8499L767.031 23.8499L789.881 1.00983Z" fill="white"/>
<path opacity="0.2" d="M1435.7 1.00001L1521.7 1L1511.31 11.38L1425.31 11.38L1435.7 1.00001Z" fill="white"/>
<path opacity="0.2" d="M1017.19 12.4698L1103.19 12.4698L1092.8 22.8498L1006.8 22.8498L1017.19 12.4698Z" fill="white"/>
<path opacity="0.2" d="M1402.17 1L1418.79 1L1408.41 11.38L1391.79 11.38L1402.17 1Z" fill="white"/>
<path opacity="0.2" d="M1831.12 13.4697L1912.19 13.4697L1912.19 23.8497L1821 23.8497L1821 23.5697L1831.12 13.4697Z" fill="white"/>
<path opacity="0.2" d="M780.001 11.3898L767.001 11.3898L767.001 1.00983L790.401 1.00983L780.001 11.3898Z" fill="white"/>
<path opacity="0.2" d="M765.511 0.00982681L767.191 0.00982666L744.352 22.8499L742.671 22.8499L765.511 0.00982681Z" fill="white"/>
<path opacity="0.2" d="M748.531 0.00982681L750.211 0.00982666L727.371 22.8499L725.691 22.8499L748.531 0.00982681Z" fill="white"/>
<path opacity="0.2" d="M731.552 0.00982681L733.231 0.00982666L710.391 22.8499L708.711 22.8499L731.552 0.00982681Z" fill="white"/>
<path opacity="0.2" d="M714.57 0.00982681L716.25 0.00982666L693.41 22.8499L691.73 22.8499L714.57 0.00982681Z" fill="white"/>
<path opacity="0.2" d="M697.59 0.00982681L699.27 0.00982666L676.429 22.8499L674.75 22.8499L697.59 0.00982681Z" fill="white"/>
<path opacity="0.2" d="M680.612 0.00982681L682.302 0.00982666L659.452 22.8499L657.772 22.8499L680.612 0.00982681Z" fill="white"/>
<path opacity="0.2" d="M663.641 0.00982681L665.321 0.00982666L642.471 22.8499L640.791 22.8499L663.641 0.00982681Z" fill="white"/>
<path opacity="0.2" d="M646.66 0.00982681L648.34 0.00982666L625.49 22.8499L623.81 22.8499L646.66 0.00982681Z" fill="white"/>
<path opacity="0.2" d="M629.679 0.00982681L631.359 0.00982666L608.509 22.8499L606.829 22.8499L629.679 0.00982681Z" fill="white"/>
<path opacity="0.2" d="M612.699 0.00982681L614.379 0.00982666L591.529 22.8499L589.849 22.8499L612.699 0.00982681Z" fill="white"/>
<path opacity="0.2" d="M595.721 0.00982681L597.401 0.00982666L574.552 22.8499L572.872 22.8499L595.721 0.00982681Z" fill="white"/>
<path opacity="0.2" d="M578.742 0.00982681L580.422 0.00982666L557.572 22.8499L555.892 22.8499L578.742 0.00982681Z" fill="white"/>
<path opacity="0.2" d="M561.761 0.00982681L563.441 0.00982666L540.592 22.8499L538.911 22.8499L561.761 0.00982681Z" fill="white"/>
<path opacity="0.2" d="M544.781 0.00982681L546.461 0.00982666L523.621 22.8499L521.931 22.8499L544.781 0.00982681Z" fill="white"/>
<path opacity="0.2" d="M527.802 0.00982681L529.481 0.00982666L506.641 22.8499L504.961 22.8499L527.802 0.00982681Z" fill="white"/>
<path opacity="0.2" d="M510.82 0.00982681L512.5 0.00982666L489.66 22.8499L487.98 22.8499L510.82 0.00982681Z" fill="white"/>
<path opacity="0.2" d="M493.84 0.00982681L495.52 0.00982666L472.679 22.8499L471 22.8499L493.84 0.00982681Z" fill="white"/>
<path opacity="0.2" d="M476.859 0.00982681L478.539 0.00982666L455.699 22.8499L454.019 22.8499L476.859 0.00982681Z" fill="white"/>
<path opacity="0.2" d="M459.881 0.00982681L461.562 0.00982666L438.721 22.8499L437.042 22.8499L459.881 0.00982681Z" fill="white"/>
<path opacity="0.2" d="M442.9 0.00982681L444.59 0.00982666L421.74 22.8499L420.06 22.8499L442.9 0.00982681Z" fill="white"/>
<path opacity="0.2" d="M425.929 0.00982681L427.609 0.00982666L404.759 22.8499L403.079 22.8499L425.929 0.00982681Z" fill="white"/>
<path opacity="0.2" d="M408.949 0.00982681L410.629 0.00982666L387.779 22.8499L386.099 22.8499L408.949 0.00982681Z" fill="white"/>
<path opacity="0.2" d="M391.971 0.00988784L393.651 0.0098877L370.802 22.8499L369.122 22.8499L391.971 0.00988784Z" fill="white"/>
<path opacity="0.2" d="M374.992 0.00988784L376.672 0.0098877L353.822 22.8499L352.142 22.8499L374.992 0.00988784Z" fill="white"/>
<path opacity="0.2" d="M358.011 0.00988784L359.691 0.0098877L336.842 22.8499L335.161 22.8499L358.011 0.00988784Z" fill="white"/>
<path opacity="0.2" d="M341.031 0.00988784L342.711 0.0098877L319.861 22.8499L318.181 22.8499L341.031 0.00988784Z" fill="white"/>
<path opacity="0.2" d="M324.052 0.00988784L325.731 0.0098877L302.891 22.8499L301.201 22.8499L324.052 0.00988784Z" fill="white"/>
<path opacity="0.2" d="M307.07 0.00982681L308.75 0.00982666L285.91 22.8499L284.22 22.8499L307.07 0.00982681Z" fill="white"/>
<path opacity="0.2" d="M290.09 0.00982681L291.77 0.00982666L268.929 22.8499L267.24 22.8499L290.09 0.00982681Z" fill="white"/>
<path opacity="0.2" d="M273.109 0.00982681L274.789 0.00982666L251.949 22.8499L250.269 22.8499L273.109 0.00982681Z" fill="white"/>
<path opacity="0.2" d="M256.131 0.00988784L257.812 0.0098877L234.971 22.8499L233.292 22.8499L256.131 0.00988784Z" fill="white"/>
<path opacity="0.2" d="M239.152 0.00988784L240.832 0.0098877L217.992 22.8499L216.312 22.8499L239.152 0.00988784Z" fill="white"/>
<path opacity="0.2" d="M222.171 0.00988784L223.852 0.0098877L201.011 22.8499L199.332 22.8499L222.171 0.00988784Z" fill="white"/>
<path opacity="0.2" d="M205.191 0.00988784L206.871 0.0098877L184.031 22.8499L182.351 22.8499L205.191 0.00988784Z" fill="white"/>
<path opacity="0.2" d="M188.212 0.00988784L189.892 0.0098877L167.052 22.8499L165.372 22.8499L188.212 0.00988784Z" fill="white"/>
<path opacity="0.2" d="M171.242 0.00988784L172.922 0.0098877L150.072 22.8499L148.392 22.8499L171.242 0.00988784Z" fill="white"/>
<path opacity="0.2" d="M154.261 0.00988784L155.941 0.0098877L133.092 22.8499L131.411 22.8499L154.261 0.00988784Z" fill="white"/>
<path opacity="0.2" d="M137.281 0.00988784L138.961 0.0098877L116.111 22.8499L114.431 22.8499L137.281 0.00988784Z" fill="white"/>
<path opacity="0.2" d="M120.302 0.00988784L121.981 0.0098877L99.1313 22.8499L97.4514 22.8499L120.302 0.00988784Z" fill="white"/>
<path opacity="0.2" d="M103.32 0.00982681L105 0.00982666L82.1499 22.8499L80.47 22.8499L103.32 0.00982681Z" fill="white"/>
<path opacity="0.2" d="M86.3396 0.00982681L88.0195 0.00982666L65.1794 22.8499L63.4895 22.8499L86.3396 0.00982681Z" fill="white"/>
<path opacity="0.2" d="M69.3591 0.00982681L71.0391 0.00982666L48.199 22.8499L46.509 22.8499L69.3591 0.00982681Z" fill="white"/>
<path opacity="0.2" d="M52.3813 0.00988784L54.0615 0.0098877L31.2214 22.8499L29.5315 22.8499L52.3813 0.00988784Z" fill="white"/>
<path opacity="0.2" d="M35.4019 0.00988784L37.082 0.0098877L14.2419 22.8499L12.562 22.8499L35.4019 0.00988784Z" fill="white"/>
<path opacity="0.2" d="M18.4214 0.00988784L20.1016 0.0098877L-2.73853 22.8499L-4.41846 22.8499L18.4214 0.00988784Z" fill="white"/>
<path opacity="0.2" d="M1.44092 0.00988784L3.12109 0.0098877L-19.719 22.8499L-21.3989 22.8499L1.44092 0.00988784Z" fill="white"/>
<path opacity="0.2" d="M290.699 0.000129589L376.699 0.00012207L366.309 10.3801L280.309 10.3801L290.699 0.000129589Z" fill="white"/>
<path opacity="0.2" d="M7.19141 12.4699L93.1914 12.4699L82.8015 22.8499L-3.19849 22.8499L7.19141 12.4699Z" fill="white"/>
<path opacity="0.2" d="M257.169 0.000123523L273.789 0.00012207L263.409 10.3801L246.789 10.3801L257.169 0.000123523Z" fill="white"/>
<path opacity="0.2" d="M546.122 12.4699L627.191 12.4698L627.191 22.8499L536.001 22.8499L536.001 22.5698L546.122 12.4699Z" fill="white"/>
</svg>
