<svg width="179" height="34" viewBox="0 0 179 34" fill="none" xmlns="http://www.w3.org/2000/svg">
<path d="M16.1254 12.8145L21.3326 28.0878L22.3519 25.1155L25.2431 32.7979L24.7947 33.9927H17.9029L9.93433 12.8145H16.1254Z" fill="white"/>
<path d="M18.5269 12.8145H24.7179L29.9251 28.0878L35.1647 12.8145H41.3573L33.3872 33.9927H26.4969L18.5269 12.8145Z" fill="white"/>
<path d="M75.4046 12.8145H69.2136L64.0049 28.0878L58.7668 12.8145H52.5742L60.5443 33.9927H67.4346L75.4046 12.8145Z" fill="white"/>
<path d="M58.4346 33.9927H52.2436L47.0364 18.7208L41.7968 33.9927H35.6057L43.5743 12.8145H50.4646L58.4346 33.9927Z" fill="white"/>
<path d="M76.5271 33.9942V12.8145H92.0601V17.5776H81.9939V20.8804H91.8373V25.648H81.9939V29.2369H92.0601V34.0001L76.5271 33.9942Z" fill="white"/>
<path d="M105.649 33.9942L102.093 26.8812H99.29V33.9942H93.832V12.8145H104.438C109.136 12.8145 111.803 15.9269 111.803 19.864C111.803 23.5518 109.582 25.5152 107.582 26.2144L111.899 33.9942H105.649ZM106.253 19.8331C106.253 18.3727 105.072 17.5791 103.616 17.5791H99.2973V22.1195H103.616C105.077 22.118 106.253 21.3244 106.253 19.8316V19.8331Z" fill="white"/>
<path d="M113.43 33.9942V12.8145H118.888V33.9942H113.43Z" fill="white"/>
<path d="M120.875 33.9942V12.8145H129.766C136.433 12.8145 141.229 16.815 141.229 23.3881C141.229 29.9612 136.433 33.9942 129.797 33.9942H120.875ZM135.639 23.3881C135.639 20.1178 133.672 17.5776 129.797 17.5776H126.336V29.231H129.766C133.48 29.231 135.639 26.533 135.639 23.3881Z" fill="white"/>
<path d="M142.562 33.9942V12.8145H158.089V17.5776H148.023V20.8804H157.866V25.648H148.023V29.2369H158.089V34.0001L142.562 33.9942Z" fill="white"/>
<path d="M171.786 33.9942L168.229 26.8812H165.427V33.9942H159.969V12.8145H170.575C175.273 12.8145 177.94 15.9269 177.94 19.864C177.94 23.5518 175.719 25.5152 173.718 26.2144L178.036 33.9942H171.786ZM172.389 19.8331C172.389 18.3727 171.209 17.5791 169.753 17.5791H165.434V22.1195H169.753C171.214 22.118 172.389 21.3244 172.389 19.8316V19.8331Z" fill="white"/>
<path d="M16.8246 1.13437C14.6058 1.64853 12.4897 2.53375 10.5657 3.7527C11.3276 2.39286 12.2546 1.13241 13.3257 0C10.4143 1.05741 7.78456 2.76915 5.63915 5.00329C3.49374 7.23743 1.88993 9.93433 0.951314 12.8861C0.0126982 15.8379 -0.235655 18.9658 0.225387 22.0288C0.68643 25.0917 1.84456 28.0079 3.61052 30.5526C1.98587 26.9667 1.44155 22.985 2.04411 19.0945C2.64667 15.2041 4.36998 11.5736 7.00329 8.64714C6.34514 10.5957 6.00836 12.6384 6.00613 14.6951C7.87502 10.0156 11.4222 6.20153 15.954 3.99864C20.4859 1.79574 25.6764 1.36246 30.5108 2.78355C26.2842 0.642989 21.4388 0.0591178 16.8246 1.13437Z" fill="white"/>
</svg>
