<svg width="74" height="51" viewBox="0 0 74 51" fill="none" xmlns="http://www.w3.org/2000/svg">
<path fill-rule="evenodd" clip-rule="evenodd" d="M42.6167 19.9708C42.2601 19.9708 42.795 20.2383 42.6167 20.5057C39.942 22.5563 38.1588 25.4094 35.7516 27.7274C39.2287 31.3828 42.6167 35.1274 45.8263 39.1394C45.648 39.1394 45.2914 39.0503 45.2914 39.3178C45.5589 39.7635 45.8263 39.1394 46.0937 39.1394C46.272 39.4069 46.3613 39.7635 46.6288 39.9419C46.4504 40.3876 46.1829 39.6743 45.9155 39.6743C46.3612 41.1008 47.8769 41.5467 48.3226 43.0623C47.8769 43.0623 47.7878 42.7949 47.5203 42.6165C47.6095 43.5081 48.0552 43.9539 48.501 44.4888C48.0552 44.8454 47.8769 43.7755 47.4311 43.6864C47.3419 44.3996 48.3227 45.1129 48.501 46.0045C48.501 46.272 47.9661 46.0936 47.6986 46.1828C47.8769 46.7177 48.1444 47.0743 48.501 47.431C48.1444 47.6984 47.8769 46.6286 47.2528 46.6286C47.342 47.431 47.966 47.7876 48.2335 48.5008C47.2528 48.59 47.1636 47.7876 46.4504 47.5202C46.0046 47.6093 46.5395 47.7876 46.4504 48.0551C46.0937 47.9659 46.1829 47.5201 45.6479 47.6093C45.2913 47.6093 45.648 48.0551 45.8263 48.0551C45.4697 48.5009 45.3806 47.5201 44.8456 47.6093C44.8456 48.1442 45.3805 48.2334 45.3805 48.8575C45.0239 48.4117 44.7564 47.8768 44.0432 47.7876C44.2215 48.8575 45.0239 49.2141 45.2914 50.1948C44.9348 50.3732 44.2215 50.1948 44.0432 50.6406C43.3299 50.1057 42.7058 49.4815 42.2601 48.59C41.9926 48.3225 41.7251 48.1442 41.5468 47.7876C38.4263 43.9539 33.4335 40.8334 29.5998 36.6431C27.1926 34.0575 24.3396 31.5611 21.9324 28.7081C21.4866 28.1732 20.9517 26.925 21.665 26.1226C22.0216 26.1226 22.1998 25.9443 22.4673 25.8551C22.7347 25.6768 22.9131 25.4094 23.0023 25.0527C30.4914 19.8817 37.1781 13.9973 43.419 7.57805C44.0431 6.41901 45.2022 5.25998 46.0937 4.90335C46.1829 5.61661 45.7371 6.15154 46.3612 6.2407C46.3612 6.86479 45.7371 6.95397 45.5588 7.48891C45.8263 7.66722 46.807 7.39978 46.8961 6.95399C47.3419 7.13231 46.807 7.48892 46.807 7.66723C47.6094 7.75639 47.6985 6.50818 48.3226 6.86481C48.3226 7.31059 47.966 7.48891 47.8768 7.93469C48.6793 8.11301 48.5009 7.31062 49.2142 7.39978C48.4118 8.73712 47.4311 9.80698 46.5395 11.0552C47.0744 11.0552 47.8769 10.0744 48.4119 9.5395C48.8577 9.80697 47.966 9.89614 48.1444 10.3419C49.0359 10.1636 48.8576 8.91542 50.0166 9.00458C49.5708 10.0745 49.2143 11.2335 48.501 12.1251C48.4119 12.4817 49.1251 12.0359 48.9468 12.5708C49.4817 12.66 49.3926 12.2142 49.7492 12.1251C49.2143 13.5516 46.7179 15.4238 45.8263 17.3852C44.8456 18.0985 44.0432 18.9901 43.2408 19.9708C43.1516 19.7925 43.0625 20.06 42.6167 19.9708ZM46.6288 41.19C46.8071 41.8141 46.1829 41.0117 46.0937 41.4575C46.272 41.6358 47.0745 41.9033 47.3419 41.725C46.9853 41.6358 46.9854 41.2792 46.6288 41.19Z" fill="#00BFFF"/>
<path fill-rule="evenodd" clip-rule="evenodd" d="M73.1973 46.9853C73.1082 46.8961 72.5733 46.6287 72.4842 46.9853C72.6625 47.5202 73.1082 47.6986 73.4649 48.0552C73.4649 48.501 72.9299 48.501 72.7516 48.8576C71.6817 48.501 70.9684 49.0359 70.166 48.1443C70.2552 48.5901 70.0769 48.9467 70.6118 49.2142C69.9877 49.66 69.6311 48.6793 68.7395 48.9467C68.2937 49.2142 69.1854 49.66 68.9179 49.7492C68.1155 49.7492 67.848 49.1251 67.1348 48.9467C66.689 49.2142 67.5805 49.2142 67.4022 49.66C65.1733 48.5901 63.8359 46.7179 61.5179 45.7371C61.4287 45.3805 61.1613 45.2022 61.0721 44.7564C59.289 44.0431 59.4673 42.1709 57.595 41.5468C57.5058 41.2793 57.6842 41.1901 57.7734 41.0118C55.8119 39.2287 54.2963 36.9106 52.424 35.1275C50.6408 32.007 47.9661 29.7781 46.0046 26.9251C52.0673 20.6842 56.7034 13.0167 63.7468 7.75648C65.7082 7.57817 65.8865 5.70588 67.4022 5.08179C67.1347 5.2601 66.9564 5.52759 66.8673 5.88422C67.6697 5.97337 68.1154 4.63599 69.2744 4.90346C68.3829 6.68659 68.383 8.73719 67.1348 10.2528C68.383 9.98538 68.5612 8.64804 69.7202 8.20226C69.8985 8.7372 69.4528 9.45045 69.1853 9.98539C69.5419 10.342 69.7203 9.45046 70.4335 9.71793C69.7203 11.0553 69.8094 12.3926 68.6504 13.1951C68.8287 13.5517 68.6503 13.73 68.8287 13.9083C65.4407 18.0986 62.1419 22.3781 59.0215 26.9251C60.5371 28.9757 61.2504 31.4721 63.2119 32.8095C63.1227 33.2552 63.1227 33.0769 63.2119 33.5227C66.3323 36.8215 68.9178 40.6552 71.9491 44.1323C72.1274 44.1323 72.3058 44.1323 72.4842 44.1323C71.9492 44.3106 72.5733 44.8456 72.9299 45.113C71.9492 45.2022 73.019 46.3612 73.1973 46.9853Z" fill="#00BFFF"/>
<path fill-rule="evenodd" clip-rule="evenodd" d="M19.2578 16.9394C19.0794 16.6719 18.7228 17.296 18.4553 17.3852C18.4553 17.5635 18.7228 17.4744 18.7228 17.6527C17.3855 19.9708 15.8698 22.0213 14.265 23.9828C14.265 24.9635 13.7301 25.4984 13.1952 25.8551C13.3735 26.3008 13.3735 26.39 12.9277 26.5683C12.7494 27.1033 13.2843 26.9249 13.1952 27.3707C12.9277 27.4599 12.8385 27.7273 12.3928 27.6382C12.8385 28.1731 12.0361 28.4406 11.947 28.9755C15.6916 34.4141 19.5253 39.6743 23.6265 44.6671C23.6265 44.9345 23.1806 44.7563 22.9132 44.8454C23.0023 45.9153 24.0723 46.0044 23.894 47.4309C23.4482 47.4309 23.4482 46.9851 23.0915 46.896C23.0915 47.1635 23.6265 48.055 23.6265 48.7683C22.3783 47.9658 21.665 47.4309 20.4168 46.7177C20.0602 47.3418 21.3975 47.7875 20.9518 48.5008C19.5253 47.8767 18.9903 46.4502 17.7422 45.6478C18.2771 46.7177 19.1686 47.3418 19.7927 48.3225C19.2577 48.2333 19.1687 47.6093 18.5446 47.5201C18.188 47.9659 18.9904 48.1442 18.9904 48.7683C18.5446 48.4116 18.0988 47.9658 17.653 47.6984C17.3855 47.6984 17.8313 48.055 17.4746 48.2333C16.4939 47.7876 16.0482 46.8068 15.4241 45.9152C13.9084 43.9538 12.0361 42.1707 10.1639 40.5659C10.1639 39.1394 6.5084 37.2671 7.22165 36.5538C6.15177 36.3755 5.70606 35.0382 5.17112 34.4141C4.1904 33.0768 2.85303 32.2743 2.58556 30.6695C2.05062 30.1346 1.78311 29.3322 0.980703 29.0647C1.24817 28.1732 0.267495 28.2623 0.802434 27.7274C0.624121 27.2816 0.35663 27.7274 4.2557e-06 27.4599C2.40723 23.4479 4.99276 19.7924 8.02408 16.4936C7.93492 15.3346 8.82646 15.2455 9.00478 14.3539C9.3614 14.2648 9.62885 13.9973 9.98547 13.8189C9.98547 13.6406 9.98547 13.4623 9.98547 13.284C10.1638 13.1949 10.3421 13.1057 10.6988 13.1057C10.6988 12.2141 11.2337 10.9659 12.2144 10.6985C12.3035 11.1442 12.0361 11.2334 11.947 11.5009C12.4819 10.8768 13.5518 10.2527 13.4626 9.36112C15.0674 8.20209 15.959 6.32982 17.2072 4.81416C17.653 5.08163 17.0288 5.43824 17.0288 5.79486C18.1879 5.08161 18.812 3.83342 19.9711 3.12017C20.5951 3.29848 20.9517 3.74428 21.5758 3.29849C21.7541 3.56596 21.9325 3.74431 21.8433 4.27925C22.9132 3.92262 23.0024 4.63587 23.9831 4.72503C24.0722 4.9925 24.2505 5.25994 24.2505 5.70573C24.7854 5.88404 24.7855 5.43827 25.2313 5.43827C25.1421 6.95393 23.9831 7.39968 23.894 8.91533C24.7855 8.64787 24.6072 7.31053 25.7662 7.31053C24.2506 9.0045 23.8939 11.9467 21.7542 12.9274C21.5759 14.7105 19.0795 15.6021 19.4361 17.1177C19.347 17.3852 18.812 18.3659 18.7228 17.831C19.1686 17.3852 18.9903 16.9394 19.2578 16.9394ZM17.4746 47.4309C17.4746 46.9851 17.1181 46.9851 16.7615 46.896C16.8506 47.3418 17.118 47.7875 17.4746 47.4309ZM23.894 8.64788C23.359 8.82619 22.7348 9.53944 22.9132 9.98522C23.2698 9.45028 23.7156 9.18282 23.894 8.64788Z" fill="#00BFFF"/>
<path fill-rule="evenodd" clip-rule="evenodd" d="M43.1516 16.7609C42.795 16.7609 43.3299 17.0284 43.1516 17.2958C40.4769 19.3464 38.6937 22.1994 36.2865 24.5175C39.7636 28.1729 43.1516 31.9175 46.3612 35.9295C46.1829 35.9295 45.8263 35.8403 45.8263 36.1078C46.0938 36.5536 46.3613 35.9295 46.6287 35.9295C46.8071 36.197 46.8962 36.5536 47.1637 36.7319C46.9853 37.1777 46.7178 36.4645 46.4504 36.4645C46.8961 37.891 48.4119 38.3367 48.8577 39.8524C48.4119 39.8524 48.3227 39.5849 48.0552 39.4066C48.1444 40.2982 48.5901 40.744 49.0359 41.2789C48.5901 41.6355 48.4119 40.5656 47.9661 40.4765C47.8769 41.1897 48.8576 41.903 49.0359 42.7945C49.0359 43.062 48.501 42.8837 48.2335 42.9729C48.4118 43.5078 48.6793 43.8644 49.0359 44.2211C48.6793 44.4885 48.4118 43.4186 47.7877 43.4186C47.8769 44.221 48.5009 44.5777 48.7684 45.291C47.7877 45.3801 47.6985 44.5777 46.9853 44.3102C46.5395 44.3994 47.0744 44.5777 46.9853 44.8452C46.6287 44.756 46.7179 44.3102 46.183 44.3994C45.8263 44.3994 46.1829 44.8452 46.3612 44.8452C46.0046 45.291 45.9155 44.3102 45.3805 44.3994C45.3805 44.9343 45.9155 45.0235 45.9155 45.6475C45.5588 45.2018 45.2914 44.6668 44.5781 44.5777C44.7564 45.6475 45.5588 46.0042 45.8263 46.9849C45.4697 47.1632 44.7564 46.9849 44.5781 47.4307C43.8649 46.8957 43.2408 46.2717 42.795 45.3801C42.5275 45.1126 42.26 44.9343 42.0817 44.5777C38.9612 40.7439 33.9685 37.6235 30.1348 33.4331C27.7276 30.8476 24.8745 28.3512 22.4673 25.4982C22.0215 24.9633 21.4866 23.7151 22.1999 22.9127C22.5565 22.9127 22.7348 22.7344 23.0023 22.6452C23.2698 22.4669 23.4481 22.1994 23.5372 21.8428C31.0264 16.6717 37.7131 10.7874 43.954 4.36815C44.5781 3.20912 45.7372 2.05008 46.6287 1.69346C46.7179 2.40671 46.272 2.94165 46.8961 3.0308C46.8961 3.6549 46.272 3.74408 46.0937 4.27902C46.3612 4.45733 47.3419 4.18983 47.4311 3.74404C47.8768 3.92236 47.3419 4.27897 47.3419 4.45729C48.1443 4.54644 48.2336 3.29828 48.8576 3.65491C48.8576 4.10069 48.501 4.27902 48.4119 4.7248C49.2143 4.90311 49.036 4.10067 49.7492 4.18983C48.9468 5.52717 47.9661 6.59708 47.0745 7.84527C47.6095 7.84527 48.4118 6.86454 48.9468 6.3296C49.3926 6.59707 48.501 6.68619 48.6793 7.13198C49.5708 6.95366 49.3925 5.70547 50.5515 5.79463C50.1058 6.86451 49.7492 8.02354 49.0359 8.9151C48.9468 9.27173 49.66 8.82595 49.4817 9.36089C50.0166 9.45004 49.9275 9.00426 50.2841 8.9151C49.7492 10.3416 47.2528 12.2139 46.3612 14.1754C45.3805 14.8886 44.5781 15.7802 43.7757 16.7609C43.5974 16.6718 43.5974 16.8501 43.1516 16.7609ZM47.1637 37.9801C47.342 38.6042 46.7179 37.8018 46.6287 38.2476C46.8071 38.4259 47.6094 38.6933 47.8768 38.515C47.5202 38.4259 47.5203 38.0693 47.1637 37.9801Z" fill="#DBFE00"/>
<path fill-rule="evenodd" clip-rule="evenodd" d="M73.7325 43.7757C73.6433 43.6865 73.1085 43.419 73.0193 43.7757C73.1976 44.3106 73.6434 44.4889 74 44.8455C74 45.2913 73.465 45.2913 73.2867 45.6479C72.2168 45.2913 71.5037 45.8262 70.7013 44.9347C70.7904 45.3805 70.6121 45.7371 71.1471 46.0046C70.523 46.4504 70.1662 45.4696 69.2747 45.7371C68.8289 46.0046 69.7205 46.4503 69.4531 46.5395C68.6507 46.5395 68.3832 45.9154 67.6699 45.7371C67.2242 46.0046 68.1157 46.0046 67.9373 46.4504C65.7084 45.3805 64.3711 43.5082 62.053 42.5275C61.9639 42.1708 61.6964 41.9925 61.6073 41.5468C59.8241 40.8335 60.0024 38.9612 58.1301 38.3371C58.041 38.0696 58.2194 37.9805 58.3085 37.8022C56.3471 36.019 54.8314 33.701 52.9591 31.9179C51.176 28.7974 48.5012 26.5685 46.5398 23.7155C52.6024 17.4745 57.2386 9.80708 64.2819 4.54685C66.2434 4.36854 66.4217 2.49625 67.9373 1.87216C67.6699 2.05047 67.4916 2.31791 67.4024 2.67453C68.2048 2.76369 68.6507 1.42637 69.8097 1.69384C68.9181 3.47696 68.9181 5.52756 67.6699 7.04322C68.9181 6.77575 69.0965 5.43842 70.2555 4.99263C70.4338 5.52757 69.9879 6.24082 69.7205 6.77576C70.0771 7.13239 70.2554 6.24083 70.9687 6.5083C70.2554 7.84565 70.3446 9.18296 69.1855 9.98537C69.3639 10.342 69.1856 10.5203 69.3639 10.6986C65.976 14.889 62.6772 19.1685 59.5567 23.7155C61.0724 25.7661 61.7856 28.2624 63.747 29.5998C63.6579 30.0456 63.6579 29.8672 63.747 30.313C66.8675 33.6118 69.4531 37.4455 72.4844 40.9226C72.6627 40.9226 72.841 40.9226 73.0193 40.9226C72.4844 41.101 73.1085 41.6359 73.4651 41.9033C72.4844 41.9925 73.5542 43.1516 73.7325 43.7757Z" fill="#DBFE00"/>
<path fill-rule="evenodd" clip-rule="evenodd" d="M19.7033 13.819C19.525 13.5516 19.1684 14.1757 18.9009 14.2648C18.9009 14.4431 19.1684 14.354 19.1684 14.5323C17.8311 16.8504 16.3154 18.901 14.7106 20.8624C14.7106 21.8431 14.1757 22.3781 13.6408 22.7347C13.8191 23.1805 13.819 23.2697 13.3732 23.448C13.1949 23.9829 13.7299 23.8046 13.6408 24.2503C13.3733 24.3395 13.2841 24.607 12.8383 24.5178C13.2841 25.0527 12.4817 25.3202 12.3925 25.8552C16.1371 31.2937 19.9708 36.554 24.072 41.5467C24.072 41.8142 23.6262 41.6359 23.3587 41.725C23.4479 42.7949 24.5178 42.884 24.3395 44.3105C23.8937 44.3105 23.8937 43.8648 23.5371 43.7756C23.5371 44.0431 24.072 44.9346 24.072 45.6479C22.8238 44.8455 22.1106 44.3105 20.8624 43.5973C20.5058 44.2214 21.8431 44.6672 21.3973 45.3804C19.9708 44.7563 19.4359 43.3298 18.1877 42.5274C18.7226 43.5973 19.6141 44.2214 20.2382 45.2021C19.7033 45.1129 19.6142 44.4889 18.9901 44.3997C18.6335 44.8455 19.4359 45.0238 19.4359 45.6479C18.9901 45.2913 18.5444 44.8455 18.0986 44.578C17.8311 44.578 18.2768 44.9347 17.9202 45.113C16.9395 44.6672 16.4938 43.6864 15.8697 42.7949C14.354 40.8334 12.4817 39.0503 10.6094 37.4455C10.6094 36.019 6.95396 34.1467 7.66721 33.4334C6.59733 33.2551 6.15161 31.9178 5.61668 31.2937C4.63596 29.9564 3.29859 29.154 3.03112 27.5491C2.49618 27.0142 2.22867 26.2118 1.42626 25.9443C1.69373 25.0528 0.713052 25.1419 1.24799 24.607C1.06968 24.1612 0.802187 24.607 0.445561 24.3395C2.85278 20.3275 5.43832 16.672 8.46963 13.3733C8.38048 12.2142 9.27202 12.1251 9.45033 11.2335C9.80696 11.1444 10.0744 10.8769 10.431 10.6986C10.431 10.5203 10.431 10.342 10.431 10.1636C10.6093 10.0745 10.7877 9.98533 11.1443 9.98533C11.1443 9.09376 11.6792 7.84556 12.6599 7.57809C12.7491 8.02387 12.4817 8.11305 12.3925 8.38052C12.9275 7.75643 13.9973 7.13231 13.9082 6.24075C15.513 5.08171 16.4046 3.20945 17.6528 1.69379C18.0986 1.96126 17.4744 2.31786 17.4744 2.67449C18.6334 1.96124 19.2576 0.713049 20.4166 -0.00020281C21.0407 0.17811 21.3973 0.623903 22.0214 0.178121C22.1997 0.44559 22.378 0.623935 22.2889 1.15887C23.3587 0.802248 23.4479 1.5155 24.4286 1.60466C24.5178 1.87212 24.6961 2.13957 24.6961 2.58535C25.231 2.76367 25.2311 2.3179 25.6769 2.3179C25.5877 3.83355 24.4287 4.2793 24.3395 5.79496C25.2311 5.52749 25.0527 4.19016 26.2118 4.19016C24.6961 5.88413 24.3395 8.82628 22.1997 9.807C22.0214 11.5901 19.5251 12.4817 19.8817 13.9974C19.7925 14.2648 19.2576 15.2455 19.1684 14.7106C19.6142 14.2648 19.525 13.819 19.7033 13.819ZM18.0093 44.3105C18.0093 43.8648 17.6528 43.8648 17.2961 43.7756C17.3853 44.1322 17.6527 44.578 18.0093 44.3105ZM24.4286 5.43837C23.8937 5.61668 23.2696 6.32993 23.4479 6.77572C23.8046 6.32993 24.2503 6.06246 24.4286 5.43837Z" fill="#DBFE00"/>
</svg>
